G04 #@! TF.GenerationSoftware,KiCad,Pcbnew,(5.1.6)-1*
G04 #@! TF.CreationDate,2020-07-09T12:34:34+02:00*
G04 #@! TF.ProjectId,InteractiveGuitar,496e7465-7261-4637-9469-766547756974,rev?*
G04 #@! TF.SameCoordinates,Original*
G04 #@! TF.FileFunction,Legend,Top*
G04 #@! TF.FilePolarity,Positive*
%FSLAX46Y46*%
G04 Gerber Fmt 4.6, Leading zero omitted, Abs format (unit mm)*
G04 Created by KiCad (PCBNEW (5.1.6)-1) date 2020-07-09 12:34:34*
%MOMM*%
%LPD*%
G01*
G04 APERTURE LIST*
%ADD10C,0.300000*%
%ADD11C,0.100000*%
%ADD12C,0.120000*%
%ADD13C,0.010000*%
%ADD14C,0.050000*%
%ADD15C,0.203200*%
%ADD16C,0.150000*%
%ADD17C,0.138988*%
%ADD18C,0.038608*%
G04 APERTURE END LIST*
D10*
X125846642Y-108311071D02*
X125846642Y-106811071D01*
X126560928Y-107311071D02*
X126560928Y-108311071D01*
X126560928Y-107453928D02*
X126632357Y-107382500D01*
X126775214Y-107311071D01*
X126989500Y-107311071D01*
X127132357Y-107382500D01*
X127203785Y-107525357D01*
X127203785Y-108311071D01*
X127703785Y-107311071D02*
X128275214Y-107311071D01*
X127918071Y-106811071D02*
X127918071Y-108096785D01*
X127989500Y-108239642D01*
X128132357Y-108311071D01*
X128275214Y-108311071D01*
X129346642Y-108239642D02*
X129203785Y-108311071D01*
X128918071Y-108311071D01*
X128775214Y-108239642D01*
X128703785Y-108096785D01*
X128703785Y-107525357D01*
X128775214Y-107382500D01*
X128918071Y-107311071D01*
X129203785Y-107311071D01*
X129346642Y-107382500D01*
X129418071Y-107525357D01*
X129418071Y-107668214D01*
X128703785Y-107811071D01*
X130060928Y-108311071D02*
X130060928Y-107311071D01*
X130060928Y-107596785D02*
X130132357Y-107453928D01*
X130203785Y-107382500D01*
X130346642Y-107311071D01*
X130489500Y-107311071D01*
X131632357Y-108311071D02*
X131632357Y-107525357D01*
X131560928Y-107382500D01*
X131418071Y-107311071D01*
X131132357Y-107311071D01*
X130989500Y-107382500D01*
X131632357Y-108239642D02*
X131489500Y-108311071D01*
X131132357Y-108311071D01*
X130989500Y-108239642D01*
X130918071Y-108096785D01*
X130918071Y-107953928D01*
X130989500Y-107811071D01*
X131132357Y-107739642D01*
X131489500Y-107739642D01*
X131632357Y-107668214D01*
X132989500Y-108239642D02*
X132846642Y-108311071D01*
X132560928Y-108311071D01*
X132418071Y-108239642D01*
X132346642Y-108168214D01*
X132275214Y-108025357D01*
X132275214Y-107596785D01*
X132346642Y-107453928D01*
X132418071Y-107382500D01*
X132560928Y-107311071D01*
X132846642Y-107311071D01*
X132989500Y-107382500D01*
X133418071Y-107311071D02*
X133989500Y-107311071D01*
X133632357Y-106811071D02*
X133632357Y-108096785D01*
X133703785Y-108239642D01*
X133846642Y-108311071D01*
X133989500Y-108311071D01*
X134489500Y-108311071D02*
X134489500Y-107311071D01*
X134489500Y-106811071D02*
X134418071Y-106882500D01*
X134489500Y-106953928D01*
X134560928Y-106882500D01*
X134489500Y-106811071D01*
X134489500Y-106953928D01*
X135060928Y-107311071D02*
X135418071Y-108311071D01*
X135775214Y-107311071D01*
X136918071Y-108239642D02*
X136775214Y-108311071D01*
X136489500Y-108311071D01*
X136346642Y-108239642D01*
X136275214Y-108096785D01*
X136275214Y-107525357D01*
X136346642Y-107382500D01*
X136489500Y-107311071D01*
X136775214Y-107311071D01*
X136918071Y-107382500D01*
X136989500Y-107525357D01*
X136989500Y-107668214D01*
X136275214Y-107811071D01*
X139560928Y-106882500D02*
X139418071Y-106811071D01*
X139203785Y-106811071D01*
X138989500Y-106882500D01*
X138846642Y-107025357D01*
X138775214Y-107168214D01*
X138703785Y-107453928D01*
X138703785Y-107668214D01*
X138775214Y-107953928D01*
X138846642Y-108096785D01*
X138989500Y-108239642D01*
X139203785Y-108311071D01*
X139346642Y-108311071D01*
X139560928Y-108239642D01*
X139632357Y-108168214D01*
X139632357Y-107668214D01*
X139346642Y-107668214D01*
X140918071Y-107311071D02*
X140918071Y-108311071D01*
X140275214Y-107311071D02*
X140275214Y-108096785D01*
X140346642Y-108239642D01*
X140489500Y-108311071D01*
X140703785Y-108311071D01*
X140846642Y-108239642D01*
X140918071Y-108168214D01*
X141632357Y-108311071D02*
X141632357Y-107311071D01*
X141632357Y-106811071D02*
X141560928Y-106882500D01*
X141632357Y-106953928D01*
X141703785Y-106882500D01*
X141632357Y-106811071D01*
X141632357Y-106953928D01*
X142132357Y-107311071D02*
X142703785Y-107311071D01*
X142346642Y-106811071D02*
X142346642Y-108096785D01*
X142418071Y-108239642D01*
X142560928Y-108311071D01*
X142703785Y-108311071D01*
X143846642Y-108311071D02*
X143846642Y-107525357D01*
X143775214Y-107382500D01*
X143632357Y-107311071D01*
X143346642Y-107311071D01*
X143203785Y-107382500D01*
X143846642Y-108239642D02*
X143703785Y-108311071D01*
X143346642Y-108311071D01*
X143203785Y-108239642D01*
X143132357Y-108096785D01*
X143132357Y-107953928D01*
X143203785Y-107811071D01*
X143346642Y-107739642D01*
X143703785Y-107739642D01*
X143846642Y-107668214D01*
X144560928Y-108311071D02*
X144560928Y-107311071D01*
X144560928Y-107596785D02*
X144632357Y-107453928D01*
X144703785Y-107382500D01*
X144846642Y-107311071D01*
X144989500Y-107311071D01*
X146489500Y-107311071D02*
X146846642Y-108311071D01*
X147203785Y-107311071D01*
X148560928Y-108311071D02*
X147703785Y-108311071D01*
X148132357Y-108311071D02*
X148132357Y-106811071D01*
X147989500Y-107025357D01*
X147846642Y-107168214D01*
X147703785Y-107239642D01*
X149203785Y-108168214D02*
X149275214Y-108239642D01*
X149203785Y-108311071D01*
X149132357Y-108239642D01*
X149203785Y-108168214D01*
X149203785Y-108311071D01*
X150203785Y-106811071D02*
X150346642Y-106811071D01*
X150489500Y-106882500D01*
X150560928Y-106953928D01*
X150632357Y-107096785D01*
X150703785Y-107382500D01*
X150703785Y-107739642D01*
X150632357Y-108025357D01*
X150560928Y-108168214D01*
X150489500Y-108239642D01*
X150346642Y-108311071D01*
X150203785Y-108311071D01*
X150060928Y-108239642D01*
X149989500Y-108168214D01*
X149918071Y-108025357D01*
X149846642Y-107739642D01*
X149846642Y-107382500D01*
X149918071Y-107096785D01*
X149989500Y-106953928D01*
X150060928Y-106882500D01*
X150203785Y-106811071D01*
D11*
X163442900Y-101990400D02*
G75*
G03*
X163442900Y-99990400I0J1000000D01*
G01*
X167442900Y-99990400D02*
G75*
G03*
X167442900Y-101990400I0J-1000000D01*
G01*
X126511300Y-101990400D02*
G75*
G03*
X126511300Y-99990400I0J1000000D01*
G01*
X130511300Y-99990400D02*
G75*
G03*
X130511300Y-101990400I0J-1000000D01*
G01*
D12*
X159706000Y-108073500D02*
X159706000Y-106743500D01*
X161036000Y-108073500D02*
X159706000Y-108073500D01*
X162306000Y-108073500D02*
X162306000Y-105413500D01*
X162306000Y-105413500D02*
X164906000Y-105413500D01*
X162306000Y-108073500D02*
X164906000Y-108073500D01*
X164906000Y-108073500D02*
X164906000Y-105413500D01*
X153118500Y-113285500D02*
X153118500Y-116735500D01*
X153118500Y-113285500D02*
X153118500Y-111335500D01*
X163238500Y-113285500D02*
X163238500Y-115235500D01*
X163238500Y-113285500D02*
X163238500Y-111335500D01*
X133552000Y-75506078D02*
X133552000Y-74988922D01*
X132132000Y-75506078D02*
X132132000Y-74988922D01*
X135584000Y-75491078D02*
X135584000Y-74973922D01*
X134164000Y-75491078D02*
X134164000Y-74973922D01*
X139506000Y-120820000D02*
X124146000Y-120820000D01*
X124146000Y-120820000D02*
X124146000Y-123480000D01*
X124146000Y-123480000D02*
X139506000Y-123480000D01*
X139506000Y-123480000D02*
X139506000Y-120820000D01*
X138556000Y-123480000D02*
X138556000Y-129480000D01*
X138556000Y-129480000D02*
X137796000Y-129480000D01*
X137796000Y-129480000D02*
X137796000Y-123480000D01*
X138496000Y-123480000D02*
X138496000Y-129480000D01*
X138376000Y-123480000D02*
X138376000Y-129480000D01*
X138256000Y-123480000D02*
X138256000Y-129480000D01*
X138136000Y-123480000D02*
X138136000Y-129480000D01*
X138016000Y-123480000D02*
X138016000Y-129480000D01*
X137896000Y-123480000D02*
X137896000Y-129480000D01*
X138556000Y-120422929D02*
X138556000Y-120820000D01*
X137796000Y-120422929D02*
X137796000Y-120820000D01*
X138556000Y-117950000D02*
X138556000Y-118337071D01*
X137796000Y-117950000D02*
X137796000Y-118337071D01*
X136906000Y-120820000D02*
X136906000Y-123480000D01*
X136016000Y-123480000D02*
X136016000Y-129480000D01*
X136016000Y-129480000D02*
X135256000Y-129480000D01*
X135256000Y-129480000D02*
X135256000Y-123480000D01*
X136016000Y-120422929D02*
X136016000Y-120820000D01*
X135256000Y-120422929D02*
X135256000Y-120820000D01*
X136016000Y-117882929D02*
X136016000Y-118337071D01*
X135256000Y-117882929D02*
X135256000Y-118337071D01*
X134366000Y-120820000D02*
X134366000Y-123480000D01*
X133476000Y-123480000D02*
X133476000Y-129480000D01*
X133476000Y-129480000D02*
X132716000Y-129480000D01*
X132716000Y-129480000D02*
X132716000Y-123480000D01*
X133476000Y-120422929D02*
X133476000Y-120820000D01*
X132716000Y-120422929D02*
X132716000Y-120820000D01*
X133476000Y-117882929D02*
X133476000Y-118337071D01*
X132716000Y-117882929D02*
X132716000Y-118337071D01*
X131826000Y-120820000D02*
X131826000Y-123480000D01*
X130936000Y-123480000D02*
X130936000Y-129480000D01*
X130936000Y-129480000D02*
X130176000Y-129480000D01*
X130176000Y-129480000D02*
X130176000Y-123480000D01*
X130936000Y-120422929D02*
X130936000Y-120820000D01*
X130176000Y-120422929D02*
X130176000Y-120820000D01*
X130936000Y-117882929D02*
X130936000Y-118337071D01*
X130176000Y-117882929D02*
X130176000Y-118337071D01*
X129286000Y-120820000D02*
X129286000Y-123480000D01*
X128396000Y-123480000D02*
X128396000Y-129480000D01*
X128396000Y-129480000D02*
X127636000Y-129480000D01*
X127636000Y-129480000D02*
X127636000Y-123480000D01*
X128396000Y-120422929D02*
X128396000Y-120820000D01*
X127636000Y-120422929D02*
X127636000Y-120820000D01*
X128396000Y-117882929D02*
X128396000Y-118337071D01*
X127636000Y-117882929D02*
X127636000Y-118337071D01*
X126746000Y-120820000D02*
X126746000Y-123480000D01*
X125856000Y-123480000D02*
X125856000Y-129480000D01*
X125856000Y-129480000D02*
X125096000Y-129480000D01*
X125096000Y-129480000D02*
X125096000Y-123480000D01*
X125856000Y-120422929D02*
X125856000Y-120820000D01*
X125096000Y-120422929D02*
X125096000Y-120820000D01*
X125856000Y-117882929D02*
X125856000Y-118337071D01*
X125096000Y-117882929D02*
X125096000Y-118337071D01*
X138176000Y-115570000D02*
X139446000Y-115570000D01*
X139446000Y-115570000D02*
X139446000Y-116840000D01*
X143647500Y-124322500D02*
X143647500Y-121422500D01*
X146547500Y-124322500D02*
X143647500Y-124322500D01*
X146547500Y-121422500D02*
X146547500Y-124322500D01*
X143647500Y-121422500D02*
X146547500Y-121422500D01*
X156601500Y-121274500D02*
X156601500Y-118374500D01*
X159501500Y-121274500D02*
X156601500Y-121274500D01*
X159501500Y-118374500D02*
X159501500Y-121274500D01*
X156601500Y-118374500D02*
X159501500Y-118374500D01*
X161858000Y-122304500D02*
X161858000Y-123634500D01*
X160528000Y-122304500D02*
X161858000Y-122304500D01*
X159258000Y-122304500D02*
X159258000Y-124964500D01*
X159258000Y-124964500D02*
X154118000Y-124964500D01*
X159258000Y-122304500D02*
X154118000Y-122304500D01*
X154118000Y-122304500D02*
X154118000Y-124964500D01*
X136592000Y-79586000D02*
X144332000Y-79586000D01*
X144332000Y-79586000D02*
X144332000Y-76926000D01*
X144332000Y-76926000D02*
X136592000Y-76926000D01*
X136592000Y-76926000D02*
X136592000Y-79586000D01*
X137542000Y-76926000D02*
X137542000Y-70926000D01*
X137542000Y-70926000D02*
X138302000Y-70926000D01*
X138302000Y-70926000D02*
X138302000Y-76926000D01*
X137602000Y-76926000D02*
X137602000Y-70926000D01*
X137722000Y-76926000D02*
X137722000Y-70926000D01*
X137842000Y-76926000D02*
X137842000Y-70926000D01*
X137962000Y-76926000D02*
X137962000Y-70926000D01*
X138082000Y-76926000D02*
X138082000Y-70926000D01*
X138202000Y-76926000D02*
X138202000Y-70926000D01*
X137542000Y-79916000D02*
X137542000Y-79586000D01*
X138302000Y-79916000D02*
X138302000Y-79586000D01*
X139192000Y-79586000D02*
X139192000Y-76926000D01*
X140082000Y-76926000D02*
X140082000Y-70926000D01*
X140082000Y-70926000D02*
X140842000Y-70926000D01*
X140842000Y-70926000D02*
X140842000Y-76926000D01*
X140082000Y-79983071D02*
X140082000Y-79586000D01*
X140842000Y-79983071D02*
X140842000Y-79586000D01*
X141732000Y-79586000D02*
X141732000Y-76926000D01*
X142622000Y-76926000D02*
X142622000Y-70926000D01*
X142622000Y-70926000D02*
X143382000Y-70926000D01*
X143382000Y-70926000D02*
X143382000Y-76926000D01*
X142622000Y-79983071D02*
X142622000Y-79586000D01*
X143382000Y-79983071D02*
X143382000Y-79586000D01*
X137922000Y-82296000D02*
X136652000Y-82296000D01*
X136652000Y-82296000D02*
X136652000Y-81026000D01*
X129370000Y-93278000D02*
X129370000Y-77918000D01*
X129370000Y-77918000D02*
X126710000Y-77918000D01*
X126710000Y-77918000D02*
X126710000Y-93278000D01*
X126710000Y-93278000D02*
X129370000Y-93278000D01*
X126710000Y-92328000D02*
X120710000Y-92328000D01*
X120710000Y-92328000D02*
X120710000Y-91568000D01*
X120710000Y-91568000D02*
X126710000Y-91568000D01*
X126710000Y-92268000D02*
X120710000Y-92268000D01*
X126710000Y-92148000D02*
X120710000Y-92148000D01*
X126710000Y-92028000D02*
X120710000Y-92028000D01*
X126710000Y-91908000D02*
X120710000Y-91908000D01*
X126710000Y-91788000D02*
X120710000Y-91788000D01*
X126710000Y-91668000D02*
X120710000Y-91668000D01*
X129767071Y-92328000D02*
X129370000Y-92328000D01*
X129767071Y-91568000D02*
X129370000Y-91568000D01*
X132240000Y-92328000D02*
X131852929Y-92328000D01*
X132240000Y-91568000D02*
X131852929Y-91568000D01*
X129370000Y-90678000D02*
X126710000Y-90678000D01*
X126710000Y-89788000D02*
X120710000Y-89788000D01*
X120710000Y-89788000D02*
X120710000Y-89028000D01*
X120710000Y-89028000D02*
X126710000Y-89028000D01*
X129767071Y-89788000D02*
X129370000Y-89788000D01*
X129767071Y-89028000D02*
X129370000Y-89028000D01*
X132307071Y-89788000D02*
X131852929Y-89788000D01*
X132307071Y-89028000D02*
X131852929Y-89028000D01*
X129370000Y-88138000D02*
X126710000Y-88138000D01*
X126710000Y-87248000D02*
X120710000Y-87248000D01*
X120710000Y-87248000D02*
X120710000Y-86488000D01*
X120710000Y-86488000D02*
X126710000Y-86488000D01*
X129767071Y-87248000D02*
X129370000Y-87248000D01*
X129767071Y-86488000D02*
X129370000Y-86488000D01*
X132307071Y-87248000D02*
X131852929Y-87248000D01*
X132307071Y-86488000D02*
X131852929Y-86488000D01*
X129370000Y-85598000D02*
X126710000Y-85598000D01*
X126710000Y-84708000D02*
X120710000Y-84708000D01*
X120710000Y-84708000D02*
X120710000Y-83948000D01*
X120710000Y-83948000D02*
X126710000Y-83948000D01*
X129767071Y-84708000D02*
X129370000Y-84708000D01*
X129767071Y-83948000D02*
X129370000Y-83948000D01*
X132307071Y-84708000D02*
X131852929Y-84708000D01*
X132307071Y-83948000D02*
X131852929Y-83948000D01*
X129370000Y-83058000D02*
X126710000Y-83058000D01*
X126710000Y-82168000D02*
X120710000Y-82168000D01*
X120710000Y-82168000D02*
X120710000Y-81408000D01*
X120710000Y-81408000D02*
X126710000Y-81408000D01*
X129767071Y-82168000D02*
X129370000Y-82168000D01*
X129767071Y-81408000D02*
X129370000Y-81408000D01*
X132307071Y-82168000D02*
X131852929Y-82168000D01*
X132307071Y-81408000D02*
X131852929Y-81408000D01*
X129370000Y-80518000D02*
X126710000Y-80518000D01*
X126710000Y-79628000D02*
X120710000Y-79628000D01*
X120710000Y-79628000D02*
X120710000Y-78868000D01*
X120710000Y-78868000D02*
X126710000Y-78868000D01*
X129767071Y-79628000D02*
X129370000Y-79628000D01*
X129767071Y-78868000D02*
X129370000Y-78868000D01*
X132307071Y-79628000D02*
X131852929Y-79628000D01*
X132307071Y-78868000D02*
X131852929Y-78868000D01*
X134620000Y-91948000D02*
X134620000Y-93218000D01*
X134620000Y-93218000D02*
X133350000Y-93218000D01*
X169739000Y-103127500D02*
X171069000Y-103127500D01*
X169739000Y-104457500D02*
X169739000Y-103127500D01*
X169739000Y-105727500D02*
X172399000Y-105727500D01*
X172399000Y-105727500D02*
X172399000Y-115947500D01*
X169739000Y-105727500D02*
X169739000Y-115947500D01*
X169739000Y-115947500D02*
X172399000Y-115947500D01*
X158794000Y-79408000D02*
X152694000Y-79408000D01*
X158794000Y-78308000D02*
X158794000Y-79408000D01*
X152694000Y-74008000D02*
X157694000Y-74008000D01*
X149356578Y-79450000D02*
X148839422Y-79450000D01*
X149356578Y-78030000D02*
X148839422Y-78030000D01*
X149356578Y-77418000D02*
X148839422Y-77418000D01*
X149356578Y-75998000D02*
X148839422Y-75998000D01*
X149356578Y-75374000D02*
X148839422Y-75374000D01*
X149356578Y-73954000D02*
X148839422Y-73954000D01*
X137212000Y-85348578D02*
X137212000Y-84831422D01*
X138632000Y-85348578D02*
X138632000Y-84831422D01*
X139244000Y-85348578D02*
X139244000Y-84831422D01*
X140664000Y-85348578D02*
X140664000Y-84831422D01*
X141276000Y-85348578D02*
X141276000Y-84831422D01*
X142696000Y-85348578D02*
X142696000Y-84831422D01*
X140680578Y-95002000D02*
X140163422Y-95002000D01*
X140680578Y-93582000D02*
X140163422Y-93582000D01*
D11*
X148964400Y-100003100D02*
G75*
G03*
X148964400Y-102003100I0J-1000000D01*
G01*
X144964400Y-102003100D02*
G75*
G03*
X144964400Y-100003100I0J1000000D01*
G01*
D13*
G36*
X162814724Y-79763989D02*
G01*
X162888265Y-79831155D01*
X162931929Y-79920385D01*
X162935610Y-80021596D01*
X162889204Y-80124707D01*
X162869562Y-80148538D01*
X162772454Y-80226740D01*
X162670064Y-80245285D01*
X162569043Y-80216869D01*
X162476958Y-80147194D01*
X162430317Y-80048288D01*
X162431297Y-79937398D01*
X162482076Y-79831770D01*
X162515889Y-79795687D01*
X162618430Y-79736173D01*
X162721410Y-79728968D01*
X162814724Y-79763989D01*
G37*
X162814724Y-79763989D02*
X162888265Y-79831155D01*
X162931929Y-79920385D01*
X162935610Y-80021596D01*
X162889204Y-80124707D01*
X162869562Y-80148538D01*
X162772454Y-80226740D01*
X162670064Y-80245285D01*
X162569043Y-80216869D01*
X162476958Y-80147194D01*
X162430317Y-80048288D01*
X162431297Y-79937398D01*
X162482076Y-79831770D01*
X162515889Y-79795687D01*
X162618430Y-79736173D01*
X162721410Y-79728968D01*
X162814724Y-79763989D01*
G36*
X161064248Y-77767405D02*
G01*
X161074312Y-77801594D01*
X161082207Y-77879461D01*
X161088008Y-78004348D01*
X161091789Y-78179594D01*
X161093625Y-78408539D01*
X161093589Y-78694524D01*
X161091948Y-79013593D01*
X161083625Y-80216375D01*
X160980417Y-80226325D01*
X160903920Y-80224452D01*
X160862320Y-80189714D01*
X160845479Y-80152821D01*
X160837036Y-80098574D01*
X160829656Y-79986642D01*
X160823495Y-79822834D01*
X160818707Y-79612956D01*
X160815448Y-79362819D01*
X160813874Y-79078229D01*
X160813749Y-78967247D01*
X160814079Y-78667343D01*
X160815248Y-78424539D01*
X160817525Y-78232441D01*
X160821181Y-78084651D01*
X160826484Y-77974773D01*
X160833704Y-77896411D01*
X160843112Y-77843169D01*
X160854976Y-77808649D01*
X160863175Y-77794564D01*
X160931937Y-77736001D01*
X161008054Y-77729747D01*
X161064248Y-77767405D01*
G37*
X161064248Y-77767405D02*
X161074312Y-77801594D01*
X161082207Y-77879461D01*
X161088008Y-78004348D01*
X161091789Y-78179594D01*
X161093625Y-78408539D01*
X161093589Y-78694524D01*
X161091948Y-79013593D01*
X161083625Y-80216375D01*
X160980417Y-80226325D01*
X160903920Y-80224452D01*
X160862320Y-80189714D01*
X160845479Y-80152821D01*
X160837036Y-80098574D01*
X160829656Y-79986642D01*
X160823495Y-79822834D01*
X160818707Y-79612956D01*
X160815448Y-79362819D01*
X160813874Y-79078229D01*
X160813749Y-78967247D01*
X160814079Y-78667343D01*
X160815248Y-78424539D01*
X160817525Y-78232441D01*
X160821181Y-78084651D01*
X160826484Y-77974773D01*
X160833704Y-77896411D01*
X160843112Y-77843169D01*
X160854976Y-77808649D01*
X160863175Y-77794564D01*
X160931937Y-77736001D01*
X161008054Y-77729747D01*
X161064248Y-77767405D01*
G36*
X163992846Y-79241310D02*
G01*
X164024229Y-79276471D01*
X164050304Y-79317222D01*
X164067645Y-79371373D01*
X164077924Y-79451620D01*
X164082817Y-79570661D01*
X164084000Y-79729854D01*
X164081336Y-79884111D01*
X164074094Y-80019303D01*
X164063398Y-80120347D01*
X164051132Y-80170837D01*
X163999212Y-80213175D01*
X163919844Y-80233596D01*
X163845020Y-80226543D01*
X163819416Y-80211083D01*
X163811861Y-80173347D01*
X163805497Y-80084038D01*
X163800853Y-79955080D01*
X163798459Y-79798395D01*
X163798250Y-79734152D01*
X163798250Y-79278388D01*
X163881354Y-79240523D01*
X163946424Y-79219985D01*
X163992846Y-79241310D01*
G37*
X163992846Y-79241310D02*
X164024229Y-79276471D01*
X164050304Y-79317222D01*
X164067645Y-79371373D01*
X164077924Y-79451620D01*
X164082817Y-79570661D01*
X164084000Y-79729854D01*
X164081336Y-79884111D01*
X164074094Y-80019303D01*
X164063398Y-80120347D01*
X164051132Y-80170837D01*
X163999212Y-80213175D01*
X163919844Y-80233596D01*
X163845020Y-80226543D01*
X163819416Y-80211083D01*
X163811861Y-80173347D01*
X163805497Y-80084038D01*
X163800853Y-79955080D01*
X163798459Y-79798395D01*
X163798250Y-79734152D01*
X163798250Y-79278388D01*
X163881354Y-79240523D01*
X163946424Y-79219985D01*
X163992846Y-79241310D01*
G36*
X164571017Y-75951728D02*
G01*
X164605431Y-75974516D01*
X164629122Y-76022772D01*
X164644024Y-76104900D01*
X164652068Y-76229308D01*
X164655184Y-76404401D01*
X164655500Y-76518443D01*
X164655500Y-77014686D01*
X164863159Y-76971981D01*
X165129441Y-76946373D01*
X165381191Y-76977213D01*
X165613675Y-77058211D01*
X165822159Y-77183077D01*
X166001909Y-77345519D01*
X166148190Y-77539247D01*
X166256268Y-77757969D01*
X166321408Y-77995396D01*
X166338877Y-78245235D01*
X166303940Y-78501197D01*
X166211863Y-78756991D01*
X166209764Y-78761326D01*
X166151867Y-78858835D01*
X166070802Y-78968234D01*
X165977901Y-79077213D01*
X165884500Y-79173463D01*
X165801931Y-79244673D01*
X165741528Y-79278535D01*
X165732441Y-79279750D01*
X165721650Y-79309690D01*
X165712732Y-79392298D01*
X165706409Y-79516750D01*
X165703400Y-79672224D01*
X165703250Y-79717900D01*
X165701653Y-79910487D01*
X165695219Y-80048491D01*
X165681484Y-80140781D01*
X165657985Y-80196229D01*
X165622256Y-80223707D01*
X165571833Y-80232085D01*
X165560375Y-80232250D01*
X165487514Y-80215055D01*
X165455600Y-80194150D01*
X165435896Y-80139484D01*
X165423262Y-80022351D01*
X165417756Y-79843396D01*
X165417500Y-79785248D01*
X165417500Y-79414447D01*
X165267287Y-79446485D01*
X165058831Y-79461602D01*
X164833335Y-79427340D01*
X164606172Y-79348921D01*
X164392714Y-79231571D01*
X164217633Y-79089779D01*
X164043526Y-78877020D01*
X163923200Y-78640362D01*
X163856688Y-78388713D01*
X163844025Y-78130982D01*
X163849163Y-78099203D01*
X164125719Y-78099203D01*
X164128982Y-78319656D01*
X164180445Y-78530533D01*
X164275655Y-78724099D01*
X164410159Y-78892622D01*
X164579503Y-79028369D01*
X164779234Y-79123606D01*
X165004899Y-79170600D01*
X165152248Y-79172342D01*
X165261299Y-79162767D01*
X165346059Y-79149855D01*
X165382435Y-79138923D01*
X165396220Y-79100281D01*
X165406524Y-79002734D01*
X165413414Y-78845021D01*
X165416954Y-78625881D01*
X165417500Y-78470519D01*
X165418167Y-78246070D01*
X165420567Y-78076741D01*
X165425302Y-77954160D01*
X165432969Y-77869958D01*
X165444168Y-77815763D01*
X165459499Y-77783206D01*
X165467392Y-77773892D01*
X165533894Y-77729113D01*
X165598930Y-77741303D01*
X165645187Y-77776545D01*
X165666057Y-77800965D01*
X165681278Y-77837065D01*
X165691722Y-77894226D01*
X165698262Y-77981828D01*
X165701769Y-78109250D01*
X165703114Y-78285873D01*
X165703250Y-78401205D01*
X165703250Y-78973318D01*
X165785646Y-78896346D01*
X165912160Y-78739645D01*
X166008143Y-78540318D01*
X166054457Y-78374875D01*
X166074185Y-78251141D01*
X166073996Y-78147853D01*
X166052714Y-78030700D01*
X166041062Y-77983926D01*
X165951342Y-77748680D01*
X165817719Y-77551056D01*
X165647796Y-77395615D01*
X165449176Y-77286916D01*
X165229462Y-77229519D01*
X164996257Y-77227984D01*
X164835314Y-77260750D01*
X164655500Y-77313023D01*
X164655013Y-77653449D01*
X164653300Y-77819064D01*
X164646959Y-77932560D01*
X164633346Y-78005285D01*
X164609819Y-78048589D01*
X164573737Y-78073821D01*
X164555398Y-78081322D01*
X164479782Y-78085531D01*
X164424079Y-78033672D01*
X164387159Y-77923925D01*
X164369592Y-77782178D01*
X164353559Y-77549375D01*
X164281610Y-77660500D01*
X164175111Y-77876906D01*
X164125719Y-78099203D01*
X163849163Y-78099203D01*
X163885245Y-77876076D01*
X163980382Y-77632903D01*
X164129469Y-77410371D01*
X164210866Y-77322567D01*
X164368119Y-77168375D01*
X164368934Y-76627752D01*
X164371292Y-76398595D01*
X164378688Y-76225562D01*
X164392777Y-76101366D01*
X164415218Y-76018719D01*
X164447667Y-75970335D01*
X164491780Y-75948928D01*
X164523950Y-75946000D01*
X164571017Y-75951728D01*
G37*
X164571017Y-75951728D02*
X164605431Y-75974516D01*
X164629122Y-76022772D01*
X164644024Y-76104900D01*
X164652068Y-76229308D01*
X164655184Y-76404401D01*
X164655500Y-76518443D01*
X164655500Y-77014686D01*
X164863159Y-76971981D01*
X165129441Y-76946373D01*
X165381191Y-76977213D01*
X165613675Y-77058211D01*
X165822159Y-77183077D01*
X166001909Y-77345519D01*
X166148190Y-77539247D01*
X166256268Y-77757969D01*
X166321408Y-77995396D01*
X166338877Y-78245235D01*
X166303940Y-78501197D01*
X166211863Y-78756991D01*
X166209764Y-78761326D01*
X166151867Y-78858835D01*
X166070802Y-78968234D01*
X165977901Y-79077213D01*
X165884500Y-79173463D01*
X165801931Y-79244673D01*
X165741528Y-79278535D01*
X165732441Y-79279750D01*
X165721650Y-79309690D01*
X165712732Y-79392298D01*
X165706409Y-79516750D01*
X165703400Y-79672224D01*
X165703250Y-79717900D01*
X165701653Y-79910487D01*
X165695219Y-80048491D01*
X165681484Y-80140781D01*
X165657985Y-80196229D01*
X165622256Y-80223707D01*
X165571833Y-80232085D01*
X165560375Y-80232250D01*
X165487514Y-80215055D01*
X165455600Y-80194150D01*
X165435896Y-80139484D01*
X165423262Y-80022351D01*
X165417756Y-79843396D01*
X165417500Y-79785248D01*
X165417500Y-79414447D01*
X165267287Y-79446485D01*
X165058831Y-79461602D01*
X164833335Y-79427340D01*
X164606172Y-79348921D01*
X164392714Y-79231571D01*
X164217633Y-79089779D01*
X164043526Y-78877020D01*
X163923200Y-78640362D01*
X163856688Y-78388713D01*
X163844025Y-78130982D01*
X163849163Y-78099203D01*
X164125719Y-78099203D01*
X164128982Y-78319656D01*
X164180445Y-78530533D01*
X164275655Y-78724099D01*
X164410159Y-78892622D01*
X164579503Y-79028369D01*
X164779234Y-79123606D01*
X165004899Y-79170600D01*
X165152248Y-79172342D01*
X165261299Y-79162767D01*
X165346059Y-79149855D01*
X165382435Y-79138923D01*
X165396220Y-79100281D01*
X165406524Y-79002734D01*
X165413414Y-78845021D01*
X165416954Y-78625881D01*
X165417500Y-78470519D01*
X165418167Y-78246070D01*
X165420567Y-78076741D01*
X165425302Y-77954160D01*
X165432969Y-77869958D01*
X165444168Y-77815763D01*
X165459499Y-77783206D01*
X165467392Y-77773892D01*
X165533894Y-77729113D01*
X165598930Y-77741303D01*
X165645187Y-77776545D01*
X165666057Y-77800965D01*
X165681278Y-77837065D01*
X165691722Y-77894226D01*
X165698262Y-77981828D01*
X165701769Y-78109250D01*
X165703114Y-78285873D01*
X165703250Y-78401205D01*
X165703250Y-78973318D01*
X165785646Y-78896346D01*
X165912160Y-78739645D01*
X166008143Y-78540318D01*
X166054457Y-78374875D01*
X166074185Y-78251141D01*
X166073996Y-78147853D01*
X166052714Y-78030700D01*
X166041062Y-77983926D01*
X165951342Y-77748680D01*
X165817719Y-77551056D01*
X165647796Y-77395615D01*
X165449176Y-77286916D01*
X165229462Y-77229519D01*
X164996257Y-77227984D01*
X164835314Y-77260750D01*
X164655500Y-77313023D01*
X164655013Y-77653449D01*
X164653300Y-77819064D01*
X164646959Y-77932560D01*
X164633346Y-78005285D01*
X164609819Y-78048589D01*
X164573737Y-78073821D01*
X164555398Y-78081322D01*
X164479782Y-78085531D01*
X164424079Y-78033672D01*
X164387159Y-77923925D01*
X164369592Y-77782178D01*
X164353559Y-77549375D01*
X164281610Y-77660500D01*
X164175111Y-77876906D01*
X164125719Y-78099203D01*
X163849163Y-78099203D01*
X163885245Y-77876076D01*
X163980382Y-77632903D01*
X164129469Y-77410371D01*
X164210866Y-77322567D01*
X164368119Y-77168375D01*
X164368934Y-76627752D01*
X164371292Y-76398595D01*
X164378688Y-76225562D01*
X164392777Y-76101366D01*
X164415218Y-76018719D01*
X164447667Y-75970335D01*
X164491780Y-75948928D01*
X164523950Y-75946000D01*
X164571017Y-75951728D01*
G36*
X161802096Y-77622060D02*
G01*
X161833479Y-77657221D01*
X161850647Y-77682190D01*
X161864187Y-77714699D01*
X161874525Y-77762007D01*
X161882088Y-77831371D01*
X161887304Y-77930049D01*
X161890600Y-78065299D01*
X161892403Y-78244380D01*
X161893139Y-78474549D01*
X161893250Y-78672952D01*
X161892832Y-78949080D01*
X161891352Y-79168675D01*
X161888471Y-79338704D01*
X161883848Y-79466130D01*
X161877142Y-79557917D01*
X161868016Y-79621030D01*
X161856127Y-79662434D01*
X161843824Y-79685435D01*
X161783832Y-79744547D01*
X161715944Y-79746632D01*
X161663062Y-79721706D01*
X161647635Y-79708588D01*
X161635342Y-79684746D01*
X161625831Y-79643545D01*
X161618752Y-79578352D01*
X161613751Y-79482535D01*
X161610478Y-79349458D01*
X161608579Y-79172490D01*
X161607704Y-78944996D01*
X161607500Y-78674241D01*
X161607500Y-77659138D01*
X161690604Y-77621273D01*
X161755674Y-77600735D01*
X161802096Y-77622060D01*
G37*
X161802096Y-77622060D02*
X161833479Y-77657221D01*
X161850647Y-77682190D01*
X161864187Y-77714699D01*
X161874525Y-77762007D01*
X161882088Y-77831371D01*
X161887304Y-77930049D01*
X161890600Y-78065299D01*
X161892403Y-78244380D01*
X161893139Y-78474549D01*
X161893250Y-78672952D01*
X161892832Y-78949080D01*
X161891352Y-79168675D01*
X161888471Y-79338704D01*
X161883848Y-79466130D01*
X161877142Y-79557917D01*
X161868016Y-79621030D01*
X161856127Y-79662434D01*
X161843824Y-79685435D01*
X161783832Y-79744547D01*
X161715944Y-79746632D01*
X161663062Y-79721706D01*
X161647635Y-79708588D01*
X161635342Y-79684746D01*
X161625831Y-79643545D01*
X161618752Y-79578352D01*
X161613751Y-79482535D01*
X161610478Y-79349458D01*
X161608579Y-79172490D01*
X161607704Y-78944996D01*
X161607500Y-78674241D01*
X161607500Y-77659138D01*
X161690604Y-77621273D01*
X161755674Y-77600735D01*
X161802096Y-77622060D01*
G36*
X163063071Y-78422864D02*
G01*
X163213532Y-78433596D01*
X163332047Y-78450749D01*
X163403168Y-78474232D01*
X163404114Y-78474839D01*
X163508129Y-78576338D01*
X163562245Y-78702067D01*
X163567080Y-78837782D01*
X163523254Y-78969239D01*
X163431384Y-79082192D01*
X163376021Y-79122285D01*
X163323281Y-79149024D01*
X163260180Y-79166937D01*
X163173414Y-79177678D01*
X163049678Y-79182902D01*
X162877500Y-79184262D01*
X162704000Y-79182874D01*
X162580656Y-79177608D01*
X162494164Y-79166810D01*
X162431216Y-79148824D01*
X162378978Y-79122285D01*
X162278904Y-79034440D01*
X162207168Y-78920303D01*
X162179013Y-78804296D01*
X162179000Y-78801937D01*
X162202172Y-78690680D01*
X162261098Y-78577531D01*
X162339893Y-78489886D01*
X162372204Y-78468726D01*
X162450695Y-78445979D01*
X162574474Y-78430111D01*
X162728094Y-78421030D01*
X162896109Y-78418645D01*
X163063071Y-78422864D01*
G37*
X163063071Y-78422864D02*
X163213532Y-78433596D01*
X163332047Y-78450749D01*
X163403168Y-78474232D01*
X163404114Y-78474839D01*
X163508129Y-78576338D01*
X163562245Y-78702067D01*
X163567080Y-78837782D01*
X163523254Y-78969239D01*
X163431384Y-79082192D01*
X163376021Y-79122285D01*
X163323281Y-79149024D01*
X163260180Y-79166937D01*
X163173414Y-79177678D01*
X163049678Y-79182902D01*
X162877500Y-79184262D01*
X162704000Y-79182874D01*
X162580656Y-79177608D01*
X162494164Y-79166810D01*
X162431216Y-79148824D01*
X162378978Y-79122285D01*
X162278904Y-79034440D01*
X162207168Y-78920303D01*
X162179013Y-78804296D01*
X162179000Y-78801937D01*
X162202172Y-78690680D01*
X162261098Y-78577531D01*
X162339893Y-78489886D01*
X162372204Y-78468726D01*
X162450695Y-78445979D01*
X162574474Y-78430111D01*
X162728094Y-78421030D01*
X162896109Y-78418645D01*
X163063071Y-78422864D01*
G36*
X161825372Y-76887848D02*
G01*
X161912005Y-76939035D01*
X162031492Y-77016728D01*
X162174893Y-77115088D01*
X162333266Y-77228279D01*
X162353625Y-77243147D01*
X162548420Y-77388004D01*
X162694357Y-77502890D01*
X162795593Y-77592784D01*
X162856289Y-77662662D01*
X162880602Y-77717503D01*
X162872692Y-77762285D01*
X162836717Y-77801985D01*
X162826821Y-77809533D01*
X162772095Y-77842814D01*
X162747383Y-77851000D01*
X162715500Y-77833371D01*
X162640734Y-77784386D01*
X162531659Y-77709896D01*
X162396850Y-77615752D01*
X162253389Y-77513894D01*
X162057409Y-77373062D01*
X161907550Y-77263415D01*
X161797804Y-77179871D01*
X161722167Y-77117353D01*
X161674631Y-77070781D01*
X161649189Y-77035076D01*
X161639835Y-77005158D01*
X161639250Y-76994565D01*
X161666916Y-76918351D01*
X161736923Y-76873928D01*
X161780537Y-76869004D01*
X161825372Y-76887848D01*
G37*
X161825372Y-76887848D02*
X161912005Y-76939035D01*
X162031492Y-77016728D01*
X162174893Y-77115088D01*
X162333266Y-77228279D01*
X162353625Y-77243147D01*
X162548420Y-77388004D01*
X162694357Y-77502890D01*
X162795593Y-77592784D01*
X162856289Y-77662662D01*
X162880602Y-77717503D01*
X162872692Y-77762285D01*
X162836717Y-77801985D01*
X162826821Y-77809533D01*
X162772095Y-77842814D01*
X162747383Y-77851000D01*
X162715500Y-77833371D01*
X162640734Y-77784386D01*
X162531659Y-77709896D01*
X162396850Y-77615752D01*
X162253389Y-77513894D01*
X162057409Y-77373062D01*
X161907550Y-77263415D01*
X161797804Y-77179871D01*
X161722167Y-77117353D01*
X161674631Y-77070781D01*
X161649189Y-77035076D01*
X161639835Y-77005158D01*
X161639250Y-76994565D01*
X161666916Y-76918351D01*
X161736923Y-76873928D01*
X161780537Y-76869004D01*
X161825372Y-76887848D01*
G36*
X163490780Y-77009929D02*
G01*
X163568432Y-77068171D01*
X163589052Y-77091436D01*
X163642127Y-77168461D01*
X163670012Y-77236144D01*
X163671250Y-77247750D01*
X163651692Y-77308848D01*
X163603260Y-77386295D01*
X163589052Y-77404063D01*
X163487812Y-77483076D01*
X163374416Y-77504028D01*
X163262197Y-77466225D01*
X163209431Y-77423818D01*
X163146281Y-77323340D01*
X163136032Y-77215417D01*
X163172165Y-77114993D01*
X163248159Y-77037009D01*
X163357492Y-76996409D01*
X163397109Y-76993750D01*
X163490780Y-77009929D01*
G37*
X163490780Y-77009929D02*
X163568432Y-77068171D01*
X163589052Y-77091436D01*
X163642127Y-77168461D01*
X163670012Y-77236144D01*
X163671250Y-77247750D01*
X163651692Y-77308848D01*
X163603260Y-77386295D01*
X163589052Y-77404063D01*
X163487812Y-77483076D01*
X163374416Y-77504028D01*
X163262197Y-77466225D01*
X163209431Y-77423818D01*
X163146281Y-77323340D01*
X163136032Y-77215417D01*
X163172165Y-77114993D01*
X163248159Y-77037009D01*
X163357492Y-76996409D01*
X163397109Y-76993750D01*
X163490780Y-77009929D01*
G36*
X161225750Y-74768767D02*
G01*
X161287695Y-74823156D01*
X161305338Y-74847739D01*
X161319511Y-74876399D01*
X161330593Y-74915895D01*
X161338963Y-74972985D01*
X161345002Y-75054428D01*
X161349088Y-75166984D01*
X161351601Y-75317409D01*
X161352920Y-75512462D01*
X161353426Y-75758903D01*
X161353500Y-75995084D01*
X161353500Y-77083355D01*
X161255813Y-77165552D01*
X161161847Y-77228981D01*
X161077511Y-77241337D01*
X160978712Y-77205351D01*
X160965713Y-77198443D01*
X160925057Y-77171945D01*
X160892135Y-77136813D01*
X160866229Y-77086702D01*
X160846621Y-77015269D01*
X160832594Y-76916169D01*
X160823427Y-76783057D01*
X160818405Y-76609590D01*
X160816808Y-76389422D01*
X160817918Y-76116210D01*
X160819735Y-75908825D01*
X160829625Y-74903276D01*
X160906596Y-74821388D01*
X161006573Y-74753719D01*
X161119335Y-74736208D01*
X161225750Y-74768767D01*
G37*
X161225750Y-74768767D02*
X161287695Y-74823156D01*
X161305338Y-74847739D01*
X161319511Y-74876399D01*
X161330593Y-74915895D01*
X161338963Y-74972985D01*
X161345002Y-75054428D01*
X161349088Y-75166984D01*
X161351601Y-75317409D01*
X161352920Y-75512462D01*
X161353426Y-75758903D01*
X161353500Y-75995084D01*
X161353500Y-77083355D01*
X161255813Y-77165552D01*
X161161847Y-77228981D01*
X161077511Y-77241337D01*
X160978712Y-77205351D01*
X160965713Y-77198443D01*
X160925057Y-77171945D01*
X160892135Y-77136813D01*
X160866229Y-77086702D01*
X160846621Y-77015269D01*
X160832594Y-76916169D01*
X160823427Y-76783057D01*
X160818405Y-76609590D01*
X160816808Y-76389422D01*
X160817918Y-76116210D01*
X160819735Y-75908825D01*
X160829625Y-74903276D01*
X160906596Y-74821388D01*
X161006573Y-74753719D01*
X161119335Y-74736208D01*
X161225750Y-74768767D01*
G36*
X163490780Y-76343179D02*
G01*
X163568432Y-76401421D01*
X163589052Y-76424686D01*
X163651564Y-76513244D01*
X163666989Y-76589023D01*
X163638621Y-76677902D01*
X163624799Y-76705729D01*
X163547523Y-76794671D01*
X163443034Y-76836342D01*
X163328813Y-76828581D01*
X163222337Y-76769228D01*
X163209431Y-76757068D01*
X163146281Y-76656590D01*
X163136032Y-76548667D01*
X163172165Y-76448243D01*
X163248159Y-76370259D01*
X163357492Y-76329659D01*
X163397109Y-76327000D01*
X163490780Y-76343179D01*
G37*
X163490780Y-76343179D02*
X163568432Y-76401421D01*
X163589052Y-76424686D01*
X163651564Y-76513244D01*
X163666989Y-76589023D01*
X163638621Y-76677902D01*
X163624799Y-76705729D01*
X163547523Y-76794671D01*
X163443034Y-76836342D01*
X163328813Y-76828581D01*
X163222337Y-76769228D01*
X163209431Y-76757068D01*
X163146281Y-76656590D01*
X163136032Y-76548667D01*
X163172165Y-76448243D01*
X163248159Y-76370259D01*
X163357492Y-76329659D01*
X163397109Y-76327000D01*
X163490780Y-76343179D01*
G36*
X165533258Y-76396626D02*
G01*
X165575989Y-76397485D01*
X165748478Y-76401907D01*
X165868563Y-76407808D01*
X165947341Y-76416954D01*
X165995907Y-76431109D01*
X166025356Y-76452037D01*
X166040329Y-76471347D01*
X166066590Y-76529203D01*
X166049381Y-76583647D01*
X166034404Y-76606285D01*
X166010875Y-76634678D01*
X165979578Y-76654144D01*
X165929229Y-76666357D01*
X165848543Y-76672994D01*
X165726237Y-76675733D01*
X165563495Y-76676250D01*
X165388605Y-76675263D01*
X165265981Y-76671387D01*
X165184406Y-76663250D01*
X165132664Y-76649479D01*
X165099537Y-76628702D01*
X165089045Y-76618187D01*
X165042703Y-76548596D01*
X165052356Y-76489995D01*
X165095614Y-76442093D01*
X165128773Y-76420004D01*
X165177842Y-76405460D01*
X165254095Y-76397414D01*
X165368809Y-76394818D01*
X165533258Y-76396626D01*
G37*
X165533258Y-76396626D02*
X165575989Y-76397485D01*
X165748478Y-76401907D01*
X165868563Y-76407808D01*
X165947341Y-76416954D01*
X165995907Y-76431109D01*
X166025356Y-76452037D01*
X166040329Y-76471347D01*
X166066590Y-76529203D01*
X166049381Y-76583647D01*
X166034404Y-76606285D01*
X166010875Y-76634678D01*
X165979578Y-76654144D01*
X165929229Y-76666357D01*
X165848543Y-76672994D01*
X165726237Y-76675733D01*
X165563495Y-76676250D01*
X165388605Y-76675263D01*
X165265981Y-76671387D01*
X165184406Y-76663250D01*
X165132664Y-76649479D01*
X165099537Y-76628702D01*
X165089045Y-76618187D01*
X165042703Y-76548596D01*
X165052356Y-76489995D01*
X165095614Y-76442093D01*
X165128773Y-76420004D01*
X165177842Y-76405460D01*
X165254095Y-76397414D01*
X165368809Y-76394818D01*
X165533258Y-76396626D01*
G36*
X161916738Y-75755265D02*
G01*
X161995161Y-75817233D01*
X162046675Y-75901908D01*
X162061086Y-75999681D01*
X162028201Y-76100946D01*
X161991066Y-76149643D01*
X161899075Y-76222784D01*
X161798296Y-76243758D01*
X161743070Y-76238569D01*
X161659889Y-76197468D01*
X161589454Y-76115317D01*
X161548440Y-76014442D01*
X161544000Y-75972025D01*
X161571008Y-75871879D01*
X161621931Y-75801681D01*
X161719930Y-75737881D01*
X161821597Y-75725612D01*
X161916738Y-75755265D01*
G37*
X161916738Y-75755265D02*
X161995161Y-75817233D01*
X162046675Y-75901908D01*
X162061086Y-75999681D01*
X162028201Y-76100946D01*
X161991066Y-76149643D01*
X161899075Y-76222784D01*
X161798296Y-76243758D01*
X161743070Y-76238569D01*
X161659889Y-76197468D01*
X161589454Y-76115317D01*
X161548440Y-76014442D01*
X161544000Y-75972025D01*
X161571008Y-75871879D01*
X161621931Y-75801681D01*
X161719930Y-75737881D01*
X161821597Y-75725612D01*
X161916738Y-75755265D01*
G36*
X163067452Y-75852484D02*
G01*
X163205214Y-75859199D01*
X163297111Y-75873158D01*
X163351931Y-75896627D01*
X163378464Y-75931869D01*
X163385497Y-75981151D01*
X163385500Y-75982299D01*
X163370293Y-76043398D01*
X163320097Y-76086974D01*
X163228049Y-76115063D01*
X163087285Y-76129702D01*
X162890942Y-76132930D01*
X162878372Y-76132816D01*
X162727486Y-76130129D01*
X162596412Y-76125637D01*
X162500331Y-76119997D01*
X162456834Y-76114618D01*
X162404713Y-76072735D01*
X162378870Y-75999283D01*
X162386715Y-75923325D01*
X162401592Y-75897962D01*
X162430827Y-75878129D01*
X162486393Y-75864455D01*
X162577929Y-75855979D01*
X162715072Y-75851739D01*
X162875037Y-75850750D01*
X163067452Y-75852484D01*
G37*
X163067452Y-75852484D02*
X163205214Y-75859199D01*
X163297111Y-75873158D01*
X163351931Y-75896627D01*
X163378464Y-75931869D01*
X163385497Y-75981151D01*
X163385500Y-75982299D01*
X163370293Y-76043398D01*
X163320097Y-76086974D01*
X163228049Y-76115063D01*
X163087285Y-76129702D01*
X162890942Y-76132930D01*
X162878372Y-76132816D01*
X162727486Y-76130129D01*
X162596412Y-76125637D01*
X162500331Y-76119997D01*
X162456834Y-76114618D01*
X162404713Y-76072735D01*
X162378870Y-75999283D01*
X162386715Y-75923325D01*
X162401592Y-75897962D01*
X162430827Y-75878129D01*
X162486393Y-75864455D01*
X162577929Y-75855979D01*
X162715072Y-75851739D01*
X162875037Y-75850750D01*
X163067452Y-75852484D01*
G36*
X165610970Y-74744204D02*
G01*
X165742036Y-74746966D01*
X165829448Y-74751882D01*
X165848895Y-74754385D01*
X165951372Y-74795868D01*
X166066375Y-74877052D01*
X166175583Y-74982132D01*
X166260673Y-75095304D01*
X166275845Y-75122646D01*
X166321416Y-75263152D01*
X166337465Y-75429811D01*
X166323418Y-75593992D01*
X166287605Y-75709753D01*
X166189297Y-75855796D01*
X166050783Y-75982166D01*
X165892628Y-76072305D01*
X165801581Y-76101123D01*
X165638776Y-76126601D01*
X165475503Y-76136016D01*
X165328928Y-76129749D01*
X165216222Y-76108183D01*
X165170564Y-76087074D01*
X165111044Y-76017089D01*
X165106652Y-75939188D01*
X165138100Y-75888850D01*
X165191857Y-75868270D01*
X165298517Y-75855141D01*
X165440744Y-75850750D01*
X165640730Y-75841204D01*
X165791170Y-75810132D01*
X165903454Y-75753876D01*
X165982834Y-75676751D01*
X166058085Y-75536340D01*
X166071588Y-75388795D01*
X166031961Y-75258867D01*
X165984450Y-75172816D01*
X165932865Y-75108865D01*
X165867046Y-75063348D01*
X165776831Y-75032599D01*
X165652058Y-75012954D01*
X165482567Y-75000748D01*
X165296235Y-74993500D01*
X164798375Y-74977625D01*
X164798375Y-74755375D01*
X165274625Y-74745978D01*
X165450437Y-74743806D01*
X165610970Y-74744204D01*
G37*
X165610970Y-74744204D02*
X165742036Y-74746966D01*
X165829448Y-74751882D01*
X165848895Y-74754385D01*
X165951372Y-74795868D01*
X166066375Y-74877052D01*
X166175583Y-74982132D01*
X166260673Y-75095304D01*
X166275845Y-75122646D01*
X166321416Y-75263152D01*
X166337465Y-75429811D01*
X166323418Y-75593992D01*
X166287605Y-75709753D01*
X166189297Y-75855796D01*
X166050783Y-75982166D01*
X165892628Y-76072305D01*
X165801581Y-76101123D01*
X165638776Y-76126601D01*
X165475503Y-76136016D01*
X165328928Y-76129749D01*
X165216222Y-76108183D01*
X165170564Y-76087074D01*
X165111044Y-76017089D01*
X165106652Y-75939188D01*
X165138100Y-75888850D01*
X165191857Y-75868270D01*
X165298517Y-75855141D01*
X165440744Y-75850750D01*
X165640730Y-75841204D01*
X165791170Y-75810132D01*
X165903454Y-75753876D01*
X165982834Y-75676751D01*
X166058085Y-75536340D01*
X166071588Y-75388795D01*
X166031961Y-75258867D01*
X165984450Y-75172816D01*
X165932865Y-75108865D01*
X165867046Y-75063348D01*
X165776831Y-75032599D01*
X165652058Y-75012954D01*
X165482567Y-75000748D01*
X165296235Y-74993500D01*
X164798375Y-74977625D01*
X164798375Y-74755375D01*
X165274625Y-74745978D01*
X165450437Y-74743806D01*
X165610970Y-74744204D01*
G36*
X163639027Y-74708486D02*
G01*
X163788256Y-74712913D01*
X163895723Y-74720410D01*
X163917738Y-74723219D01*
X164054566Y-74767739D01*
X164174498Y-74849851D01*
X164260467Y-74955181D01*
X164291961Y-75038417D01*
X164288101Y-75175791D01*
X164234053Y-75309277D01*
X164140240Y-75416060D01*
X164109723Y-75437186D01*
X164075205Y-75456206D01*
X164036242Y-75471021D01*
X163984957Y-75482130D01*
X163913473Y-75490034D01*
X163813914Y-75495233D01*
X163678402Y-75498230D01*
X163499061Y-75499523D01*
X163268013Y-75499615D01*
X163131500Y-75499368D01*
X162899266Y-75497923D01*
X162685440Y-75494804D01*
X162498966Y-75490284D01*
X162348787Y-75484635D01*
X162243847Y-75478130D01*
X162193091Y-75471042D01*
X162192285Y-75470738D01*
X162091229Y-75401348D01*
X162008825Y-75294393D01*
X161961925Y-75174551D01*
X161956868Y-75126001D01*
X161981580Y-74993815D01*
X162046109Y-74868593D01*
X162136435Y-74776050D01*
X162153488Y-74765338D01*
X162204903Y-74753442D01*
X162309289Y-74742354D01*
X162456121Y-74732326D01*
X162634873Y-74723609D01*
X162835019Y-74716454D01*
X163046033Y-74711113D01*
X163257390Y-74707838D01*
X163458563Y-74706878D01*
X163639027Y-74708486D01*
G37*
X163639027Y-74708486D02*
X163788256Y-74712913D01*
X163895723Y-74720410D01*
X163917738Y-74723219D01*
X164054566Y-74767739D01*
X164174498Y-74849851D01*
X164260467Y-74955181D01*
X164291961Y-75038417D01*
X164288101Y-75175791D01*
X164234053Y-75309277D01*
X164140240Y-75416060D01*
X164109723Y-75437186D01*
X164075205Y-75456206D01*
X164036242Y-75471021D01*
X163984957Y-75482130D01*
X163913473Y-75490034D01*
X163813914Y-75495233D01*
X163678402Y-75498230D01*
X163499061Y-75499523D01*
X163268013Y-75499615D01*
X163131500Y-75499368D01*
X162899266Y-75497923D01*
X162685440Y-75494804D01*
X162498966Y-75490284D01*
X162348787Y-75484635D01*
X162243847Y-75478130D01*
X162193091Y-75471042D01*
X162192285Y-75470738D01*
X162091229Y-75401348D01*
X162008825Y-75294393D01*
X161961925Y-75174551D01*
X161956868Y-75126001D01*
X161981580Y-74993815D01*
X162046109Y-74868593D01*
X162136435Y-74776050D01*
X162153488Y-74765338D01*
X162204903Y-74753442D01*
X162309289Y-74742354D01*
X162456121Y-74732326D01*
X162634873Y-74723609D01*
X162835019Y-74716454D01*
X163046033Y-74711113D01*
X163257390Y-74707838D01*
X163458563Y-74706878D01*
X163639027Y-74708486D01*
D11*
X172113967Y-88138000D02*
G75*
G03*
X172113967Y-88138000I-4981967J0D01*
G01*
D13*
G36*
X145288724Y-117609989D02*
G01*
X145362265Y-117677155D01*
X145405929Y-117766385D01*
X145409610Y-117867596D01*
X145363204Y-117970707D01*
X145343562Y-117994538D01*
X145246454Y-118072740D01*
X145144064Y-118091285D01*
X145043043Y-118062869D01*
X144950958Y-117993194D01*
X144904317Y-117894288D01*
X144905297Y-117783398D01*
X144956076Y-117677770D01*
X144989889Y-117641687D01*
X145092430Y-117582173D01*
X145195410Y-117574968D01*
X145288724Y-117609989D01*
G37*
X145288724Y-117609989D02*
X145362265Y-117677155D01*
X145405929Y-117766385D01*
X145409610Y-117867596D01*
X145363204Y-117970707D01*
X145343562Y-117994538D01*
X145246454Y-118072740D01*
X145144064Y-118091285D01*
X145043043Y-118062869D01*
X144950958Y-117993194D01*
X144904317Y-117894288D01*
X144905297Y-117783398D01*
X144956076Y-117677770D01*
X144989889Y-117641687D01*
X145092430Y-117582173D01*
X145195410Y-117574968D01*
X145288724Y-117609989D01*
G36*
X143538248Y-115613405D02*
G01*
X143548312Y-115647594D01*
X143556207Y-115725461D01*
X143562008Y-115850348D01*
X143565789Y-116025594D01*
X143567625Y-116254539D01*
X143567589Y-116540524D01*
X143565948Y-116859593D01*
X143557625Y-118062375D01*
X143454417Y-118072325D01*
X143377920Y-118070452D01*
X143336320Y-118035714D01*
X143319479Y-117998821D01*
X143311036Y-117944574D01*
X143303656Y-117832642D01*
X143297495Y-117668834D01*
X143292707Y-117458956D01*
X143289448Y-117208819D01*
X143287874Y-116924229D01*
X143287749Y-116813247D01*
X143288079Y-116513343D01*
X143289248Y-116270539D01*
X143291525Y-116078441D01*
X143295181Y-115930651D01*
X143300484Y-115820773D01*
X143307704Y-115742411D01*
X143317112Y-115689169D01*
X143328976Y-115654649D01*
X143337175Y-115640564D01*
X143405937Y-115582001D01*
X143482054Y-115575747D01*
X143538248Y-115613405D01*
G37*
X143538248Y-115613405D02*
X143548312Y-115647594D01*
X143556207Y-115725461D01*
X143562008Y-115850348D01*
X143565789Y-116025594D01*
X143567625Y-116254539D01*
X143567589Y-116540524D01*
X143565948Y-116859593D01*
X143557625Y-118062375D01*
X143454417Y-118072325D01*
X143377920Y-118070452D01*
X143336320Y-118035714D01*
X143319479Y-117998821D01*
X143311036Y-117944574D01*
X143303656Y-117832642D01*
X143297495Y-117668834D01*
X143292707Y-117458956D01*
X143289448Y-117208819D01*
X143287874Y-116924229D01*
X143287749Y-116813247D01*
X143288079Y-116513343D01*
X143289248Y-116270539D01*
X143291525Y-116078441D01*
X143295181Y-115930651D01*
X143300484Y-115820773D01*
X143307704Y-115742411D01*
X143317112Y-115689169D01*
X143328976Y-115654649D01*
X143337175Y-115640564D01*
X143405937Y-115582001D01*
X143482054Y-115575747D01*
X143538248Y-115613405D01*
G36*
X146466846Y-117087310D02*
G01*
X146498229Y-117122471D01*
X146524304Y-117163222D01*
X146541645Y-117217373D01*
X146551924Y-117297620D01*
X146556817Y-117416661D01*
X146558000Y-117575854D01*
X146555336Y-117730111D01*
X146548094Y-117865303D01*
X146537398Y-117966347D01*
X146525132Y-118016837D01*
X146473212Y-118059175D01*
X146393844Y-118079596D01*
X146319020Y-118072543D01*
X146293416Y-118057083D01*
X146285861Y-118019347D01*
X146279497Y-117930038D01*
X146274853Y-117801080D01*
X146272459Y-117644395D01*
X146272250Y-117580152D01*
X146272250Y-117124388D01*
X146355354Y-117086523D01*
X146420424Y-117065985D01*
X146466846Y-117087310D01*
G37*
X146466846Y-117087310D02*
X146498229Y-117122471D01*
X146524304Y-117163222D01*
X146541645Y-117217373D01*
X146551924Y-117297620D01*
X146556817Y-117416661D01*
X146558000Y-117575854D01*
X146555336Y-117730111D01*
X146548094Y-117865303D01*
X146537398Y-117966347D01*
X146525132Y-118016837D01*
X146473212Y-118059175D01*
X146393844Y-118079596D01*
X146319020Y-118072543D01*
X146293416Y-118057083D01*
X146285861Y-118019347D01*
X146279497Y-117930038D01*
X146274853Y-117801080D01*
X146272459Y-117644395D01*
X146272250Y-117580152D01*
X146272250Y-117124388D01*
X146355354Y-117086523D01*
X146420424Y-117065985D01*
X146466846Y-117087310D01*
G36*
X147045017Y-113797728D02*
G01*
X147079431Y-113820516D01*
X147103122Y-113868772D01*
X147118024Y-113950900D01*
X147126068Y-114075308D01*
X147129184Y-114250401D01*
X147129500Y-114364443D01*
X147129500Y-114860686D01*
X147337159Y-114817981D01*
X147603441Y-114792373D01*
X147855191Y-114823213D01*
X148087675Y-114904211D01*
X148296159Y-115029077D01*
X148475909Y-115191519D01*
X148622190Y-115385247D01*
X148730268Y-115603969D01*
X148795408Y-115841396D01*
X148812877Y-116091235D01*
X148777940Y-116347197D01*
X148685863Y-116602991D01*
X148683764Y-116607326D01*
X148625867Y-116704835D01*
X148544802Y-116814234D01*
X148451901Y-116923213D01*
X148358500Y-117019463D01*
X148275931Y-117090673D01*
X148215528Y-117124535D01*
X148206441Y-117125750D01*
X148195650Y-117155690D01*
X148186732Y-117238298D01*
X148180409Y-117362750D01*
X148177400Y-117518224D01*
X148177250Y-117563900D01*
X148175653Y-117756487D01*
X148169219Y-117894491D01*
X148155484Y-117986781D01*
X148131985Y-118042229D01*
X148096256Y-118069707D01*
X148045833Y-118078085D01*
X148034375Y-118078250D01*
X147961514Y-118061055D01*
X147929600Y-118040150D01*
X147909896Y-117985484D01*
X147897262Y-117868351D01*
X147891756Y-117689396D01*
X147891500Y-117631248D01*
X147891500Y-117260447D01*
X147741287Y-117292485D01*
X147532831Y-117307602D01*
X147307335Y-117273340D01*
X147080172Y-117194921D01*
X146866714Y-117077571D01*
X146691633Y-116935779D01*
X146517526Y-116723020D01*
X146397200Y-116486362D01*
X146330688Y-116234713D01*
X146318025Y-115976982D01*
X146323163Y-115945203D01*
X146599719Y-115945203D01*
X146602982Y-116165656D01*
X146654445Y-116376533D01*
X146749655Y-116570099D01*
X146884159Y-116738622D01*
X147053503Y-116874369D01*
X147253234Y-116969606D01*
X147478899Y-117016600D01*
X147626248Y-117018342D01*
X147735299Y-117008767D01*
X147820059Y-116995855D01*
X147856435Y-116984923D01*
X147870220Y-116946281D01*
X147880524Y-116848734D01*
X147887414Y-116691021D01*
X147890954Y-116471881D01*
X147891500Y-116316519D01*
X147892167Y-116092070D01*
X147894567Y-115922741D01*
X147899302Y-115800160D01*
X147906969Y-115715958D01*
X147918168Y-115661763D01*
X147933499Y-115629206D01*
X147941392Y-115619892D01*
X148007894Y-115575113D01*
X148072930Y-115587303D01*
X148119187Y-115622545D01*
X148140057Y-115646965D01*
X148155278Y-115683065D01*
X148165722Y-115740226D01*
X148172262Y-115827828D01*
X148175769Y-115955250D01*
X148177114Y-116131873D01*
X148177250Y-116247205D01*
X148177250Y-116819318D01*
X148259646Y-116742346D01*
X148386160Y-116585645D01*
X148482143Y-116386318D01*
X148528457Y-116220875D01*
X148548185Y-116097141D01*
X148547996Y-115993853D01*
X148526714Y-115876700D01*
X148515062Y-115829926D01*
X148425342Y-115594680D01*
X148291719Y-115397056D01*
X148121796Y-115241615D01*
X147923176Y-115132916D01*
X147703462Y-115075519D01*
X147470257Y-115073984D01*
X147309314Y-115106750D01*
X147129500Y-115159023D01*
X147129013Y-115499449D01*
X147127300Y-115665064D01*
X147120959Y-115778560D01*
X147107346Y-115851285D01*
X147083819Y-115894589D01*
X147047737Y-115919821D01*
X147029398Y-115927322D01*
X146953782Y-115931531D01*
X146898079Y-115879672D01*
X146861159Y-115769925D01*
X146843592Y-115628178D01*
X146827559Y-115395375D01*
X146755610Y-115506500D01*
X146649111Y-115722906D01*
X146599719Y-115945203D01*
X146323163Y-115945203D01*
X146359245Y-115722076D01*
X146454382Y-115478903D01*
X146603469Y-115256371D01*
X146684866Y-115168567D01*
X146842119Y-115014375D01*
X146842934Y-114473752D01*
X146845292Y-114244595D01*
X146852688Y-114071562D01*
X146866777Y-113947366D01*
X146889218Y-113864719D01*
X146921667Y-113816335D01*
X146965780Y-113794928D01*
X146997950Y-113792000D01*
X147045017Y-113797728D01*
G37*
X147045017Y-113797728D02*
X147079431Y-113820516D01*
X147103122Y-113868772D01*
X147118024Y-113950900D01*
X147126068Y-114075308D01*
X147129184Y-114250401D01*
X147129500Y-114364443D01*
X147129500Y-114860686D01*
X147337159Y-114817981D01*
X147603441Y-114792373D01*
X147855191Y-114823213D01*
X148087675Y-114904211D01*
X148296159Y-115029077D01*
X148475909Y-115191519D01*
X148622190Y-115385247D01*
X148730268Y-115603969D01*
X148795408Y-115841396D01*
X148812877Y-116091235D01*
X148777940Y-116347197D01*
X148685863Y-116602991D01*
X148683764Y-116607326D01*
X148625867Y-116704835D01*
X148544802Y-116814234D01*
X148451901Y-116923213D01*
X148358500Y-117019463D01*
X148275931Y-117090673D01*
X148215528Y-117124535D01*
X148206441Y-117125750D01*
X148195650Y-117155690D01*
X148186732Y-117238298D01*
X148180409Y-117362750D01*
X148177400Y-117518224D01*
X148177250Y-117563900D01*
X148175653Y-117756487D01*
X148169219Y-117894491D01*
X148155484Y-117986781D01*
X148131985Y-118042229D01*
X148096256Y-118069707D01*
X148045833Y-118078085D01*
X148034375Y-118078250D01*
X147961514Y-118061055D01*
X147929600Y-118040150D01*
X147909896Y-117985484D01*
X147897262Y-117868351D01*
X147891756Y-117689396D01*
X147891500Y-117631248D01*
X147891500Y-117260447D01*
X147741287Y-117292485D01*
X147532831Y-117307602D01*
X147307335Y-117273340D01*
X147080172Y-117194921D01*
X146866714Y-117077571D01*
X146691633Y-116935779D01*
X146517526Y-116723020D01*
X146397200Y-116486362D01*
X146330688Y-116234713D01*
X146318025Y-115976982D01*
X146323163Y-115945203D01*
X146599719Y-115945203D01*
X146602982Y-116165656D01*
X146654445Y-116376533D01*
X146749655Y-116570099D01*
X146884159Y-116738622D01*
X147053503Y-116874369D01*
X147253234Y-116969606D01*
X147478899Y-117016600D01*
X147626248Y-117018342D01*
X147735299Y-117008767D01*
X147820059Y-116995855D01*
X147856435Y-116984923D01*
X147870220Y-116946281D01*
X147880524Y-116848734D01*
X147887414Y-116691021D01*
X147890954Y-116471881D01*
X147891500Y-116316519D01*
X147892167Y-116092070D01*
X147894567Y-115922741D01*
X147899302Y-115800160D01*
X147906969Y-115715958D01*
X147918168Y-115661763D01*
X147933499Y-115629206D01*
X147941392Y-115619892D01*
X148007894Y-115575113D01*
X148072930Y-115587303D01*
X148119187Y-115622545D01*
X148140057Y-115646965D01*
X148155278Y-115683065D01*
X148165722Y-115740226D01*
X148172262Y-115827828D01*
X148175769Y-115955250D01*
X148177114Y-116131873D01*
X148177250Y-116247205D01*
X148177250Y-116819318D01*
X148259646Y-116742346D01*
X148386160Y-116585645D01*
X148482143Y-116386318D01*
X148528457Y-116220875D01*
X148548185Y-116097141D01*
X148547996Y-115993853D01*
X148526714Y-115876700D01*
X148515062Y-115829926D01*
X148425342Y-115594680D01*
X148291719Y-115397056D01*
X148121796Y-115241615D01*
X147923176Y-115132916D01*
X147703462Y-115075519D01*
X147470257Y-115073984D01*
X147309314Y-115106750D01*
X147129500Y-115159023D01*
X147129013Y-115499449D01*
X147127300Y-115665064D01*
X147120959Y-115778560D01*
X147107346Y-115851285D01*
X147083819Y-115894589D01*
X147047737Y-115919821D01*
X147029398Y-115927322D01*
X146953782Y-115931531D01*
X146898079Y-115879672D01*
X146861159Y-115769925D01*
X146843592Y-115628178D01*
X146827559Y-115395375D01*
X146755610Y-115506500D01*
X146649111Y-115722906D01*
X146599719Y-115945203D01*
X146323163Y-115945203D01*
X146359245Y-115722076D01*
X146454382Y-115478903D01*
X146603469Y-115256371D01*
X146684866Y-115168567D01*
X146842119Y-115014375D01*
X146842934Y-114473752D01*
X146845292Y-114244595D01*
X146852688Y-114071562D01*
X146866777Y-113947366D01*
X146889218Y-113864719D01*
X146921667Y-113816335D01*
X146965780Y-113794928D01*
X146997950Y-113792000D01*
X147045017Y-113797728D01*
G36*
X144276096Y-115468060D02*
G01*
X144307479Y-115503221D01*
X144324647Y-115528190D01*
X144338187Y-115560699D01*
X144348525Y-115608007D01*
X144356088Y-115677371D01*
X144361304Y-115776049D01*
X144364600Y-115911299D01*
X144366403Y-116090380D01*
X144367139Y-116320549D01*
X144367250Y-116518952D01*
X144366832Y-116795080D01*
X144365352Y-117014675D01*
X144362471Y-117184704D01*
X144357848Y-117312130D01*
X144351142Y-117403917D01*
X144342016Y-117467030D01*
X144330127Y-117508434D01*
X144317824Y-117531435D01*
X144257832Y-117590547D01*
X144189944Y-117592632D01*
X144137062Y-117567706D01*
X144121635Y-117554588D01*
X144109342Y-117530746D01*
X144099831Y-117489545D01*
X144092752Y-117424352D01*
X144087751Y-117328535D01*
X144084478Y-117195458D01*
X144082579Y-117018490D01*
X144081704Y-116790996D01*
X144081500Y-116520241D01*
X144081500Y-115505138D01*
X144164604Y-115467273D01*
X144229674Y-115446735D01*
X144276096Y-115468060D01*
G37*
X144276096Y-115468060D02*
X144307479Y-115503221D01*
X144324647Y-115528190D01*
X144338187Y-115560699D01*
X144348525Y-115608007D01*
X144356088Y-115677371D01*
X144361304Y-115776049D01*
X144364600Y-115911299D01*
X144366403Y-116090380D01*
X144367139Y-116320549D01*
X144367250Y-116518952D01*
X144366832Y-116795080D01*
X144365352Y-117014675D01*
X144362471Y-117184704D01*
X144357848Y-117312130D01*
X144351142Y-117403917D01*
X144342016Y-117467030D01*
X144330127Y-117508434D01*
X144317824Y-117531435D01*
X144257832Y-117590547D01*
X144189944Y-117592632D01*
X144137062Y-117567706D01*
X144121635Y-117554588D01*
X144109342Y-117530746D01*
X144099831Y-117489545D01*
X144092752Y-117424352D01*
X144087751Y-117328535D01*
X144084478Y-117195458D01*
X144082579Y-117018490D01*
X144081704Y-116790996D01*
X144081500Y-116520241D01*
X144081500Y-115505138D01*
X144164604Y-115467273D01*
X144229674Y-115446735D01*
X144276096Y-115468060D01*
G36*
X145537071Y-116268864D02*
G01*
X145687532Y-116279596D01*
X145806047Y-116296749D01*
X145877168Y-116320232D01*
X145878114Y-116320839D01*
X145982129Y-116422338D01*
X146036245Y-116548067D01*
X146041080Y-116683782D01*
X145997254Y-116815239D01*
X145905384Y-116928192D01*
X145850021Y-116968285D01*
X145797281Y-116995024D01*
X145734180Y-117012937D01*
X145647414Y-117023678D01*
X145523678Y-117028902D01*
X145351500Y-117030262D01*
X145178000Y-117028874D01*
X145054656Y-117023608D01*
X144968164Y-117012810D01*
X144905216Y-116994824D01*
X144852978Y-116968285D01*
X144752904Y-116880440D01*
X144681168Y-116766303D01*
X144653013Y-116650296D01*
X144653000Y-116647937D01*
X144676172Y-116536680D01*
X144735098Y-116423531D01*
X144813893Y-116335886D01*
X144846204Y-116314726D01*
X144924695Y-116291979D01*
X145048474Y-116276111D01*
X145202094Y-116267030D01*
X145370109Y-116264645D01*
X145537071Y-116268864D01*
G37*
X145537071Y-116268864D02*
X145687532Y-116279596D01*
X145806047Y-116296749D01*
X145877168Y-116320232D01*
X145878114Y-116320839D01*
X145982129Y-116422338D01*
X146036245Y-116548067D01*
X146041080Y-116683782D01*
X145997254Y-116815239D01*
X145905384Y-116928192D01*
X145850021Y-116968285D01*
X145797281Y-116995024D01*
X145734180Y-117012937D01*
X145647414Y-117023678D01*
X145523678Y-117028902D01*
X145351500Y-117030262D01*
X145178000Y-117028874D01*
X145054656Y-117023608D01*
X144968164Y-117012810D01*
X144905216Y-116994824D01*
X144852978Y-116968285D01*
X144752904Y-116880440D01*
X144681168Y-116766303D01*
X144653013Y-116650296D01*
X144653000Y-116647937D01*
X144676172Y-116536680D01*
X144735098Y-116423531D01*
X144813893Y-116335886D01*
X144846204Y-116314726D01*
X144924695Y-116291979D01*
X145048474Y-116276111D01*
X145202094Y-116267030D01*
X145370109Y-116264645D01*
X145537071Y-116268864D01*
G36*
X144299372Y-114733848D02*
G01*
X144386005Y-114785035D01*
X144505492Y-114862728D01*
X144648893Y-114961088D01*
X144807266Y-115074279D01*
X144827625Y-115089147D01*
X145022420Y-115234004D01*
X145168357Y-115348890D01*
X145269593Y-115438784D01*
X145330289Y-115508662D01*
X145354602Y-115563503D01*
X145346692Y-115608285D01*
X145310717Y-115647985D01*
X145300821Y-115655533D01*
X145246095Y-115688814D01*
X145221383Y-115697000D01*
X145189500Y-115679371D01*
X145114734Y-115630386D01*
X145005659Y-115555896D01*
X144870850Y-115461752D01*
X144727389Y-115359894D01*
X144531409Y-115219062D01*
X144381550Y-115109415D01*
X144271804Y-115025871D01*
X144196167Y-114963353D01*
X144148631Y-114916781D01*
X144123189Y-114881076D01*
X144113835Y-114851158D01*
X144113250Y-114840565D01*
X144140916Y-114764351D01*
X144210923Y-114719928D01*
X144254537Y-114715004D01*
X144299372Y-114733848D01*
G37*
X144299372Y-114733848D02*
X144386005Y-114785035D01*
X144505492Y-114862728D01*
X144648893Y-114961088D01*
X144807266Y-115074279D01*
X144827625Y-115089147D01*
X145022420Y-115234004D01*
X145168357Y-115348890D01*
X145269593Y-115438784D01*
X145330289Y-115508662D01*
X145354602Y-115563503D01*
X145346692Y-115608285D01*
X145310717Y-115647985D01*
X145300821Y-115655533D01*
X145246095Y-115688814D01*
X145221383Y-115697000D01*
X145189500Y-115679371D01*
X145114734Y-115630386D01*
X145005659Y-115555896D01*
X144870850Y-115461752D01*
X144727389Y-115359894D01*
X144531409Y-115219062D01*
X144381550Y-115109415D01*
X144271804Y-115025871D01*
X144196167Y-114963353D01*
X144148631Y-114916781D01*
X144123189Y-114881076D01*
X144113835Y-114851158D01*
X144113250Y-114840565D01*
X144140916Y-114764351D01*
X144210923Y-114719928D01*
X144254537Y-114715004D01*
X144299372Y-114733848D01*
G36*
X145964780Y-114855929D02*
G01*
X146042432Y-114914171D01*
X146063052Y-114937436D01*
X146116127Y-115014461D01*
X146144012Y-115082144D01*
X146145250Y-115093750D01*
X146125692Y-115154848D01*
X146077260Y-115232295D01*
X146063052Y-115250063D01*
X145961812Y-115329076D01*
X145848416Y-115350028D01*
X145736197Y-115312225D01*
X145683431Y-115269818D01*
X145620281Y-115169340D01*
X145610032Y-115061417D01*
X145646165Y-114960993D01*
X145722159Y-114883009D01*
X145831492Y-114842409D01*
X145871109Y-114839750D01*
X145964780Y-114855929D01*
G37*
X145964780Y-114855929D02*
X146042432Y-114914171D01*
X146063052Y-114937436D01*
X146116127Y-115014461D01*
X146144012Y-115082144D01*
X146145250Y-115093750D01*
X146125692Y-115154848D01*
X146077260Y-115232295D01*
X146063052Y-115250063D01*
X145961812Y-115329076D01*
X145848416Y-115350028D01*
X145736197Y-115312225D01*
X145683431Y-115269818D01*
X145620281Y-115169340D01*
X145610032Y-115061417D01*
X145646165Y-114960993D01*
X145722159Y-114883009D01*
X145831492Y-114842409D01*
X145871109Y-114839750D01*
X145964780Y-114855929D01*
G36*
X143699750Y-112614767D02*
G01*
X143761695Y-112669156D01*
X143779338Y-112693739D01*
X143793511Y-112722399D01*
X143804593Y-112761895D01*
X143812963Y-112818985D01*
X143819002Y-112900428D01*
X143823088Y-113012984D01*
X143825601Y-113163409D01*
X143826920Y-113358462D01*
X143827426Y-113604903D01*
X143827500Y-113841084D01*
X143827500Y-114929355D01*
X143729813Y-115011552D01*
X143635847Y-115074981D01*
X143551511Y-115087337D01*
X143452712Y-115051351D01*
X143439713Y-115044443D01*
X143399057Y-115017945D01*
X143366135Y-114982813D01*
X143340229Y-114932702D01*
X143320621Y-114861269D01*
X143306594Y-114762169D01*
X143297427Y-114629057D01*
X143292405Y-114455590D01*
X143290808Y-114235422D01*
X143291918Y-113962210D01*
X143293735Y-113754825D01*
X143303625Y-112749276D01*
X143380596Y-112667388D01*
X143480573Y-112599719D01*
X143593335Y-112582208D01*
X143699750Y-112614767D01*
G37*
X143699750Y-112614767D02*
X143761695Y-112669156D01*
X143779338Y-112693739D01*
X143793511Y-112722399D01*
X143804593Y-112761895D01*
X143812963Y-112818985D01*
X143819002Y-112900428D01*
X143823088Y-113012984D01*
X143825601Y-113163409D01*
X143826920Y-113358462D01*
X143827426Y-113604903D01*
X143827500Y-113841084D01*
X143827500Y-114929355D01*
X143729813Y-115011552D01*
X143635847Y-115074981D01*
X143551511Y-115087337D01*
X143452712Y-115051351D01*
X143439713Y-115044443D01*
X143399057Y-115017945D01*
X143366135Y-114982813D01*
X143340229Y-114932702D01*
X143320621Y-114861269D01*
X143306594Y-114762169D01*
X143297427Y-114629057D01*
X143292405Y-114455590D01*
X143290808Y-114235422D01*
X143291918Y-113962210D01*
X143293735Y-113754825D01*
X143303625Y-112749276D01*
X143380596Y-112667388D01*
X143480573Y-112599719D01*
X143593335Y-112582208D01*
X143699750Y-112614767D01*
G36*
X145964780Y-114189179D02*
G01*
X146042432Y-114247421D01*
X146063052Y-114270686D01*
X146125564Y-114359244D01*
X146140989Y-114435023D01*
X146112621Y-114523902D01*
X146098799Y-114551729D01*
X146021523Y-114640671D01*
X145917034Y-114682342D01*
X145802813Y-114674581D01*
X145696337Y-114615228D01*
X145683431Y-114603068D01*
X145620281Y-114502590D01*
X145610032Y-114394667D01*
X145646165Y-114294243D01*
X145722159Y-114216259D01*
X145831492Y-114175659D01*
X145871109Y-114173000D01*
X145964780Y-114189179D01*
G37*
X145964780Y-114189179D02*
X146042432Y-114247421D01*
X146063052Y-114270686D01*
X146125564Y-114359244D01*
X146140989Y-114435023D01*
X146112621Y-114523902D01*
X146098799Y-114551729D01*
X146021523Y-114640671D01*
X145917034Y-114682342D01*
X145802813Y-114674581D01*
X145696337Y-114615228D01*
X145683431Y-114603068D01*
X145620281Y-114502590D01*
X145610032Y-114394667D01*
X145646165Y-114294243D01*
X145722159Y-114216259D01*
X145831492Y-114175659D01*
X145871109Y-114173000D01*
X145964780Y-114189179D01*
G36*
X148007258Y-114242626D02*
G01*
X148049989Y-114243485D01*
X148222478Y-114247907D01*
X148342563Y-114253808D01*
X148421341Y-114262954D01*
X148469907Y-114277109D01*
X148499356Y-114298037D01*
X148514329Y-114317347D01*
X148540590Y-114375203D01*
X148523381Y-114429647D01*
X148508404Y-114452285D01*
X148484875Y-114480678D01*
X148453578Y-114500144D01*
X148403229Y-114512357D01*
X148322543Y-114518994D01*
X148200237Y-114521733D01*
X148037495Y-114522250D01*
X147862605Y-114521263D01*
X147739981Y-114517387D01*
X147658406Y-114509250D01*
X147606664Y-114495479D01*
X147573537Y-114474702D01*
X147563045Y-114464187D01*
X147516703Y-114394596D01*
X147526356Y-114335995D01*
X147569614Y-114288093D01*
X147602773Y-114266004D01*
X147651842Y-114251460D01*
X147728095Y-114243414D01*
X147842809Y-114240818D01*
X148007258Y-114242626D01*
G37*
X148007258Y-114242626D02*
X148049989Y-114243485D01*
X148222478Y-114247907D01*
X148342563Y-114253808D01*
X148421341Y-114262954D01*
X148469907Y-114277109D01*
X148499356Y-114298037D01*
X148514329Y-114317347D01*
X148540590Y-114375203D01*
X148523381Y-114429647D01*
X148508404Y-114452285D01*
X148484875Y-114480678D01*
X148453578Y-114500144D01*
X148403229Y-114512357D01*
X148322543Y-114518994D01*
X148200237Y-114521733D01*
X148037495Y-114522250D01*
X147862605Y-114521263D01*
X147739981Y-114517387D01*
X147658406Y-114509250D01*
X147606664Y-114495479D01*
X147573537Y-114474702D01*
X147563045Y-114464187D01*
X147516703Y-114394596D01*
X147526356Y-114335995D01*
X147569614Y-114288093D01*
X147602773Y-114266004D01*
X147651842Y-114251460D01*
X147728095Y-114243414D01*
X147842809Y-114240818D01*
X148007258Y-114242626D01*
G36*
X144390738Y-113601265D02*
G01*
X144469161Y-113663233D01*
X144520675Y-113747908D01*
X144535086Y-113845681D01*
X144502201Y-113946946D01*
X144465066Y-113995643D01*
X144373075Y-114068784D01*
X144272296Y-114089758D01*
X144217070Y-114084569D01*
X144133889Y-114043468D01*
X144063454Y-113961317D01*
X144022440Y-113860442D01*
X144018000Y-113818025D01*
X144045008Y-113717879D01*
X144095931Y-113647681D01*
X144193930Y-113583881D01*
X144295597Y-113571612D01*
X144390738Y-113601265D01*
G37*
X144390738Y-113601265D02*
X144469161Y-113663233D01*
X144520675Y-113747908D01*
X144535086Y-113845681D01*
X144502201Y-113946946D01*
X144465066Y-113995643D01*
X144373075Y-114068784D01*
X144272296Y-114089758D01*
X144217070Y-114084569D01*
X144133889Y-114043468D01*
X144063454Y-113961317D01*
X144022440Y-113860442D01*
X144018000Y-113818025D01*
X144045008Y-113717879D01*
X144095931Y-113647681D01*
X144193930Y-113583881D01*
X144295597Y-113571612D01*
X144390738Y-113601265D01*
G36*
X145541452Y-113698484D02*
G01*
X145679214Y-113705199D01*
X145771111Y-113719158D01*
X145825931Y-113742627D01*
X145852464Y-113777869D01*
X145859497Y-113827151D01*
X145859500Y-113828299D01*
X145844293Y-113889398D01*
X145794097Y-113932974D01*
X145702049Y-113961063D01*
X145561285Y-113975702D01*
X145364942Y-113978930D01*
X145352372Y-113978816D01*
X145201486Y-113976129D01*
X145070412Y-113971637D01*
X144974331Y-113965997D01*
X144930834Y-113960618D01*
X144878713Y-113918735D01*
X144852870Y-113845283D01*
X144860715Y-113769325D01*
X144875592Y-113743962D01*
X144904827Y-113724129D01*
X144960393Y-113710455D01*
X145051929Y-113701979D01*
X145189072Y-113697739D01*
X145349037Y-113696750D01*
X145541452Y-113698484D01*
G37*
X145541452Y-113698484D02*
X145679214Y-113705199D01*
X145771111Y-113719158D01*
X145825931Y-113742627D01*
X145852464Y-113777869D01*
X145859497Y-113827151D01*
X145859500Y-113828299D01*
X145844293Y-113889398D01*
X145794097Y-113932974D01*
X145702049Y-113961063D01*
X145561285Y-113975702D01*
X145364942Y-113978930D01*
X145352372Y-113978816D01*
X145201486Y-113976129D01*
X145070412Y-113971637D01*
X144974331Y-113965997D01*
X144930834Y-113960618D01*
X144878713Y-113918735D01*
X144852870Y-113845283D01*
X144860715Y-113769325D01*
X144875592Y-113743962D01*
X144904827Y-113724129D01*
X144960393Y-113710455D01*
X145051929Y-113701979D01*
X145189072Y-113697739D01*
X145349037Y-113696750D01*
X145541452Y-113698484D01*
G36*
X148084970Y-112590204D02*
G01*
X148216036Y-112592966D01*
X148303448Y-112597882D01*
X148322895Y-112600385D01*
X148425372Y-112641868D01*
X148540375Y-112723052D01*
X148649583Y-112828132D01*
X148734673Y-112941304D01*
X148749845Y-112968646D01*
X148795416Y-113109152D01*
X148811465Y-113275811D01*
X148797418Y-113439992D01*
X148761605Y-113555753D01*
X148663297Y-113701796D01*
X148524783Y-113828166D01*
X148366628Y-113918305D01*
X148275581Y-113947123D01*
X148112776Y-113972601D01*
X147949503Y-113982016D01*
X147802928Y-113975749D01*
X147690222Y-113954183D01*
X147644564Y-113933074D01*
X147585044Y-113863089D01*
X147580652Y-113785188D01*
X147612100Y-113734850D01*
X147665857Y-113714270D01*
X147772517Y-113701141D01*
X147914744Y-113696750D01*
X148114730Y-113687204D01*
X148265170Y-113656132D01*
X148377454Y-113599876D01*
X148456834Y-113522751D01*
X148532085Y-113382340D01*
X148545588Y-113234795D01*
X148505961Y-113104867D01*
X148458450Y-113018816D01*
X148406865Y-112954865D01*
X148341046Y-112909348D01*
X148250831Y-112878599D01*
X148126058Y-112858954D01*
X147956567Y-112846748D01*
X147770235Y-112839500D01*
X147272375Y-112823625D01*
X147272375Y-112601375D01*
X147748625Y-112591978D01*
X147924437Y-112589806D01*
X148084970Y-112590204D01*
G37*
X148084970Y-112590204D02*
X148216036Y-112592966D01*
X148303448Y-112597882D01*
X148322895Y-112600385D01*
X148425372Y-112641868D01*
X148540375Y-112723052D01*
X148649583Y-112828132D01*
X148734673Y-112941304D01*
X148749845Y-112968646D01*
X148795416Y-113109152D01*
X148811465Y-113275811D01*
X148797418Y-113439992D01*
X148761605Y-113555753D01*
X148663297Y-113701796D01*
X148524783Y-113828166D01*
X148366628Y-113918305D01*
X148275581Y-113947123D01*
X148112776Y-113972601D01*
X147949503Y-113982016D01*
X147802928Y-113975749D01*
X147690222Y-113954183D01*
X147644564Y-113933074D01*
X147585044Y-113863089D01*
X147580652Y-113785188D01*
X147612100Y-113734850D01*
X147665857Y-113714270D01*
X147772517Y-113701141D01*
X147914744Y-113696750D01*
X148114730Y-113687204D01*
X148265170Y-113656132D01*
X148377454Y-113599876D01*
X148456834Y-113522751D01*
X148532085Y-113382340D01*
X148545588Y-113234795D01*
X148505961Y-113104867D01*
X148458450Y-113018816D01*
X148406865Y-112954865D01*
X148341046Y-112909348D01*
X148250831Y-112878599D01*
X148126058Y-112858954D01*
X147956567Y-112846748D01*
X147770235Y-112839500D01*
X147272375Y-112823625D01*
X147272375Y-112601375D01*
X147748625Y-112591978D01*
X147924437Y-112589806D01*
X148084970Y-112590204D01*
G36*
X146113027Y-112554486D02*
G01*
X146262256Y-112558913D01*
X146369723Y-112566410D01*
X146391738Y-112569219D01*
X146528566Y-112613739D01*
X146648498Y-112695851D01*
X146734467Y-112801181D01*
X146765961Y-112884417D01*
X146762101Y-113021791D01*
X146708053Y-113155277D01*
X146614240Y-113262060D01*
X146583723Y-113283186D01*
X146549205Y-113302206D01*
X146510242Y-113317021D01*
X146458957Y-113328130D01*
X146387473Y-113336034D01*
X146287914Y-113341233D01*
X146152402Y-113344230D01*
X145973061Y-113345523D01*
X145742013Y-113345615D01*
X145605500Y-113345368D01*
X145373266Y-113343923D01*
X145159440Y-113340804D01*
X144972966Y-113336284D01*
X144822787Y-113330635D01*
X144717847Y-113324130D01*
X144667091Y-113317042D01*
X144666285Y-113316738D01*
X144565229Y-113247348D01*
X144482825Y-113140393D01*
X144435925Y-113020551D01*
X144430868Y-112972001D01*
X144455580Y-112839815D01*
X144520109Y-112714593D01*
X144610435Y-112622050D01*
X144627488Y-112611338D01*
X144678903Y-112599442D01*
X144783289Y-112588354D01*
X144930121Y-112578326D01*
X145108873Y-112569609D01*
X145309019Y-112562454D01*
X145520033Y-112557113D01*
X145731390Y-112553838D01*
X145932563Y-112552878D01*
X146113027Y-112554486D01*
G37*
X146113027Y-112554486D02*
X146262256Y-112558913D01*
X146369723Y-112566410D01*
X146391738Y-112569219D01*
X146528566Y-112613739D01*
X146648498Y-112695851D01*
X146734467Y-112801181D01*
X146765961Y-112884417D01*
X146762101Y-113021791D01*
X146708053Y-113155277D01*
X146614240Y-113262060D01*
X146583723Y-113283186D01*
X146549205Y-113302206D01*
X146510242Y-113317021D01*
X146458957Y-113328130D01*
X146387473Y-113336034D01*
X146287914Y-113341233D01*
X146152402Y-113344230D01*
X145973061Y-113345523D01*
X145742013Y-113345615D01*
X145605500Y-113345368D01*
X145373266Y-113343923D01*
X145159440Y-113340804D01*
X144972966Y-113336284D01*
X144822787Y-113330635D01*
X144717847Y-113324130D01*
X144667091Y-113317042D01*
X144666285Y-113316738D01*
X144565229Y-113247348D01*
X144482825Y-113140393D01*
X144435925Y-113020551D01*
X144430868Y-112972001D01*
X144455580Y-112839815D01*
X144520109Y-112714593D01*
X144610435Y-112622050D01*
X144627488Y-112611338D01*
X144678903Y-112599442D01*
X144783289Y-112588354D01*
X144930121Y-112578326D01*
X145108873Y-112569609D01*
X145309019Y-112562454D01*
X145520033Y-112557113D01*
X145731390Y-112553838D01*
X145932563Y-112552878D01*
X146113027Y-112554486D01*
D14*
X148579000Y-85445000D02*
X148309000Y-85445000D01*
X148149000Y-85605000D02*
X148139000Y-88095000D01*
X150379000Y-85435000D02*
X150629000Y-85435000D01*
X150779000Y-85585000D02*
X150789000Y-88085000D01*
X150779000Y-85585000D02*
G75*
G02*
X150629000Y-85435000I0J150000D01*
G01*
X148149000Y-85605000D02*
G75*
G03*
X148309000Y-85445000I0J160000D01*
G01*
D15*
X152789000Y-86530000D02*
X153789000Y-86530000D01*
X153789000Y-88730000D02*
X152789000Y-88730000D01*
D12*
X142124000Y-91633000D02*
X142124000Y-92108000D01*
X142124000Y-92108000D02*
X141649000Y-92108000D01*
X138904000Y-89363000D02*
X138904000Y-88888000D01*
X138904000Y-88888000D02*
X139379000Y-88888000D01*
X138904000Y-91633000D02*
X138904000Y-92108000D01*
X138904000Y-92108000D02*
X139379000Y-92108000D01*
X142124000Y-89363000D02*
X142124000Y-88888000D01*
D15*
X146409000Y-82815000D02*
X146409000Y-81015000D01*
X146409000Y-81015000D02*
X150009000Y-81015000D01*
X150009000Y-81015000D02*
X150009000Y-82815000D01*
X150009000Y-82815000D02*
X146409000Y-82815000D01*
X157999000Y-88795000D02*
X156199000Y-88795000D01*
X156199000Y-88795000D02*
X156199000Y-85195000D01*
X156199000Y-85195000D02*
X157999000Y-85195000D01*
X157999000Y-85195000D02*
X157999000Y-88795000D01*
X153659000Y-90535000D02*
X155459000Y-90535000D01*
X155459000Y-90535000D02*
X155459000Y-94135000D01*
X155459000Y-94135000D02*
X153659000Y-94135000D01*
X153659000Y-94135000D02*
X153659000Y-90535000D01*
X151489000Y-82815000D02*
X151489000Y-81015000D01*
X151489000Y-81015000D02*
X155089000Y-81015000D01*
X155089000Y-81015000D02*
X155089000Y-82815000D01*
X155089000Y-82815000D02*
X151489000Y-82815000D01*
X158739000Y-90535000D02*
X160539000Y-90535000D01*
X160539000Y-90535000D02*
X160539000Y-94135000D01*
X160539000Y-94135000D02*
X158739000Y-94135000D01*
X158739000Y-94135000D02*
X158739000Y-90535000D01*
X151279000Y-92445000D02*
X151279000Y-94245000D01*
X151279000Y-94245000D02*
X147679000Y-94245000D01*
X147679000Y-94245000D02*
X147679000Y-92445000D01*
X147679000Y-92445000D02*
X151279000Y-92445000D01*
X155089000Y-83555000D02*
X155089000Y-85355000D01*
X155089000Y-85355000D02*
X151489000Y-85355000D01*
X151489000Y-85355000D02*
X151489000Y-83555000D01*
X151489000Y-83555000D02*
X155089000Y-83555000D01*
X147679000Y-91705000D02*
X147679000Y-89905000D01*
X147679000Y-89905000D02*
X151279000Y-89905000D01*
X151279000Y-89905000D02*
X151279000Y-91705000D01*
X151279000Y-91705000D02*
X147679000Y-91705000D01*
X146569000Y-88795000D02*
X144769000Y-88795000D01*
X144769000Y-88795000D02*
X144769000Y-85195000D01*
X144769000Y-85195000D02*
X146569000Y-85195000D01*
X146569000Y-85195000D02*
X146569000Y-88795000D01*
X160169000Y-81015000D02*
X160169000Y-82815000D01*
X160169000Y-82815000D02*
X156569000Y-82815000D01*
X156569000Y-82815000D02*
X156569000Y-81015000D01*
X156569000Y-81015000D02*
X160169000Y-81015000D01*
X156199000Y-90535000D02*
X157999000Y-90535000D01*
X157999000Y-90535000D02*
X157999000Y-94135000D01*
X157999000Y-94135000D02*
X156199000Y-94135000D01*
X156199000Y-94135000D02*
X156199000Y-90535000D01*
X160412000Y-88795000D02*
X158612000Y-88795000D01*
X158612000Y-88795000D02*
X158612000Y-85195000D01*
X158612000Y-85195000D02*
X160412000Y-85195000D01*
X160412000Y-85195000D02*
X160412000Y-88795000D01*
D16*
X158158380Y-107076833D02*
X158872666Y-107076833D01*
X159015523Y-107124452D01*
X159110761Y-107219690D01*
X159158380Y-107362547D01*
X159158380Y-107457785D01*
X158158380Y-106695880D02*
X158158380Y-106029214D01*
X159158380Y-106457785D01*
X151730880Y-114047404D02*
X152540404Y-114047404D01*
X152635642Y-113999785D01*
X152683261Y-113952166D01*
X152730880Y-113856928D01*
X152730880Y-113666452D01*
X152683261Y-113571214D01*
X152635642Y-113523595D01*
X152540404Y-113475976D01*
X151730880Y-113475976D01*
X151730880Y-113095023D02*
X151730880Y-112475976D01*
X152111833Y-112809309D01*
X152111833Y-112666452D01*
X152159452Y-112571214D01*
X152207071Y-112523595D01*
X152302309Y-112475976D01*
X152540404Y-112475976D01*
X152635642Y-112523595D01*
X152683261Y-112571214D01*
X152730880Y-112666452D01*
X152730880Y-112952166D01*
X152683261Y-113047404D01*
X152635642Y-113095023D01*
X131627642Y-77827142D02*
X131580023Y-77874761D01*
X131437166Y-77922380D01*
X131341928Y-77922380D01*
X131199071Y-77874761D01*
X131103833Y-77779523D01*
X131056214Y-77684285D01*
X131008595Y-77493809D01*
X131008595Y-77350952D01*
X131056214Y-77160476D01*
X131103833Y-77065238D01*
X131199071Y-76970000D01*
X131341928Y-76922380D01*
X131437166Y-76922380D01*
X131580023Y-76970000D01*
X131627642Y-77017619D01*
X132580023Y-77922380D02*
X132008595Y-77922380D01*
X132294309Y-77922380D02*
X132294309Y-76922380D01*
X132199071Y-77065238D01*
X132103833Y-77160476D01*
X132008595Y-77208095D01*
X133199071Y-76922380D02*
X133294309Y-76922380D01*
X133389547Y-76970000D01*
X133437166Y-77017619D01*
X133484785Y-77112857D01*
X133532404Y-77303333D01*
X133532404Y-77541428D01*
X133484785Y-77731904D01*
X133437166Y-77827142D01*
X133389547Y-77874761D01*
X133294309Y-77922380D01*
X133199071Y-77922380D01*
X133103833Y-77874761D01*
X133056214Y-77827142D01*
X133008595Y-77731904D01*
X132960976Y-77541428D01*
X132960976Y-77303333D01*
X133008595Y-77112857D01*
X133056214Y-77017619D01*
X133103833Y-76970000D01*
X133199071Y-76922380D01*
X134707333Y-77827142D02*
X134659714Y-77874761D01*
X134516857Y-77922380D01*
X134421619Y-77922380D01*
X134278761Y-77874761D01*
X134183523Y-77779523D01*
X134135904Y-77684285D01*
X134088285Y-77493809D01*
X134088285Y-77350952D01*
X134135904Y-77160476D01*
X134183523Y-77065238D01*
X134278761Y-76970000D01*
X134421619Y-76922380D01*
X134516857Y-76922380D01*
X134659714Y-76970000D01*
X134707333Y-77017619D01*
X135183523Y-77922380D02*
X135374000Y-77922380D01*
X135469238Y-77874761D01*
X135516857Y-77827142D01*
X135612095Y-77684285D01*
X135659714Y-77493809D01*
X135659714Y-77112857D01*
X135612095Y-77017619D01*
X135564476Y-76970000D01*
X135469238Y-76922380D01*
X135278761Y-76922380D01*
X135183523Y-76970000D01*
X135135904Y-77017619D01*
X135088285Y-77112857D01*
X135088285Y-77350952D01*
X135135904Y-77446190D01*
X135183523Y-77493809D01*
X135278761Y-77541428D01*
X135469238Y-77541428D01*
X135564476Y-77493809D01*
X135612095Y-77446190D01*
X135659714Y-77350952D01*
X139898380Y-122828333D02*
X140612666Y-122828333D01*
X140755523Y-122875952D01*
X140850761Y-122971190D01*
X140898380Y-123114047D01*
X140898380Y-123209285D01*
X139898380Y-122447380D02*
X139898380Y-121828333D01*
X140279333Y-122161666D01*
X140279333Y-122018809D01*
X140326952Y-121923571D01*
X140374571Y-121875952D01*
X140469809Y-121828333D01*
X140707904Y-121828333D01*
X140803142Y-121875952D01*
X140850761Y-121923571D01*
X140898380Y-122018809D01*
X140898380Y-122304523D01*
X140850761Y-122399761D01*
X140803142Y-122447380D01*
X143835595Y-120176880D02*
X144407023Y-120176880D01*
X144121309Y-121176880D02*
X144121309Y-120176880D01*
X144740357Y-121176880D02*
X144740357Y-120176880D01*
X145121309Y-120176880D01*
X145216547Y-120224500D01*
X145264166Y-120272119D01*
X145311785Y-120367357D01*
X145311785Y-120510214D01*
X145264166Y-120605452D01*
X145216547Y-120653071D01*
X145121309Y-120700690D01*
X144740357Y-120700690D01*
X145692738Y-120272119D02*
X145740357Y-120224500D01*
X145835595Y-120176880D01*
X146073690Y-120176880D01*
X146168928Y-120224500D01*
X146216547Y-120272119D01*
X146264166Y-120367357D01*
X146264166Y-120462595D01*
X146216547Y-120605452D01*
X145645119Y-121176880D01*
X146264166Y-121176880D01*
X159774095Y-119657880D02*
X160345523Y-119657880D01*
X160059809Y-120657880D02*
X160059809Y-119657880D01*
X160678857Y-120657880D02*
X160678857Y-119657880D01*
X161059809Y-119657880D01*
X161155047Y-119705500D01*
X161202666Y-119753119D01*
X161250285Y-119848357D01*
X161250285Y-119991214D01*
X161202666Y-120086452D01*
X161155047Y-120134071D01*
X161059809Y-120181690D01*
X160678857Y-120181690D01*
X162202666Y-120657880D02*
X161631238Y-120657880D01*
X161916952Y-120657880D02*
X161916952Y-119657880D01*
X161821714Y-119800738D01*
X161726476Y-119895976D01*
X161631238Y-119943595D01*
X162310380Y-123967833D02*
X163024666Y-123967833D01*
X163167523Y-124015452D01*
X163262761Y-124110690D01*
X163310380Y-124253547D01*
X163310380Y-124348785D01*
X162310380Y-123063071D02*
X162310380Y-123253547D01*
X162358000Y-123348785D01*
X162405619Y-123396404D01*
X162548476Y-123491642D01*
X162738952Y-123539261D01*
X163119904Y-123539261D01*
X163215142Y-123491642D01*
X163262761Y-123444023D01*
X163310380Y-123348785D01*
X163310380Y-123158309D01*
X163262761Y-123063071D01*
X163215142Y-123015452D01*
X163119904Y-122967833D01*
X162881809Y-122967833D01*
X162786571Y-123015452D01*
X162738952Y-123063071D01*
X162691333Y-123158309D01*
X162691333Y-123348785D01*
X162738952Y-123444023D01*
X162786571Y-123491642D01*
X162881809Y-123539261D01*
X135104380Y-76974333D02*
X135818666Y-76974333D01*
X135961523Y-77021952D01*
X136056761Y-77117190D01*
X136104380Y-77260047D01*
X136104380Y-77355285D01*
X135199619Y-76545761D02*
X135152000Y-76498142D01*
X135104380Y-76402904D01*
X135104380Y-76164809D01*
X135152000Y-76069571D01*
X135199619Y-76021952D01*
X135294857Y-75974333D01*
X135390095Y-75974333D01*
X135532952Y-76021952D01*
X136104380Y-76593380D01*
X136104380Y-75974333D01*
X127361666Y-93670380D02*
X127361666Y-94384666D01*
X127314047Y-94527523D01*
X127218809Y-94622761D01*
X127075952Y-94670380D01*
X126980714Y-94670380D01*
X128361666Y-94670380D02*
X127790238Y-94670380D01*
X128075952Y-94670380D02*
X128075952Y-93670380D01*
X127980714Y-93813238D01*
X127885476Y-93908476D01*
X127790238Y-93956095D01*
X170735666Y-101877880D02*
X170735666Y-102592166D01*
X170688047Y-102735023D01*
X170592809Y-102830261D01*
X170449952Y-102877880D01*
X170354714Y-102877880D01*
X171354714Y-102306452D02*
X171259476Y-102258833D01*
X171211857Y-102211214D01*
X171164238Y-102115976D01*
X171164238Y-102068357D01*
X171211857Y-101973119D01*
X171259476Y-101925500D01*
X171354714Y-101877880D01*
X171545190Y-101877880D01*
X171640428Y-101925500D01*
X171688047Y-101973119D01*
X171735666Y-102068357D01*
X171735666Y-102115976D01*
X171688047Y-102211214D01*
X171640428Y-102258833D01*
X171545190Y-102306452D01*
X171354714Y-102306452D01*
X171259476Y-102354071D01*
X171211857Y-102401690D01*
X171164238Y-102496928D01*
X171164238Y-102687404D01*
X171211857Y-102782642D01*
X171259476Y-102830261D01*
X171354714Y-102877880D01*
X171545190Y-102877880D01*
X171640428Y-102830261D01*
X171688047Y-102782642D01*
X171735666Y-102687404D01*
X171735666Y-102496928D01*
X171688047Y-102401690D01*
X171640428Y-102354071D01*
X171545190Y-102306452D01*
X154519404Y-73794880D02*
X154519404Y-72794880D01*
X154757500Y-72794880D01*
X154900357Y-72842500D01*
X154995595Y-72937738D01*
X155043214Y-73032976D01*
X155090833Y-73223452D01*
X155090833Y-73366309D01*
X155043214Y-73556785D01*
X154995595Y-73652023D01*
X154900357Y-73747261D01*
X154757500Y-73794880D01*
X154519404Y-73794880D01*
X156043214Y-73794880D02*
X155471785Y-73794880D01*
X155757500Y-73794880D02*
X155757500Y-72794880D01*
X155662261Y-72937738D01*
X155567023Y-73032976D01*
X155471785Y-73080595D01*
X146137333Y-79192380D02*
X145804000Y-78716190D01*
X145565904Y-79192380D02*
X145565904Y-78192380D01*
X145946857Y-78192380D01*
X146042095Y-78240000D01*
X146089714Y-78287619D01*
X146137333Y-78382857D01*
X146137333Y-78525714D01*
X146089714Y-78620952D01*
X146042095Y-78668571D01*
X145946857Y-78716190D01*
X145565904Y-78716190D01*
X146470666Y-78192380D02*
X147089714Y-78192380D01*
X146756380Y-78573333D01*
X146899238Y-78573333D01*
X146994476Y-78620952D01*
X147042095Y-78668571D01*
X147089714Y-78763809D01*
X147089714Y-79001904D01*
X147042095Y-79097142D01*
X146994476Y-79144761D01*
X146899238Y-79192380D01*
X146613523Y-79192380D01*
X146518285Y-79144761D01*
X146470666Y-79097142D01*
X146137333Y-77160380D02*
X145804000Y-76684190D01*
X145565904Y-77160380D02*
X145565904Y-76160380D01*
X145946857Y-76160380D01*
X146042095Y-76208000D01*
X146089714Y-76255619D01*
X146137333Y-76350857D01*
X146137333Y-76493714D01*
X146089714Y-76588952D01*
X146042095Y-76636571D01*
X145946857Y-76684190D01*
X145565904Y-76684190D01*
X146518285Y-76255619D02*
X146565904Y-76208000D01*
X146661142Y-76160380D01*
X146899238Y-76160380D01*
X146994476Y-76208000D01*
X147042095Y-76255619D01*
X147089714Y-76350857D01*
X147089714Y-76446095D01*
X147042095Y-76588952D01*
X146470666Y-77160380D01*
X147089714Y-77160380D01*
X146137333Y-75128380D02*
X145804000Y-74652190D01*
X145565904Y-75128380D02*
X145565904Y-74128380D01*
X145946857Y-74128380D01*
X146042095Y-74176000D01*
X146089714Y-74223619D01*
X146137333Y-74318857D01*
X146137333Y-74461714D01*
X146089714Y-74556952D01*
X146042095Y-74604571D01*
X145946857Y-74652190D01*
X145565904Y-74652190D01*
X147089714Y-75128380D02*
X146518285Y-75128380D01*
X146804000Y-75128380D02*
X146804000Y-74128380D01*
X146708761Y-74271238D01*
X146613523Y-74366476D01*
X146518285Y-74414095D01*
X137691833Y-83351642D02*
X137644214Y-83399261D01*
X137501357Y-83446880D01*
X137406119Y-83446880D01*
X137263261Y-83399261D01*
X137168023Y-83304023D01*
X137120404Y-83208785D01*
X137072785Y-83018309D01*
X137072785Y-82875452D01*
X137120404Y-82684976D01*
X137168023Y-82589738D01*
X137263261Y-82494500D01*
X137406119Y-82446880D01*
X137501357Y-82446880D01*
X137644214Y-82494500D01*
X137691833Y-82542119D01*
X138072785Y-82542119D02*
X138120404Y-82494500D01*
X138215642Y-82446880D01*
X138453738Y-82446880D01*
X138548976Y-82494500D01*
X138596595Y-82542119D01*
X138644214Y-82637357D01*
X138644214Y-82732595D01*
X138596595Y-82875452D01*
X138025166Y-83446880D01*
X138644214Y-83446880D01*
X139787333Y-83351642D02*
X139739714Y-83399261D01*
X139596857Y-83446880D01*
X139501619Y-83446880D01*
X139358761Y-83399261D01*
X139263523Y-83304023D01*
X139215904Y-83208785D01*
X139168285Y-83018309D01*
X139168285Y-82875452D01*
X139215904Y-82684976D01*
X139263523Y-82589738D01*
X139358761Y-82494500D01*
X139501619Y-82446880D01*
X139596857Y-82446880D01*
X139739714Y-82494500D01*
X139787333Y-82542119D01*
X140120666Y-82446880D02*
X140739714Y-82446880D01*
X140406380Y-82827833D01*
X140549238Y-82827833D01*
X140644476Y-82875452D01*
X140692095Y-82923071D01*
X140739714Y-83018309D01*
X140739714Y-83256404D01*
X140692095Y-83351642D01*
X140644476Y-83399261D01*
X140549238Y-83446880D01*
X140263523Y-83446880D01*
X140168285Y-83399261D01*
X140120666Y-83351642D01*
X141882833Y-83224642D02*
X141835214Y-83272261D01*
X141692357Y-83319880D01*
X141597119Y-83319880D01*
X141454261Y-83272261D01*
X141359023Y-83177023D01*
X141311404Y-83081785D01*
X141263785Y-82891309D01*
X141263785Y-82748452D01*
X141311404Y-82557976D01*
X141359023Y-82462738D01*
X141454261Y-82367500D01*
X141597119Y-82319880D01*
X141692357Y-82319880D01*
X141835214Y-82367500D01*
X141882833Y-82415119D01*
X142739976Y-82653214D02*
X142739976Y-83319880D01*
X142501880Y-82272261D02*
X142263785Y-82986547D01*
X142882833Y-82986547D01*
X140255333Y-96299142D02*
X140207714Y-96346761D01*
X140064857Y-96394380D01*
X139969619Y-96394380D01*
X139826761Y-96346761D01*
X139731523Y-96251523D01*
X139683904Y-96156285D01*
X139636285Y-95965809D01*
X139636285Y-95822952D01*
X139683904Y-95632476D01*
X139731523Y-95537238D01*
X139826761Y-95442000D01*
X139969619Y-95394380D01*
X140064857Y-95394380D01*
X140207714Y-95442000D01*
X140255333Y-95489619D01*
X141207714Y-96394380D02*
X140636285Y-96394380D01*
X140922000Y-96394380D02*
X140922000Y-95394380D01*
X140826761Y-95537238D01*
X140731523Y-95632476D01*
X140636285Y-95680095D01*
X165901880Y-82684880D02*
X165901880Y-81684880D01*
X166235214Y-82399166D01*
X166568547Y-81684880D01*
X166568547Y-82684880D01*
X167044738Y-82684880D02*
X167044738Y-81684880D01*
X168092357Y-82589642D02*
X168044738Y-82637261D01*
X167901880Y-82684880D01*
X167806642Y-82684880D01*
X167663785Y-82637261D01*
X167568547Y-82542023D01*
X167520928Y-82446785D01*
X167473309Y-82256309D01*
X167473309Y-82113452D01*
X167520928Y-81922976D01*
X167568547Y-81827738D01*
X167663785Y-81732500D01*
X167806642Y-81684880D01*
X167901880Y-81684880D01*
X168044738Y-81732500D01*
X168092357Y-81780119D01*
X169044738Y-82684880D02*
X168473309Y-82684880D01*
X168759023Y-82684880D02*
X168759023Y-81684880D01*
X168663785Y-81827738D01*
X168568547Y-81922976D01*
X168473309Y-81970595D01*
D17*
X147019070Y-87783618D02*
X147791230Y-87526232D01*
X147019070Y-87268845D01*
X147791230Y-86570224D02*
X147423535Y-86827611D01*
X147791230Y-87011458D02*
X147019070Y-87011458D01*
X147019070Y-86717302D01*
X147055840Y-86643763D01*
X147092609Y-86606993D01*
X147166148Y-86570224D01*
X147276457Y-86570224D01*
X147349996Y-86606993D01*
X147386765Y-86643763D01*
X147423535Y-86717302D01*
X147423535Y-87011458D01*
X147791230Y-85834833D02*
X147791230Y-86276068D01*
X147791230Y-86055451D02*
X147019070Y-86055451D01*
X147129379Y-86128990D01*
X147202918Y-86202529D01*
X147239687Y-86276068D01*
D18*
X148973535Y-83376135D02*
X148973535Y-83155518D01*
X149359615Y-83265826D02*
X148973535Y-83265826D01*
X149359615Y-82806207D02*
X149175767Y-82934900D01*
X149359615Y-83026824D02*
X148973535Y-83026824D01*
X148973535Y-82879746D01*
X148991920Y-82842977D01*
X149010304Y-82824592D01*
X149047074Y-82806207D01*
X149102228Y-82806207D01*
X149138998Y-82824592D01*
X149157382Y-82842977D01*
X149175767Y-82879746D01*
X149175767Y-83026824D01*
X149359615Y-82640744D02*
X148973535Y-82640744D01*
X149359615Y-82456897D02*
X148973535Y-82456897D01*
X149249306Y-82328203D01*
X148973535Y-82199510D01*
X149359615Y-82199510D01*
X149359615Y-82015662D02*
X148973535Y-82015662D01*
X148973535Y-81868584D01*
X148991920Y-81831815D01*
X149010304Y-81813430D01*
X149047074Y-81795045D01*
X149102228Y-81795045D01*
X149138998Y-81813430D01*
X149157382Y-81831815D01*
X149175767Y-81868584D01*
X149175767Y-82015662D01*
X148973535Y-81556043D02*
X148973535Y-81482504D01*
X148991920Y-81445735D01*
X149028689Y-81408965D01*
X149102228Y-81390580D01*
X149230921Y-81390580D01*
X149304460Y-81408965D01*
X149341230Y-81445735D01*
X149359615Y-81482504D01*
X149359615Y-81556043D01*
X149341230Y-81592813D01*
X149304460Y-81629582D01*
X149230921Y-81647967D01*
X149102228Y-81647967D01*
X149028689Y-81629582D01*
X148991920Y-81592813D01*
X148973535Y-81556043D01*
X148973535Y-81280272D02*
X148973535Y-81059655D01*
X149359615Y-81169963D02*
X148973535Y-81169963D01*
X148973535Y-80986116D02*
X148973535Y-80765499D01*
X149359615Y-80875807D02*
X148973535Y-80875807D01*
X149322845Y-80416188D02*
X149341230Y-80434573D01*
X149359615Y-80489727D01*
X149359615Y-80526497D01*
X149341230Y-80581651D01*
X149304460Y-80618420D01*
X149267691Y-80636805D01*
X149194152Y-80655190D01*
X149138998Y-80655190D01*
X149065459Y-80636805D01*
X149028689Y-80618420D01*
X148991920Y-80581651D01*
X148973535Y-80526497D01*
X148973535Y-80489727D01*
X148991920Y-80434573D01*
X149010304Y-80416188D01*
X148973535Y-80287495D02*
X148973535Y-80048493D01*
X149120613Y-80177186D01*
X149120613Y-80122032D01*
X149138998Y-80085262D01*
X149157382Y-80066878D01*
X149194152Y-80048493D01*
X149286076Y-80048493D01*
X149322845Y-80066878D01*
X149341230Y-80085262D01*
X149359615Y-80122032D01*
X149359615Y-80232340D01*
X149341230Y-80269110D01*
X149322845Y-80287495D01*
X148973535Y-79919800D02*
X148973535Y-79680798D01*
X149120613Y-79809491D01*
X149120613Y-79754337D01*
X149138998Y-79717567D01*
X149157382Y-79699182D01*
X149194152Y-79680798D01*
X149286076Y-79680798D01*
X149322845Y-79699182D01*
X149341230Y-79717567D01*
X149359615Y-79754337D01*
X149359615Y-79864645D01*
X149341230Y-79901415D01*
X149322845Y-79919800D01*
X148973535Y-79552104D02*
X149359615Y-79294718D01*
X148973535Y-79294718D02*
X149359615Y-79552104D01*
X149212537Y-79147640D02*
X149212537Y-78853483D01*
X149010304Y-78688020D02*
X148991920Y-78669636D01*
X148973535Y-78632866D01*
X148973535Y-78540942D01*
X148991920Y-78504173D01*
X149010304Y-78485788D01*
X149047074Y-78467403D01*
X149083843Y-78467403D01*
X149138998Y-78485788D01*
X149359615Y-78706405D01*
X149359615Y-78467403D01*
D17*
X153235185Y-88091070D02*
X153235185Y-88716152D01*
X153271954Y-88789691D01*
X153308724Y-88826460D01*
X153382263Y-88863230D01*
X153529341Y-88863230D01*
X153602880Y-88826460D01*
X153639650Y-88789691D01*
X153676419Y-88716152D01*
X153676419Y-88091070D01*
X154007345Y-88164609D02*
X154044114Y-88127840D01*
X154117653Y-88091070D01*
X154301501Y-88091070D01*
X154375040Y-88127840D01*
X154411810Y-88164609D01*
X154448579Y-88238148D01*
X154448579Y-88311687D01*
X154411810Y-88421996D01*
X153970575Y-88863230D01*
X154448579Y-88863230D01*
D16*
X142786380Y-91259904D02*
X143595904Y-91259904D01*
X143691142Y-91212285D01*
X143738761Y-91164666D01*
X143786380Y-91069428D01*
X143786380Y-90878952D01*
X143738761Y-90783714D01*
X143691142Y-90736095D01*
X143595904Y-90688476D01*
X142786380Y-90688476D01*
X143786380Y-89688476D02*
X143786380Y-90259904D01*
X143786380Y-89974190D02*
X142786380Y-89974190D01*
X142929238Y-90069428D01*
X143024476Y-90164666D01*
X143072095Y-90259904D01*
D17*
X146140230Y-82062310D02*
X145772535Y-82319697D01*
X146140230Y-82503545D02*
X145368070Y-82503545D01*
X145368070Y-82209388D01*
X145404840Y-82135849D01*
X145441609Y-82099080D01*
X145515148Y-82062310D01*
X145625457Y-82062310D01*
X145698996Y-82099080D01*
X145735765Y-82135849D01*
X145772535Y-82209388D01*
X145772535Y-82503545D01*
X146140230Y-81694615D02*
X146140230Y-81547537D01*
X146103460Y-81473998D01*
X146066691Y-81437228D01*
X145956382Y-81363689D01*
X145809304Y-81326920D01*
X145515148Y-81326920D01*
X145441609Y-81363689D01*
X145404840Y-81400459D01*
X145368070Y-81473998D01*
X145368070Y-81621076D01*
X145404840Y-81694615D01*
X145441609Y-81731385D01*
X145515148Y-81768154D01*
X145698996Y-81768154D01*
X145772535Y-81731385D01*
X145809304Y-81694615D01*
X145846074Y-81621076D01*
X145846074Y-81473998D01*
X145809304Y-81400459D01*
X145772535Y-81363689D01*
X145698996Y-81326920D01*
X157052424Y-84989730D02*
X156795037Y-84622035D01*
X156611189Y-84989730D02*
X156611189Y-84217570D01*
X156905346Y-84217570D01*
X156978885Y-84254340D01*
X157015654Y-84291109D01*
X157052424Y-84364648D01*
X157052424Y-84474957D01*
X157015654Y-84548496D01*
X156978885Y-84585265D01*
X156905346Y-84622035D01*
X156611189Y-84622035D01*
X157493658Y-84548496D02*
X157420119Y-84511726D01*
X157383349Y-84474957D01*
X157346580Y-84401418D01*
X157346580Y-84364648D01*
X157383349Y-84291109D01*
X157420119Y-84254340D01*
X157493658Y-84217570D01*
X157640736Y-84217570D01*
X157714275Y-84254340D01*
X157751045Y-84291109D01*
X157787814Y-84364648D01*
X157787814Y-84401418D01*
X157751045Y-84474957D01*
X157714275Y-84511726D01*
X157640736Y-84548496D01*
X157493658Y-84548496D01*
X157420119Y-84585265D01*
X157383349Y-84622035D01*
X157346580Y-84695574D01*
X157346580Y-84842652D01*
X157383349Y-84916191D01*
X157420119Y-84952960D01*
X157493658Y-84989730D01*
X157640736Y-84989730D01*
X157714275Y-84952960D01*
X157751045Y-84916191D01*
X157787814Y-84842652D01*
X157787814Y-84695574D01*
X157751045Y-84622035D01*
X157714275Y-84585265D01*
X157640736Y-84548496D01*
X154512424Y-90196730D02*
X154255037Y-89829035D01*
X154071189Y-90196730D02*
X154071189Y-89424570D01*
X154365346Y-89424570D01*
X154438885Y-89461340D01*
X154475654Y-89498109D01*
X154512424Y-89571648D01*
X154512424Y-89681957D01*
X154475654Y-89755496D01*
X154438885Y-89792265D01*
X154365346Y-89829035D01*
X154071189Y-89829035D01*
X154769810Y-89424570D02*
X155284584Y-89424570D01*
X154953658Y-90196730D01*
X151220230Y-82062310D02*
X150852535Y-82319697D01*
X151220230Y-82503545D02*
X150448070Y-82503545D01*
X150448070Y-82209388D01*
X150484840Y-82135849D01*
X150521609Y-82099080D01*
X150595148Y-82062310D01*
X150705457Y-82062310D01*
X150778996Y-82099080D01*
X150815765Y-82135849D01*
X150852535Y-82209388D01*
X150852535Y-82503545D01*
X150448070Y-81400459D02*
X150448070Y-81547537D01*
X150484840Y-81621076D01*
X150521609Y-81657846D01*
X150631918Y-81731385D01*
X150778996Y-81768154D01*
X151073152Y-81768154D01*
X151146691Y-81731385D01*
X151183460Y-81694615D01*
X151220230Y-81621076D01*
X151220230Y-81473998D01*
X151183460Y-81400459D01*
X151146691Y-81363689D01*
X151073152Y-81326920D01*
X150889304Y-81326920D01*
X150815765Y-81363689D01*
X150778996Y-81400459D01*
X150742226Y-81473998D01*
X150742226Y-81621076D01*
X150778996Y-81694615D01*
X150815765Y-81731385D01*
X150889304Y-81768154D01*
X159491689Y-90323730D02*
X159234302Y-89956035D01*
X159050454Y-90323730D02*
X159050454Y-89551570D01*
X159344611Y-89551570D01*
X159418150Y-89588340D01*
X159454919Y-89625109D01*
X159491689Y-89698648D01*
X159491689Y-89808957D01*
X159454919Y-89882496D01*
X159418150Y-89919265D01*
X159344611Y-89956035D01*
X159050454Y-89956035D01*
X160190310Y-89551570D02*
X159822614Y-89551570D01*
X159785845Y-89919265D01*
X159822614Y-89882496D01*
X159896153Y-89845726D01*
X160080001Y-89845726D01*
X160153540Y-89882496D01*
X160190310Y-89919265D01*
X160227079Y-89992804D01*
X160227079Y-90176652D01*
X160190310Y-90250191D01*
X160153540Y-90286960D01*
X160080001Y-90323730D01*
X159896153Y-90323730D01*
X159822614Y-90286960D01*
X159785845Y-90250191D01*
X147410230Y-93264575D02*
X147042535Y-93521962D01*
X147410230Y-93705810D02*
X146638070Y-93705810D01*
X146638070Y-93411653D01*
X146674840Y-93338114D01*
X146711609Y-93301345D01*
X146785148Y-93264575D01*
X146895457Y-93264575D01*
X146968996Y-93301345D01*
X147005765Y-93338114D01*
X147042535Y-93411653D01*
X147042535Y-93705810D01*
X146895457Y-92602724D02*
X147410230Y-92602724D01*
X146601300Y-92786572D02*
X147152843Y-92970419D01*
X147152843Y-92492415D01*
D16*
X169238095Y-71552380D02*
X169238095Y-70552380D01*
X169238095Y-71028571D02*
X169809523Y-71028571D01*
X169809523Y-71552380D02*
X169809523Y-70552380D01*
X170714285Y-70885714D02*
X170714285Y-71552380D01*
X170476190Y-70504761D02*
X170238095Y-71219047D01*
X170857142Y-71219047D01*
X170942095Y-93987880D02*
X170942095Y-92987880D01*
X170942095Y-93464071D02*
X171513523Y-93464071D01*
X171513523Y-93987880D02*
X171513523Y-92987880D01*
X171894476Y-92987880D02*
X172513523Y-92987880D01*
X172180190Y-93368833D01*
X172323047Y-93368833D01*
X172418285Y-93416452D01*
X172465904Y-93464071D01*
X172513523Y-93559309D01*
X172513523Y-93797404D01*
X172465904Y-93892642D01*
X172418285Y-93940261D01*
X172323047Y-93987880D01*
X172037333Y-93987880D01*
X171942095Y-93940261D01*
X171894476Y-93892642D01*
X123238095Y-93552380D02*
X123238095Y-92552380D01*
X123238095Y-93028571D02*
X123809523Y-93028571D01*
X123809523Y-93552380D02*
X123809523Y-92552380D01*
X124238095Y-92647619D02*
X124285714Y-92600000D01*
X124380952Y-92552380D01*
X124619047Y-92552380D01*
X124714285Y-92600000D01*
X124761904Y-92647619D01*
X124809523Y-92742857D01*
X124809523Y-92838095D01*
X124761904Y-92980952D01*
X124190476Y-93552380D01*
X124809523Y-93552380D01*
X123238095Y-71552380D02*
X123238095Y-70552380D01*
X123238095Y-71028571D02*
X123809523Y-71028571D01*
X123809523Y-71552380D02*
X123809523Y-70552380D01*
X124809523Y-71552380D02*
X124238095Y-71552380D01*
X124523809Y-71552380D02*
X124523809Y-70552380D01*
X124428571Y-70695238D01*
X124333333Y-70790476D01*
X124238095Y-70838095D01*
D17*
X155705265Y-85066423D02*
X155705265Y-85323810D01*
X156109730Y-85323810D02*
X155337570Y-85323810D01*
X155337570Y-84956114D01*
X155705265Y-84404572D02*
X155742035Y-84294263D01*
X155778804Y-84257493D01*
X155852343Y-84220724D01*
X155962652Y-84220724D01*
X156036191Y-84257493D01*
X156072960Y-84294263D01*
X156109730Y-84367802D01*
X156109730Y-84661958D01*
X155337570Y-84661958D01*
X155337570Y-84404572D01*
X155374340Y-84331033D01*
X155411109Y-84294263D01*
X155484648Y-84257493D01*
X155558187Y-84257493D01*
X155631726Y-84294263D01*
X155668496Y-84331033D01*
X155705265Y-84404572D01*
X155705265Y-84661958D01*
X155411109Y-83926568D02*
X155374340Y-83889798D01*
X155337570Y-83816259D01*
X155337570Y-83632412D01*
X155374340Y-83558873D01*
X155411109Y-83522103D01*
X155484648Y-83485333D01*
X155558187Y-83485333D01*
X155668496Y-83522103D01*
X156109730Y-83963337D01*
X156109730Y-83485333D01*
X146878765Y-91607509D02*
X146878765Y-91864896D01*
X147283230Y-91864896D02*
X146511070Y-91864896D01*
X146511070Y-91497201D01*
X146878765Y-90945658D02*
X146915535Y-90835349D01*
X146952304Y-90798580D01*
X147025843Y-90761810D01*
X147136152Y-90761810D01*
X147209691Y-90798580D01*
X147246460Y-90835349D01*
X147283230Y-90908888D01*
X147283230Y-91203045D01*
X146511070Y-91203045D01*
X146511070Y-90945658D01*
X146547840Y-90872119D01*
X146584609Y-90835349D01*
X146658148Y-90798580D01*
X146731687Y-90798580D01*
X146805226Y-90835349D01*
X146841996Y-90872119D01*
X146878765Y-90945658D01*
X146878765Y-91203045D01*
X147283230Y-90026420D02*
X147283230Y-90467654D01*
X147283230Y-90247037D02*
X146511070Y-90247037D01*
X146621379Y-90320576D01*
X146694918Y-90394115D01*
X146731687Y-90467654D01*
X145685924Y-84852691D02*
X145649154Y-84889460D01*
X145538846Y-84926230D01*
X145465306Y-84926230D01*
X145354998Y-84889460D01*
X145281459Y-84815921D01*
X145244689Y-84742382D01*
X145207920Y-84595304D01*
X145207920Y-84484996D01*
X145244689Y-84337918D01*
X145281459Y-84264379D01*
X145354998Y-84190840D01*
X145465306Y-84154070D01*
X145538846Y-84154070D01*
X145649154Y-84190840D01*
X145685924Y-84227609D01*
X146127158Y-84484996D02*
X146053619Y-84448226D01*
X146016849Y-84411457D01*
X145980080Y-84337918D01*
X145980080Y-84301148D01*
X146016849Y-84227609D01*
X146053619Y-84190840D01*
X146127158Y-84154070D01*
X146274236Y-84154070D01*
X146347775Y-84190840D01*
X146384545Y-84227609D01*
X146421314Y-84301148D01*
X146421314Y-84337918D01*
X146384545Y-84411457D01*
X146347775Y-84448226D01*
X146274236Y-84484996D01*
X146127158Y-84484996D01*
X146053619Y-84521765D01*
X146016849Y-84558535D01*
X145980080Y-84632074D01*
X145980080Y-84779152D01*
X146016849Y-84852691D01*
X146053619Y-84889460D01*
X146127158Y-84926230D01*
X146274236Y-84926230D01*
X146347775Y-84889460D01*
X146384545Y-84852691D01*
X146421314Y-84779152D01*
X146421314Y-84632074D01*
X146384545Y-84558535D01*
X146347775Y-84521765D01*
X146274236Y-84484996D01*
X156226691Y-82025075D02*
X156263460Y-82061845D01*
X156300230Y-82172153D01*
X156300230Y-82245693D01*
X156263460Y-82356001D01*
X156189921Y-82429540D01*
X156116382Y-82466310D01*
X155969304Y-82503079D01*
X155858996Y-82503079D01*
X155711918Y-82466310D01*
X155638379Y-82429540D01*
X155564840Y-82356001D01*
X155528070Y-82245693D01*
X155528070Y-82172153D01*
X155564840Y-82061845D01*
X155601609Y-82025075D01*
X155528070Y-81767689D02*
X155528070Y-81252915D01*
X156300230Y-81583841D01*
X156888189Y-90186691D02*
X156851419Y-90223460D01*
X156741111Y-90260230D01*
X156667572Y-90260230D01*
X156557263Y-90223460D01*
X156483724Y-90149921D01*
X156446954Y-90076382D01*
X156410185Y-89929304D01*
X156410185Y-89818996D01*
X156446954Y-89671918D01*
X156483724Y-89598379D01*
X156557263Y-89524840D01*
X156667572Y-89488070D01*
X156741111Y-89488070D01*
X156851419Y-89524840D01*
X156888189Y-89561609D01*
X157550040Y-89488070D02*
X157402962Y-89488070D01*
X157329423Y-89524840D01*
X157292653Y-89561609D01*
X157219114Y-89671918D01*
X157182345Y-89818996D01*
X157182345Y-90113152D01*
X157219114Y-90186691D01*
X157255884Y-90223460D01*
X157329423Y-90260230D01*
X157476501Y-90260230D01*
X157550040Y-90223460D01*
X157586810Y-90186691D01*
X157623579Y-90113152D01*
X157623579Y-89929304D01*
X157586810Y-89855765D01*
X157550040Y-89818996D01*
X157476501Y-89782226D01*
X157329423Y-89782226D01*
X157255884Y-89818996D01*
X157219114Y-89855765D01*
X157182345Y-89929304D01*
X159338424Y-84916191D02*
X159301654Y-84952960D01*
X159191346Y-84989730D01*
X159117806Y-84989730D01*
X159007498Y-84952960D01*
X158933959Y-84879421D01*
X158897189Y-84805882D01*
X158860420Y-84658804D01*
X158860420Y-84548496D01*
X158897189Y-84401418D01*
X158933959Y-84327879D01*
X159007498Y-84254340D01*
X159117806Y-84217570D01*
X159191346Y-84217570D01*
X159301654Y-84254340D01*
X159338424Y-84291109D01*
X160037045Y-84217570D02*
X159669349Y-84217570D01*
X159632580Y-84585265D01*
X159669349Y-84548496D01*
X159742888Y-84511726D01*
X159926736Y-84511726D01*
X160000275Y-84548496D01*
X160037045Y-84585265D01*
X160073814Y-84658804D01*
X160073814Y-84842652D01*
X160037045Y-84916191D01*
X160000275Y-84952960D01*
X159926736Y-84989730D01*
X159742888Y-84989730D01*
X159669349Y-84952960D01*
X159632580Y-84916191D01*
M02*
