G04 #@! TF.GenerationSoftware,KiCad,Pcbnew,(5.1.6)-1*
G04 #@! TF.CreationDate,2020-07-09T12:34:34+02:00*
G04 #@! TF.ProjectId,InteractiveGuitar,496e7465-7261-4637-9469-766547756974,rev?*
G04 #@! TF.SameCoordinates,Original*
G04 #@! TF.FileFunction,Copper,L2,Bot*
G04 #@! TF.FilePolarity,Positive*
%FSLAX46Y46*%
G04 Gerber Fmt 4.6, Leading zero omitted, Abs format (unit mm)*
G04 Created by KiCad (PCBNEW (5.1.6)-1) date 2020-07-09 12:34:34*
%MOMM*%
%LPD*%
G01*
G04 APERTURE LIST*
G04 #@! TA.AperFunction,ComponentPad*
%ADD10O,1.700000X1.700000*%
G04 #@! TD*
G04 #@! TA.AperFunction,ComponentPad*
%ADD11R,1.700000X1.700000*%
G04 #@! TD*
G04 #@! TA.AperFunction,ComponentPad*
%ADD12C,1.500000*%
G04 #@! TD*
G04 #@! TA.AperFunction,ComponentPad*
%ADD13R,1.500000X1.500000*%
G04 #@! TD*
G04 #@! TA.AperFunction,ComponentPad*
%ADD14C,3.800000*%
G04 #@! TD*
G04 #@! TA.AperFunction,ViaPad*
%ADD15C,0.800000*%
G04 #@! TD*
G04 #@! TA.AperFunction,Conductor*
%ADD16C,0.250000*%
G04 #@! TD*
G04 #@! TA.AperFunction,Conductor*
%ADD17C,0.500000*%
G04 #@! TD*
G04 #@! TA.AperFunction,Conductor*
%ADD18C,0.200000*%
G04 #@! TD*
G04 #@! TA.AperFunction,Conductor*
%ADD19C,0.254000*%
G04 #@! TD*
G04 APERTURE END LIST*
D10*
X163576000Y-106743500D03*
D11*
X161036000Y-106743500D03*
D10*
X125476000Y-119380000D03*
X125476000Y-116840000D03*
X128016000Y-119380000D03*
X128016000Y-116840000D03*
X130556000Y-119380000D03*
X130556000Y-116840000D03*
X133096000Y-119380000D03*
X133096000Y-116840000D03*
X135636000Y-119380000D03*
X135636000Y-116840000D03*
X138176000Y-119380000D03*
D11*
X138176000Y-116840000D03*
D10*
X155448000Y-123634500D03*
X157988000Y-123634500D03*
D11*
X160528000Y-123634500D03*
D10*
X143002000Y-81026000D03*
X140462000Y-81026000D03*
D11*
X137922000Y-81026000D03*
D10*
X130810000Y-79248000D03*
X133350000Y-79248000D03*
X130810000Y-81788000D03*
X133350000Y-81788000D03*
X130810000Y-84328000D03*
X133350000Y-84328000D03*
X130810000Y-86868000D03*
X133350000Y-86868000D03*
X130810000Y-89408000D03*
X133350000Y-89408000D03*
X130810000Y-91948000D03*
D11*
X133350000Y-91948000D03*
D10*
X171069000Y-114617500D03*
X171069000Y-112077500D03*
X171069000Y-109537500D03*
X171069000Y-106997500D03*
D11*
X171069000Y-104457500D03*
D12*
X165132000Y-86868000D03*
D13*
X165132000Y-89408000D03*
D10*
X149669500Y-104442500D03*
X147129500Y-104442500D03*
X144589500Y-104442500D03*
X142049500Y-104442500D03*
X139509500Y-104442500D03*
X136969500Y-104442500D03*
X134429500Y-104442500D03*
X131889500Y-104442500D03*
X129349500Y-104442500D03*
D11*
X126809500Y-104442500D03*
D10*
X167449500Y-127302500D03*
X167449500Y-124762500D03*
X167449500Y-122222500D03*
X167449500Y-119682500D03*
X167449500Y-117142500D03*
X167449500Y-114602500D03*
X167449500Y-112062500D03*
X167449500Y-109522500D03*
X167449500Y-106982500D03*
D11*
X167449500Y-104442500D03*
D14*
X170000000Y-74000000D03*
X170000000Y-96000000D03*
X124000000Y-96000000D03*
X124000000Y-74000000D03*
D15*
X150876000Y-83566000D03*
X159512000Y-76708000D03*
X137852000Y-90748000D03*
X138176000Y-94234000D03*
X132842000Y-72898000D03*
X163830000Y-115760500D03*
X138176000Y-87630000D03*
X139954000Y-87630000D03*
X141986000Y-87630000D03*
X158242000Y-89535000D03*
X156210000Y-89535000D03*
X144272000Y-87884000D03*
X149479000Y-86995000D03*
X147891500Y-85090000D03*
X156273500Y-117348000D03*
X155003500Y-117348000D03*
X153733500Y-117348000D03*
X125158500Y-122428000D03*
X125158500Y-125285500D03*
X148971000Y-110553500D03*
X151574500Y-108331000D03*
X163890500Y-110810500D03*
D16*
X132035001Y-88093001D02*
X130810000Y-86868000D01*
X137712999Y-88093001D02*
X132035001Y-88093001D01*
X138176000Y-87630000D02*
X137712999Y-88093001D01*
X132035001Y-85553001D02*
X130810000Y-84328000D01*
X137877001Y-85553001D02*
X132035001Y-85553001D01*
X139954000Y-87630000D02*
X137877001Y-85553001D01*
X132124999Y-83102999D02*
X130810000Y-81788000D01*
X137458999Y-83102999D02*
X132124999Y-83102999D01*
X141986000Y-87630000D02*
X137458999Y-83102999D01*
X156210000Y-89535000D02*
X158242000Y-89535000D01*
X144272000Y-87884000D02*
X144272000Y-87884000D01*
X139236999Y-82848999D02*
X144272000Y-87884000D01*
X139236999Y-79965997D02*
X139236999Y-82848999D01*
X138519002Y-79248000D02*
X139236999Y-79965997D01*
X133350000Y-79248000D02*
X138519002Y-79248000D01*
X149479000Y-86677500D02*
X149479000Y-86995000D01*
X147891500Y-85090000D02*
X149479000Y-86677500D01*
X137369001Y-80473001D02*
X137922000Y-81026000D01*
X137458999Y-80562999D02*
X137922000Y-81026000D01*
X132124999Y-80562999D02*
X137458999Y-80562999D01*
X130810000Y-79248000D02*
X132124999Y-80562999D01*
D17*
X140462000Y-79823919D02*
X137981081Y-77343000D01*
X140462000Y-81026000D02*
X140462000Y-79823919D01*
X137981081Y-77343000D02*
X129476500Y-77343000D01*
X129476500Y-77343000D02*
X128587500Y-78232000D01*
X128587500Y-87185500D02*
X130810000Y-89408000D01*
X128587500Y-78232000D02*
X128587500Y-87185500D01*
X169703999Y-103092499D02*
X171069000Y-104457500D01*
X129349500Y-104442500D02*
X130699501Y-103092499D01*
X169753999Y-103142499D02*
X171069000Y-104457500D01*
X166239499Y-103142499D02*
X169753999Y-103142499D01*
X161036000Y-103251000D02*
X161194501Y-103092499D01*
X161036000Y-106553000D02*
X161036000Y-103251000D01*
X161194501Y-103092499D02*
X169703999Y-103092499D01*
X130699501Y-103092499D02*
X161194501Y-103092499D01*
D18*
X154215489Y-115289989D02*
X156273500Y-117348000D01*
X132106011Y-115289989D02*
X154215489Y-115289989D01*
X130556000Y-116840000D02*
X132106011Y-115289989D01*
X134246001Y-115689999D02*
X153345499Y-115689999D01*
X153345499Y-115689999D02*
X155003500Y-117348000D01*
X133096000Y-116840000D02*
X134246001Y-115689999D01*
X148833499Y-116134499D02*
X152519999Y-116134499D01*
X146977997Y-117990001D02*
X148833499Y-116134499D01*
X152519999Y-116134499D02*
X153733500Y-117348000D01*
X136786001Y-117990001D02*
X146977997Y-117990001D01*
X135636000Y-116840000D02*
X136786001Y-117990001D01*
X125158500Y-122428000D02*
X125158500Y-125285500D01*
X125158500Y-125285500D02*
X125158500Y-125285500D01*
X151193500Y-108331000D02*
X151574500Y-108331000D01*
X148971000Y-110553500D02*
X151193500Y-108331000D01*
D17*
X163576000Y-110496000D02*
X163890500Y-110810500D01*
X163576000Y-106553000D02*
X163576000Y-110496000D01*
D19*
G36*
X127342095Y-102524677D02*
G01*
X127503155Y-102591390D01*
X127674135Y-102625400D01*
X127848465Y-102625400D01*
X128019445Y-102591390D01*
X128136300Y-102542987D01*
X128253155Y-102591390D01*
X128424135Y-102625400D01*
X128598465Y-102625400D01*
X128769445Y-102591390D01*
X128886300Y-102542987D01*
X129003155Y-102591390D01*
X129174135Y-102625400D01*
X129348465Y-102625400D01*
X129519445Y-102591390D01*
X129680505Y-102524677D01*
X129755869Y-102474320D01*
X129817880Y-102507292D01*
X129873192Y-102530090D01*
X129928166Y-102553652D01*
X129936969Y-102556377D01*
X129973127Y-102567294D01*
X129568460Y-102971961D01*
X129495760Y-102957500D01*
X129203240Y-102957500D01*
X128916342Y-103014568D01*
X128646089Y-103126510D01*
X128402868Y-103289025D01*
X128271013Y-103420880D01*
X128249002Y-103348320D01*
X128190037Y-103238006D01*
X128110685Y-103141315D01*
X128013994Y-103061963D01*
X127903680Y-103002998D01*
X127783982Y-102966688D01*
X127659500Y-102954428D01*
X127095250Y-102957500D01*
X126936500Y-103116250D01*
X126936500Y-104315500D01*
X126956500Y-104315500D01*
X126956500Y-104569500D01*
X126936500Y-104569500D01*
X126936500Y-105768750D01*
X127095250Y-105927500D01*
X127659500Y-105930572D01*
X127783982Y-105918312D01*
X127903680Y-105882002D01*
X128013994Y-105823037D01*
X128110685Y-105743685D01*
X128190037Y-105646994D01*
X128249002Y-105536680D01*
X128271013Y-105464120D01*
X128402868Y-105595975D01*
X128646089Y-105758490D01*
X128916342Y-105870432D01*
X129203240Y-105927500D01*
X129495760Y-105927500D01*
X129782658Y-105870432D01*
X130052911Y-105758490D01*
X130296132Y-105595975D01*
X130502975Y-105389132D01*
X130619500Y-105214740D01*
X130736025Y-105389132D01*
X130942868Y-105595975D01*
X131186089Y-105758490D01*
X131456342Y-105870432D01*
X131743240Y-105927500D01*
X132035760Y-105927500D01*
X132322658Y-105870432D01*
X132592911Y-105758490D01*
X132836132Y-105595975D01*
X133042975Y-105389132D01*
X133159500Y-105214740D01*
X133276025Y-105389132D01*
X133482868Y-105595975D01*
X133726089Y-105758490D01*
X133996342Y-105870432D01*
X134283240Y-105927500D01*
X134575760Y-105927500D01*
X134862658Y-105870432D01*
X135132911Y-105758490D01*
X135376132Y-105595975D01*
X135582975Y-105389132D01*
X135699500Y-105214740D01*
X135816025Y-105389132D01*
X136022868Y-105595975D01*
X136266089Y-105758490D01*
X136536342Y-105870432D01*
X136823240Y-105927500D01*
X137115760Y-105927500D01*
X137402658Y-105870432D01*
X137672911Y-105758490D01*
X137916132Y-105595975D01*
X138122975Y-105389132D01*
X138239500Y-105214740D01*
X138356025Y-105389132D01*
X138562868Y-105595975D01*
X138806089Y-105758490D01*
X139076342Y-105870432D01*
X139363240Y-105927500D01*
X139655760Y-105927500D01*
X139942658Y-105870432D01*
X140212911Y-105758490D01*
X140456132Y-105595975D01*
X140662975Y-105389132D01*
X140779500Y-105214740D01*
X140896025Y-105389132D01*
X141102868Y-105595975D01*
X141346089Y-105758490D01*
X141616342Y-105870432D01*
X141903240Y-105927500D01*
X142195760Y-105927500D01*
X142482658Y-105870432D01*
X142752911Y-105758490D01*
X142996132Y-105595975D01*
X143202975Y-105389132D01*
X143319500Y-105214740D01*
X143436025Y-105389132D01*
X143642868Y-105595975D01*
X143886089Y-105758490D01*
X144156342Y-105870432D01*
X144443240Y-105927500D01*
X144735760Y-105927500D01*
X145022658Y-105870432D01*
X145292911Y-105758490D01*
X145536132Y-105595975D01*
X145742975Y-105389132D01*
X145859500Y-105214740D01*
X145976025Y-105389132D01*
X146182868Y-105595975D01*
X146426089Y-105758490D01*
X146696342Y-105870432D01*
X146983240Y-105927500D01*
X147275760Y-105927500D01*
X147562658Y-105870432D01*
X147832911Y-105758490D01*
X148076132Y-105595975D01*
X148282975Y-105389132D01*
X148399500Y-105214740D01*
X148516025Y-105389132D01*
X148722868Y-105595975D01*
X148966089Y-105758490D01*
X149236342Y-105870432D01*
X149523240Y-105927500D01*
X149815760Y-105927500D01*
X150102658Y-105870432D01*
X150372911Y-105758490D01*
X150616132Y-105595975D01*
X150822975Y-105389132D01*
X150985490Y-105145911D01*
X151097432Y-104875658D01*
X151154500Y-104588760D01*
X151154500Y-104296240D01*
X151097432Y-104009342D01*
X151084242Y-103977499D01*
X160151001Y-103977499D01*
X160151000Y-105258875D01*
X160061518Y-105267688D01*
X159941820Y-105303998D01*
X159831506Y-105362963D01*
X159734815Y-105442315D01*
X159655463Y-105539006D01*
X159596498Y-105649320D01*
X159560188Y-105769018D01*
X159547928Y-105893500D01*
X159547928Y-107593500D01*
X159560188Y-107717982D01*
X159596498Y-107837680D01*
X159655463Y-107947994D01*
X159734815Y-108044685D01*
X159831506Y-108124037D01*
X159941820Y-108183002D01*
X160061518Y-108219312D01*
X160186000Y-108231572D01*
X161886000Y-108231572D01*
X162010482Y-108219312D01*
X162130180Y-108183002D01*
X162240494Y-108124037D01*
X162337185Y-108044685D01*
X162416537Y-107947994D01*
X162475502Y-107837680D01*
X162497513Y-107765120D01*
X162629368Y-107896975D01*
X162691000Y-107938156D01*
X162691001Y-110452521D01*
X162686719Y-110496000D01*
X162703805Y-110669490D01*
X162754412Y-110836313D01*
X162836590Y-110990059D01*
X162881928Y-111045304D01*
X162895274Y-111112398D01*
X162973295Y-111300756D01*
X163086563Y-111470274D01*
X163230726Y-111614437D01*
X163400244Y-111727705D01*
X163588602Y-111805726D01*
X163788561Y-111845500D01*
X163992439Y-111845500D01*
X164192398Y-111805726D01*
X164380756Y-111727705D01*
X164550274Y-111614437D01*
X164694437Y-111470274D01*
X164807705Y-111300756D01*
X164885726Y-111112398D01*
X164925500Y-110912439D01*
X164925500Y-110708561D01*
X164885726Y-110508602D01*
X164807705Y-110320244D01*
X164694437Y-110150726D01*
X164550274Y-110006563D01*
X164461000Y-109946912D01*
X164461000Y-107938156D01*
X164522632Y-107896975D01*
X164729475Y-107690132D01*
X164891990Y-107446911D01*
X165003932Y-107176658D01*
X165061000Y-106889760D01*
X165061000Y-106597240D01*
X165003932Y-106310342D01*
X164891990Y-106040089D01*
X164729475Y-105796868D01*
X164522632Y-105590025D01*
X164279411Y-105427510D01*
X164009158Y-105315568D01*
X163893189Y-105292500D01*
X165961428Y-105292500D01*
X165973688Y-105416982D01*
X166009998Y-105536680D01*
X166068963Y-105646994D01*
X166148315Y-105743685D01*
X166245006Y-105823037D01*
X166355320Y-105882002D01*
X166427880Y-105904013D01*
X166296025Y-106035868D01*
X166133510Y-106279089D01*
X166021568Y-106549342D01*
X165964500Y-106836240D01*
X165964500Y-107128760D01*
X166021568Y-107415658D01*
X166133510Y-107685911D01*
X166296025Y-107929132D01*
X166502868Y-108135975D01*
X166677260Y-108252500D01*
X166502868Y-108369025D01*
X166296025Y-108575868D01*
X166133510Y-108819089D01*
X166021568Y-109089342D01*
X165964500Y-109376240D01*
X165964500Y-109668760D01*
X166021568Y-109955658D01*
X166133510Y-110225911D01*
X166296025Y-110469132D01*
X166502868Y-110675975D01*
X166677260Y-110792500D01*
X166502868Y-110909025D01*
X166296025Y-111115868D01*
X166133510Y-111359089D01*
X166021568Y-111629342D01*
X165964500Y-111916240D01*
X165964500Y-112208760D01*
X166021568Y-112495658D01*
X166133510Y-112765911D01*
X166296025Y-113009132D01*
X166502868Y-113215975D01*
X166677260Y-113332500D01*
X166502868Y-113449025D01*
X166296025Y-113655868D01*
X166133510Y-113899089D01*
X166021568Y-114169342D01*
X165964500Y-114456240D01*
X165964500Y-114748760D01*
X166021568Y-115035658D01*
X166133510Y-115305911D01*
X166296025Y-115549132D01*
X166502868Y-115755975D01*
X166677260Y-115872500D01*
X166502868Y-115989025D01*
X166296025Y-116195868D01*
X166133510Y-116439089D01*
X166021568Y-116709342D01*
X165964500Y-116996240D01*
X165964500Y-117288760D01*
X166021568Y-117575658D01*
X166133510Y-117845911D01*
X166296025Y-118089132D01*
X166502868Y-118295975D01*
X166677260Y-118412500D01*
X166502868Y-118529025D01*
X166296025Y-118735868D01*
X166133510Y-118979089D01*
X166021568Y-119249342D01*
X165964500Y-119536240D01*
X165964500Y-119828760D01*
X166021568Y-120115658D01*
X166133510Y-120385911D01*
X166296025Y-120629132D01*
X166502868Y-120835975D01*
X166677260Y-120952500D01*
X166502868Y-121069025D01*
X166296025Y-121275868D01*
X166133510Y-121519089D01*
X166021568Y-121789342D01*
X165964500Y-122076240D01*
X165964500Y-122368760D01*
X166021568Y-122655658D01*
X166133510Y-122925911D01*
X166296025Y-123169132D01*
X166502868Y-123375975D01*
X166677260Y-123492500D01*
X166502868Y-123609025D01*
X166296025Y-123815868D01*
X166133510Y-124059089D01*
X166021568Y-124329342D01*
X165964500Y-124616240D01*
X165964500Y-124908760D01*
X166021568Y-125195658D01*
X166133510Y-125465911D01*
X166296025Y-125709132D01*
X166502868Y-125915975D01*
X166677260Y-126032500D01*
X166502868Y-126149025D01*
X166296025Y-126355868D01*
X166133510Y-126599089D01*
X166021568Y-126869342D01*
X165964500Y-127156240D01*
X165964500Y-127448760D01*
X166021568Y-127735658D01*
X166133510Y-128005911D01*
X166296025Y-128249132D01*
X166502868Y-128455975D01*
X166746089Y-128618490D01*
X167016342Y-128730432D01*
X167303240Y-128787500D01*
X167595760Y-128787500D01*
X167882658Y-128730432D01*
X168152911Y-128618490D01*
X168396132Y-128455975D01*
X168602975Y-128249132D01*
X168765490Y-128005911D01*
X168877432Y-127735658D01*
X168934500Y-127448760D01*
X168934500Y-127156240D01*
X168877432Y-126869342D01*
X168765490Y-126599089D01*
X168602975Y-126355868D01*
X168396132Y-126149025D01*
X168221740Y-126032500D01*
X168396132Y-125915975D01*
X168602975Y-125709132D01*
X168765490Y-125465911D01*
X168877432Y-125195658D01*
X168934500Y-124908760D01*
X168934500Y-124616240D01*
X168877432Y-124329342D01*
X168765490Y-124059089D01*
X168602975Y-123815868D01*
X168396132Y-123609025D01*
X168221740Y-123492500D01*
X168396132Y-123375975D01*
X168602975Y-123169132D01*
X168765490Y-122925911D01*
X168877432Y-122655658D01*
X168934500Y-122368760D01*
X168934500Y-122076240D01*
X168877432Y-121789342D01*
X168765490Y-121519089D01*
X168602975Y-121275868D01*
X168396132Y-121069025D01*
X168221740Y-120952500D01*
X168396132Y-120835975D01*
X168602975Y-120629132D01*
X168765490Y-120385911D01*
X168877432Y-120115658D01*
X168934500Y-119828760D01*
X168934500Y-119536240D01*
X168877432Y-119249342D01*
X168765490Y-118979089D01*
X168602975Y-118735868D01*
X168396132Y-118529025D01*
X168221740Y-118412500D01*
X168396132Y-118295975D01*
X168602975Y-118089132D01*
X168765490Y-117845911D01*
X168877432Y-117575658D01*
X168934500Y-117288760D01*
X168934500Y-116996240D01*
X168877432Y-116709342D01*
X168765490Y-116439089D01*
X168602975Y-116195868D01*
X168396132Y-115989025D01*
X168221740Y-115872500D01*
X168396132Y-115755975D01*
X168602975Y-115549132D01*
X168765490Y-115305911D01*
X168877432Y-115035658D01*
X168889619Y-114974390D01*
X169627524Y-114974390D01*
X169672175Y-115121599D01*
X169797359Y-115384420D01*
X169971412Y-115617769D01*
X170187645Y-115812678D01*
X170437748Y-115961657D01*
X170712109Y-116058981D01*
X170942000Y-115938314D01*
X170942000Y-114744500D01*
X171196000Y-114744500D01*
X171196000Y-115938314D01*
X171425891Y-116058981D01*
X171700252Y-115961657D01*
X171950355Y-115812678D01*
X172166588Y-115617769D01*
X172340641Y-115384420D01*
X172465825Y-115121599D01*
X172510476Y-114974390D01*
X172389155Y-114744500D01*
X171196000Y-114744500D01*
X170942000Y-114744500D01*
X169748845Y-114744500D01*
X169627524Y-114974390D01*
X168889619Y-114974390D01*
X168934500Y-114748760D01*
X168934500Y-114456240D01*
X168877432Y-114169342D01*
X168765490Y-113899089D01*
X168602975Y-113655868D01*
X168396132Y-113449025D01*
X168221740Y-113332500D01*
X168396132Y-113215975D01*
X168602975Y-113009132D01*
X168765490Y-112765911D01*
X168877432Y-112495658D01*
X168934500Y-112208760D01*
X168934500Y-111916240D01*
X168877432Y-111629342D01*
X168765490Y-111359089D01*
X168602975Y-111115868D01*
X168396132Y-110909025D01*
X168221740Y-110792500D01*
X168396132Y-110675975D01*
X168602975Y-110469132D01*
X168765490Y-110225911D01*
X168877432Y-109955658D01*
X168934500Y-109668760D01*
X168934500Y-109376240D01*
X168877432Y-109089342D01*
X168765490Y-108819089D01*
X168602975Y-108575868D01*
X168396132Y-108369025D01*
X168221740Y-108252500D01*
X168396132Y-108135975D01*
X168602975Y-107929132D01*
X168765490Y-107685911D01*
X168877432Y-107415658D01*
X168934500Y-107128760D01*
X168934500Y-106836240D01*
X168877432Y-106549342D01*
X168765490Y-106279089D01*
X168602975Y-106035868D01*
X168471120Y-105904013D01*
X168543680Y-105882002D01*
X168653994Y-105823037D01*
X168750685Y-105743685D01*
X168830037Y-105646994D01*
X168889002Y-105536680D01*
X168925312Y-105416982D01*
X168937572Y-105292500D01*
X168934500Y-104728250D01*
X168775750Y-104569500D01*
X167576500Y-104569500D01*
X167576500Y-104589500D01*
X167322500Y-104589500D01*
X167322500Y-104569500D01*
X166123250Y-104569500D01*
X165964500Y-104728250D01*
X165961428Y-105292500D01*
X163893189Y-105292500D01*
X163722260Y-105258500D01*
X163429740Y-105258500D01*
X163142842Y-105315568D01*
X162872589Y-105427510D01*
X162629368Y-105590025D01*
X162497513Y-105721880D01*
X162475502Y-105649320D01*
X162416537Y-105539006D01*
X162337185Y-105442315D01*
X162240494Y-105362963D01*
X162130180Y-105303998D01*
X162010482Y-105267688D01*
X161921000Y-105258875D01*
X161921000Y-103977499D01*
X165943395Y-103977499D01*
X165963557Y-103983615D01*
X165964500Y-104156750D01*
X166123250Y-104315500D01*
X167322500Y-104315500D01*
X167322500Y-104295500D01*
X167576500Y-104295500D01*
X167576500Y-104315500D01*
X168775750Y-104315500D01*
X168934500Y-104156750D01*
X168935204Y-104027499D01*
X169387421Y-104027499D01*
X169580928Y-104221006D01*
X169580928Y-105307500D01*
X169593188Y-105431982D01*
X169629498Y-105551680D01*
X169688463Y-105661994D01*
X169767815Y-105758685D01*
X169864506Y-105838037D01*
X169974820Y-105897002D01*
X170047380Y-105919013D01*
X169915525Y-106050868D01*
X169753010Y-106294089D01*
X169641068Y-106564342D01*
X169584000Y-106851240D01*
X169584000Y-107143760D01*
X169641068Y-107430658D01*
X169753010Y-107700911D01*
X169915525Y-107944132D01*
X170122368Y-108150975D01*
X170296760Y-108267500D01*
X170122368Y-108384025D01*
X169915525Y-108590868D01*
X169753010Y-108834089D01*
X169641068Y-109104342D01*
X169584000Y-109391240D01*
X169584000Y-109683760D01*
X169641068Y-109970658D01*
X169753010Y-110240911D01*
X169915525Y-110484132D01*
X170122368Y-110690975D01*
X170296760Y-110807500D01*
X170122368Y-110924025D01*
X169915525Y-111130868D01*
X169753010Y-111374089D01*
X169641068Y-111644342D01*
X169584000Y-111931240D01*
X169584000Y-112223760D01*
X169641068Y-112510658D01*
X169753010Y-112780911D01*
X169915525Y-113024132D01*
X170122368Y-113230975D01*
X170304534Y-113352695D01*
X170187645Y-113422322D01*
X169971412Y-113617231D01*
X169797359Y-113850580D01*
X169672175Y-114113401D01*
X169627524Y-114260610D01*
X169748845Y-114490500D01*
X170942000Y-114490500D01*
X170942000Y-114470500D01*
X171196000Y-114470500D01*
X171196000Y-114490500D01*
X172389155Y-114490500D01*
X172510476Y-114260610D01*
X172465825Y-114113401D01*
X172340641Y-113850580D01*
X172166588Y-113617231D01*
X171950355Y-113422322D01*
X171833466Y-113352695D01*
X172015632Y-113230975D01*
X172222475Y-113024132D01*
X172384990Y-112780911D01*
X172496932Y-112510658D01*
X172554000Y-112223760D01*
X172554000Y-111931240D01*
X172496932Y-111644342D01*
X172384990Y-111374089D01*
X172222475Y-111130868D01*
X172015632Y-110924025D01*
X171841240Y-110807500D01*
X172015632Y-110690975D01*
X172222475Y-110484132D01*
X172384990Y-110240911D01*
X172496932Y-109970658D01*
X172554000Y-109683760D01*
X172554000Y-109391240D01*
X172496932Y-109104342D01*
X172384990Y-108834089D01*
X172222475Y-108590868D01*
X172015632Y-108384025D01*
X171841240Y-108267500D01*
X172015632Y-108150975D01*
X172222475Y-107944132D01*
X172384990Y-107700911D01*
X172496932Y-107430658D01*
X172554000Y-107143760D01*
X172554000Y-106851240D01*
X172496932Y-106564342D01*
X172384990Y-106294089D01*
X172222475Y-106050868D01*
X172090620Y-105919013D01*
X172163180Y-105897002D01*
X172273494Y-105838037D01*
X172370185Y-105758685D01*
X172449537Y-105661994D01*
X172508502Y-105551680D01*
X172544812Y-105431982D01*
X172557072Y-105307500D01*
X172557072Y-103607500D01*
X172544812Y-103483018D01*
X172508502Y-103363320D01*
X172449537Y-103253006D01*
X172370185Y-103156315D01*
X172273494Y-103076963D01*
X172163180Y-103017998D01*
X172043482Y-102981688D01*
X171919000Y-102969428D01*
X170832506Y-102969428D01*
X170523078Y-102660000D01*
X171967721Y-102660000D01*
X172259659Y-102688625D01*
X172509429Y-102764035D01*
X172739792Y-102886522D01*
X172941980Y-103051422D01*
X173108286Y-103252450D01*
X173232378Y-103481954D01*
X173309531Y-103731195D01*
X173340000Y-104021089D01*
X173340001Y-127967711D01*
X173311375Y-128259660D01*
X173235965Y-128509429D01*
X173113477Y-128739794D01*
X172948579Y-128941979D01*
X172747546Y-129108288D01*
X172518046Y-129232378D01*
X172268805Y-129309531D01*
X171978911Y-129340000D01*
X122032279Y-129340000D01*
X121740340Y-129311375D01*
X121490571Y-129235965D01*
X121260206Y-129113477D01*
X121058021Y-128948579D01*
X120891712Y-128747546D01*
X120767622Y-128518046D01*
X120690469Y-128268805D01*
X120660000Y-127978911D01*
X120660000Y-122326061D01*
X124123500Y-122326061D01*
X124123500Y-122529939D01*
X124163274Y-122729898D01*
X124241295Y-122918256D01*
X124354563Y-123087774D01*
X124423500Y-123156711D01*
X124423501Y-124556788D01*
X124354563Y-124625726D01*
X124241295Y-124795244D01*
X124163274Y-124983602D01*
X124123500Y-125183561D01*
X124123500Y-125387439D01*
X124163274Y-125587398D01*
X124241295Y-125775756D01*
X124354563Y-125945274D01*
X124498726Y-126089437D01*
X124668244Y-126202705D01*
X124856602Y-126280726D01*
X125056561Y-126320500D01*
X125260439Y-126320500D01*
X125460398Y-126280726D01*
X125648756Y-126202705D01*
X125818274Y-126089437D01*
X125962437Y-125945274D01*
X126075705Y-125775756D01*
X126153726Y-125587398D01*
X126193500Y-125387439D01*
X126193500Y-125183561D01*
X126153726Y-124983602D01*
X126075705Y-124795244D01*
X125962437Y-124625726D01*
X125893500Y-124556789D01*
X125893500Y-123488240D01*
X153963000Y-123488240D01*
X153963000Y-123780760D01*
X154020068Y-124067658D01*
X154132010Y-124337911D01*
X154294525Y-124581132D01*
X154501368Y-124787975D01*
X154744589Y-124950490D01*
X155014842Y-125062432D01*
X155301740Y-125119500D01*
X155594260Y-125119500D01*
X155881158Y-125062432D01*
X156151411Y-124950490D01*
X156394632Y-124787975D01*
X156601475Y-124581132D01*
X156718000Y-124406740D01*
X156834525Y-124581132D01*
X157041368Y-124787975D01*
X157284589Y-124950490D01*
X157554842Y-125062432D01*
X157841740Y-125119500D01*
X158134260Y-125119500D01*
X158421158Y-125062432D01*
X158691411Y-124950490D01*
X158934632Y-124787975D01*
X159066487Y-124656120D01*
X159088498Y-124728680D01*
X159147463Y-124838994D01*
X159226815Y-124935685D01*
X159323506Y-125015037D01*
X159433820Y-125074002D01*
X159553518Y-125110312D01*
X159678000Y-125122572D01*
X160242250Y-125119500D01*
X160401000Y-124960750D01*
X160401000Y-123761500D01*
X160655000Y-123761500D01*
X160655000Y-124960750D01*
X160813750Y-125119500D01*
X161378000Y-125122572D01*
X161502482Y-125110312D01*
X161622180Y-125074002D01*
X161732494Y-125015037D01*
X161829185Y-124935685D01*
X161908537Y-124838994D01*
X161967502Y-124728680D01*
X162003812Y-124608982D01*
X162016072Y-124484500D01*
X162013000Y-123920250D01*
X161854250Y-123761500D01*
X160655000Y-123761500D01*
X160401000Y-123761500D01*
X160381000Y-123761500D01*
X160381000Y-123507500D01*
X160401000Y-123507500D01*
X160401000Y-122308250D01*
X160655000Y-122308250D01*
X160655000Y-123507500D01*
X161854250Y-123507500D01*
X162013000Y-123348750D01*
X162016072Y-122784500D01*
X162003812Y-122660018D01*
X161967502Y-122540320D01*
X161908537Y-122430006D01*
X161829185Y-122333315D01*
X161732494Y-122253963D01*
X161622180Y-122194998D01*
X161502482Y-122158688D01*
X161378000Y-122146428D01*
X160813750Y-122149500D01*
X160655000Y-122308250D01*
X160401000Y-122308250D01*
X160242250Y-122149500D01*
X159678000Y-122146428D01*
X159553518Y-122158688D01*
X159433820Y-122194998D01*
X159323506Y-122253963D01*
X159226815Y-122333315D01*
X159147463Y-122430006D01*
X159088498Y-122540320D01*
X159066487Y-122612880D01*
X158934632Y-122481025D01*
X158691411Y-122318510D01*
X158421158Y-122206568D01*
X158134260Y-122149500D01*
X157841740Y-122149500D01*
X157554842Y-122206568D01*
X157284589Y-122318510D01*
X157041368Y-122481025D01*
X156834525Y-122687868D01*
X156718000Y-122862260D01*
X156601475Y-122687868D01*
X156394632Y-122481025D01*
X156151411Y-122318510D01*
X155881158Y-122206568D01*
X155594260Y-122149500D01*
X155301740Y-122149500D01*
X155014842Y-122206568D01*
X154744589Y-122318510D01*
X154501368Y-122481025D01*
X154294525Y-122687868D01*
X154132010Y-122931089D01*
X154020068Y-123201342D01*
X153963000Y-123488240D01*
X125893500Y-123488240D01*
X125893500Y-123156711D01*
X125962437Y-123087774D01*
X126075705Y-122918256D01*
X126153726Y-122729898D01*
X126193500Y-122529939D01*
X126193500Y-122326061D01*
X126153726Y-122126102D01*
X126075705Y-121937744D01*
X125962437Y-121768226D01*
X125818274Y-121624063D01*
X125648756Y-121510795D01*
X125460398Y-121432774D01*
X125260439Y-121393000D01*
X125056561Y-121393000D01*
X124856602Y-121432774D01*
X124668244Y-121510795D01*
X124498726Y-121624063D01*
X124354563Y-121768226D01*
X124241295Y-121937744D01*
X124163274Y-122126102D01*
X124123500Y-122326061D01*
X120660000Y-122326061D01*
X120660000Y-119233740D01*
X123991000Y-119233740D01*
X123991000Y-119526260D01*
X124048068Y-119813158D01*
X124160010Y-120083411D01*
X124322525Y-120326632D01*
X124529368Y-120533475D01*
X124772589Y-120695990D01*
X125042842Y-120807932D01*
X125329740Y-120865000D01*
X125622260Y-120865000D01*
X125909158Y-120807932D01*
X126179411Y-120695990D01*
X126422632Y-120533475D01*
X126629475Y-120326632D01*
X126746000Y-120152240D01*
X126862525Y-120326632D01*
X127069368Y-120533475D01*
X127312589Y-120695990D01*
X127582842Y-120807932D01*
X127869740Y-120865000D01*
X128162260Y-120865000D01*
X128449158Y-120807932D01*
X128719411Y-120695990D01*
X128962632Y-120533475D01*
X129169475Y-120326632D01*
X129286000Y-120152240D01*
X129402525Y-120326632D01*
X129609368Y-120533475D01*
X129852589Y-120695990D01*
X130122842Y-120807932D01*
X130409740Y-120865000D01*
X130702260Y-120865000D01*
X130989158Y-120807932D01*
X131259411Y-120695990D01*
X131502632Y-120533475D01*
X131709475Y-120326632D01*
X131826000Y-120152240D01*
X131942525Y-120326632D01*
X132149368Y-120533475D01*
X132392589Y-120695990D01*
X132662842Y-120807932D01*
X132949740Y-120865000D01*
X133242260Y-120865000D01*
X133529158Y-120807932D01*
X133799411Y-120695990D01*
X134042632Y-120533475D01*
X134249475Y-120326632D01*
X134366000Y-120152240D01*
X134482525Y-120326632D01*
X134689368Y-120533475D01*
X134932589Y-120695990D01*
X135202842Y-120807932D01*
X135489740Y-120865000D01*
X135782260Y-120865000D01*
X136069158Y-120807932D01*
X136339411Y-120695990D01*
X136582632Y-120533475D01*
X136789475Y-120326632D01*
X136906000Y-120152240D01*
X137022525Y-120326632D01*
X137229368Y-120533475D01*
X137472589Y-120695990D01*
X137742842Y-120807932D01*
X138029740Y-120865000D01*
X138322260Y-120865000D01*
X138609158Y-120807932D01*
X138879411Y-120695990D01*
X139122632Y-120533475D01*
X139329475Y-120326632D01*
X139491990Y-120083411D01*
X139603932Y-119813158D01*
X139661000Y-119526260D01*
X139661000Y-119233740D01*
X139603932Y-118946842D01*
X139512043Y-118725001D01*
X146941892Y-118725001D01*
X146977997Y-118728557D01*
X147014102Y-118725001D01*
X147122082Y-118714366D01*
X147260630Y-118672338D01*
X147388317Y-118604088D01*
X147500235Y-118512239D01*
X147523255Y-118484189D01*
X149137946Y-116869499D01*
X152215553Y-116869499D01*
X152698500Y-117352447D01*
X152698500Y-117449939D01*
X152738274Y-117649898D01*
X152816295Y-117838256D01*
X152929563Y-118007774D01*
X153073726Y-118151937D01*
X153243244Y-118265205D01*
X153431602Y-118343226D01*
X153631561Y-118383000D01*
X153835439Y-118383000D01*
X154035398Y-118343226D01*
X154223756Y-118265205D01*
X154368500Y-118168490D01*
X154513244Y-118265205D01*
X154701602Y-118343226D01*
X154901561Y-118383000D01*
X155105439Y-118383000D01*
X155305398Y-118343226D01*
X155493756Y-118265205D01*
X155638500Y-118168490D01*
X155783244Y-118265205D01*
X155971602Y-118343226D01*
X156171561Y-118383000D01*
X156375439Y-118383000D01*
X156575398Y-118343226D01*
X156763756Y-118265205D01*
X156933274Y-118151937D01*
X157077437Y-118007774D01*
X157190705Y-117838256D01*
X157268726Y-117649898D01*
X157308500Y-117449939D01*
X157308500Y-117246061D01*
X157268726Y-117046102D01*
X157190705Y-116857744D01*
X157077437Y-116688226D01*
X156933274Y-116544063D01*
X156763756Y-116430795D01*
X156575398Y-116352774D01*
X156375439Y-116313000D01*
X156277947Y-116313000D01*
X154760747Y-114795801D01*
X154737727Y-114767751D01*
X154625809Y-114675902D01*
X154498122Y-114607652D01*
X154359574Y-114565624D01*
X154251594Y-114554989D01*
X154215489Y-114551433D01*
X154179384Y-114554989D01*
X132142116Y-114554989D01*
X132106011Y-114551433D01*
X131961926Y-114565624D01*
X131823377Y-114607652D01*
X131695691Y-114675902D01*
X131583773Y-114767751D01*
X131560757Y-114795796D01*
X130951897Y-115404656D01*
X130702260Y-115355000D01*
X130409740Y-115355000D01*
X130122842Y-115412068D01*
X129852589Y-115524010D01*
X129609368Y-115686525D01*
X129402525Y-115893368D01*
X129280805Y-116075534D01*
X129211178Y-115958645D01*
X129016269Y-115742412D01*
X128782920Y-115568359D01*
X128520099Y-115443175D01*
X128372890Y-115398524D01*
X128143000Y-115519845D01*
X128143000Y-116713000D01*
X128163000Y-116713000D01*
X128163000Y-116967000D01*
X128143000Y-116967000D01*
X128143000Y-116987000D01*
X127889000Y-116987000D01*
X127889000Y-116967000D01*
X125603000Y-116967000D01*
X125603000Y-116987000D01*
X125349000Y-116987000D01*
X125349000Y-116967000D01*
X124155186Y-116967000D01*
X124034519Y-117196891D01*
X124131843Y-117471252D01*
X124280822Y-117721355D01*
X124475731Y-117937588D01*
X124705406Y-118108900D01*
X124529368Y-118226525D01*
X124322525Y-118433368D01*
X124160010Y-118676589D01*
X124048068Y-118946842D01*
X123991000Y-119233740D01*
X120660000Y-119233740D01*
X120660000Y-116483109D01*
X124034519Y-116483109D01*
X124155186Y-116713000D01*
X125349000Y-116713000D01*
X125349000Y-115519845D01*
X125603000Y-115519845D01*
X125603000Y-116713000D01*
X127889000Y-116713000D01*
X127889000Y-115519845D01*
X127659110Y-115398524D01*
X127511901Y-115443175D01*
X127249080Y-115568359D01*
X127015731Y-115742412D01*
X126820822Y-115958645D01*
X126746000Y-116084255D01*
X126671178Y-115958645D01*
X126476269Y-115742412D01*
X126242920Y-115568359D01*
X125980099Y-115443175D01*
X125832890Y-115398524D01*
X125603000Y-115519845D01*
X125349000Y-115519845D01*
X125119110Y-115398524D01*
X124971901Y-115443175D01*
X124709080Y-115568359D01*
X124475731Y-115742412D01*
X124280822Y-115958645D01*
X124131843Y-116208748D01*
X124034519Y-116483109D01*
X120660000Y-116483109D01*
X120660000Y-110451561D01*
X147936000Y-110451561D01*
X147936000Y-110655439D01*
X147975774Y-110855398D01*
X148053795Y-111043756D01*
X148167063Y-111213274D01*
X148311226Y-111357437D01*
X148480744Y-111470705D01*
X148669102Y-111548726D01*
X148869061Y-111588500D01*
X149072939Y-111588500D01*
X149272898Y-111548726D01*
X149461256Y-111470705D01*
X149630774Y-111357437D01*
X149774937Y-111213274D01*
X149888205Y-111043756D01*
X149966226Y-110855398D01*
X150006000Y-110655439D01*
X150006000Y-110557946D01*
X151247937Y-109316009D01*
X151272602Y-109326226D01*
X151472561Y-109366000D01*
X151676439Y-109366000D01*
X151876398Y-109326226D01*
X152064756Y-109248205D01*
X152234274Y-109134937D01*
X152378437Y-108990774D01*
X152491705Y-108821256D01*
X152569726Y-108632898D01*
X152609500Y-108432939D01*
X152609500Y-108229061D01*
X152569726Y-108029102D01*
X152491705Y-107840744D01*
X152378437Y-107671226D01*
X152234274Y-107527063D01*
X152064756Y-107413795D01*
X151876398Y-107335774D01*
X151676439Y-107296000D01*
X151472561Y-107296000D01*
X151272602Y-107335774D01*
X151084244Y-107413795D01*
X150914726Y-107527063D01*
X150770563Y-107671226D01*
X150687653Y-107795311D01*
X150671262Y-107808762D01*
X150648246Y-107836807D01*
X148966554Y-109518500D01*
X148869061Y-109518500D01*
X148669102Y-109558274D01*
X148480744Y-109636295D01*
X148311226Y-109749563D01*
X148167063Y-109893726D01*
X148053795Y-110063244D01*
X147975774Y-110251602D01*
X147936000Y-110451561D01*
X120660000Y-110451561D01*
X120660000Y-105292500D01*
X125321428Y-105292500D01*
X125333688Y-105416982D01*
X125369998Y-105536680D01*
X125428963Y-105646994D01*
X125508315Y-105743685D01*
X125605006Y-105823037D01*
X125715320Y-105882002D01*
X125835018Y-105918312D01*
X125959500Y-105930572D01*
X126523750Y-105927500D01*
X126682500Y-105768750D01*
X126682500Y-104569500D01*
X125483250Y-104569500D01*
X125324500Y-104728250D01*
X125321428Y-105292500D01*
X120660000Y-105292500D01*
X120660000Y-104032279D01*
X120688625Y-103740341D01*
X120733260Y-103592500D01*
X125321428Y-103592500D01*
X125324500Y-104156750D01*
X125483250Y-104315500D01*
X126682500Y-104315500D01*
X126682500Y-103116250D01*
X126523750Y-102957500D01*
X125959500Y-102954428D01*
X125835018Y-102966688D01*
X125715320Y-103002998D01*
X125605006Y-103061963D01*
X125508315Y-103141315D01*
X125428963Y-103238006D01*
X125369998Y-103348320D01*
X125333688Y-103468018D01*
X125321428Y-103592500D01*
X120733260Y-103592500D01*
X120764035Y-103490571D01*
X120886522Y-103260208D01*
X121051422Y-103058020D01*
X121252450Y-102891714D01*
X121481954Y-102767622D01*
X121731195Y-102690469D01*
X122021088Y-102660000D01*
X126541219Y-102660000D01*
X126574187Y-102656753D01*
X126587167Y-102656753D01*
X126596332Y-102655790D01*
X126790281Y-102634035D01*
X126848766Y-102621603D01*
X126907476Y-102609978D01*
X126916279Y-102607253D01*
X127102309Y-102548240D01*
X127157319Y-102524662D01*
X127212594Y-102501880D01*
X127220700Y-102497497D01*
X127264983Y-102473152D01*
X127342095Y-102524677D01*
G37*
X127342095Y-102524677D02*
X127503155Y-102591390D01*
X127674135Y-102625400D01*
X127848465Y-102625400D01*
X128019445Y-102591390D01*
X128136300Y-102542987D01*
X128253155Y-102591390D01*
X128424135Y-102625400D01*
X128598465Y-102625400D01*
X128769445Y-102591390D01*
X128886300Y-102542987D01*
X129003155Y-102591390D01*
X129174135Y-102625400D01*
X129348465Y-102625400D01*
X129519445Y-102591390D01*
X129680505Y-102524677D01*
X129755869Y-102474320D01*
X129817880Y-102507292D01*
X129873192Y-102530090D01*
X129928166Y-102553652D01*
X129936969Y-102556377D01*
X129973127Y-102567294D01*
X129568460Y-102971961D01*
X129495760Y-102957500D01*
X129203240Y-102957500D01*
X128916342Y-103014568D01*
X128646089Y-103126510D01*
X128402868Y-103289025D01*
X128271013Y-103420880D01*
X128249002Y-103348320D01*
X128190037Y-103238006D01*
X128110685Y-103141315D01*
X128013994Y-103061963D01*
X127903680Y-103002998D01*
X127783982Y-102966688D01*
X127659500Y-102954428D01*
X127095250Y-102957500D01*
X126936500Y-103116250D01*
X126936500Y-104315500D01*
X126956500Y-104315500D01*
X126956500Y-104569500D01*
X126936500Y-104569500D01*
X126936500Y-105768750D01*
X127095250Y-105927500D01*
X127659500Y-105930572D01*
X127783982Y-105918312D01*
X127903680Y-105882002D01*
X128013994Y-105823037D01*
X128110685Y-105743685D01*
X128190037Y-105646994D01*
X128249002Y-105536680D01*
X128271013Y-105464120D01*
X128402868Y-105595975D01*
X128646089Y-105758490D01*
X128916342Y-105870432D01*
X129203240Y-105927500D01*
X129495760Y-105927500D01*
X129782658Y-105870432D01*
X130052911Y-105758490D01*
X130296132Y-105595975D01*
X130502975Y-105389132D01*
X130619500Y-105214740D01*
X130736025Y-105389132D01*
X130942868Y-105595975D01*
X131186089Y-105758490D01*
X131456342Y-105870432D01*
X131743240Y-105927500D01*
X132035760Y-105927500D01*
X132322658Y-105870432D01*
X132592911Y-105758490D01*
X132836132Y-105595975D01*
X133042975Y-105389132D01*
X133159500Y-105214740D01*
X133276025Y-105389132D01*
X133482868Y-105595975D01*
X133726089Y-105758490D01*
X133996342Y-105870432D01*
X134283240Y-105927500D01*
X134575760Y-105927500D01*
X134862658Y-105870432D01*
X135132911Y-105758490D01*
X135376132Y-105595975D01*
X135582975Y-105389132D01*
X135699500Y-105214740D01*
X135816025Y-105389132D01*
X136022868Y-105595975D01*
X136266089Y-105758490D01*
X136536342Y-105870432D01*
X136823240Y-105927500D01*
X137115760Y-105927500D01*
X137402658Y-105870432D01*
X137672911Y-105758490D01*
X137916132Y-105595975D01*
X138122975Y-105389132D01*
X138239500Y-105214740D01*
X138356025Y-105389132D01*
X138562868Y-105595975D01*
X138806089Y-105758490D01*
X139076342Y-105870432D01*
X139363240Y-105927500D01*
X139655760Y-105927500D01*
X139942658Y-105870432D01*
X140212911Y-105758490D01*
X140456132Y-105595975D01*
X140662975Y-105389132D01*
X140779500Y-105214740D01*
X140896025Y-105389132D01*
X141102868Y-105595975D01*
X141346089Y-105758490D01*
X141616342Y-105870432D01*
X141903240Y-105927500D01*
X142195760Y-105927500D01*
X142482658Y-105870432D01*
X142752911Y-105758490D01*
X142996132Y-105595975D01*
X143202975Y-105389132D01*
X143319500Y-105214740D01*
X143436025Y-105389132D01*
X143642868Y-105595975D01*
X143886089Y-105758490D01*
X144156342Y-105870432D01*
X144443240Y-105927500D01*
X144735760Y-105927500D01*
X145022658Y-105870432D01*
X145292911Y-105758490D01*
X145536132Y-105595975D01*
X145742975Y-105389132D01*
X145859500Y-105214740D01*
X145976025Y-105389132D01*
X146182868Y-105595975D01*
X146426089Y-105758490D01*
X146696342Y-105870432D01*
X146983240Y-105927500D01*
X147275760Y-105927500D01*
X147562658Y-105870432D01*
X147832911Y-105758490D01*
X148076132Y-105595975D01*
X148282975Y-105389132D01*
X148399500Y-105214740D01*
X148516025Y-105389132D01*
X148722868Y-105595975D01*
X148966089Y-105758490D01*
X149236342Y-105870432D01*
X149523240Y-105927500D01*
X149815760Y-105927500D01*
X150102658Y-105870432D01*
X150372911Y-105758490D01*
X150616132Y-105595975D01*
X150822975Y-105389132D01*
X150985490Y-105145911D01*
X151097432Y-104875658D01*
X151154500Y-104588760D01*
X151154500Y-104296240D01*
X151097432Y-104009342D01*
X151084242Y-103977499D01*
X160151001Y-103977499D01*
X160151000Y-105258875D01*
X160061518Y-105267688D01*
X159941820Y-105303998D01*
X159831506Y-105362963D01*
X159734815Y-105442315D01*
X159655463Y-105539006D01*
X159596498Y-105649320D01*
X159560188Y-105769018D01*
X159547928Y-105893500D01*
X159547928Y-107593500D01*
X159560188Y-107717982D01*
X159596498Y-107837680D01*
X159655463Y-107947994D01*
X159734815Y-108044685D01*
X159831506Y-108124037D01*
X159941820Y-108183002D01*
X160061518Y-108219312D01*
X160186000Y-108231572D01*
X161886000Y-108231572D01*
X162010482Y-108219312D01*
X162130180Y-108183002D01*
X162240494Y-108124037D01*
X162337185Y-108044685D01*
X162416537Y-107947994D01*
X162475502Y-107837680D01*
X162497513Y-107765120D01*
X162629368Y-107896975D01*
X162691000Y-107938156D01*
X162691001Y-110452521D01*
X162686719Y-110496000D01*
X162703805Y-110669490D01*
X162754412Y-110836313D01*
X162836590Y-110990059D01*
X162881928Y-111045304D01*
X162895274Y-111112398D01*
X162973295Y-111300756D01*
X163086563Y-111470274D01*
X163230726Y-111614437D01*
X163400244Y-111727705D01*
X163588602Y-111805726D01*
X163788561Y-111845500D01*
X163992439Y-111845500D01*
X164192398Y-111805726D01*
X164380756Y-111727705D01*
X164550274Y-111614437D01*
X164694437Y-111470274D01*
X164807705Y-111300756D01*
X164885726Y-111112398D01*
X164925500Y-110912439D01*
X164925500Y-110708561D01*
X164885726Y-110508602D01*
X164807705Y-110320244D01*
X164694437Y-110150726D01*
X164550274Y-110006563D01*
X164461000Y-109946912D01*
X164461000Y-107938156D01*
X164522632Y-107896975D01*
X164729475Y-107690132D01*
X164891990Y-107446911D01*
X165003932Y-107176658D01*
X165061000Y-106889760D01*
X165061000Y-106597240D01*
X165003932Y-106310342D01*
X164891990Y-106040089D01*
X164729475Y-105796868D01*
X164522632Y-105590025D01*
X164279411Y-105427510D01*
X164009158Y-105315568D01*
X163893189Y-105292500D01*
X165961428Y-105292500D01*
X165973688Y-105416982D01*
X166009998Y-105536680D01*
X166068963Y-105646994D01*
X166148315Y-105743685D01*
X166245006Y-105823037D01*
X166355320Y-105882002D01*
X166427880Y-105904013D01*
X166296025Y-106035868D01*
X166133510Y-106279089D01*
X166021568Y-106549342D01*
X165964500Y-106836240D01*
X165964500Y-107128760D01*
X166021568Y-107415658D01*
X166133510Y-107685911D01*
X166296025Y-107929132D01*
X166502868Y-108135975D01*
X166677260Y-108252500D01*
X166502868Y-108369025D01*
X166296025Y-108575868D01*
X166133510Y-108819089D01*
X166021568Y-109089342D01*
X165964500Y-109376240D01*
X165964500Y-109668760D01*
X166021568Y-109955658D01*
X166133510Y-110225911D01*
X166296025Y-110469132D01*
X166502868Y-110675975D01*
X166677260Y-110792500D01*
X166502868Y-110909025D01*
X166296025Y-111115868D01*
X166133510Y-111359089D01*
X166021568Y-111629342D01*
X165964500Y-111916240D01*
X165964500Y-112208760D01*
X166021568Y-112495658D01*
X166133510Y-112765911D01*
X166296025Y-113009132D01*
X166502868Y-113215975D01*
X166677260Y-113332500D01*
X166502868Y-113449025D01*
X166296025Y-113655868D01*
X166133510Y-113899089D01*
X166021568Y-114169342D01*
X165964500Y-114456240D01*
X165964500Y-114748760D01*
X166021568Y-115035658D01*
X166133510Y-115305911D01*
X166296025Y-115549132D01*
X166502868Y-115755975D01*
X166677260Y-115872500D01*
X166502868Y-115989025D01*
X166296025Y-116195868D01*
X166133510Y-116439089D01*
X166021568Y-116709342D01*
X165964500Y-116996240D01*
X165964500Y-117288760D01*
X166021568Y-117575658D01*
X166133510Y-117845911D01*
X166296025Y-118089132D01*
X166502868Y-118295975D01*
X166677260Y-118412500D01*
X166502868Y-118529025D01*
X166296025Y-118735868D01*
X166133510Y-118979089D01*
X166021568Y-119249342D01*
X165964500Y-119536240D01*
X165964500Y-119828760D01*
X166021568Y-120115658D01*
X166133510Y-120385911D01*
X166296025Y-120629132D01*
X166502868Y-120835975D01*
X166677260Y-120952500D01*
X166502868Y-121069025D01*
X166296025Y-121275868D01*
X166133510Y-121519089D01*
X166021568Y-121789342D01*
X165964500Y-122076240D01*
X165964500Y-122368760D01*
X166021568Y-122655658D01*
X166133510Y-122925911D01*
X166296025Y-123169132D01*
X166502868Y-123375975D01*
X166677260Y-123492500D01*
X166502868Y-123609025D01*
X166296025Y-123815868D01*
X166133510Y-124059089D01*
X166021568Y-124329342D01*
X165964500Y-124616240D01*
X165964500Y-124908760D01*
X166021568Y-125195658D01*
X166133510Y-125465911D01*
X166296025Y-125709132D01*
X166502868Y-125915975D01*
X166677260Y-126032500D01*
X166502868Y-126149025D01*
X166296025Y-126355868D01*
X166133510Y-126599089D01*
X166021568Y-126869342D01*
X165964500Y-127156240D01*
X165964500Y-127448760D01*
X166021568Y-127735658D01*
X166133510Y-128005911D01*
X166296025Y-128249132D01*
X166502868Y-128455975D01*
X166746089Y-128618490D01*
X167016342Y-128730432D01*
X167303240Y-128787500D01*
X167595760Y-128787500D01*
X167882658Y-128730432D01*
X168152911Y-128618490D01*
X168396132Y-128455975D01*
X168602975Y-128249132D01*
X168765490Y-128005911D01*
X168877432Y-127735658D01*
X168934500Y-127448760D01*
X168934500Y-127156240D01*
X168877432Y-126869342D01*
X168765490Y-126599089D01*
X168602975Y-126355868D01*
X168396132Y-126149025D01*
X168221740Y-126032500D01*
X168396132Y-125915975D01*
X168602975Y-125709132D01*
X168765490Y-125465911D01*
X168877432Y-125195658D01*
X168934500Y-124908760D01*
X168934500Y-124616240D01*
X168877432Y-124329342D01*
X168765490Y-124059089D01*
X168602975Y-123815868D01*
X168396132Y-123609025D01*
X168221740Y-123492500D01*
X168396132Y-123375975D01*
X168602975Y-123169132D01*
X168765490Y-122925911D01*
X168877432Y-122655658D01*
X168934500Y-122368760D01*
X168934500Y-122076240D01*
X168877432Y-121789342D01*
X168765490Y-121519089D01*
X168602975Y-121275868D01*
X168396132Y-121069025D01*
X168221740Y-120952500D01*
X168396132Y-120835975D01*
X168602975Y-120629132D01*
X168765490Y-120385911D01*
X168877432Y-120115658D01*
X168934500Y-119828760D01*
X168934500Y-119536240D01*
X168877432Y-119249342D01*
X168765490Y-118979089D01*
X168602975Y-118735868D01*
X168396132Y-118529025D01*
X168221740Y-118412500D01*
X168396132Y-118295975D01*
X168602975Y-118089132D01*
X168765490Y-117845911D01*
X168877432Y-117575658D01*
X168934500Y-117288760D01*
X168934500Y-116996240D01*
X168877432Y-116709342D01*
X168765490Y-116439089D01*
X168602975Y-116195868D01*
X168396132Y-115989025D01*
X168221740Y-115872500D01*
X168396132Y-115755975D01*
X168602975Y-115549132D01*
X168765490Y-115305911D01*
X168877432Y-115035658D01*
X168889619Y-114974390D01*
X169627524Y-114974390D01*
X169672175Y-115121599D01*
X169797359Y-115384420D01*
X169971412Y-115617769D01*
X170187645Y-115812678D01*
X170437748Y-115961657D01*
X170712109Y-116058981D01*
X170942000Y-115938314D01*
X170942000Y-114744500D01*
X171196000Y-114744500D01*
X171196000Y-115938314D01*
X171425891Y-116058981D01*
X171700252Y-115961657D01*
X171950355Y-115812678D01*
X172166588Y-115617769D01*
X172340641Y-115384420D01*
X172465825Y-115121599D01*
X172510476Y-114974390D01*
X172389155Y-114744500D01*
X171196000Y-114744500D01*
X170942000Y-114744500D01*
X169748845Y-114744500D01*
X169627524Y-114974390D01*
X168889619Y-114974390D01*
X168934500Y-114748760D01*
X168934500Y-114456240D01*
X168877432Y-114169342D01*
X168765490Y-113899089D01*
X168602975Y-113655868D01*
X168396132Y-113449025D01*
X168221740Y-113332500D01*
X168396132Y-113215975D01*
X168602975Y-113009132D01*
X168765490Y-112765911D01*
X168877432Y-112495658D01*
X168934500Y-112208760D01*
X168934500Y-111916240D01*
X168877432Y-111629342D01*
X168765490Y-111359089D01*
X168602975Y-111115868D01*
X168396132Y-110909025D01*
X168221740Y-110792500D01*
X168396132Y-110675975D01*
X168602975Y-110469132D01*
X168765490Y-110225911D01*
X168877432Y-109955658D01*
X168934500Y-109668760D01*
X168934500Y-109376240D01*
X168877432Y-109089342D01*
X168765490Y-108819089D01*
X168602975Y-108575868D01*
X168396132Y-108369025D01*
X168221740Y-108252500D01*
X168396132Y-108135975D01*
X168602975Y-107929132D01*
X168765490Y-107685911D01*
X168877432Y-107415658D01*
X168934500Y-107128760D01*
X168934500Y-106836240D01*
X168877432Y-106549342D01*
X168765490Y-106279089D01*
X168602975Y-106035868D01*
X168471120Y-105904013D01*
X168543680Y-105882002D01*
X168653994Y-105823037D01*
X168750685Y-105743685D01*
X168830037Y-105646994D01*
X168889002Y-105536680D01*
X168925312Y-105416982D01*
X168937572Y-105292500D01*
X168934500Y-104728250D01*
X168775750Y-104569500D01*
X167576500Y-104569500D01*
X167576500Y-104589500D01*
X167322500Y-104589500D01*
X167322500Y-104569500D01*
X166123250Y-104569500D01*
X165964500Y-104728250D01*
X165961428Y-105292500D01*
X163893189Y-105292500D01*
X163722260Y-105258500D01*
X163429740Y-105258500D01*
X163142842Y-105315568D01*
X162872589Y-105427510D01*
X162629368Y-105590025D01*
X162497513Y-105721880D01*
X162475502Y-105649320D01*
X162416537Y-105539006D01*
X162337185Y-105442315D01*
X162240494Y-105362963D01*
X162130180Y-105303998D01*
X162010482Y-105267688D01*
X161921000Y-105258875D01*
X161921000Y-103977499D01*
X165943395Y-103977499D01*
X165963557Y-103983615D01*
X165964500Y-104156750D01*
X166123250Y-104315500D01*
X167322500Y-104315500D01*
X167322500Y-104295500D01*
X167576500Y-104295500D01*
X167576500Y-104315500D01*
X168775750Y-104315500D01*
X168934500Y-104156750D01*
X168935204Y-104027499D01*
X169387421Y-104027499D01*
X169580928Y-104221006D01*
X169580928Y-105307500D01*
X169593188Y-105431982D01*
X169629498Y-105551680D01*
X169688463Y-105661994D01*
X169767815Y-105758685D01*
X169864506Y-105838037D01*
X169974820Y-105897002D01*
X170047380Y-105919013D01*
X169915525Y-106050868D01*
X169753010Y-106294089D01*
X169641068Y-106564342D01*
X169584000Y-106851240D01*
X169584000Y-107143760D01*
X169641068Y-107430658D01*
X169753010Y-107700911D01*
X169915525Y-107944132D01*
X170122368Y-108150975D01*
X170296760Y-108267500D01*
X170122368Y-108384025D01*
X169915525Y-108590868D01*
X169753010Y-108834089D01*
X169641068Y-109104342D01*
X169584000Y-109391240D01*
X169584000Y-109683760D01*
X169641068Y-109970658D01*
X169753010Y-110240911D01*
X169915525Y-110484132D01*
X170122368Y-110690975D01*
X170296760Y-110807500D01*
X170122368Y-110924025D01*
X169915525Y-111130868D01*
X169753010Y-111374089D01*
X169641068Y-111644342D01*
X169584000Y-111931240D01*
X169584000Y-112223760D01*
X169641068Y-112510658D01*
X169753010Y-112780911D01*
X169915525Y-113024132D01*
X170122368Y-113230975D01*
X170304534Y-113352695D01*
X170187645Y-113422322D01*
X169971412Y-113617231D01*
X169797359Y-113850580D01*
X169672175Y-114113401D01*
X169627524Y-114260610D01*
X169748845Y-114490500D01*
X170942000Y-114490500D01*
X170942000Y-114470500D01*
X171196000Y-114470500D01*
X171196000Y-114490500D01*
X172389155Y-114490500D01*
X172510476Y-114260610D01*
X172465825Y-114113401D01*
X172340641Y-113850580D01*
X172166588Y-113617231D01*
X171950355Y-113422322D01*
X171833466Y-113352695D01*
X172015632Y-113230975D01*
X172222475Y-113024132D01*
X172384990Y-112780911D01*
X172496932Y-112510658D01*
X172554000Y-112223760D01*
X172554000Y-111931240D01*
X172496932Y-111644342D01*
X172384990Y-111374089D01*
X172222475Y-111130868D01*
X172015632Y-110924025D01*
X171841240Y-110807500D01*
X172015632Y-110690975D01*
X172222475Y-110484132D01*
X172384990Y-110240911D01*
X172496932Y-109970658D01*
X172554000Y-109683760D01*
X172554000Y-109391240D01*
X172496932Y-109104342D01*
X172384990Y-108834089D01*
X172222475Y-108590868D01*
X172015632Y-108384025D01*
X171841240Y-108267500D01*
X172015632Y-108150975D01*
X172222475Y-107944132D01*
X172384990Y-107700911D01*
X172496932Y-107430658D01*
X172554000Y-107143760D01*
X172554000Y-106851240D01*
X172496932Y-106564342D01*
X172384990Y-106294089D01*
X172222475Y-106050868D01*
X172090620Y-105919013D01*
X172163180Y-105897002D01*
X172273494Y-105838037D01*
X172370185Y-105758685D01*
X172449537Y-105661994D01*
X172508502Y-105551680D01*
X172544812Y-105431982D01*
X172557072Y-105307500D01*
X172557072Y-103607500D01*
X172544812Y-103483018D01*
X172508502Y-103363320D01*
X172449537Y-103253006D01*
X172370185Y-103156315D01*
X172273494Y-103076963D01*
X172163180Y-103017998D01*
X172043482Y-102981688D01*
X171919000Y-102969428D01*
X170832506Y-102969428D01*
X170523078Y-102660000D01*
X171967721Y-102660000D01*
X172259659Y-102688625D01*
X172509429Y-102764035D01*
X172739792Y-102886522D01*
X172941980Y-103051422D01*
X173108286Y-103252450D01*
X173232378Y-103481954D01*
X173309531Y-103731195D01*
X173340000Y-104021089D01*
X173340001Y-127967711D01*
X173311375Y-128259660D01*
X173235965Y-128509429D01*
X173113477Y-128739794D01*
X172948579Y-128941979D01*
X172747546Y-129108288D01*
X172518046Y-129232378D01*
X172268805Y-129309531D01*
X171978911Y-129340000D01*
X122032279Y-129340000D01*
X121740340Y-129311375D01*
X121490571Y-129235965D01*
X121260206Y-129113477D01*
X121058021Y-128948579D01*
X120891712Y-128747546D01*
X120767622Y-128518046D01*
X120690469Y-128268805D01*
X120660000Y-127978911D01*
X120660000Y-122326061D01*
X124123500Y-122326061D01*
X124123500Y-122529939D01*
X124163274Y-122729898D01*
X124241295Y-122918256D01*
X124354563Y-123087774D01*
X124423500Y-123156711D01*
X124423501Y-124556788D01*
X124354563Y-124625726D01*
X124241295Y-124795244D01*
X124163274Y-124983602D01*
X124123500Y-125183561D01*
X124123500Y-125387439D01*
X124163274Y-125587398D01*
X124241295Y-125775756D01*
X124354563Y-125945274D01*
X124498726Y-126089437D01*
X124668244Y-126202705D01*
X124856602Y-126280726D01*
X125056561Y-126320500D01*
X125260439Y-126320500D01*
X125460398Y-126280726D01*
X125648756Y-126202705D01*
X125818274Y-126089437D01*
X125962437Y-125945274D01*
X126075705Y-125775756D01*
X126153726Y-125587398D01*
X126193500Y-125387439D01*
X126193500Y-125183561D01*
X126153726Y-124983602D01*
X126075705Y-124795244D01*
X125962437Y-124625726D01*
X125893500Y-124556789D01*
X125893500Y-123488240D01*
X153963000Y-123488240D01*
X153963000Y-123780760D01*
X154020068Y-124067658D01*
X154132010Y-124337911D01*
X154294525Y-124581132D01*
X154501368Y-124787975D01*
X154744589Y-124950490D01*
X155014842Y-125062432D01*
X155301740Y-125119500D01*
X155594260Y-125119500D01*
X155881158Y-125062432D01*
X156151411Y-124950490D01*
X156394632Y-124787975D01*
X156601475Y-124581132D01*
X156718000Y-124406740D01*
X156834525Y-124581132D01*
X157041368Y-124787975D01*
X157284589Y-124950490D01*
X157554842Y-125062432D01*
X157841740Y-125119500D01*
X158134260Y-125119500D01*
X158421158Y-125062432D01*
X158691411Y-124950490D01*
X158934632Y-124787975D01*
X159066487Y-124656120D01*
X159088498Y-124728680D01*
X159147463Y-124838994D01*
X159226815Y-124935685D01*
X159323506Y-125015037D01*
X159433820Y-125074002D01*
X159553518Y-125110312D01*
X159678000Y-125122572D01*
X160242250Y-125119500D01*
X160401000Y-124960750D01*
X160401000Y-123761500D01*
X160655000Y-123761500D01*
X160655000Y-124960750D01*
X160813750Y-125119500D01*
X161378000Y-125122572D01*
X161502482Y-125110312D01*
X161622180Y-125074002D01*
X161732494Y-125015037D01*
X161829185Y-124935685D01*
X161908537Y-124838994D01*
X161967502Y-124728680D01*
X162003812Y-124608982D01*
X162016072Y-124484500D01*
X162013000Y-123920250D01*
X161854250Y-123761500D01*
X160655000Y-123761500D01*
X160401000Y-123761500D01*
X160381000Y-123761500D01*
X160381000Y-123507500D01*
X160401000Y-123507500D01*
X160401000Y-122308250D01*
X160655000Y-122308250D01*
X160655000Y-123507500D01*
X161854250Y-123507500D01*
X162013000Y-123348750D01*
X162016072Y-122784500D01*
X162003812Y-122660018D01*
X161967502Y-122540320D01*
X161908537Y-122430006D01*
X161829185Y-122333315D01*
X161732494Y-122253963D01*
X161622180Y-122194998D01*
X161502482Y-122158688D01*
X161378000Y-122146428D01*
X160813750Y-122149500D01*
X160655000Y-122308250D01*
X160401000Y-122308250D01*
X160242250Y-122149500D01*
X159678000Y-122146428D01*
X159553518Y-122158688D01*
X159433820Y-122194998D01*
X159323506Y-122253963D01*
X159226815Y-122333315D01*
X159147463Y-122430006D01*
X159088498Y-122540320D01*
X159066487Y-122612880D01*
X158934632Y-122481025D01*
X158691411Y-122318510D01*
X158421158Y-122206568D01*
X158134260Y-122149500D01*
X157841740Y-122149500D01*
X157554842Y-122206568D01*
X157284589Y-122318510D01*
X157041368Y-122481025D01*
X156834525Y-122687868D01*
X156718000Y-122862260D01*
X156601475Y-122687868D01*
X156394632Y-122481025D01*
X156151411Y-122318510D01*
X155881158Y-122206568D01*
X155594260Y-122149500D01*
X155301740Y-122149500D01*
X155014842Y-122206568D01*
X154744589Y-122318510D01*
X154501368Y-122481025D01*
X154294525Y-122687868D01*
X154132010Y-122931089D01*
X154020068Y-123201342D01*
X153963000Y-123488240D01*
X125893500Y-123488240D01*
X125893500Y-123156711D01*
X125962437Y-123087774D01*
X126075705Y-122918256D01*
X126153726Y-122729898D01*
X126193500Y-122529939D01*
X126193500Y-122326061D01*
X126153726Y-122126102D01*
X126075705Y-121937744D01*
X125962437Y-121768226D01*
X125818274Y-121624063D01*
X125648756Y-121510795D01*
X125460398Y-121432774D01*
X125260439Y-121393000D01*
X125056561Y-121393000D01*
X124856602Y-121432774D01*
X124668244Y-121510795D01*
X124498726Y-121624063D01*
X124354563Y-121768226D01*
X124241295Y-121937744D01*
X124163274Y-122126102D01*
X124123500Y-122326061D01*
X120660000Y-122326061D01*
X120660000Y-119233740D01*
X123991000Y-119233740D01*
X123991000Y-119526260D01*
X124048068Y-119813158D01*
X124160010Y-120083411D01*
X124322525Y-120326632D01*
X124529368Y-120533475D01*
X124772589Y-120695990D01*
X125042842Y-120807932D01*
X125329740Y-120865000D01*
X125622260Y-120865000D01*
X125909158Y-120807932D01*
X126179411Y-120695990D01*
X126422632Y-120533475D01*
X126629475Y-120326632D01*
X126746000Y-120152240D01*
X126862525Y-120326632D01*
X127069368Y-120533475D01*
X127312589Y-120695990D01*
X127582842Y-120807932D01*
X127869740Y-120865000D01*
X128162260Y-120865000D01*
X128449158Y-120807932D01*
X128719411Y-120695990D01*
X128962632Y-120533475D01*
X129169475Y-120326632D01*
X129286000Y-120152240D01*
X129402525Y-120326632D01*
X129609368Y-120533475D01*
X129852589Y-120695990D01*
X130122842Y-120807932D01*
X130409740Y-120865000D01*
X130702260Y-120865000D01*
X130989158Y-120807932D01*
X131259411Y-120695990D01*
X131502632Y-120533475D01*
X131709475Y-120326632D01*
X131826000Y-120152240D01*
X131942525Y-120326632D01*
X132149368Y-120533475D01*
X132392589Y-120695990D01*
X132662842Y-120807932D01*
X132949740Y-120865000D01*
X133242260Y-120865000D01*
X133529158Y-120807932D01*
X133799411Y-120695990D01*
X134042632Y-120533475D01*
X134249475Y-120326632D01*
X134366000Y-120152240D01*
X134482525Y-120326632D01*
X134689368Y-120533475D01*
X134932589Y-120695990D01*
X135202842Y-120807932D01*
X135489740Y-120865000D01*
X135782260Y-120865000D01*
X136069158Y-120807932D01*
X136339411Y-120695990D01*
X136582632Y-120533475D01*
X136789475Y-120326632D01*
X136906000Y-120152240D01*
X137022525Y-120326632D01*
X137229368Y-120533475D01*
X137472589Y-120695990D01*
X137742842Y-120807932D01*
X138029740Y-120865000D01*
X138322260Y-120865000D01*
X138609158Y-120807932D01*
X138879411Y-120695990D01*
X139122632Y-120533475D01*
X139329475Y-120326632D01*
X139491990Y-120083411D01*
X139603932Y-119813158D01*
X139661000Y-119526260D01*
X139661000Y-119233740D01*
X139603932Y-118946842D01*
X139512043Y-118725001D01*
X146941892Y-118725001D01*
X146977997Y-118728557D01*
X147014102Y-118725001D01*
X147122082Y-118714366D01*
X147260630Y-118672338D01*
X147388317Y-118604088D01*
X147500235Y-118512239D01*
X147523255Y-118484189D01*
X149137946Y-116869499D01*
X152215553Y-116869499D01*
X152698500Y-117352447D01*
X152698500Y-117449939D01*
X152738274Y-117649898D01*
X152816295Y-117838256D01*
X152929563Y-118007774D01*
X153073726Y-118151937D01*
X153243244Y-118265205D01*
X153431602Y-118343226D01*
X153631561Y-118383000D01*
X153835439Y-118383000D01*
X154035398Y-118343226D01*
X154223756Y-118265205D01*
X154368500Y-118168490D01*
X154513244Y-118265205D01*
X154701602Y-118343226D01*
X154901561Y-118383000D01*
X155105439Y-118383000D01*
X155305398Y-118343226D01*
X155493756Y-118265205D01*
X155638500Y-118168490D01*
X155783244Y-118265205D01*
X155971602Y-118343226D01*
X156171561Y-118383000D01*
X156375439Y-118383000D01*
X156575398Y-118343226D01*
X156763756Y-118265205D01*
X156933274Y-118151937D01*
X157077437Y-118007774D01*
X157190705Y-117838256D01*
X157268726Y-117649898D01*
X157308500Y-117449939D01*
X157308500Y-117246061D01*
X157268726Y-117046102D01*
X157190705Y-116857744D01*
X157077437Y-116688226D01*
X156933274Y-116544063D01*
X156763756Y-116430795D01*
X156575398Y-116352774D01*
X156375439Y-116313000D01*
X156277947Y-116313000D01*
X154760747Y-114795801D01*
X154737727Y-114767751D01*
X154625809Y-114675902D01*
X154498122Y-114607652D01*
X154359574Y-114565624D01*
X154251594Y-114554989D01*
X154215489Y-114551433D01*
X154179384Y-114554989D01*
X132142116Y-114554989D01*
X132106011Y-114551433D01*
X131961926Y-114565624D01*
X131823377Y-114607652D01*
X131695691Y-114675902D01*
X131583773Y-114767751D01*
X131560757Y-114795796D01*
X130951897Y-115404656D01*
X130702260Y-115355000D01*
X130409740Y-115355000D01*
X130122842Y-115412068D01*
X129852589Y-115524010D01*
X129609368Y-115686525D01*
X129402525Y-115893368D01*
X129280805Y-116075534D01*
X129211178Y-115958645D01*
X129016269Y-115742412D01*
X128782920Y-115568359D01*
X128520099Y-115443175D01*
X128372890Y-115398524D01*
X128143000Y-115519845D01*
X128143000Y-116713000D01*
X128163000Y-116713000D01*
X128163000Y-116967000D01*
X128143000Y-116967000D01*
X128143000Y-116987000D01*
X127889000Y-116987000D01*
X127889000Y-116967000D01*
X125603000Y-116967000D01*
X125603000Y-116987000D01*
X125349000Y-116987000D01*
X125349000Y-116967000D01*
X124155186Y-116967000D01*
X124034519Y-117196891D01*
X124131843Y-117471252D01*
X124280822Y-117721355D01*
X124475731Y-117937588D01*
X124705406Y-118108900D01*
X124529368Y-118226525D01*
X124322525Y-118433368D01*
X124160010Y-118676589D01*
X124048068Y-118946842D01*
X123991000Y-119233740D01*
X120660000Y-119233740D01*
X120660000Y-116483109D01*
X124034519Y-116483109D01*
X124155186Y-116713000D01*
X125349000Y-116713000D01*
X125349000Y-115519845D01*
X125603000Y-115519845D01*
X125603000Y-116713000D01*
X127889000Y-116713000D01*
X127889000Y-115519845D01*
X127659110Y-115398524D01*
X127511901Y-115443175D01*
X127249080Y-115568359D01*
X127015731Y-115742412D01*
X126820822Y-115958645D01*
X126746000Y-116084255D01*
X126671178Y-115958645D01*
X126476269Y-115742412D01*
X126242920Y-115568359D01*
X125980099Y-115443175D01*
X125832890Y-115398524D01*
X125603000Y-115519845D01*
X125349000Y-115519845D01*
X125119110Y-115398524D01*
X124971901Y-115443175D01*
X124709080Y-115568359D01*
X124475731Y-115742412D01*
X124280822Y-115958645D01*
X124131843Y-116208748D01*
X124034519Y-116483109D01*
X120660000Y-116483109D01*
X120660000Y-110451561D01*
X147936000Y-110451561D01*
X147936000Y-110655439D01*
X147975774Y-110855398D01*
X148053795Y-111043756D01*
X148167063Y-111213274D01*
X148311226Y-111357437D01*
X148480744Y-111470705D01*
X148669102Y-111548726D01*
X148869061Y-111588500D01*
X149072939Y-111588500D01*
X149272898Y-111548726D01*
X149461256Y-111470705D01*
X149630774Y-111357437D01*
X149774937Y-111213274D01*
X149888205Y-111043756D01*
X149966226Y-110855398D01*
X150006000Y-110655439D01*
X150006000Y-110557946D01*
X151247937Y-109316009D01*
X151272602Y-109326226D01*
X151472561Y-109366000D01*
X151676439Y-109366000D01*
X151876398Y-109326226D01*
X152064756Y-109248205D01*
X152234274Y-109134937D01*
X152378437Y-108990774D01*
X152491705Y-108821256D01*
X152569726Y-108632898D01*
X152609500Y-108432939D01*
X152609500Y-108229061D01*
X152569726Y-108029102D01*
X152491705Y-107840744D01*
X152378437Y-107671226D01*
X152234274Y-107527063D01*
X152064756Y-107413795D01*
X151876398Y-107335774D01*
X151676439Y-107296000D01*
X151472561Y-107296000D01*
X151272602Y-107335774D01*
X151084244Y-107413795D01*
X150914726Y-107527063D01*
X150770563Y-107671226D01*
X150687653Y-107795311D01*
X150671262Y-107808762D01*
X150648246Y-107836807D01*
X148966554Y-109518500D01*
X148869061Y-109518500D01*
X148669102Y-109558274D01*
X148480744Y-109636295D01*
X148311226Y-109749563D01*
X148167063Y-109893726D01*
X148053795Y-110063244D01*
X147975774Y-110251602D01*
X147936000Y-110451561D01*
X120660000Y-110451561D01*
X120660000Y-105292500D01*
X125321428Y-105292500D01*
X125333688Y-105416982D01*
X125369998Y-105536680D01*
X125428963Y-105646994D01*
X125508315Y-105743685D01*
X125605006Y-105823037D01*
X125715320Y-105882002D01*
X125835018Y-105918312D01*
X125959500Y-105930572D01*
X126523750Y-105927500D01*
X126682500Y-105768750D01*
X126682500Y-104569500D01*
X125483250Y-104569500D01*
X125324500Y-104728250D01*
X125321428Y-105292500D01*
X120660000Y-105292500D01*
X120660000Y-104032279D01*
X120688625Y-103740341D01*
X120733260Y-103592500D01*
X125321428Y-103592500D01*
X125324500Y-104156750D01*
X125483250Y-104315500D01*
X126682500Y-104315500D01*
X126682500Y-103116250D01*
X126523750Y-102957500D01*
X125959500Y-102954428D01*
X125835018Y-102966688D01*
X125715320Y-103002998D01*
X125605006Y-103061963D01*
X125508315Y-103141315D01*
X125428963Y-103238006D01*
X125369998Y-103348320D01*
X125333688Y-103468018D01*
X125321428Y-103592500D01*
X120733260Y-103592500D01*
X120764035Y-103490571D01*
X120886522Y-103260208D01*
X121051422Y-103058020D01*
X121252450Y-102891714D01*
X121481954Y-102767622D01*
X121731195Y-102690469D01*
X122021088Y-102660000D01*
X126541219Y-102660000D01*
X126574187Y-102656753D01*
X126587167Y-102656753D01*
X126596332Y-102655790D01*
X126790281Y-102634035D01*
X126848766Y-102621603D01*
X126907476Y-102609978D01*
X126916279Y-102607253D01*
X127102309Y-102548240D01*
X127157319Y-102524662D01*
X127212594Y-102501880D01*
X127220700Y-102497497D01*
X127264983Y-102473152D01*
X127342095Y-102524677D01*
G36*
X170648126Y-70726714D02*
G01*
X171271572Y-70914943D01*
X171846579Y-71220681D01*
X172351247Y-71632279D01*
X172766362Y-72134067D01*
X173076105Y-72706924D01*
X173268682Y-73329039D01*
X173340000Y-74007584D01*
X173340001Y-95967711D01*
X173273286Y-96648126D01*
X173085057Y-97271570D01*
X172779323Y-97846573D01*
X172367721Y-98351248D01*
X171865933Y-98766362D01*
X171293077Y-99076104D01*
X170670961Y-99268682D01*
X169992417Y-99340000D01*
X167433381Y-99340000D01*
X167400413Y-99343247D01*
X167387433Y-99343247D01*
X167378268Y-99344210D01*
X167184318Y-99365965D01*
X167125819Y-99378400D01*
X167067125Y-99390022D01*
X167058322Y-99392747D01*
X166872291Y-99451760D01*
X166817309Y-99475326D01*
X166762006Y-99498120D01*
X166753900Y-99502503D01*
X166714190Y-99524334D01*
X166612105Y-99456123D01*
X166451045Y-99389410D01*
X166280065Y-99355400D01*
X166105735Y-99355400D01*
X165934755Y-99389410D01*
X165817900Y-99437813D01*
X165701045Y-99389410D01*
X165530065Y-99355400D01*
X165355735Y-99355400D01*
X165184755Y-99389410D01*
X165067900Y-99437813D01*
X164951045Y-99389410D01*
X164780065Y-99355400D01*
X164605735Y-99355400D01*
X164434755Y-99389410D01*
X164273695Y-99456123D01*
X164191370Y-99511131D01*
X164156721Y-99492708D01*
X164101406Y-99469909D01*
X164046434Y-99446348D01*
X164037631Y-99443623D01*
X163850795Y-99387214D01*
X163792107Y-99375594D01*
X163733604Y-99363158D01*
X163724439Y-99362195D01*
X163530205Y-99343150D01*
X163530202Y-99343150D01*
X163498219Y-99340000D01*
X148967581Y-99340000D01*
X148934613Y-99343247D01*
X148921633Y-99343247D01*
X148912468Y-99344210D01*
X148718518Y-99365965D01*
X148660019Y-99378400D01*
X148601325Y-99390022D01*
X148592522Y-99392747D01*
X148406491Y-99451760D01*
X148351509Y-99475326D01*
X148296206Y-99498120D01*
X148288100Y-99502503D01*
X148230995Y-99533897D01*
X148133605Y-99468823D01*
X147972545Y-99402110D01*
X147801565Y-99368100D01*
X147627235Y-99368100D01*
X147456255Y-99402110D01*
X147339400Y-99450513D01*
X147222545Y-99402110D01*
X147051565Y-99368100D01*
X146877235Y-99368100D01*
X146706255Y-99402110D01*
X146589400Y-99450513D01*
X146472545Y-99402110D01*
X146301565Y-99368100D01*
X146127235Y-99368100D01*
X145956255Y-99402110D01*
X145795195Y-99468823D01*
X145729082Y-99512999D01*
X145690921Y-99492708D01*
X145635606Y-99469909D01*
X145580634Y-99446348D01*
X145571831Y-99443623D01*
X145384995Y-99387214D01*
X145326307Y-99375594D01*
X145267804Y-99363158D01*
X145258639Y-99362195D01*
X145064405Y-99343150D01*
X145064402Y-99343150D01*
X145032419Y-99340000D01*
X130476381Y-99340000D01*
X130443413Y-99343247D01*
X130430433Y-99343247D01*
X130421268Y-99344210D01*
X130227318Y-99365965D01*
X130168819Y-99378400D01*
X130110125Y-99390022D01*
X130101322Y-99392747D01*
X129915291Y-99451760D01*
X129860309Y-99475326D01*
X129805006Y-99498120D01*
X129796900Y-99502503D01*
X129771124Y-99516673D01*
X129680505Y-99456123D01*
X129519445Y-99389410D01*
X129348465Y-99355400D01*
X129174135Y-99355400D01*
X129003155Y-99389410D01*
X128886300Y-99437813D01*
X128769445Y-99389410D01*
X128598465Y-99355400D01*
X128424135Y-99355400D01*
X128253155Y-99389410D01*
X128136300Y-99437813D01*
X128019445Y-99389410D01*
X127848465Y-99355400D01*
X127674135Y-99355400D01*
X127503155Y-99389410D01*
X127342095Y-99456123D01*
X127248514Y-99518652D01*
X127199721Y-99492708D01*
X127144406Y-99469909D01*
X127089434Y-99446348D01*
X127080631Y-99443623D01*
X126893795Y-99387214D01*
X126835107Y-99375594D01*
X126776604Y-99363158D01*
X126767439Y-99362195D01*
X126573205Y-99343150D01*
X126573202Y-99343150D01*
X126541219Y-99340000D01*
X124032279Y-99340000D01*
X123351874Y-99273286D01*
X122728430Y-99085057D01*
X122153427Y-98779323D01*
X121648752Y-98367721D01*
X121233638Y-97865933D01*
X120923896Y-97293077D01*
X120731318Y-96670961D01*
X120660000Y-95992417D01*
X120660000Y-95750324D01*
X121465000Y-95750324D01*
X121465000Y-96249676D01*
X121562418Y-96739432D01*
X121753512Y-97200773D01*
X122030937Y-97615968D01*
X122384032Y-97969063D01*
X122799227Y-98246488D01*
X123260568Y-98437582D01*
X123750324Y-98535000D01*
X124249676Y-98535000D01*
X124739432Y-98437582D01*
X125200773Y-98246488D01*
X125615968Y-97969063D01*
X125969063Y-97615968D01*
X126246488Y-97200773D01*
X126437582Y-96739432D01*
X126535000Y-96249676D01*
X126535000Y-95750324D01*
X167465000Y-95750324D01*
X167465000Y-96249676D01*
X167562418Y-96739432D01*
X167753512Y-97200773D01*
X168030937Y-97615968D01*
X168384032Y-97969063D01*
X168799227Y-98246488D01*
X169260568Y-98437582D01*
X169750324Y-98535000D01*
X170249676Y-98535000D01*
X170739432Y-98437582D01*
X171200773Y-98246488D01*
X171615968Y-97969063D01*
X171969063Y-97615968D01*
X172246488Y-97200773D01*
X172437582Y-96739432D01*
X172535000Y-96249676D01*
X172535000Y-95750324D01*
X172437582Y-95260568D01*
X172246488Y-94799227D01*
X171969063Y-94384032D01*
X171615968Y-94030937D01*
X171200773Y-93753512D01*
X170739432Y-93562418D01*
X170249676Y-93465000D01*
X169750324Y-93465000D01*
X169260568Y-93562418D01*
X168799227Y-93753512D01*
X168384032Y-94030937D01*
X168030937Y-94384032D01*
X167753512Y-94799227D01*
X167562418Y-95260568D01*
X167465000Y-95750324D01*
X126535000Y-95750324D01*
X126437582Y-95260568D01*
X126246488Y-94799227D01*
X125969063Y-94384032D01*
X125615968Y-94030937D01*
X125200773Y-93753512D01*
X124739432Y-93562418D01*
X124249676Y-93465000D01*
X123750324Y-93465000D01*
X123260568Y-93562418D01*
X122799227Y-93753512D01*
X122384032Y-94030937D01*
X122030937Y-94384032D01*
X121753512Y-94799227D01*
X121562418Y-95260568D01*
X121465000Y-95750324D01*
X120660000Y-95750324D01*
X120660000Y-78232000D01*
X127698219Y-78232000D01*
X127702500Y-78275469D01*
X127702501Y-87142021D01*
X127698219Y-87185500D01*
X127715305Y-87358990D01*
X127765912Y-87525813D01*
X127848090Y-87679559D01*
X127930968Y-87780546D01*
X127930971Y-87780549D01*
X127958684Y-87814317D01*
X127992451Y-87842029D01*
X129339461Y-89189040D01*
X129325000Y-89261740D01*
X129325000Y-89554260D01*
X129382068Y-89841158D01*
X129494010Y-90111411D01*
X129656525Y-90354632D01*
X129863368Y-90561475D01*
X130037760Y-90678000D01*
X129863368Y-90794525D01*
X129656525Y-91001368D01*
X129494010Y-91244589D01*
X129382068Y-91514842D01*
X129325000Y-91801740D01*
X129325000Y-92094260D01*
X129382068Y-92381158D01*
X129494010Y-92651411D01*
X129656525Y-92894632D01*
X129863368Y-93101475D01*
X130106589Y-93263990D01*
X130376842Y-93375932D01*
X130663740Y-93433000D01*
X130956260Y-93433000D01*
X131243158Y-93375932D01*
X131513411Y-93263990D01*
X131756632Y-93101475D01*
X131888487Y-92969620D01*
X131910498Y-93042180D01*
X131969463Y-93152494D01*
X132048815Y-93249185D01*
X132145506Y-93328537D01*
X132255820Y-93387502D01*
X132375518Y-93423812D01*
X132500000Y-93436072D01*
X133064250Y-93433000D01*
X133223000Y-93274250D01*
X133223000Y-92075000D01*
X133477000Y-92075000D01*
X133477000Y-93274250D01*
X133635750Y-93433000D01*
X134200000Y-93436072D01*
X134324482Y-93423812D01*
X134444180Y-93387502D01*
X134554494Y-93328537D01*
X134651185Y-93249185D01*
X134730537Y-93152494D01*
X134789502Y-93042180D01*
X134825812Y-92922482D01*
X134838072Y-92798000D01*
X134835000Y-92233750D01*
X134676250Y-92075000D01*
X133477000Y-92075000D01*
X133223000Y-92075000D01*
X133203000Y-92075000D01*
X133203000Y-91821000D01*
X133223000Y-91821000D01*
X133223000Y-91801000D01*
X133477000Y-91801000D01*
X133477000Y-91821000D01*
X134676250Y-91821000D01*
X134835000Y-91662250D01*
X134838072Y-91098000D01*
X134825812Y-90973518D01*
X134789502Y-90853820D01*
X134730537Y-90743506D01*
X134651185Y-90646815D01*
X134554494Y-90567463D01*
X134444180Y-90508498D01*
X134371620Y-90486487D01*
X134503475Y-90354632D01*
X134665990Y-90111411D01*
X134777932Y-89841158D01*
X134835000Y-89554260D01*
X134835000Y-89433061D01*
X155175000Y-89433061D01*
X155175000Y-89636939D01*
X155214774Y-89836898D01*
X155292795Y-90025256D01*
X155406063Y-90194774D01*
X155550226Y-90338937D01*
X155719744Y-90452205D01*
X155908102Y-90530226D01*
X156108061Y-90570000D01*
X156311939Y-90570000D01*
X156511898Y-90530226D01*
X156700256Y-90452205D01*
X156869774Y-90338937D01*
X156913711Y-90295000D01*
X157538289Y-90295000D01*
X157582226Y-90338937D01*
X157751744Y-90452205D01*
X157940102Y-90530226D01*
X158140061Y-90570000D01*
X158343939Y-90570000D01*
X158543898Y-90530226D01*
X158732256Y-90452205D01*
X158901774Y-90338937D01*
X159045937Y-90194774D01*
X159159205Y-90025256D01*
X159237226Y-89836898D01*
X159277000Y-89636939D01*
X159277000Y-89433061D01*
X159237226Y-89233102D01*
X159159205Y-89044744D01*
X159045937Y-88875226D01*
X158901774Y-88731063D01*
X158792428Y-88658000D01*
X163743928Y-88658000D01*
X163743928Y-90158000D01*
X163756188Y-90282482D01*
X163792498Y-90402180D01*
X163851463Y-90512494D01*
X163930815Y-90609185D01*
X164027506Y-90688537D01*
X164137820Y-90747502D01*
X164257518Y-90783812D01*
X164382000Y-90796072D01*
X165882000Y-90796072D01*
X166006482Y-90783812D01*
X166126180Y-90747502D01*
X166236494Y-90688537D01*
X166333185Y-90609185D01*
X166412537Y-90512494D01*
X166471502Y-90402180D01*
X166507812Y-90282482D01*
X166520072Y-90158000D01*
X166520072Y-88658000D01*
X166507812Y-88533518D01*
X166471502Y-88413820D01*
X166412537Y-88303506D01*
X166333185Y-88206815D01*
X166236494Y-88127463D01*
X166126180Y-88068498D01*
X166006482Y-88032188D01*
X165898517Y-88021555D01*
X166014886Y-87943799D01*
X166207799Y-87750886D01*
X166359371Y-87524043D01*
X166463775Y-87271989D01*
X166517000Y-87004411D01*
X166517000Y-86731589D01*
X166463775Y-86464011D01*
X166359371Y-86211957D01*
X166207799Y-85985114D01*
X166014886Y-85792201D01*
X165788043Y-85640629D01*
X165535989Y-85536225D01*
X165268411Y-85483000D01*
X164995589Y-85483000D01*
X164728011Y-85536225D01*
X164475957Y-85640629D01*
X164249114Y-85792201D01*
X164056201Y-85985114D01*
X163904629Y-86211957D01*
X163800225Y-86464011D01*
X163747000Y-86731589D01*
X163747000Y-87004411D01*
X163800225Y-87271989D01*
X163904629Y-87524043D01*
X164056201Y-87750886D01*
X164249114Y-87943799D01*
X164365483Y-88021555D01*
X164257518Y-88032188D01*
X164137820Y-88068498D01*
X164027506Y-88127463D01*
X163930815Y-88206815D01*
X163851463Y-88303506D01*
X163792498Y-88413820D01*
X163756188Y-88533518D01*
X163743928Y-88658000D01*
X158792428Y-88658000D01*
X158732256Y-88617795D01*
X158543898Y-88539774D01*
X158343939Y-88500000D01*
X158140061Y-88500000D01*
X157940102Y-88539774D01*
X157751744Y-88617795D01*
X157582226Y-88731063D01*
X157538289Y-88775000D01*
X156913711Y-88775000D01*
X156869774Y-88731063D01*
X156700256Y-88617795D01*
X156511898Y-88539774D01*
X156311939Y-88500000D01*
X156108061Y-88500000D01*
X155908102Y-88539774D01*
X155719744Y-88617795D01*
X155550226Y-88731063D01*
X155406063Y-88875226D01*
X155292795Y-89044744D01*
X155214774Y-89233102D01*
X155175000Y-89433061D01*
X134835000Y-89433061D01*
X134835000Y-89261740D01*
X134777932Y-88974842D01*
X134727464Y-88853001D01*
X137675677Y-88853001D01*
X137712999Y-88856677D01*
X137750321Y-88853001D01*
X137750332Y-88853001D01*
X137861985Y-88842004D01*
X138005246Y-88798547D01*
X138137275Y-88727975D01*
X138214010Y-88665000D01*
X138277939Y-88665000D01*
X138477898Y-88625226D01*
X138666256Y-88547205D01*
X138835774Y-88433937D01*
X138979937Y-88289774D01*
X139065000Y-88162468D01*
X139150063Y-88289774D01*
X139294226Y-88433937D01*
X139463744Y-88547205D01*
X139652102Y-88625226D01*
X139852061Y-88665000D01*
X140055939Y-88665000D01*
X140255898Y-88625226D01*
X140444256Y-88547205D01*
X140613774Y-88433937D01*
X140757937Y-88289774D01*
X140871205Y-88120256D01*
X140949226Y-87931898D01*
X140970000Y-87827459D01*
X140990774Y-87931898D01*
X141068795Y-88120256D01*
X141182063Y-88289774D01*
X141326226Y-88433937D01*
X141495744Y-88547205D01*
X141684102Y-88625226D01*
X141884061Y-88665000D01*
X142087939Y-88665000D01*
X142287898Y-88625226D01*
X142476256Y-88547205D01*
X142645774Y-88433937D01*
X142789937Y-88289774D01*
X142903205Y-88120256D01*
X142981226Y-87931898D01*
X143021000Y-87731939D01*
X143021000Y-87707802D01*
X143237000Y-87923802D01*
X143237000Y-87985939D01*
X143276774Y-88185898D01*
X143354795Y-88374256D01*
X143468063Y-88543774D01*
X143612226Y-88687937D01*
X143781744Y-88801205D01*
X143970102Y-88879226D01*
X144170061Y-88919000D01*
X144373939Y-88919000D01*
X144573898Y-88879226D01*
X144762256Y-88801205D01*
X144931774Y-88687937D01*
X145075937Y-88543774D01*
X145189205Y-88374256D01*
X145267226Y-88185898D01*
X145307000Y-87985939D01*
X145307000Y-87782061D01*
X145267226Y-87582102D01*
X145189205Y-87393744D01*
X145075937Y-87224226D01*
X144931774Y-87080063D01*
X144762256Y-86966795D01*
X144573898Y-86888774D01*
X144373939Y-86849000D01*
X144311802Y-86849000D01*
X142450863Y-84988061D01*
X146856500Y-84988061D01*
X146856500Y-85191939D01*
X146896274Y-85391898D01*
X146974295Y-85580256D01*
X147087563Y-85749774D01*
X147231726Y-85893937D01*
X147401244Y-86007205D01*
X147589602Y-86085226D01*
X147789561Y-86125000D01*
X147851699Y-86125000D01*
X148473160Y-86746462D01*
X148444000Y-86893061D01*
X148444000Y-87096939D01*
X148483774Y-87296898D01*
X148561795Y-87485256D01*
X148675063Y-87654774D01*
X148819226Y-87798937D01*
X148988744Y-87912205D01*
X149177102Y-87990226D01*
X149377061Y-88030000D01*
X149580939Y-88030000D01*
X149780898Y-87990226D01*
X149969256Y-87912205D01*
X150138774Y-87798937D01*
X150282937Y-87654774D01*
X150396205Y-87485256D01*
X150474226Y-87296898D01*
X150514000Y-87096939D01*
X150514000Y-86893061D01*
X150474226Y-86693102D01*
X150396205Y-86504744D01*
X150282937Y-86335226D01*
X150138774Y-86191063D01*
X149969256Y-86077795D01*
X149943378Y-86067076D01*
X148926500Y-85050199D01*
X148926500Y-84988061D01*
X148886726Y-84788102D01*
X148808705Y-84599744D01*
X148695437Y-84430226D01*
X148551274Y-84286063D01*
X148381756Y-84172795D01*
X148193398Y-84094774D01*
X147993439Y-84055000D01*
X147789561Y-84055000D01*
X147589602Y-84094774D01*
X147401244Y-84172795D01*
X147231726Y-84286063D01*
X147087563Y-84430226D01*
X146974295Y-84599744D01*
X146896274Y-84788102D01*
X146856500Y-84988061D01*
X142450863Y-84988061D01*
X139996999Y-82534198D01*
X139996999Y-82440742D01*
X140028842Y-82453932D01*
X140315740Y-82511000D01*
X140608260Y-82511000D01*
X140895158Y-82453932D01*
X141165411Y-82341990D01*
X141408632Y-82179475D01*
X141615475Y-81972632D01*
X141737195Y-81790466D01*
X141806822Y-81907355D01*
X142001731Y-82123588D01*
X142235080Y-82297641D01*
X142497901Y-82422825D01*
X142645110Y-82467476D01*
X142875000Y-82346155D01*
X142875000Y-81153000D01*
X143129000Y-81153000D01*
X143129000Y-82346155D01*
X143358890Y-82467476D01*
X143506099Y-82422825D01*
X143768920Y-82297641D01*
X144002269Y-82123588D01*
X144197178Y-81907355D01*
X144346157Y-81657252D01*
X144443481Y-81382891D01*
X144322814Y-81153000D01*
X143129000Y-81153000D01*
X142875000Y-81153000D01*
X142855000Y-81153000D01*
X142855000Y-80899000D01*
X142875000Y-80899000D01*
X142875000Y-79705845D01*
X143129000Y-79705845D01*
X143129000Y-80899000D01*
X144322814Y-80899000D01*
X144443481Y-80669109D01*
X144346157Y-80394748D01*
X144197178Y-80144645D01*
X144002269Y-79928412D01*
X143768920Y-79754359D01*
X143506099Y-79629175D01*
X143358890Y-79584524D01*
X143129000Y-79705845D01*
X142875000Y-79705845D01*
X142645110Y-79584524D01*
X142497901Y-79629175D01*
X142235080Y-79754359D01*
X142001731Y-79928412D01*
X141806822Y-80144645D01*
X141737195Y-80261534D01*
X141615475Y-80079368D01*
X141408632Y-79872525D01*
X141350330Y-79833569D01*
X141351281Y-79823918D01*
X141347000Y-79780452D01*
X141347000Y-79780442D01*
X141334195Y-79650429D01*
X141283589Y-79483606D01*
X141201411Y-79329860D01*
X141090817Y-79195102D01*
X141057049Y-79167389D01*
X138637615Y-76747956D01*
X138609898Y-76714183D01*
X138475140Y-76603589D01*
X138321394Y-76521411D01*
X138154571Y-76470805D01*
X138024558Y-76458000D01*
X138024550Y-76458000D01*
X137981081Y-76453719D01*
X137937612Y-76458000D01*
X129519969Y-76458000D01*
X129476500Y-76453719D01*
X129433031Y-76458000D01*
X129433023Y-76458000D01*
X129303010Y-76470805D01*
X129136187Y-76521411D01*
X128982441Y-76603589D01*
X128881453Y-76686468D01*
X128881451Y-76686470D01*
X128847683Y-76714183D01*
X128819970Y-76747951D01*
X127992456Y-77575466D01*
X127958683Y-77603183D01*
X127848089Y-77737942D01*
X127765911Y-77891688D01*
X127715305Y-78058511D01*
X127702500Y-78188524D01*
X127702500Y-78188531D01*
X127698219Y-78232000D01*
X120660000Y-78232000D01*
X120660000Y-74032278D01*
X120687645Y-73750324D01*
X121465000Y-73750324D01*
X121465000Y-74249676D01*
X121562418Y-74739432D01*
X121753512Y-75200773D01*
X122030937Y-75615968D01*
X122384032Y-75969063D01*
X122799227Y-76246488D01*
X123260568Y-76437582D01*
X123750324Y-76535000D01*
X124249676Y-76535000D01*
X124739432Y-76437582D01*
X125200773Y-76246488D01*
X125615968Y-75969063D01*
X125969063Y-75615968D01*
X126246488Y-75200773D01*
X126437582Y-74739432D01*
X126535000Y-74249676D01*
X126535000Y-73750324D01*
X167465000Y-73750324D01*
X167465000Y-74249676D01*
X167562418Y-74739432D01*
X167753512Y-75200773D01*
X168030937Y-75615968D01*
X168384032Y-75969063D01*
X168799227Y-76246488D01*
X169260568Y-76437582D01*
X169750324Y-76535000D01*
X170249676Y-76535000D01*
X170739432Y-76437582D01*
X171200773Y-76246488D01*
X171615968Y-75969063D01*
X171969063Y-75615968D01*
X172246488Y-75200773D01*
X172437582Y-74739432D01*
X172535000Y-74249676D01*
X172535000Y-73750324D01*
X172437582Y-73260568D01*
X172246488Y-72799227D01*
X171969063Y-72384032D01*
X171615968Y-72030937D01*
X171200773Y-71753512D01*
X170739432Y-71562418D01*
X170249676Y-71465000D01*
X169750324Y-71465000D01*
X169260568Y-71562418D01*
X168799227Y-71753512D01*
X168384032Y-72030937D01*
X168030937Y-72384032D01*
X167753512Y-72799227D01*
X167562418Y-73260568D01*
X167465000Y-73750324D01*
X126535000Y-73750324D01*
X126437582Y-73260568D01*
X126246488Y-72799227D01*
X125969063Y-72384032D01*
X125615968Y-72030937D01*
X125200773Y-71753512D01*
X124739432Y-71562418D01*
X124249676Y-71465000D01*
X123750324Y-71465000D01*
X123260568Y-71562418D01*
X122799227Y-71753512D01*
X122384032Y-72030937D01*
X122030937Y-72384032D01*
X121753512Y-72799227D01*
X121562418Y-73260568D01*
X121465000Y-73750324D01*
X120687645Y-73750324D01*
X120726714Y-73351874D01*
X120914943Y-72728428D01*
X121220681Y-72153421D01*
X121632279Y-71648753D01*
X122134067Y-71233638D01*
X122706924Y-70923895D01*
X123329039Y-70731318D01*
X124007584Y-70660000D01*
X169967722Y-70660000D01*
X170648126Y-70726714D01*
G37*
X170648126Y-70726714D02*
X171271572Y-70914943D01*
X171846579Y-71220681D01*
X172351247Y-71632279D01*
X172766362Y-72134067D01*
X173076105Y-72706924D01*
X173268682Y-73329039D01*
X173340000Y-74007584D01*
X173340001Y-95967711D01*
X173273286Y-96648126D01*
X173085057Y-97271570D01*
X172779323Y-97846573D01*
X172367721Y-98351248D01*
X171865933Y-98766362D01*
X171293077Y-99076104D01*
X170670961Y-99268682D01*
X169992417Y-99340000D01*
X167433381Y-99340000D01*
X167400413Y-99343247D01*
X167387433Y-99343247D01*
X167378268Y-99344210D01*
X167184318Y-99365965D01*
X167125819Y-99378400D01*
X167067125Y-99390022D01*
X167058322Y-99392747D01*
X166872291Y-99451760D01*
X166817309Y-99475326D01*
X166762006Y-99498120D01*
X166753900Y-99502503D01*
X166714190Y-99524334D01*
X166612105Y-99456123D01*
X166451045Y-99389410D01*
X166280065Y-99355400D01*
X166105735Y-99355400D01*
X165934755Y-99389410D01*
X165817900Y-99437813D01*
X165701045Y-99389410D01*
X165530065Y-99355400D01*
X165355735Y-99355400D01*
X165184755Y-99389410D01*
X165067900Y-99437813D01*
X164951045Y-99389410D01*
X164780065Y-99355400D01*
X164605735Y-99355400D01*
X164434755Y-99389410D01*
X164273695Y-99456123D01*
X164191370Y-99511131D01*
X164156721Y-99492708D01*
X164101406Y-99469909D01*
X164046434Y-99446348D01*
X164037631Y-99443623D01*
X163850795Y-99387214D01*
X163792107Y-99375594D01*
X163733604Y-99363158D01*
X163724439Y-99362195D01*
X163530205Y-99343150D01*
X163530202Y-99343150D01*
X163498219Y-99340000D01*
X148967581Y-99340000D01*
X148934613Y-99343247D01*
X148921633Y-99343247D01*
X148912468Y-99344210D01*
X148718518Y-99365965D01*
X148660019Y-99378400D01*
X148601325Y-99390022D01*
X148592522Y-99392747D01*
X148406491Y-99451760D01*
X148351509Y-99475326D01*
X148296206Y-99498120D01*
X148288100Y-99502503D01*
X148230995Y-99533897D01*
X148133605Y-99468823D01*
X147972545Y-99402110D01*
X147801565Y-99368100D01*
X147627235Y-99368100D01*
X147456255Y-99402110D01*
X147339400Y-99450513D01*
X147222545Y-99402110D01*
X147051565Y-99368100D01*
X146877235Y-99368100D01*
X146706255Y-99402110D01*
X146589400Y-99450513D01*
X146472545Y-99402110D01*
X146301565Y-99368100D01*
X146127235Y-99368100D01*
X145956255Y-99402110D01*
X145795195Y-99468823D01*
X145729082Y-99512999D01*
X145690921Y-99492708D01*
X145635606Y-99469909D01*
X145580634Y-99446348D01*
X145571831Y-99443623D01*
X145384995Y-99387214D01*
X145326307Y-99375594D01*
X145267804Y-99363158D01*
X145258639Y-99362195D01*
X145064405Y-99343150D01*
X145064402Y-99343150D01*
X145032419Y-99340000D01*
X130476381Y-99340000D01*
X130443413Y-99343247D01*
X130430433Y-99343247D01*
X130421268Y-99344210D01*
X130227318Y-99365965D01*
X130168819Y-99378400D01*
X130110125Y-99390022D01*
X130101322Y-99392747D01*
X129915291Y-99451760D01*
X129860309Y-99475326D01*
X129805006Y-99498120D01*
X129796900Y-99502503D01*
X129771124Y-99516673D01*
X129680505Y-99456123D01*
X129519445Y-99389410D01*
X129348465Y-99355400D01*
X129174135Y-99355400D01*
X129003155Y-99389410D01*
X128886300Y-99437813D01*
X128769445Y-99389410D01*
X128598465Y-99355400D01*
X128424135Y-99355400D01*
X128253155Y-99389410D01*
X128136300Y-99437813D01*
X128019445Y-99389410D01*
X127848465Y-99355400D01*
X127674135Y-99355400D01*
X127503155Y-99389410D01*
X127342095Y-99456123D01*
X127248514Y-99518652D01*
X127199721Y-99492708D01*
X127144406Y-99469909D01*
X127089434Y-99446348D01*
X127080631Y-99443623D01*
X126893795Y-99387214D01*
X126835107Y-99375594D01*
X126776604Y-99363158D01*
X126767439Y-99362195D01*
X126573205Y-99343150D01*
X126573202Y-99343150D01*
X126541219Y-99340000D01*
X124032279Y-99340000D01*
X123351874Y-99273286D01*
X122728430Y-99085057D01*
X122153427Y-98779323D01*
X121648752Y-98367721D01*
X121233638Y-97865933D01*
X120923896Y-97293077D01*
X120731318Y-96670961D01*
X120660000Y-95992417D01*
X120660000Y-95750324D01*
X121465000Y-95750324D01*
X121465000Y-96249676D01*
X121562418Y-96739432D01*
X121753512Y-97200773D01*
X122030937Y-97615968D01*
X122384032Y-97969063D01*
X122799227Y-98246488D01*
X123260568Y-98437582D01*
X123750324Y-98535000D01*
X124249676Y-98535000D01*
X124739432Y-98437582D01*
X125200773Y-98246488D01*
X125615968Y-97969063D01*
X125969063Y-97615968D01*
X126246488Y-97200773D01*
X126437582Y-96739432D01*
X126535000Y-96249676D01*
X126535000Y-95750324D01*
X167465000Y-95750324D01*
X167465000Y-96249676D01*
X167562418Y-96739432D01*
X167753512Y-97200773D01*
X168030937Y-97615968D01*
X168384032Y-97969063D01*
X168799227Y-98246488D01*
X169260568Y-98437582D01*
X169750324Y-98535000D01*
X170249676Y-98535000D01*
X170739432Y-98437582D01*
X171200773Y-98246488D01*
X171615968Y-97969063D01*
X171969063Y-97615968D01*
X172246488Y-97200773D01*
X172437582Y-96739432D01*
X172535000Y-96249676D01*
X172535000Y-95750324D01*
X172437582Y-95260568D01*
X172246488Y-94799227D01*
X171969063Y-94384032D01*
X171615968Y-94030937D01*
X171200773Y-93753512D01*
X170739432Y-93562418D01*
X170249676Y-93465000D01*
X169750324Y-93465000D01*
X169260568Y-93562418D01*
X168799227Y-93753512D01*
X168384032Y-94030937D01*
X168030937Y-94384032D01*
X167753512Y-94799227D01*
X167562418Y-95260568D01*
X167465000Y-95750324D01*
X126535000Y-95750324D01*
X126437582Y-95260568D01*
X126246488Y-94799227D01*
X125969063Y-94384032D01*
X125615968Y-94030937D01*
X125200773Y-93753512D01*
X124739432Y-93562418D01*
X124249676Y-93465000D01*
X123750324Y-93465000D01*
X123260568Y-93562418D01*
X122799227Y-93753512D01*
X122384032Y-94030937D01*
X122030937Y-94384032D01*
X121753512Y-94799227D01*
X121562418Y-95260568D01*
X121465000Y-95750324D01*
X120660000Y-95750324D01*
X120660000Y-78232000D01*
X127698219Y-78232000D01*
X127702500Y-78275469D01*
X127702501Y-87142021D01*
X127698219Y-87185500D01*
X127715305Y-87358990D01*
X127765912Y-87525813D01*
X127848090Y-87679559D01*
X127930968Y-87780546D01*
X127930971Y-87780549D01*
X127958684Y-87814317D01*
X127992451Y-87842029D01*
X129339461Y-89189040D01*
X129325000Y-89261740D01*
X129325000Y-89554260D01*
X129382068Y-89841158D01*
X129494010Y-90111411D01*
X129656525Y-90354632D01*
X129863368Y-90561475D01*
X130037760Y-90678000D01*
X129863368Y-90794525D01*
X129656525Y-91001368D01*
X129494010Y-91244589D01*
X129382068Y-91514842D01*
X129325000Y-91801740D01*
X129325000Y-92094260D01*
X129382068Y-92381158D01*
X129494010Y-92651411D01*
X129656525Y-92894632D01*
X129863368Y-93101475D01*
X130106589Y-93263990D01*
X130376842Y-93375932D01*
X130663740Y-93433000D01*
X130956260Y-93433000D01*
X131243158Y-93375932D01*
X131513411Y-93263990D01*
X131756632Y-93101475D01*
X131888487Y-92969620D01*
X131910498Y-93042180D01*
X131969463Y-93152494D01*
X132048815Y-93249185D01*
X132145506Y-93328537D01*
X132255820Y-93387502D01*
X132375518Y-93423812D01*
X132500000Y-93436072D01*
X133064250Y-93433000D01*
X133223000Y-93274250D01*
X133223000Y-92075000D01*
X133477000Y-92075000D01*
X133477000Y-93274250D01*
X133635750Y-93433000D01*
X134200000Y-93436072D01*
X134324482Y-93423812D01*
X134444180Y-93387502D01*
X134554494Y-93328537D01*
X134651185Y-93249185D01*
X134730537Y-93152494D01*
X134789502Y-93042180D01*
X134825812Y-92922482D01*
X134838072Y-92798000D01*
X134835000Y-92233750D01*
X134676250Y-92075000D01*
X133477000Y-92075000D01*
X133223000Y-92075000D01*
X133203000Y-92075000D01*
X133203000Y-91821000D01*
X133223000Y-91821000D01*
X133223000Y-91801000D01*
X133477000Y-91801000D01*
X133477000Y-91821000D01*
X134676250Y-91821000D01*
X134835000Y-91662250D01*
X134838072Y-91098000D01*
X134825812Y-90973518D01*
X134789502Y-90853820D01*
X134730537Y-90743506D01*
X134651185Y-90646815D01*
X134554494Y-90567463D01*
X134444180Y-90508498D01*
X134371620Y-90486487D01*
X134503475Y-90354632D01*
X134665990Y-90111411D01*
X134777932Y-89841158D01*
X134835000Y-89554260D01*
X134835000Y-89433061D01*
X155175000Y-89433061D01*
X155175000Y-89636939D01*
X155214774Y-89836898D01*
X155292795Y-90025256D01*
X155406063Y-90194774D01*
X155550226Y-90338937D01*
X155719744Y-90452205D01*
X155908102Y-90530226D01*
X156108061Y-90570000D01*
X156311939Y-90570000D01*
X156511898Y-90530226D01*
X156700256Y-90452205D01*
X156869774Y-90338937D01*
X156913711Y-90295000D01*
X157538289Y-90295000D01*
X157582226Y-90338937D01*
X157751744Y-90452205D01*
X157940102Y-90530226D01*
X158140061Y-90570000D01*
X158343939Y-90570000D01*
X158543898Y-90530226D01*
X158732256Y-90452205D01*
X158901774Y-90338937D01*
X159045937Y-90194774D01*
X159159205Y-90025256D01*
X159237226Y-89836898D01*
X159277000Y-89636939D01*
X159277000Y-89433061D01*
X159237226Y-89233102D01*
X159159205Y-89044744D01*
X159045937Y-88875226D01*
X158901774Y-88731063D01*
X158792428Y-88658000D01*
X163743928Y-88658000D01*
X163743928Y-90158000D01*
X163756188Y-90282482D01*
X163792498Y-90402180D01*
X163851463Y-90512494D01*
X163930815Y-90609185D01*
X164027506Y-90688537D01*
X164137820Y-90747502D01*
X164257518Y-90783812D01*
X164382000Y-90796072D01*
X165882000Y-90796072D01*
X166006482Y-90783812D01*
X166126180Y-90747502D01*
X166236494Y-90688537D01*
X166333185Y-90609185D01*
X166412537Y-90512494D01*
X166471502Y-90402180D01*
X166507812Y-90282482D01*
X166520072Y-90158000D01*
X166520072Y-88658000D01*
X166507812Y-88533518D01*
X166471502Y-88413820D01*
X166412537Y-88303506D01*
X166333185Y-88206815D01*
X166236494Y-88127463D01*
X166126180Y-88068498D01*
X166006482Y-88032188D01*
X165898517Y-88021555D01*
X166014886Y-87943799D01*
X166207799Y-87750886D01*
X166359371Y-87524043D01*
X166463775Y-87271989D01*
X166517000Y-87004411D01*
X166517000Y-86731589D01*
X166463775Y-86464011D01*
X166359371Y-86211957D01*
X166207799Y-85985114D01*
X166014886Y-85792201D01*
X165788043Y-85640629D01*
X165535989Y-85536225D01*
X165268411Y-85483000D01*
X164995589Y-85483000D01*
X164728011Y-85536225D01*
X164475957Y-85640629D01*
X164249114Y-85792201D01*
X164056201Y-85985114D01*
X163904629Y-86211957D01*
X163800225Y-86464011D01*
X163747000Y-86731589D01*
X163747000Y-87004411D01*
X163800225Y-87271989D01*
X163904629Y-87524043D01*
X164056201Y-87750886D01*
X164249114Y-87943799D01*
X164365483Y-88021555D01*
X164257518Y-88032188D01*
X164137820Y-88068498D01*
X164027506Y-88127463D01*
X163930815Y-88206815D01*
X163851463Y-88303506D01*
X163792498Y-88413820D01*
X163756188Y-88533518D01*
X163743928Y-88658000D01*
X158792428Y-88658000D01*
X158732256Y-88617795D01*
X158543898Y-88539774D01*
X158343939Y-88500000D01*
X158140061Y-88500000D01*
X157940102Y-88539774D01*
X157751744Y-88617795D01*
X157582226Y-88731063D01*
X157538289Y-88775000D01*
X156913711Y-88775000D01*
X156869774Y-88731063D01*
X156700256Y-88617795D01*
X156511898Y-88539774D01*
X156311939Y-88500000D01*
X156108061Y-88500000D01*
X155908102Y-88539774D01*
X155719744Y-88617795D01*
X155550226Y-88731063D01*
X155406063Y-88875226D01*
X155292795Y-89044744D01*
X155214774Y-89233102D01*
X155175000Y-89433061D01*
X134835000Y-89433061D01*
X134835000Y-89261740D01*
X134777932Y-88974842D01*
X134727464Y-88853001D01*
X137675677Y-88853001D01*
X137712999Y-88856677D01*
X137750321Y-88853001D01*
X137750332Y-88853001D01*
X137861985Y-88842004D01*
X138005246Y-88798547D01*
X138137275Y-88727975D01*
X138214010Y-88665000D01*
X138277939Y-88665000D01*
X138477898Y-88625226D01*
X138666256Y-88547205D01*
X138835774Y-88433937D01*
X138979937Y-88289774D01*
X139065000Y-88162468D01*
X139150063Y-88289774D01*
X139294226Y-88433937D01*
X139463744Y-88547205D01*
X139652102Y-88625226D01*
X139852061Y-88665000D01*
X140055939Y-88665000D01*
X140255898Y-88625226D01*
X140444256Y-88547205D01*
X140613774Y-88433937D01*
X140757937Y-88289774D01*
X140871205Y-88120256D01*
X140949226Y-87931898D01*
X140970000Y-87827459D01*
X140990774Y-87931898D01*
X141068795Y-88120256D01*
X141182063Y-88289774D01*
X141326226Y-88433937D01*
X141495744Y-88547205D01*
X141684102Y-88625226D01*
X141884061Y-88665000D01*
X142087939Y-88665000D01*
X142287898Y-88625226D01*
X142476256Y-88547205D01*
X142645774Y-88433937D01*
X142789937Y-88289774D01*
X142903205Y-88120256D01*
X142981226Y-87931898D01*
X143021000Y-87731939D01*
X143021000Y-87707802D01*
X143237000Y-87923802D01*
X143237000Y-87985939D01*
X143276774Y-88185898D01*
X143354795Y-88374256D01*
X143468063Y-88543774D01*
X143612226Y-88687937D01*
X143781744Y-88801205D01*
X143970102Y-88879226D01*
X144170061Y-88919000D01*
X144373939Y-88919000D01*
X144573898Y-88879226D01*
X144762256Y-88801205D01*
X144931774Y-88687937D01*
X145075937Y-88543774D01*
X145189205Y-88374256D01*
X145267226Y-88185898D01*
X145307000Y-87985939D01*
X145307000Y-87782061D01*
X145267226Y-87582102D01*
X145189205Y-87393744D01*
X145075937Y-87224226D01*
X144931774Y-87080063D01*
X144762256Y-86966795D01*
X144573898Y-86888774D01*
X144373939Y-86849000D01*
X144311802Y-86849000D01*
X142450863Y-84988061D01*
X146856500Y-84988061D01*
X146856500Y-85191939D01*
X146896274Y-85391898D01*
X146974295Y-85580256D01*
X147087563Y-85749774D01*
X147231726Y-85893937D01*
X147401244Y-86007205D01*
X147589602Y-86085226D01*
X147789561Y-86125000D01*
X147851699Y-86125000D01*
X148473160Y-86746462D01*
X148444000Y-86893061D01*
X148444000Y-87096939D01*
X148483774Y-87296898D01*
X148561795Y-87485256D01*
X148675063Y-87654774D01*
X148819226Y-87798937D01*
X148988744Y-87912205D01*
X149177102Y-87990226D01*
X149377061Y-88030000D01*
X149580939Y-88030000D01*
X149780898Y-87990226D01*
X149969256Y-87912205D01*
X150138774Y-87798937D01*
X150282937Y-87654774D01*
X150396205Y-87485256D01*
X150474226Y-87296898D01*
X150514000Y-87096939D01*
X150514000Y-86893061D01*
X150474226Y-86693102D01*
X150396205Y-86504744D01*
X150282937Y-86335226D01*
X150138774Y-86191063D01*
X149969256Y-86077795D01*
X149943378Y-86067076D01*
X148926500Y-85050199D01*
X148926500Y-84988061D01*
X148886726Y-84788102D01*
X148808705Y-84599744D01*
X148695437Y-84430226D01*
X148551274Y-84286063D01*
X148381756Y-84172795D01*
X148193398Y-84094774D01*
X147993439Y-84055000D01*
X147789561Y-84055000D01*
X147589602Y-84094774D01*
X147401244Y-84172795D01*
X147231726Y-84286063D01*
X147087563Y-84430226D01*
X146974295Y-84599744D01*
X146896274Y-84788102D01*
X146856500Y-84988061D01*
X142450863Y-84988061D01*
X139996999Y-82534198D01*
X139996999Y-82440742D01*
X140028842Y-82453932D01*
X140315740Y-82511000D01*
X140608260Y-82511000D01*
X140895158Y-82453932D01*
X141165411Y-82341990D01*
X141408632Y-82179475D01*
X141615475Y-81972632D01*
X141737195Y-81790466D01*
X141806822Y-81907355D01*
X142001731Y-82123588D01*
X142235080Y-82297641D01*
X142497901Y-82422825D01*
X142645110Y-82467476D01*
X142875000Y-82346155D01*
X142875000Y-81153000D01*
X143129000Y-81153000D01*
X143129000Y-82346155D01*
X143358890Y-82467476D01*
X143506099Y-82422825D01*
X143768920Y-82297641D01*
X144002269Y-82123588D01*
X144197178Y-81907355D01*
X144346157Y-81657252D01*
X144443481Y-81382891D01*
X144322814Y-81153000D01*
X143129000Y-81153000D01*
X142875000Y-81153000D01*
X142855000Y-81153000D01*
X142855000Y-80899000D01*
X142875000Y-80899000D01*
X142875000Y-79705845D01*
X143129000Y-79705845D01*
X143129000Y-80899000D01*
X144322814Y-80899000D01*
X144443481Y-80669109D01*
X144346157Y-80394748D01*
X144197178Y-80144645D01*
X144002269Y-79928412D01*
X143768920Y-79754359D01*
X143506099Y-79629175D01*
X143358890Y-79584524D01*
X143129000Y-79705845D01*
X142875000Y-79705845D01*
X142645110Y-79584524D01*
X142497901Y-79629175D01*
X142235080Y-79754359D01*
X142001731Y-79928412D01*
X141806822Y-80144645D01*
X141737195Y-80261534D01*
X141615475Y-80079368D01*
X141408632Y-79872525D01*
X141350330Y-79833569D01*
X141351281Y-79823918D01*
X141347000Y-79780452D01*
X141347000Y-79780442D01*
X141334195Y-79650429D01*
X141283589Y-79483606D01*
X141201411Y-79329860D01*
X141090817Y-79195102D01*
X141057049Y-79167389D01*
X138637615Y-76747956D01*
X138609898Y-76714183D01*
X138475140Y-76603589D01*
X138321394Y-76521411D01*
X138154571Y-76470805D01*
X138024558Y-76458000D01*
X138024550Y-76458000D01*
X137981081Y-76453719D01*
X137937612Y-76458000D01*
X129519969Y-76458000D01*
X129476500Y-76453719D01*
X129433031Y-76458000D01*
X129433023Y-76458000D01*
X129303010Y-76470805D01*
X129136187Y-76521411D01*
X128982441Y-76603589D01*
X128881453Y-76686468D01*
X128881451Y-76686470D01*
X128847683Y-76714183D01*
X128819970Y-76747951D01*
X127992456Y-77575466D01*
X127958683Y-77603183D01*
X127848089Y-77737942D01*
X127765911Y-77891688D01*
X127715305Y-78058511D01*
X127702500Y-78188524D01*
X127702500Y-78188531D01*
X127698219Y-78232000D01*
X120660000Y-78232000D01*
X120660000Y-74032278D01*
X120687645Y-73750324D01*
X121465000Y-73750324D01*
X121465000Y-74249676D01*
X121562418Y-74739432D01*
X121753512Y-75200773D01*
X122030937Y-75615968D01*
X122384032Y-75969063D01*
X122799227Y-76246488D01*
X123260568Y-76437582D01*
X123750324Y-76535000D01*
X124249676Y-76535000D01*
X124739432Y-76437582D01*
X125200773Y-76246488D01*
X125615968Y-75969063D01*
X125969063Y-75615968D01*
X126246488Y-75200773D01*
X126437582Y-74739432D01*
X126535000Y-74249676D01*
X126535000Y-73750324D01*
X167465000Y-73750324D01*
X167465000Y-74249676D01*
X167562418Y-74739432D01*
X167753512Y-75200773D01*
X168030937Y-75615968D01*
X168384032Y-75969063D01*
X168799227Y-76246488D01*
X169260568Y-76437582D01*
X169750324Y-76535000D01*
X170249676Y-76535000D01*
X170739432Y-76437582D01*
X171200773Y-76246488D01*
X171615968Y-75969063D01*
X171969063Y-75615968D01*
X172246488Y-75200773D01*
X172437582Y-74739432D01*
X172535000Y-74249676D01*
X172535000Y-73750324D01*
X172437582Y-73260568D01*
X172246488Y-72799227D01*
X171969063Y-72384032D01*
X171615968Y-72030937D01*
X171200773Y-71753512D01*
X170739432Y-71562418D01*
X170249676Y-71465000D01*
X169750324Y-71465000D01*
X169260568Y-71562418D01*
X168799227Y-71753512D01*
X168384032Y-72030937D01*
X168030937Y-72384032D01*
X167753512Y-72799227D01*
X167562418Y-73260568D01*
X167465000Y-73750324D01*
X126535000Y-73750324D01*
X126437582Y-73260568D01*
X126246488Y-72799227D01*
X125969063Y-72384032D01*
X125615968Y-72030937D01*
X125200773Y-71753512D01*
X124739432Y-71562418D01*
X124249676Y-71465000D01*
X123750324Y-71465000D01*
X123260568Y-71562418D01*
X122799227Y-71753512D01*
X122384032Y-72030937D01*
X122030937Y-72384032D01*
X121753512Y-72799227D01*
X121562418Y-73260568D01*
X121465000Y-73750324D01*
X120687645Y-73750324D01*
X120726714Y-73351874D01*
X120914943Y-72728428D01*
X121220681Y-72153421D01*
X121632279Y-71648753D01*
X122134067Y-71233638D01*
X122706924Y-70923895D01*
X123329039Y-70731318D01*
X124007584Y-70660000D01*
X169967722Y-70660000D01*
X170648126Y-70726714D01*
M02*
