G04 #@! TF.GenerationSoftware,KiCad,Pcbnew,(5.1.6)-1*
G04 #@! TF.CreationDate,2020-07-08T14:04:07+02:00*
G04 #@! TF.ProjectId,InteractiveGuitar,496e7465-7261-4637-9469-766547756974,rev?*
G04 #@! TF.SameCoordinates,Original*
G04 #@! TF.FileFunction,Copper,L1,Top*
G04 #@! TF.FilePolarity,Positive*
%FSLAX46Y46*%
G04 Gerber Fmt 4.6, Leading zero omitted, Abs format (unit mm)*
G04 Created by KiCad (PCBNEW (5.1.6)-1) date 2020-07-08 14:04:07*
%MOMM*%
%LPD*%
G01*
G04 APERTURE LIST*
G04 #@! TA.AperFunction,ComponentPad*
%ADD10O,1.700000X1.700000*%
G04 #@! TD*
G04 #@! TA.AperFunction,ComponentPad*
%ADD11R,1.700000X1.700000*%
G04 #@! TD*
G04 #@! TA.AperFunction,SMDPad,CuDef*
%ADD12R,2.500000X2.500000*%
G04 #@! TD*
G04 #@! TA.AperFunction,SMDPad,CuDef*
%ADD13R,2.000000X1.100000*%
G04 #@! TD*
G04 #@! TA.AperFunction,ComponentPad*
%ADD14C,1.500000*%
G04 #@! TD*
G04 #@! TA.AperFunction,ComponentPad*
%ADD15R,1.500000X1.500000*%
G04 #@! TD*
G04 #@! TA.AperFunction,SMDPad,CuDef*
%ADD16R,1.600000X1.600000*%
G04 #@! TD*
G04 #@! TA.AperFunction,ComponentPad*
%ADD17C,3.800000*%
G04 #@! TD*
G04 #@! TA.AperFunction,ViaPad*
%ADD18C,0.800000*%
G04 #@! TD*
G04 #@! TA.AperFunction,Conductor*
%ADD19C,0.250000*%
G04 #@! TD*
G04 #@! TA.AperFunction,Conductor*
%ADD20C,0.500000*%
G04 #@! TD*
G04 #@! TA.AperFunction,Conductor*
%ADD21C,0.200000*%
G04 #@! TD*
G04 #@! TA.AperFunction,Conductor*
%ADD22C,0.254000*%
G04 #@! TD*
G04 APERTURE END LIST*
D10*
X163576000Y-106743500D03*
D11*
X161036000Y-106743500D03*
G04 #@! TA.AperFunction,SMDPad,CuDef*
G36*
G01*
X153883500Y-111785500D02*
X153583500Y-111785500D01*
G75*
G02*
X153433500Y-111635500I0J150000D01*
G01*
X153433500Y-109985500D01*
G75*
G02*
X153583500Y-109835500I150000J0D01*
G01*
X153883500Y-109835500D01*
G75*
G02*
X154033500Y-109985500I0J-150000D01*
G01*
X154033500Y-111635500D01*
G75*
G02*
X153883500Y-111785500I-150000J0D01*
G01*
G37*
G04 #@! TD.AperFunction*
G04 #@! TA.AperFunction,SMDPad,CuDef*
G36*
G01*
X155153500Y-111785500D02*
X154853500Y-111785500D01*
G75*
G02*
X154703500Y-111635500I0J150000D01*
G01*
X154703500Y-109985500D01*
G75*
G02*
X154853500Y-109835500I150000J0D01*
G01*
X155153500Y-109835500D01*
G75*
G02*
X155303500Y-109985500I0J-150000D01*
G01*
X155303500Y-111635500D01*
G75*
G02*
X155153500Y-111785500I-150000J0D01*
G01*
G37*
G04 #@! TD.AperFunction*
G04 #@! TA.AperFunction,SMDPad,CuDef*
G36*
G01*
X156423500Y-111785500D02*
X156123500Y-111785500D01*
G75*
G02*
X155973500Y-111635500I0J150000D01*
G01*
X155973500Y-109985500D01*
G75*
G02*
X156123500Y-109835500I150000J0D01*
G01*
X156423500Y-109835500D01*
G75*
G02*
X156573500Y-109985500I0J-150000D01*
G01*
X156573500Y-111635500D01*
G75*
G02*
X156423500Y-111785500I-150000J0D01*
G01*
G37*
G04 #@! TD.AperFunction*
G04 #@! TA.AperFunction,SMDPad,CuDef*
G36*
G01*
X157693500Y-111785500D02*
X157393500Y-111785500D01*
G75*
G02*
X157243500Y-111635500I0J150000D01*
G01*
X157243500Y-109985500D01*
G75*
G02*
X157393500Y-109835500I150000J0D01*
G01*
X157693500Y-109835500D01*
G75*
G02*
X157843500Y-109985500I0J-150000D01*
G01*
X157843500Y-111635500D01*
G75*
G02*
X157693500Y-111785500I-150000J0D01*
G01*
G37*
G04 #@! TD.AperFunction*
G04 #@! TA.AperFunction,SMDPad,CuDef*
G36*
G01*
X158963500Y-111785500D02*
X158663500Y-111785500D01*
G75*
G02*
X158513500Y-111635500I0J150000D01*
G01*
X158513500Y-109985500D01*
G75*
G02*
X158663500Y-109835500I150000J0D01*
G01*
X158963500Y-109835500D01*
G75*
G02*
X159113500Y-109985500I0J-150000D01*
G01*
X159113500Y-111635500D01*
G75*
G02*
X158963500Y-111785500I-150000J0D01*
G01*
G37*
G04 #@! TD.AperFunction*
G04 #@! TA.AperFunction,SMDPad,CuDef*
G36*
G01*
X160233500Y-111785500D02*
X159933500Y-111785500D01*
G75*
G02*
X159783500Y-111635500I0J150000D01*
G01*
X159783500Y-109985500D01*
G75*
G02*
X159933500Y-109835500I150000J0D01*
G01*
X160233500Y-109835500D01*
G75*
G02*
X160383500Y-109985500I0J-150000D01*
G01*
X160383500Y-111635500D01*
G75*
G02*
X160233500Y-111785500I-150000J0D01*
G01*
G37*
G04 #@! TD.AperFunction*
G04 #@! TA.AperFunction,SMDPad,CuDef*
G36*
G01*
X161503500Y-111785500D02*
X161203500Y-111785500D01*
G75*
G02*
X161053500Y-111635500I0J150000D01*
G01*
X161053500Y-109985500D01*
G75*
G02*
X161203500Y-109835500I150000J0D01*
G01*
X161503500Y-109835500D01*
G75*
G02*
X161653500Y-109985500I0J-150000D01*
G01*
X161653500Y-111635500D01*
G75*
G02*
X161503500Y-111785500I-150000J0D01*
G01*
G37*
G04 #@! TD.AperFunction*
G04 #@! TA.AperFunction,SMDPad,CuDef*
G36*
G01*
X162773500Y-111785500D02*
X162473500Y-111785500D01*
G75*
G02*
X162323500Y-111635500I0J150000D01*
G01*
X162323500Y-109985500D01*
G75*
G02*
X162473500Y-109835500I150000J0D01*
G01*
X162773500Y-109835500D01*
G75*
G02*
X162923500Y-109985500I0J-150000D01*
G01*
X162923500Y-111635500D01*
G75*
G02*
X162773500Y-111785500I-150000J0D01*
G01*
G37*
G04 #@! TD.AperFunction*
G04 #@! TA.AperFunction,SMDPad,CuDef*
G36*
G01*
X162773500Y-116735500D02*
X162473500Y-116735500D01*
G75*
G02*
X162323500Y-116585500I0J150000D01*
G01*
X162323500Y-114935500D01*
G75*
G02*
X162473500Y-114785500I150000J0D01*
G01*
X162773500Y-114785500D01*
G75*
G02*
X162923500Y-114935500I0J-150000D01*
G01*
X162923500Y-116585500D01*
G75*
G02*
X162773500Y-116735500I-150000J0D01*
G01*
G37*
G04 #@! TD.AperFunction*
G04 #@! TA.AperFunction,SMDPad,CuDef*
G36*
G01*
X161503500Y-116735500D02*
X161203500Y-116735500D01*
G75*
G02*
X161053500Y-116585500I0J150000D01*
G01*
X161053500Y-114935500D01*
G75*
G02*
X161203500Y-114785500I150000J0D01*
G01*
X161503500Y-114785500D01*
G75*
G02*
X161653500Y-114935500I0J-150000D01*
G01*
X161653500Y-116585500D01*
G75*
G02*
X161503500Y-116735500I-150000J0D01*
G01*
G37*
G04 #@! TD.AperFunction*
G04 #@! TA.AperFunction,SMDPad,CuDef*
G36*
G01*
X160233500Y-116735500D02*
X159933500Y-116735500D01*
G75*
G02*
X159783500Y-116585500I0J150000D01*
G01*
X159783500Y-114935500D01*
G75*
G02*
X159933500Y-114785500I150000J0D01*
G01*
X160233500Y-114785500D01*
G75*
G02*
X160383500Y-114935500I0J-150000D01*
G01*
X160383500Y-116585500D01*
G75*
G02*
X160233500Y-116735500I-150000J0D01*
G01*
G37*
G04 #@! TD.AperFunction*
G04 #@! TA.AperFunction,SMDPad,CuDef*
G36*
G01*
X158963500Y-116735500D02*
X158663500Y-116735500D01*
G75*
G02*
X158513500Y-116585500I0J150000D01*
G01*
X158513500Y-114935500D01*
G75*
G02*
X158663500Y-114785500I150000J0D01*
G01*
X158963500Y-114785500D01*
G75*
G02*
X159113500Y-114935500I0J-150000D01*
G01*
X159113500Y-116585500D01*
G75*
G02*
X158963500Y-116735500I-150000J0D01*
G01*
G37*
G04 #@! TD.AperFunction*
G04 #@! TA.AperFunction,SMDPad,CuDef*
G36*
G01*
X157693500Y-116735500D02*
X157393500Y-116735500D01*
G75*
G02*
X157243500Y-116585500I0J150000D01*
G01*
X157243500Y-114935500D01*
G75*
G02*
X157393500Y-114785500I150000J0D01*
G01*
X157693500Y-114785500D01*
G75*
G02*
X157843500Y-114935500I0J-150000D01*
G01*
X157843500Y-116585500D01*
G75*
G02*
X157693500Y-116735500I-150000J0D01*
G01*
G37*
G04 #@! TD.AperFunction*
G04 #@! TA.AperFunction,SMDPad,CuDef*
G36*
G01*
X156423500Y-116735500D02*
X156123500Y-116735500D01*
G75*
G02*
X155973500Y-116585500I0J150000D01*
G01*
X155973500Y-114935500D01*
G75*
G02*
X156123500Y-114785500I150000J0D01*
G01*
X156423500Y-114785500D01*
G75*
G02*
X156573500Y-114935500I0J-150000D01*
G01*
X156573500Y-116585500D01*
G75*
G02*
X156423500Y-116735500I-150000J0D01*
G01*
G37*
G04 #@! TD.AperFunction*
G04 #@! TA.AperFunction,SMDPad,CuDef*
G36*
G01*
X155153500Y-116735500D02*
X154853500Y-116735500D01*
G75*
G02*
X154703500Y-116585500I0J150000D01*
G01*
X154703500Y-114935500D01*
G75*
G02*
X154853500Y-114785500I150000J0D01*
G01*
X155153500Y-114785500D01*
G75*
G02*
X155303500Y-114935500I0J-150000D01*
G01*
X155303500Y-116585500D01*
G75*
G02*
X155153500Y-116735500I-150000J0D01*
G01*
G37*
G04 #@! TD.AperFunction*
G04 #@! TA.AperFunction,SMDPad,CuDef*
G36*
G01*
X153883500Y-116735500D02*
X153583500Y-116735500D01*
G75*
G02*
X153433500Y-116585500I0J150000D01*
G01*
X153433500Y-114935500D01*
G75*
G02*
X153583500Y-114785500I150000J0D01*
G01*
X153883500Y-114785500D01*
G75*
G02*
X154033500Y-114935500I0J-150000D01*
G01*
X154033500Y-116585500D01*
G75*
G02*
X153883500Y-116735500I-150000J0D01*
G01*
G37*
G04 #@! TD.AperFunction*
G04 #@! TA.AperFunction,SMDPad,CuDef*
G36*
G01*
X133298250Y-74797500D02*
X132385750Y-74797500D01*
G75*
G02*
X132142000Y-74553750I0J243750D01*
G01*
X132142000Y-74066250D01*
G75*
G02*
X132385750Y-73822500I243750J0D01*
G01*
X133298250Y-73822500D01*
G75*
G02*
X133542000Y-74066250I0J-243750D01*
G01*
X133542000Y-74553750D01*
G75*
G02*
X133298250Y-74797500I-243750J0D01*
G01*
G37*
G04 #@! TD.AperFunction*
G04 #@! TA.AperFunction,SMDPad,CuDef*
G36*
G01*
X133298250Y-76672500D02*
X132385750Y-76672500D01*
G75*
G02*
X132142000Y-76428750I0J243750D01*
G01*
X132142000Y-75941250D01*
G75*
G02*
X132385750Y-75697500I243750J0D01*
G01*
X133298250Y-75697500D01*
G75*
G02*
X133542000Y-75941250I0J-243750D01*
G01*
X133542000Y-76428750D01*
G75*
G02*
X133298250Y-76672500I-243750J0D01*
G01*
G37*
G04 #@! TD.AperFunction*
G04 #@! TA.AperFunction,SMDPad,CuDef*
G36*
G01*
X135330250Y-74782500D02*
X134417750Y-74782500D01*
G75*
G02*
X134174000Y-74538750I0J243750D01*
G01*
X134174000Y-74051250D01*
G75*
G02*
X134417750Y-73807500I243750J0D01*
G01*
X135330250Y-73807500D01*
G75*
G02*
X135574000Y-74051250I0J-243750D01*
G01*
X135574000Y-74538750D01*
G75*
G02*
X135330250Y-74782500I-243750J0D01*
G01*
G37*
G04 #@! TD.AperFunction*
G04 #@! TA.AperFunction,SMDPad,CuDef*
G36*
G01*
X135330250Y-76657500D02*
X134417750Y-76657500D01*
G75*
G02*
X134174000Y-76413750I0J243750D01*
G01*
X134174000Y-75926250D01*
G75*
G02*
X134417750Y-75682500I243750J0D01*
G01*
X135330250Y-75682500D01*
G75*
G02*
X135574000Y-75926250I0J-243750D01*
G01*
X135574000Y-76413750D01*
G75*
G02*
X135330250Y-76657500I-243750J0D01*
G01*
G37*
G04 #@! TD.AperFunction*
D10*
X125476000Y-119380000D03*
X125476000Y-116840000D03*
X128016000Y-119380000D03*
X128016000Y-116840000D03*
X130556000Y-119380000D03*
X130556000Y-116840000D03*
X133096000Y-119380000D03*
X133096000Y-116840000D03*
X135636000Y-119380000D03*
X135636000Y-116840000D03*
X138176000Y-119380000D03*
D11*
X138176000Y-116840000D03*
D12*
X145097500Y-122872500D03*
X158051500Y-119824500D03*
D10*
X155448000Y-123634500D03*
X157988000Y-123634500D03*
D11*
X160528000Y-123634500D03*
D10*
X143002000Y-81026000D03*
X140462000Y-81026000D03*
D11*
X137922000Y-81026000D03*
D10*
X130810000Y-79248000D03*
X133350000Y-79248000D03*
X130810000Y-81788000D03*
X133350000Y-81788000D03*
X130810000Y-84328000D03*
X133350000Y-84328000D03*
X130810000Y-86868000D03*
X133350000Y-86868000D03*
X130810000Y-89408000D03*
X133350000Y-89408000D03*
X130810000Y-91948000D03*
D11*
X133350000Y-91948000D03*
D10*
X171069000Y-114617500D03*
X171069000Y-112077500D03*
X171069000Y-109537500D03*
X171069000Y-106997500D03*
D11*
X171069000Y-104457500D03*
D13*
X152794000Y-78408000D03*
X152794000Y-76708000D03*
X152794000Y-75008000D03*
X157594000Y-75008000D03*
X157594000Y-76708000D03*
X157594000Y-78408000D03*
G04 #@! TA.AperFunction,SMDPad,CuDef*
G36*
G01*
X148648000Y-78283750D02*
X148648000Y-79196250D01*
G75*
G02*
X148404250Y-79440000I-243750J0D01*
G01*
X147916750Y-79440000D01*
G75*
G02*
X147673000Y-79196250I0J243750D01*
G01*
X147673000Y-78283750D01*
G75*
G02*
X147916750Y-78040000I243750J0D01*
G01*
X148404250Y-78040000D01*
G75*
G02*
X148648000Y-78283750I0J-243750D01*
G01*
G37*
G04 #@! TD.AperFunction*
G04 #@! TA.AperFunction,SMDPad,CuDef*
G36*
G01*
X150523000Y-78283750D02*
X150523000Y-79196250D01*
G75*
G02*
X150279250Y-79440000I-243750J0D01*
G01*
X149791750Y-79440000D01*
G75*
G02*
X149548000Y-79196250I0J243750D01*
G01*
X149548000Y-78283750D01*
G75*
G02*
X149791750Y-78040000I243750J0D01*
G01*
X150279250Y-78040000D01*
G75*
G02*
X150523000Y-78283750I0J-243750D01*
G01*
G37*
G04 #@! TD.AperFunction*
G04 #@! TA.AperFunction,SMDPad,CuDef*
G36*
G01*
X148648000Y-76251750D02*
X148648000Y-77164250D01*
G75*
G02*
X148404250Y-77408000I-243750J0D01*
G01*
X147916750Y-77408000D01*
G75*
G02*
X147673000Y-77164250I0J243750D01*
G01*
X147673000Y-76251750D01*
G75*
G02*
X147916750Y-76008000I243750J0D01*
G01*
X148404250Y-76008000D01*
G75*
G02*
X148648000Y-76251750I0J-243750D01*
G01*
G37*
G04 #@! TD.AperFunction*
G04 #@! TA.AperFunction,SMDPad,CuDef*
G36*
G01*
X150523000Y-76251750D02*
X150523000Y-77164250D01*
G75*
G02*
X150279250Y-77408000I-243750J0D01*
G01*
X149791750Y-77408000D01*
G75*
G02*
X149548000Y-77164250I0J243750D01*
G01*
X149548000Y-76251750D01*
G75*
G02*
X149791750Y-76008000I243750J0D01*
G01*
X150279250Y-76008000D01*
G75*
G02*
X150523000Y-76251750I0J-243750D01*
G01*
G37*
G04 #@! TD.AperFunction*
G04 #@! TA.AperFunction,SMDPad,CuDef*
G36*
G01*
X148648000Y-74207750D02*
X148648000Y-75120250D01*
G75*
G02*
X148404250Y-75364000I-243750J0D01*
G01*
X147916750Y-75364000D01*
G75*
G02*
X147673000Y-75120250I0J243750D01*
G01*
X147673000Y-74207750D01*
G75*
G02*
X147916750Y-73964000I243750J0D01*
G01*
X148404250Y-73964000D01*
G75*
G02*
X148648000Y-74207750I0J-243750D01*
G01*
G37*
G04 #@! TD.AperFunction*
G04 #@! TA.AperFunction,SMDPad,CuDef*
G36*
G01*
X150523000Y-74207750D02*
X150523000Y-75120250D01*
G75*
G02*
X150279250Y-75364000I-243750J0D01*
G01*
X149791750Y-75364000D01*
G75*
G02*
X149548000Y-75120250I0J243750D01*
G01*
X149548000Y-74207750D01*
G75*
G02*
X149791750Y-73964000I243750J0D01*
G01*
X150279250Y-73964000D01*
G75*
G02*
X150523000Y-74207750I0J-243750D01*
G01*
G37*
G04 #@! TD.AperFunction*
G04 #@! TA.AperFunction,SMDPad,CuDef*
G36*
G01*
X138378250Y-84640000D02*
X137465750Y-84640000D01*
G75*
G02*
X137222000Y-84396250I0J243750D01*
G01*
X137222000Y-83908750D01*
G75*
G02*
X137465750Y-83665000I243750J0D01*
G01*
X138378250Y-83665000D01*
G75*
G02*
X138622000Y-83908750I0J-243750D01*
G01*
X138622000Y-84396250D01*
G75*
G02*
X138378250Y-84640000I-243750J0D01*
G01*
G37*
G04 #@! TD.AperFunction*
G04 #@! TA.AperFunction,SMDPad,CuDef*
G36*
G01*
X138378250Y-86515000D02*
X137465750Y-86515000D01*
G75*
G02*
X137222000Y-86271250I0J243750D01*
G01*
X137222000Y-85783750D01*
G75*
G02*
X137465750Y-85540000I243750J0D01*
G01*
X138378250Y-85540000D01*
G75*
G02*
X138622000Y-85783750I0J-243750D01*
G01*
X138622000Y-86271250D01*
G75*
G02*
X138378250Y-86515000I-243750J0D01*
G01*
G37*
G04 #@! TD.AperFunction*
G04 #@! TA.AperFunction,SMDPad,CuDef*
G36*
G01*
X140410250Y-84640000D02*
X139497750Y-84640000D01*
G75*
G02*
X139254000Y-84396250I0J243750D01*
G01*
X139254000Y-83908750D01*
G75*
G02*
X139497750Y-83665000I243750J0D01*
G01*
X140410250Y-83665000D01*
G75*
G02*
X140654000Y-83908750I0J-243750D01*
G01*
X140654000Y-84396250D01*
G75*
G02*
X140410250Y-84640000I-243750J0D01*
G01*
G37*
G04 #@! TD.AperFunction*
G04 #@! TA.AperFunction,SMDPad,CuDef*
G36*
G01*
X140410250Y-86515000D02*
X139497750Y-86515000D01*
G75*
G02*
X139254000Y-86271250I0J243750D01*
G01*
X139254000Y-85783750D01*
G75*
G02*
X139497750Y-85540000I243750J0D01*
G01*
X140410250Y-85540000D01*
G75*
G02*
X140654000Y-85783750I0J-243750D01*
G01*
X140654000Y-86271250D01*
G75*
G02*
X140410250Y-86515000I-243750J0D01*
G01*
G37*
G04 #@! TD.AperFunction*
G04 #@! TA.AperFunction,SMDPad,CuDef*
G36*
G01*
X142442250Y-84640000D02*
X141529750Y-84640000D01*
G75*
G02*
X141286000Y-84396250I0J243750D01*
G01*
X141286000Y-83908750D01*
G75*
G02*
X141529750Y-83665000I243750J0D01*
G01*
X142442250Y-83665000D01*
G75*
G02*
X142686000Y-83908750I0J-243750D01*
G01*
X142686000Y-84396250D01*
G75*
G02*
X142442250Y-84640000I-243750J0D01*
G01*
G37*
G04 #@! TD.AperFunction*
G04 #@! TA.AperFunction,SMDPad,CuDef*
G36*
G01*
X142442250Y-86515000D02*
X141529750Y-86515000D01*
G75*
G02*
X141286000Y-86271250I0J243750D01*
G01*
X141286000Y-85783750D01*
G75*
G02*
X141529750Y-85540000I243750J0D01*
G01*
X142442250Y-85540000D01*
G75*
G02*
X142686000Y-85783750I0J-243750D01*
G01*
X142686000Y-86271250D01*
G75*
G02*
X142442250Y-86515000I-243750J0D01*
G01*
G37*
G04 #@! TD.AperFunction*
G04 #@! TA.AperFunction,SMDPad,CuDef*
G36*
G01*
X139972000Y-93835750D02*
X139972000Y-94748250D01*
G75*
G02*
X139728250Y-94992000I-243750J0D01*
G01*
X139240750Y-94992000D01*
G75*
G02*
X138997000Y-94748250I0J243750D01*
G01*
X138997000Y-93835750D01*
G75*
G02*
X139240750Y-93592000I243750J0D01*
G01*
X139728250Y-93592000D01*
G75*
G02*
X139972000Y-93835750I0J-243750D01*
G01*
G37*
G04 #@! TD.AperFunction*
G04 #@! TA.AperFunction,SMDPad,CuDef*
G36*
G01*
X141847000Y-93835750D02*
X141847000Y-94748250D01*
G75*
G02*
X141603250Y-94992000I-243750J0D01*
G01*
X141115750Y-94992000D01*
G75*
G02*
X140872000Y-94748250I0J243750D01*
G01*
X140872000Y-93835750D01*
G75*
G02*
X141115750Y-93592000I243750J0D01*
G01*
X141603250Y-93592000D01*
G75*
G02*
X141847000Y-93835750I0J-243750D01*
G01*
G37*
G04 #@! TD.AperFunction*
D14*
X165132000Y-86868000D03*
D15*
X165132000Y-89408000D03*
G04 #@! TA.AperFunction,SMDPad,CuDef*
G36*
G01*
X149879000Y-89293400D02*
X149879000Y-88296600D01*
G75*
G02*
X149980600Y-88195000I101600J0D01*
G01*
X150977400Y-88195000D01*
G75*
G02*
X151079000Y-88296600I0J-101600D01*
G01*
X151079000Y-89293400D01*
G75*
G02*
X150977400Y-89395000I-101600J0D01*
G01*
X149980600Y-89395000D01*
G75*
G02*
X149879000Y-89293400I0J101600D01*
G01*
G37*
G04 #@! TD.AperFunction*
G04 #@! TA.AperFunction,SMDPad,CuDef*
G36*
G01*
X147879000Y-89293400D02*
X147879000Y-88296600D01*
G75*
G02*
X147980600Y-88195000I101600J0D01*
G01*
X148977400Y-88195000D01*
G75*
G02*
X149079000Y-88296600I0J-101600D01*
G01*
X149079000Y-89293400D01*
G75*
G02*
X148977400Y-89395000I-101600J0D01*
G01*
X147980600Y-89395000D01*
G75*
G02*
X147879000Y-89293400I0J101600D01*
G01*
G37*
G04 #@! TD.AperFunction*
G04 #@! TA.AperFunction,SMDPad,CuDef*
G36*
G01*
X148679000Y-86193400D02*
X148679000Y-84896600D01*
G75*
G02*
X148780600Y-84795000I101600J0D01*
G01*
X150177400Y-84795000D01*
G75*
G02*
X150279000Y-84896600I0J-101600D01*
G01*
X150279000Y-86193400D01*
G75*
G02*
X150177400Y-86295000I-101600J0D01*
G01*
X148780600Y-86295000D01*
G75*
G02*
X148679000Y-86193400I0J101600D01*
G01*
G37*
G04 #@! TD.AperFunction*
G04 #@! TA.AperFunction,SMDPad,CuDef*
G36*
G01*
X152912400Y-88455000D02*
X151965600Y-88455000D01*
G75*
G02*
X151864000Y-88353400I0J101600D01*
G01*
X151864000Y-88206600D01*
G75*
G02*
X151965600Y-88105000I101600J0D01*
G01*
X152912400Y-88105000D01*
G75*
G02*
X153014000Y-88206600I0J-101600D01*
G01*
X153014000Y-88353400D01*
G75*
G02*
X152912400Y-88455000I-101600J0D01*
G01*
G37*
G04 #@! TD.AperFunction*
G04 #@! TA.AperFunction,SMDPad,CuDef*
G36*
G01*
X152912400Y-87155000D02*
X151965600Y-87155000D01*
G75*
G02*
X151864000Y-87053400I0J101600D01*
G01*
X151864000Y-86906600D01*
G75*
G02*
X151965600Y-86805000I101600J0D01*
G01*
X152912400Y-86805000D01*
G75*
G02*
X153014000Y-86906600I0J-101600D01*
G01*
X153014000Y-87053400D01*
G75*
G02*
X152912400Y-87155000I-101600J0D01*
G01*
G37*
G04 #@! TD.AperFunction*
G04 #@! TA.AperFunction,SMDPad,CuDef*
G36*
G01*
X154612400Y-87155000D02*
X153665600Y-87155000D01*
G75*
G02*
X153564000Y-87053400I0J101600D01*
G01*
X153564000Y-86906600D01*
G75*
G02*
X153665600Y-86805000I101600J0D01*
G01*
X154612400Y-86805000D01*
G75*
G02*
X154714000Y-86906600I0J-101600D01*
G01*
X154714000Y-87053400D01*
G75*
G02*
X154612400Y-87155000I-101600J0D01*
G01*
G37*
G04 #@! TD.AperFunction*
G04 #@! TA.AperFunction,SMDPad,CuDef*
G36*
G01*
X154612400Y-87805000D02*
X153665600Y-87805000D01*
G75*
G02*
X153564000Y-87703400I0J101600D01*
G01*
X153564000Y-87556600D01*
G75*
G02*
X153665600Y-87455000I101600J0D01*
G01*
X154612400Y-87455000D01*
G75*
G02*
X154714000Y-87556600I0J-101600D01*
G01*
X154714000Y-87703400D01*
G75*
G02*
X154612400Y-87805000I-101600J0D01*
G01*
G37*
G04 #@! TD.AperFunction*
G04 #@! TA.AperFunction,SMDPad,CuDef*
G36*
G01*
X154612400Y-88455000D02*
X153665600Y-88455000D01*
G75*
G02*
X153564000Y-88353400I0J101600D01*
G01*
X153564000Y-88206600D01*
G75*
G02*
X153665600Y-88105000I101600J0D01*
G01*
X154612400Y-88105000D01*
G75*
G02*
X154714000Y-88206600I0J-101600D01*
G01*
X154714000Y-88353400D01*
G75*
G02*
X154612400Y-88455000I-101600J0D01*
G01*
G37*
G04 #@! TD.AperFunction*
D16*
X140514000Y-90498000D03*
G04 #@! TA.AperFunction,SMDPad,CuDef*
G36*
G01*
X141576500Y-89623000D02*
X142326500Y-89623000D01*
G75*
G02*
X142389000Y-89685500I0J-62500D01*
G01*
X142389000Y-89810500D01*
G75*
G02*
X142326500Y-89873000I-62500J0D01*
G01*
X141576500Y-89873000D01*
G75*
G02*
X141514000Y-89810500I0J62500D01*
G01*
X141514000Y-89685500D01*
G75*
G02*
X141576500Y-89623000I62500J0D01*
G01*
G37*
G04 #@! TD.AperFunction*
G04 #@! TA.AperFunction,SMDPad,CuDef*
G36*
G01*
X141576500Y-90123000D02*
X142326500Y-90123000D01*
G75*
G02*
X142389000Y-90185500I0J-62500D01*
G01*
X142389000Y-90310500D01*
G75*
G02*
X142326500Y-90373000I-62500J0D01*
G01*
X141576500Y-90373000D01*
G75*
G02*
X141514000Y-90310500I0J62500D01*
G01*
X141514000Y-90185500D01*
G75*
G02*
X141576500Y-90123000I62500J0D01*
G01*
G37*
G04 #@! TD.AperFunction*
G04 #@! TA.AperFunction,SMDPad,CuDef*
G36*
G01*
X141576500Y-90623000D02*
X142326500Y-90623000D01*
G75*
G02*
X142389000Y-90685500I0J-62500D01*
G01*
X142389000Y-90810500D01*
G75*
G02*
X142326500Y-90873000I-62500J0D01*
G01*
X141576500Y-90873000D01*
G75*
G02*
X141514000Y-90810500I0J62500D01*
G01*
X141514000Y-90685500D01*
G75*
G02*
X141576500Y-90623000I62500J0D01*
G01*
G37*
G04 #@! TD.AperFunction*
G04 #@! TA.AperFunction,SMDPad,CuDef*
G36*
G01*
X141576500Y-91123000D02*
X142326500Y-91123000D01*
G75*
G02*
X142389000Y-91185500I0J-62500D01*
G01*
X142389000Y-91310500D01*
G75*
G02*
X142326500Y-91373000I-62500J0D01*
G01*
X141576500Y-91373000D01*
G75*
G02*
X141514000Y-91310500I0J62500D01*
G01*
X141514000Y-91185500D01*
G75*
G02*
X141576500Y-91123000I62500J0D01*
G01*
G37*
G04 #@! TD.AperFunction*
G04 #@! TA.AperFunction,SMDPad,CuDef*
G36*
G01*
X141201500Y-91498000D02*
X141326500Y-91498000D01*
G75*
G02*
X141389000Y-91560500I0J-62500D01*
G01*
X141389000Y-92310500D01*
G75*
G02*
X141326500Y-92373000I-62500J0D01*
G01*
X141201500Y-92373000D01*
G75*
G02*
X141139000Y-92310500I0J62500D01*
G01*
X141139000Y-91560500D01*
G75*
G02*
X141201500Y-91498000I62500J0D01*
G01*
G37*
G04 #@! TD.AperFunction*
G04 #@! TA.AperFunction,SMDPad,CuDef*
G36*
G01*
X140701500Y-91498000D02*
X140826500Y-91498000D01*
G75*
G02*
X140889000Y-91560500I0J-62500D01*
G01*
X140889000Y-92310500D01*
G75*
G02*
X140826500Y-92373000I-62500J0D01*
G01*
X140701500Y-92373000D01*
G75*
G02*
X140639000Y-92310500I0J62500D01*
G01*
X140639000Y-91560500D01*
G75*
G02*
X140701500Y-91498000I62500J0D01*
G01*
G37*
G04 #@! TD.AperFunction*
G04 #@! TA.AperFunction,SMDPad,CuDef*
G36*
G01*
X140201500Y-91498000D02*
X140326500Y-91498000D01*
G75*
G02*
X140389000Y-91560500I0J-62500D01*
G01*
X140389000Y-92310500D01*
G75*
G02*
X140326500Y-92373000I-62500J0D01*
G01*
X140201500Y-92373000D01*
G75*
G02*
X140139000Y-92310500I0J62500D01*
G01*
X140139000Y-91560500D01*
G75*
G02*
X140201500Y-91498000I62500J0D01*
G01*
G37*
G04 #@! TD.AperFunction*
G04 #@! TA.AperFunction,SMDPad,CuDef*
G36*
G01*
X139701500Y-91498000D02*
X139826500Y-91498000D01*
G75*
G02*
X139889000Y-91560500I0J-62500D01*
G01*
X139889000Y-92310500D01*
G75*
G02*
X139826500Y-92373000I-62500J0D01*
G01*
X139701500Y-92373000D01*
G75*
G02*
X139639000Y-92310500I0J62500D01*
G01*
X139639000Y-91560500D01*
G75*
G02*
X139701500Y-91498000I62500J0D01*
G01*
G37*
G04 #@! TD.AperFunction*
G04 #@! TA.AperFunction,SMDPad,CuDef*
G36*
G01*
X138701500Y-91123000D02*
X139451500Y-91123000D01*
G75*
G02*
X139514000Y-91185500I0J-62500D01*
G01*
X139514000Y-91310500D01*
G75*
G02*
X139451500Y-91373000I-62500J0D01*
G01*
X138701500Y-91373000D01*
G75*
G02*
X138639000Y-91310500I0J62500D01*
G01*
X138639000Y-91185500D01*
G75*
G02*
X138701500Y-91123000I62500J0D01*
G01*
G37*
G04 #@! TD.AperFunction*
G04 #@! TA.AperFunction,SMDPad,CuDef*
G36*
G01*
X138701500Y-90623000D02*
X139451500Y-90623000D01*
G75*
G02*
X139514000Y-90685500I0J-62500D01*
G01*
X139514000Y-90810500D01*
G75*
G02*
X139451500Y-90873000I-62500J0D01*
G01*
X138701500Y-90873000D01*
G75*
G02*
X138639000Y-90810500I0J62500D01*
G01*
X138639000Y-90685500D01*
G75*
G02*
X138701500Y-90623000I62500J0D01*
G01*
G37*
G04 #@! TD.AperFunction*
G04 #@! TA.AperFunction,SMDPad,CuDef*
G36*
G01*
X138701500Y-90123000D02*
X139451500Y-90123000D01*
G75*
G02*
X139514000Y-90185500I0J-62500D01*
G01*
X139514000Y-90310500D01*
G75*
G02*
X139451500Y-90373000I-62500J0D01*
G01*
X138701500Y-90373000D01*
G75*
G02*
X138639000Y-90310500I0J62500D01*
G01*
X138639000Y-90185500D01*
G75*
G02*
X138701500Y-90123000I62500J0D01*
G01*
G37*
G04 #@! TD.AperFunction*
G04 #@! TA.AperFunction,SMDPad,CuDef*
G36*
G01*
X138701500Y-89623000D02*
X139451500Y-89623000D01*
G75*
G02*
X139514000Y-89685500I0J-62500D01*
G01*
X139514000Y-89810500D01*
G75*
G02*
X139451500Y-89873000I-62500J0D01*
G01*
X138701500Y-89873000D01*
G75*
G02*
X138639000Y-89810500I0J62500D01*
G01*
X138639000Y-89685500D01*
G75*
G02*
X138701500Y-89623000I62500J0D01*
G01*
G37*
G04 #@! TD.AperFunction*
G04 #@! TA.AperFunction,SMDPad,CuDef*
G36*
G01*
X139701500Y-88623000D02*
X139826500Y-88623000D01*
G75*
G02*
X139889000Y-88685500I0J-62500D01*
G01*
X139889000Y-89435500D01*
G75*
G02*
X139826500Y-89498000I-62500J0D01*
G01*
X139701500Y-89498000D01*
G75*
G02*
X139639000Y-89435500I0J62500D01*
G01*
X139639000Y-88685500D01*
G75*
G02*
X139701500Y-88623000I62500J0D01*
G01*
G37*
G04 #@! TD.AperFunction*
G04 #@! TA.AperFunction,SMDPad,CuDef*
G36*
G01*
X140201500Y-88623000D02*
X140326500Y-88623000D01*
G75*
G02*
X140389000Y-88685500I0J-62500D01*
G01*
X140389000Y-89435500D01*
G75*
G02*
X140326500Y-89498000I-62500J0D01*
G01*
X140201500Y-89498000D01*
G75*
G02*
X140139000Y-89435500I0J62500D01*
G01*
X140139000Y-88685500D01*
G75*
G02*
X140201500Y-88623000I62500J0D01*
G01*
G37*
G04 #@! TD.AperFunction*
G04 #@! TA.AperFunction,SMDPad,CuDef*
G36*
G01*
X140701500Y-88623000D02*
X140826500Y-88623000D01*
G75*
G02*
X140889000Y-88685500I0J-62500D01*
G01*
X140889000Y-89435500D01*
G75*
G02*
X140826500Y-89498000I-62500J0D01*
G01*
X140701500Y-89498000D01*
G75*
G02*
X140639000Y-89435500I0J62500D01*
G01*
X140639000Y-88685500D01*
G75*
G02*
X140701500Y-88623000I62500J0D01*
G01*
G37*
G04 #@! TD.AperFunction*
G04 #@! TA.AperFunction,SMDPad,CuDef*
G36*
G01*
X141201500Y-88623000D02*
X141326500Y-88623000D01*
G75*
G02*
X141389000Y-88685500I0J-62500D01*
G01*
X141389000Y-89435500D01*
G75*
G02*
X141326500Y-89498000I-62500J0D01*
G01*
X141201500Y-89498000D01*
G75*
G02*
X141139000Y-89435500I0J62500D01*
G01*
X141139000Y-88685500D01*
G75*
G02*
X141201500Y-88623000I62500J0D01*
G01*
G37*
G04 #@! TD.AperFunction*
G04 #@! TA.AperFunction,SMDPad,CuDef*
G36*
G01*
X147909000Y-81266600D02*
X147909000Y-82563400D01*
G75*
G02*
X147807400Y-82665000I-101600J0D01*
G01*
X146710600Y-82665000D01*
G75*
G02*
X146609000Y-82563400I0J101600D01*
G01*
X146609000Y-81266600D01*
G75*
G02*
X146710600Y-81165000I101600J0D01*
G01*
X147807400Y-81165000D01*
G75*
G02*
X147909000Y-81266600I0J-101600D01*
G01*
G37*
G04 #@! TD.AperFunction*
G04 #@! TA.AperFunction,SMDPad,CuDef*
G36*
G01*
X149809000Y-81266600D02*
X149809000Y-82563400D01*
G75*
G02*
X149707400Y-82665000I-101600J0D01*
G01*
X148610600Y-82665000D01*
G75*
G02*
X148509000Y-82563400I0J101600D01*
G01*
X148509000Y-81266600D01*
G75*
G02*
X148610600Y-81165000I101600J0D01*
G01*
X149707400Y-81165000D01*
G75*
G02*
X149809000Y-81266600I0J-101600D01*
G01*
G37*
G04 #@! TD.AperFunction*
G04 #@! TA.AperFunction,SMDPad,CuDef*
G36*
G01*
X156450600Y-87295000D02*
X157747400Y-87295000D01*
G75*
G02*
X157849000Y-87396600I0J-101600D01*
G01*
X157849000Y-88493400D01*
G75*
G02*
X157747400Y-88595000I-101600J0D01*
G01*
X156450600Y-88595000D01*
G75*
G02*
X156349000Y-88493400I0J101600D01*
G01*
X156349000Y-87396600D01*
G75*
G02*
X156450600Y-87295000I101600J0D01*
G01*
G37*
G04 #@! TD.AperFunction*
G04 #@! TA.AperFunction,SMDPad,CuDef*
G36*
G01*
X156450600Y-85395000D02*
X157747400Y-85395000D01*
G75*
G02*
X157849000Y-85496600I0J-101600D01*
G01*
X157849000Y-86593400D01*
G75*
G02*
X157747400Y-86695000I-101600J0D01*
G01*
X156450600Y-86695000D01*
G75*
G02*
X156349000Y-86593400I0J101600D01*
G01*
X156349000Y-85496600D01*
G75*
G02*
X156450600Y-85395000I101600J0D01*
G01*
G37*
G04 #@! TD.AperFunction*
G04 #@! TA.AperFunction,SMDPad,CuDef*
G36*
G01*
X155207400Y-92035000D02*
X153910600Y-92035000D01*
G75*
G02*
X153809000Y-91933400I0J101600D01*
G01*
X153809000Y-90836600D01*
G75*
G02*
X153910600Y-90735000I101600J0D01*
G01*
X155207400Y-90735000D01*
G75*
G02*
X155309000Y-90836600I0J-101600D01*
G01*
X155309000Y-91933400D01*
G75*
G02*
X155207400Y-92035000I-101600J0D01*
G01*
G37*
G04 #@! TD.AperFunction*
G04 #@! TA.AperFunction,SMDPad,CuDef*
G36*
G01*
X155207400Y-93935000D02*
X153910600Y-93935000D01*
G75*
G02*
X153809000Y-93833400I0J101600D01*
G01*
X153809000Y-92736600D01*
G75*
G02*
X153910600Y-92635000I101600J0D01*
G01*
X155207400Y-92635000D01*
G75*
G02*
X155309000Y-92736600I0J-101600D01*
G01*
X155309000Y-93833400D01*
G75*
G02*
X155207400Y-93935000I-101600J0D01*
G01*
G37*
G04 #@! TD.AperFunction*
G04 #@! TA.AperFunction,SMDPad,CuDef*
G36*
G01*
X152989000Y-81266600D02*
X152989000Y-82563400D01*
G75*
G02*
X152887400Y-82665000I-101600J0D01*
G01*
X151790600Y-82665000D01*
G75*
G02*
X151689000Y-82563400I0J101600D01*
G01*
X151689000Y-81266600D01*
G75*
G02*
X151790600Y-81165000I101600J0D01*
G01*
X152887400Y-81165000D01*
G75*
G02*
X152989000Y-81266600I0J-101600D01*
G01*
G37*
G04 #@! TD.AperFunction*
G04 #@! TA.AperFunction,SMDPad,CuDef*
G36*
G01*
X154889000Y-81266600D02*
X154889000Y-82563400D01*
G75*
G02*
X154787400Y-82665000I-101600J0D01*
G01*
X153690600Y-82665000D01*
G75*
G02*
X153589000Y-82563400I0J101600D01*
G01*
X153589000Y-81266600D01*
G75*
G02*
X153690600Y-81165000I101600J0D01*
G01*
X154787400Y-81165000D01*
G75*
G02*
X154889000Y-81266600I0J-101600D01*
G01*
G37*
G04 #@! TD.AperFunction*
G04 #@! TA.AperFunction,SMDPad,CuDef*
G36*
G01*
X160287400Y-92035000D02*
X158990600Y-92035000D01*
G75*
G02*
X158889000Y-91933400I0J101600D01*
G01*
X158889000Y-90836600D01*
G75*
G02*
X158990600Y-90735000I101600J0D01*
G01*
X160287400Y-90735000D01*
G75*
G02*
X160389000Y-90836600I0J-101600D01*
G01*
X160389000Y-91933400D01*
G75*
G02*
X160287400Y-92035000I-101600J0D01*
G01*
G37*
G04 #@! TD.AperFunction*
G04 #@! TA.AperFunction,SMDPad,CuDef*
G36*
G01*
X160287400Y-93935000D02*
X158990600Y-93935000D01*
G75*
G02*
X158889000Y-93833400I0J101600D01*
G01*
X158889000Y-92736600D01*
G75*
G02*
X158990600Y-92635000I101600J0D01*
G01*
X160287400Y-92635000D01*
G75*
G02*
X160389000Y-92736600I0J-101600D01*
G01*
X160389000Y-93833400D01*
G75*
G02*
X160287400Y-93935000I-101600J0D01*
G01*
G37*
G04 #@! TD.AperFunction*
G04 #@! TA.AperFunction,SMDPad,CuDef*
G36*
G01*
X149779000Y-93993400D02*
X149779000Y-92696600D01*
G75*
G02*
X149880600Y-92595000I101600J0D01*
G01*
X150977400Y-92595000D01*
G75*
G02*
X151079000Y-92696600I0J-101600D01*
G01*
X151079000Y-93993400D01*
G75*
G02*
X150977400Y-94095000I-101600J0D01*
G01*
X149880600Y-94095000D01*
G75*
G02*
X149779000Y-93993400I0J101600D01*
G01*
G37*
G04 #@! TD.AperFunction*
G04 #@! TA.AperFunction,SMDPad,CuDef*
G36*
G01*
X147879000Y-93993400D02*
X147879000Y-92696600D01*
G75*
G02*
X147980600Y-92595000I101600J0D01*
G01*
X149077400Y-92595000D01*
G75*
G02*
X149179000Y-92696600I0J-101600D01*
G01*
X149179000Y-93993400D01*
G75*
G02*
X149077400Y-94095000I-101600J0D01*
G01*
X147980600Y-94095000D01*
G75*
G02*
X147879000Y-93993400I0J101600D01*
G01*
G37*
G04 #@! TD.AperFunction*
D10*
X149669500Y-104442500D03*
X147129500Y-104442500D03*
X144589500Y-104442500D03*
X142049500Y-104442500D03*
X139509500Y-104442500D03*
X136969500Y-104442500D03*
X134429500Y-104442500D03*
X131889500Y-104442500D03*
X129349500Y-104442500D03*
D11*
X126809500Y-104442500D03*
D10*
X167449500Y-127302500D03*
X167449500Y-124762500D03*
X167449500Y-122222500D03*
X167449500Y-119682500D03*
X167449500Y-117142500D03*
X167449500Y-114602500D03*
X167449500Y-112062500D03*
X167449500Y-109522500D03*
X167449500Y-106982500D03*
D11*
X167449500Y-104442500D03*
D17*
X170000000Y-74000000D03*
X170000000Y-96000000D03*
X124000000Y-96000000D03*
X124000000Y-74000000D03*
G04 #@! TA.AperFunction,SMDPad,CuDef*
G36*
G01*
X153589000Y-85103400D02*
X153589000Y-83806600D01*
G75*
G02*
X153690600Y-83705000I101600J0D01*
G01*
X154787400Y-83705000D01*
G75*
G02*
X154889000Y-83806600I0J-101600D01*
G01*
X154889000Y-85103400D01*
G75*
G02*
X154787400Y-85205000I-101600J0D01*
G01*
X153690600Y-85205000D01*
G75*
G02*
X153589000Y-85103400I0J101600D01*
G01*
G37*
G04 #@! TD.AperFunction*
G04 #@! TA.AperFunction,SMDPad,CuDef*
G36*
G01*
X151689000Y-85103400D02*
X151689000Y-83806600D01*
G75*
G02*
X151790600Y-83705000I101600J0D01*
G01*
X152887400Y-83705000D01*
G75*
G02*
X152989000Y-83806600I0J-101600D01*
G01*
X152989000Y-85103400D01*
G75*
G02*
X152887400Y-85205000I-101600J0D01*
G01*
X151790600Y-85205000D01*
G75*
G02*
X151689000Y-85103400I0J101600D01*
G01*
G37*
G04 #@! TD.AperFunction*
G04 #@! TA.AperFunction,SMDPad,CuDef*
G36*
G01*
X149179000Y-90156600D02*
X149179000Y-91453400D01*
G75*
G02*
X149077400Y-91555000I-101600J0D01*
G01*
X147980600Y-91555000D01*
G75*
G02*
X147879000Y-91453400I0J101600D01*
G01*
X147879000Y-90156600D01*
G75*
G02*
X147980600Y-90055000I101600J0D01*
G01*
X149077400Y-90055000D01*
G75*
G02*
X149179000Y-90156600I0J-101600D01*
G01*
G37*
G04 #@! TD.AperFunction*
G04 #@! TA.AperFunction,SMDPad,CuDef*
G36*
G01*
X151079000Y-90156600D02*
X151079000Y-91453400D01*
G75*
G02*
X150977400Y-91555000I-101600J0D01*
G01*
X149880600Y-91555000D01*
G75*
G02*
X149779000Y-91453400I0J101600D01*
G01*
X149779000Y-90156600D01*
G75*
G02*
X149880600Y-90055000I101600J0D01*
G01*
X150977400Y-90055000D01*
G75*
G02*
X151079000Y-90156600I0J-101600D01*
G01*
G37*
G04 #@! TD.AperFunction*
G04 #@! TA.AperFunction,SMDPad,CuDef*
G36*
G01*
X145020600Y-87295000D02*
X146317400Y-87295000D01*
G75*
G02*
X146419000Y-87396600I0J-101600D01*
G01*
X146419000Y-88493400D01*
G75*
G02*
X146317400Y-88595000I-101600J0D01*
G01*
X145020600Y-88595000D01*
G75*
G02*
X144919000Y-88493400I0J101600D01*
G01*
X144919000Y-87396600D01*
G75*
G02*
X145020600Y-87295000I101600J0D01*
G01*
G37*
G04 #@! TD.AperFunction*
G04 #@! TA.AperFunction,SMDPad,CuDef*
G36*
G01*
X145020600Y-85395000D02*
X146317400Y-85395000D01*
G75*
G02*
X146419000Y-85496600I0J-101600D01*
G01*
X146419000Y-86593400D01*
G75*
G02*
X146317400Y-86695000I-101600J0D01*
G01*
X145020600Y-86695000D01*
G75*
G02*
X144919000Y-86593400I0J101600D01*
G01*
X144919000Y-85496600D01*
G75*
G02*
X145020600Y-85395000I101600J0D01*
G01*
G37*
G04 #@! TD.AperFunction*
G04 #@! TA.AperFunction,SMDPad,CuDef*
G36*
G01*
X158669000Y-82563400D02*
X158669000Y-81266600D01*
G75*
G02*
X158770600Y-81165000I101600J0D01*
G01*
X159867400Y-81165000D01*
G75*
G02*
X159969000Y-81266600I0J-101600D01*
G01*
X159969000Y-82563400D01*
G75*
G02*
X159867400Y-82665000I-101600J0D01*
G01*
X158770600Y-82665000D01*
G75*
G02*
X158669000Y-82563400I0J101600D01*
G01*
G37*
G04 #@! TD.AperFunction*
G04 #@! TA.AperFunction,SMDPad,CuDef*
G36*
G01*
X156769000Y-82563400D02*
X156769000Y-81266600D01*
G75*
G02*
X156870600Y-81165000I101600J0D01*
G01*
X157967400Y-81165000D01*
G75*
G02*
X158069000Y-81266600I0J-101600D01*
G01*
X158069000Y-82563400D01*
G75*
G02*
X157967400Y-82665000I-101600J0D01*
G01*
X156870600Y-82665000D01*
G75*
G02*
X156769000Y-82563400I0J101600D01*
G01*
G37*
G04 #@! TD.AperFunction*
G04 #@! TA.AperFunction,SMDPad,CuDef*
G36*
G01*
X157747400Y-92035000D02*
X156450600Y-92035000D01*
G75*
G02*
X156349000Y-91933400I0J101600D01*
G01*
X156349000Y-90836600D01*
G75*
G02*
X156450600Y-90735000I101600J0D01*
G01*
X157747400Y-90735000D01*
G75*
G02*
X157849000Y-90836600I0J-101600D01*
G01*
X157849000Y-91933400D01*
G75*
G02*
X157747400Y-92035000I-101600J0D01*
G01*
G37*
G04 #@! TD.AperFunction*
G04 #@! TA.AperFunction,SMDPad,CuDef*
G36*
G01*
X157747400Y-93935000D02*
X156450600Y-93935000D01*
G75*
G02*
X156349000Y-93833400I0J101600D01*
G01*
X156349000Y-92736600D01*
G75*
G02*
X156450600Y-92635000I101600J0D01*
G01*
X157747400Y-92635000D01*
G75*
G02*
X157849000Y-92736600I0J-101600D01*
G01*
X157849000Y-93833400D01*
G75*
G02*
X157747400Y-93935000I-101600J0D01*
G01*
G37*
G04 #@! TD.AperFunction*
G04 #@! TA.AperFunction,SMDPad,CuDef*
G36*
G01*
X158863600Y-87295000D02*
X160160400Y-87295000D01*
G75*
G02*
X160262000Y-87396600I0J-101600D01*
G01*
X160262000Y-88493400D01*
G75*
G02*
X160160400Y-88595000I-101600J0D01*
G01*
X158863600Y-88595000D01*
G75*
G02*
X158762000Y-88493400I0J101600D01*
G01*
X158762000Y-87396600D01*
G75*
G02*
X158863600Y-87295000I101600J0D01*
G01*
G37*
G04 #@! TD.AperFunction*
G04 #@! TA.AperFunction,SMDPad,CuDef*
G36*
G01*
X158863600Y-85395000D02*
X160160400Y-85395000D01*
G75*
G02*
X160262000Y-85496600I0J-101600D01*
G01*
X160262000Y-86593400D01*
G75*
G02*
X160160400Y-86695000I-101600J0D01*
G01*
X158863600Y-86695000D01*
G75*
G02*
X158762000Y-86593400I0J101600D01*
G01*
X158762000Y-85496600D01*
G75*
G02*
X158863600Y-85395000I101600J0D01*
G01*
G37*
G04 #@! TD.AperFunction*
D18*
X150876000Y-83566000D03*
X159512000Y-76708000D03*
X137852000Y-90748000D03*
X138176000Y-94234000D03*
X132842000Y-72898000D03*
X163830000Y-115760500D03*
X138176000Y-87630000D03*
X139954000Y-87630000D03*
X141986000Y-87630000D03*
X158242000Y-89535000D03*
X156210000Y-89535000D03*
X144272000Y-87884000D03*
X149479000Y-86995000D03*
X147891500Y-85090000D03*
X163890500Y-110810500D03*
X156273500Y-117348000D03*
X155003500Y-117348000D03*
X153733500Y-117348000D03*
X125158500Y-122428000D03*
X125158500Y-125285500D03*
X148971000Y-110553500D03*
X151574500Y-108331000D03*
D19*
X151765000Y-84455000D02*
X150876000Y-83566000D01*
X152339000Y-84455000D02*
X151765000Y-84455000D01*
X157594000Y-75008000D02*
X157594000Y-78408000D01*
X157594000Y-76708000D02*
X159512000Y-76708000D01*
X159512000Y-76708000D02*
X159512000Y-76708000D01*
X139076500Y-90248000D02*
X139076500Y-90748000D01*
X139076500Y-90748000D02*
X137852000Y-90748000D01*
X137852000Y-90748000D02*
X137852000Y-90748000D01*
X141986000Y-84152500D02*
X137922000Y-84152500D01*
X141986000Y-82042000D02*
X143002000Y-81026000D01*
X141986000Y-84152500D02*
X141986000Y-82042000D01*
X138234000Y-94292000D02*
X138176000Y-94234000D01*
X139484500Y-94292000D02*
X138234000Y-94292000D01*
D20*
X132857000Y-74295000D02*
X132842000Y-74310000D01*
X134874000Y-74295000D02*
X132857000Y-74295000D01*
X132842000Y-72898000D02*
X132842000Y-74310000D01*
D21*
X162623500Y-115760500D02*
X163830000Y-115760500D01*
X163830000Y-115760500D02*
X163830000Y-115760500D01*
D19*
X137922000Y-86027500D02*
X137922000Y-87376000D01*
X139076500Y-88530500D02*
X139076500Y-89748000D01*
X137922000Y-87376000D02*
X138176000Y-87630000D01*
X138176000Y-87630000D02*
X139076500Y-88530500D01*
X139764000Y-88504266D02*
X139764000Y-89060500D01*
X139954000Y-88314266D02*
X139764000Y-88504266D01*
X139954000Y-86027500D02*
X139954000Y-87630000D01*
X139954000Y-87630000D02*
X139954000Y-88314266D01*
X141986000Y-89713500D02*
X141951500Y-89748000D01*
X141986000Y-86027500D02*
X141986000Y-87630000D01*
X141986000Y-87630000D02*
X141986000Y-89713500D01*
X163669000Y-87945000D02*
X165132000Y-89408000D01*
X159512000Y-87945000D02*
X163669000Y-87945000D01*
X159639000Y-88072000D02*
X159512000Y-87945000D01*
X159639000Y-91385000D02*
X159639000Y-88072000D01*
X154139000Y-88280000D02*
X154139000Y-89115000D01*
X154559000Y-89535000D02*
X154559000Y-91385000D01*
X154139000Y-89115000D02*
X154559000Y-89535000D01*
X159512000Y-86045000D02*
X157099000Y-86045000D01*
X158762000Y-86045000D02*
X158242000Y-86565000D01*
X159512000Y-86045000D02*
X158762000Y-86045000D01*
X158242000Y-86565000D02*
X158242000Y-89535000D01*
X158242000Y-89535000D02*
X158242000Y-89598500D01*
X154559000Y-89535000D02*
X156210000Y-89535000D01*
X156210000Y-89535000D02*
X156464000Y-89535000D01*
X156784000Y-87630000D02*
X157099000Y-87945000D01*
X157099000Y-87945000D02*
X157099000Y-91385000D01*
X154239000Y-84455000D02*
X154239000Y-84897000D01*
X155448000Y-86106000D02*
X155448000Y-87630000D01*
X154139000Y-87630000D02*
X155448000Y-87630000D01*
X154239000Y-84897000D02*
X155448000Y-86106000D01*
X155448000Y-87630000D02*
X156784000Y-87630000D01*
X160179000Y-81915000D02*
X165132000Y-86868000D01*
X159319000Y-81915000D02*
X160179000Y-81915000D01*
X156779000Y-84455000D02*
X159319000Y-81915000D01*
X154239000Y-84455000D02*
X156779000Y-84455000D01*
X159639000Y-93285000D02*
X157099000Y-93285000D01*
X157099000Y-93285000D02*
X157099000Y-93853000D01*
X157099000Y-93853000D02*
X156210000Y-94742000D01*
X156210000Y-94742000D02*
X150622000Y-94742000D01*
X150429000Y-94549000D02*
X150429000Y-93345000D01*
X150622000Y-94742000D02*
X150429000Y-94549000D01*
X154239000Y-81915000D02*
X157419000Y-81915000D01*
X147629000Y-87945000D02*
X148479000Y-88795000D01*
X145669000Y-87945000D02*
X147629000Y-87945000D01*
X149479000Y-85545000D02*
X149807000Y-85545000D01*
X151242000Y-86980000D02*
X152439000Y-86980000D01*
X149807000Y-85545000D02*
X151242000Y-86980000D01*
X149479000Y-85545000D02*
X148643000Y-85545000D01*
X147629000Y-86559000D02*
X147629000Y-87945000D01*
X148643000Y-85545000D02*
X147629000Y-86559000D01*
X144333000Y-87945000D02*
X144272000Y-87884000D01*
X145669000Y-87945000D02*
X144333000Y-87945000D01*
X149159000Y-81915000D02*
X152339000Y-81915000D01*
X145669000Y-81634170D02*
X146785170Y-80518000D01*
X145669000Y-86045000D02*
X145669000Y-81634170D01*
X146785170Y-80518000D02*
X148844000Y-80518000D01*
X149159000Y-80833000D02*
X149159000Y-81915000D01*
X148844000Y-80518000D02*
X149159000Y-80833000D01*
X154139000Y-86980000D02*
X152757000Y-85598000D01*
X151611170Y-85598000D02*
X150087170Y-84074000D01*
X152757000Y-85598000D02*
X151611170Y-85598000D01*
X150087170Y-82843170D02*
X149159000Y-81915000D01*
X150087170Y-84074000D02*
X150087170Y-82843170D01*
X150035500Y-76708000D02*
X152794000Y-76708000D01*
X154559000Y-93285000D02*
X153991000Y-93285000D01*
X151511000Y-90805000D02*
X150429000Y-90805000D01*
X153991000Y-93285000D02*
X151511000Y-90805000D01*
X150429000Y-91445000D02*
X148529000Y-93345000D01*
X150429000Y-90805000D02*
X150429000Y-91445000D01*
X152439000Y-89877000D02*
X151511000Y-90805000D01*
X152439000Y-88280000D02*
X152439000Y-89877000D01*
X140494758Y-74664000D02*
X133370758Y-81788000D01*
X133370758Y-81788000D02*
X133350000Y-81788000D01*
X148160500Y-74664000D02*
X140494758Y-74664000D01*
X139157878Y-76708000D02*
X135890000Y-79975878D01*
X148160500Y-76708000D02*
X139157878Y-76708000D01*
X135890000Y-81788000D02*
X133350000Y-84328000D01*
X135890000Y-79975878D02*
X135890000Y-81788000D01*
X137832998Y-78740000D02*
X136398000Y-80174998D01*
X148160500Y-78740000D02*
X137832998Y-78740000D01*
X136398000Y-83820000D02*
X133350000Y-86868000D01*
X136398000Y-80174998D02*
X136398000Y-83820000D01*
X150479000Y-88565830D02*
X150479000Y-88795000D01*
X150479000Y-88795000D02*
X150479000Y-87995000D01*
X150479000Y-87995000D02*
X149479000Y-86995000D01*
X149479000Y-86995000D02*
X149479000Y-86995000D01*
X147259000Y-81915000D02*
X147259000Y-84457500D01*
X147259000Y-84457500D02*
X147891500Y-85090000D01*
X147891500Y-85090000D02*
X147891500Y-85090000D01*
X152450000Y-74664000D02*
X152794000Y-75008000D01*
X150035500Y-74664000D02*
X152450000Y-74664000D01*
X152462000Y-78740000D02*
X152794000Y-78408000D01*
X150035500Y-78740000D02*
X152462000Y-78740000D01*
D20*
X127999499Y-103092499D02*
X122205501Y-103092499D01*
X129349500Y-104442500D02*
X127999499Y-103092499D01*
X122205501Y-103092499D02*
X121158000Y-104140000D01*
X121158000Y-104140000D02*
X121158000Y-121475500D01*
X121158000Y-121475500D02*
X123634500Y-123952000D01*
X123634500Y-123952000D02*
X127127000Y-123952000D01*
X128016000Y-123063000D02*
X128016000Y-119380000D01*
X127127000Y-123952000D02*
X128016000Y-123063000D01*
X132857000Y-76170000D02*
X132842000Y-76185000D01*
X134874000Y-76170000D02*
X132857000Y-76170000D01*
X132842000Y-76185000D02*
X130634500Y-76185000D01*
X130634500Y-76185000D02*
X128587500Y-78232000D01*
X128587500Y-87185500D02*
X130810000Y-89408000D01*
X128587500Y-78232000D02*
X128587500Y-87185500D01*
D19*
X138176000Y-119380000D02*
X138176000Y-124878640D01*
X138176000Y-124878640D02*
X139099830Y-125802470D01*
X139099830Y-125802470D02*
X163122530Y-125802470D01*
X163122530Y-125802470D02*
X165544500Y-123380500D01*
X165544500Y-116507500D02*
X167449500Y-114602500D01*
X165544500Y-123380500D02*
X165544500Y-116507500D01*
X135636000Y-119380000D02*
X135636000Y-123045760D01*
X135636000Y-123045760D02*
X138892720Y-126302480D01*
X163369520Y-126302480D02*
X167449500Y-122222500D01*
X138892720Y-126302480D02*
X163369520Y-126302480D01*
D21*
X156273500Y-114961912D02*
X156273500Y-115760500D01*
X149669500Y-104442500D02*
X149669500Y-108357912D01*
X149669500Y-108357912D02*
X156273500Y-114961912D01*
D19*
X133096000Y-119380000D02*
X133096000Y-121212880D01*
X133096000Y-121212880D02*
X138685610Y-126802490D01*
X165409510Y-126802490D02*
X167449500Y-124762500D01*
X138685610Y-126802490D02*
X165409510Y-126802490D01*
X147856498Y-104442500D02*
X147129500Y-104442500D01*
D21*
X147129500Y-106383610D02*
X147129500Y-104442500D01*
X155003500Y-114257610D02*
X147129500Y-106383610D01*
X155003500Y-115760500D02*
X155003500Y-114257610D01*
D19*
X138478500Y-127302500D02*
X167449500Y-127302500D01*
X130556000Y-119380000D02*
X138478500Y-127302500D01*
D21*
X153733500Y-113586500D02*
X144589500Y-104442500D01*
X153733500Y-115760500D02*
X153733500Y-113586500D01*
X143791498Y-104442500D02*
X144589500Y-104442500D01*
D19*
X141951500Y-90248000D02*
X141951500Y-90748000D01*
X141951500Y-90248000D02*
X143080000Y-90248000D01*
X143080000Y-90248000D02*
X143256000Y-90424000D01*
X143256000Y-90424000D02*
X143256000Y-94297500D01*
X143250500Y-94292000D02*
X141359500Y-94292000D01*
X143256000Y-94297500D02*
X143250500Y-94292000D01*
D21*
X162623500Y-110810500D02*
X163890500Y-110810500D01*
X163890500Y-110810500D02*
X163890500Y-110810500D01*
X138176000Y-116840000D02*
X141541500Y-120205500D01*
X141541500Y-120205500D02*
X141541500Y-123507500D01*
X141541500Y-123507500D02*
X143411460Y-125377460D01*
X143411460Y-125377460D02*
X156308540Y-125377460D01*
X158051500Y-123507500D02*
X158115000Y-123571000D01*
X156308540Y-125313960D02*
X157988000Y-123634500D01*
X156308540Y-125377460D02*
X156308540Y-125313960D01*
X157988000Y-119888000D02*
X158051500Y-119824500D01*
X157988000Y-123634500D02*
X157988000Y-119888000D01*
X156273500Y-115760500D02*
X156273500Y-117221000D01*
X156273500Y-117221000D02*
X156273500Y-117348000D01*
X156273500Y-117348000D02*
X156273500Y-117348000D01*
X155003500Y-115760500D02*
X155003500Y-117348000D01*
X155003500Y-117348000D02*
X155003500Y-117348000D01*
X153433500Y-115460500D02*
X153733500Y-115760500D01*
X153733500Y-115760500D02*
X153733500Y-117348000D01*
X153733500Y-117348000D02*
X153733500Y-117348000D01*
X169933999Y-113212501D02*
X171069000Y-112077500D01*
X157700501Y-113212501D02*
X169933999Y-113212501D01*
X156273500Y-111785500D02*
X157700501Y-113212501D01*
X156273500Y-110810500D02*
X156273500Y-111785500D01*
X169933999Y-110672501D02*
X171069000Y-109537500D01*
X166897499Y-110672501D02*
X169933999Y-110672501D01*
X165760488Y-109535490D02*
X166897499Y-110672501D01*
X155303510Y-109535490D02*
X165760488Y-109535490D01*
X155003500Y-109835500D02*
X155303510Y-109535490D01*
X155003500Y-110810500D02*
X155003500Y-109835500D01*
X155436499Y-108132501D02*
X169933999Y-108132501D01*
X169933999Y-108132501D02*
X171069000Y-106997500D01*
X153733500Y-109835500D02*
X155436499Y-108132501D01*
X153733500Y-110810500D02*
X153733500Y-109835500D01*
D22*
G36*
X146005845Y-102402424D02*
G01*
X146150795Y-102499277D01*
X146311855Y-102565990D01*
X146482835Y-102600000D01*
X146657165Y-102600000D01*
X146828145Y-102565990D01*
X146945000Y-102517587D01*
X147061855Y-102565990D01*
X147232835Y-102600000D01*
X147407165Y-102600000D01*
X147578145Y-102565990D01*
X147695000Y-102517587D01*
X147811855Y-102565990D01*
X147982835Y-102600000D01*
X148157165Y-102600000D01*
X148328145Y-102565990D01*
X148389173Y-102540711D01*
X148419366Y-102553652D01*
X148428169Y-102556377D01*
X148615006Y-102612786D01*
X148673686Y-102624405D01*
X148732196Y-102636842D01*
X148741361Y-102637805D01*
X148935594Y-102656850D01*
X148935598Y-102656850D01*
X148967581Y-102660000D01*
X171967721Y-102660000D01*
X172259659Y-102688625D01*
X172509429Y-102764035D01*
X172739792Y-102886522D01*
X172941980Y-103051422D01*
X173108286Y-103252450D01*
X173232378Y-103481954D01*
X173309531Y-103731195D01*
X173340000Y-104021089D01*
X173340001Y-127967711D01*
X173311375Y-128259660D01*
X173235965Y-128509429D01*
X173113477Y-128739794D01*
X172948579Y-128941979D01*
X172747546Y-129108288D01*
X172518046Y-129232378D01*
X172268805Y-129309531D01*
X171978911Y-129340000D01*
X122032279Y-129340000D01*
X121740340Y-129311375D01*
X121490571Y-129235965D01*
X121260206Y-129113477D01*
X121058021Y-128948579D01*
X120891712Y-128747546D01*
X120767622Y-128518046D01*
X120690469Y-128268805D01*
X120660000Y-127978911D01*
X120660000Y-122229078D01*
X122977970Y-124547049D01*
X123005683Y-124580817D01*
X123039451Y-124608530D01*
X123039453Y-124608532D01*
X123093753Y-124653095D01*
X123140441Y-124691411D01*
X123294187Y-124773589D01*
X123461010Y-124824195D01*
X123591023Y-124837000D01*
X123591031Y-124837000D01*
X123634500Y-124841281D01*
X123677969Y-124837000D01*
X127083531Y-124837000D01*
X127127000Y-124841281D01*
X127170469Y-124837000D01*
X127170477Y-124837000D01*
X127300490Y-124824195D01*
X127467313Y-124773589D01*
X127621059Y-124691411D01*
X127755817Y-124580817D01*
X127783534Y-124547044D01*
X128611050Y-123719529D01*
X128644817Y-123691817D01*
X128691856Y-123634501D01*
X128755411Y-123557059D01*
X128770149Y-123529485D01*
X128837589Y-123403313D01*
X128888195Y-123236490D01*
X128901000Y-123106477D01*
X128901000Y-123106469D01*
X128905281Y-123063000D01*
X128901000Y-123019531D01*
X128901000Y-120574656D01*
X128962632Y-120533475D01*
X129169475Y-120326632D01*
X129286000Y-120152240D01*
X129402525Y-120326632D01*
X129609368Y-120533475D01*
X129852589Y-120695990D01*
X130122842Y-120807932D01*
X130409740Y-120865000D01*
X130702260Y-120865000D01*
X130922408Y-120821209D01*
X137914701Y-127813503D01*
X137938499Y-127842501D01*
X137967497Y-127866299D01*
X138054223Y-127937474D01*
X138104280Y-127964230D01*
X138186253Y-128008046D01*
X138329514Y-128051503D01*
X138441167Y-128062500D01*
X138441177Y-128062500D01*
X138478500Y-128066176D01*
X138515823Y-128062500D01*
X166171322Y-128062500D01*
X166296025Y-128249132D01*
X166502868Y-128455975D01*
X166746089Y-128618490D01*
X167016342Y-128730432D01*
X167303240Y-128787500D01*
X167595760Y-128787500D01*
X167882658Y-128730432D01*
X168152911Y-128618490D01*
X168396132Y-128455975D01*
X168602975Y-128249132D01*
X168765490Y-128005911D01*
X168877432Y-127735658D01*
X168934500Y-127448760D01*
X168934500Y-127156240D01*
X168877432Y-126869342D01*
X168765490Y-126599089D01*
X168602975Y-126355868D01*
X168396132Y-126149025D01*
X168221740Y-126032500D01*
X168396132Y-125915975D01*
X168602975Y-125709132D01*
X168765490Y-125465911D01*
X168877432Y-125195658D01*
X168934500Y-124908760D01*
X168934500Y-124616240D01*
X168877432Y-124329342D01*
X168765490Y-124059089D01*
X168602975Y-123815868D01*
X168396132Y-123609025D01*
X168221740Y-123492500D01*
X168396132Y-123375975D01*
X168602975Y-123169132D01*
X168765490Y-122925911D01*
X168877432Y-122655658D01*
X168934500Y-122368760D01*
X168934500Y-122076240D01*
X168877432Y-121789342D01*
X168765490Y-121519089D01*
X168602975Y-121275868D01*
X168396132Y-121069025D01*
X168221740Y-120952500D01*
X168396132Y-120835975D01*
X168602975Y-120629132D01*
X168765490Y-120385911D01*
X168877432Y-120115658D01*
X168934500Y-119828760D01*
X168934500Y-119536240D01*
X168877432Y-119249342D01*
X168765490Y-118979089D01*
X168602975Y-118735868D01*
X168396132Y-118529025D01*
X168221740Y-118412500D01*
X168396132Y-118295975D01*
X168602975Y-118089132D01*
X168765490Y-117845911D01*
X168877432Y-117575658D01*
X168934500Y-117288760D01*
X168934500Y-116996240D01*
X168877432Y-116709342D01*
X168765490Y-116439089D01*
X168602975Y-116195868D01*
X168396132Y-115989025D01*
X168221740Y-115872500D01*
X168396132Y-115755975D01*
X168602975Y-115549132D01*
X168765490Y-115305911D01*
X168877432Y-115035658D01*
X168934500Y-114748760D01*
X168934500Y-114456240D01*
X168877432Y-114169342D01*
X168785543Y-113947501D01*
X169739170Y-113947501D01*
X169641068Y-114184342D01*
X169584000Y-114471240D01*
X169584000Y-114763760D01*
X169641068Y-115050658D01*
X169753010Y-115320911D01*
X169915525Y-115564132D01*
X170122368Y-115770975D01*
X170365589Y-115933490D01*
X170635842Y-116045432D01*
X170922740Y-116102500D01*
X171215260Y-116102500D01*
X171502158Y-116045432D01*
X171772411Y-115933490D01*
X172015632Y-115770975D01*
X172222475Y-115564132D01*
X172384990Y-115320911D01*
X172496932Y-115050658D01*
X172554000Y-114763760D01*
X172554000Y-114471240D01*
X172496932Y-114184342D01*
X172384990Y-113914089D01*
X172222475Y-113670868D01*
X172015632Y-113464025D01*
X171841240Y-113347500D01*
X172015632Y-113230975D01*
X172222475Y-113024132D01*
X172384990Y-112780911D01*
X172496932Y-112510658D01*
X172554000Y-112223760D01*
X172554000Y-111931240D01*
X172496932Y-111644342D01*
X172384990Y-111374089D01*
X172222475Y-111130868D01*
X172015632Y-110924025D01*
X171841240Y-110807500D01*
X172015632Y-110690975D01*
X172222475Y-110484132D01*
X172384990Y-110240911D01*
X172496932Y-109970658D01*
X172554000Y-109683760D01*
X172554000Y-109391240D01*
X172496932Y-109104342D01*
X172384990Y-108834089D01*
X172222475Y-108590868D01*
X172015632Y-108384025D01*
X171841240Y-108267500D01*
X172015632Y-108150975D01*
X172222475Y-107944132D01*
X172384990Y-107700911D01*
X172496932Y-107430658D01*
X172554000Y-107143760D01*
X172554000Y-106851240D01*
X172496932Y-106564342D01*
X172384990Y-106294089D01*
X172222475Y-106050868D01*
X172090620Y-105919013D01*
X172163180Y-105897002D01*
X172273494Y-105838037D01*
X172370185Y-105758685D01*
X172449537Y-105661994D01*
X172508502Y-105551680D01*
X172544812Y-105431982D01*
X172557072Y-105307500D01*
X172557072Y-103607500D01*
X172544812Y-103483018D01*
X172508502Y-103363320D01*
X172449537Y-103253006D01*
X172370185Y-103156315D01*
X172273494Y-103076963D01*
X172163180Y-103017998D01*
X172043482Y-102981688D01*
X171919000Y-102969428D01*
X170219000Y-102969428D01*
X170094518Y-102981688D01*
X169974820Y-103017998D01*
X169864506Y-103076963D01*
X169767815Y-103156315D01*
X169688463Y-103253006D01*
X169629498Y-103363320D01*
X169593188Y-103483018D01*
X169580928Y-103607500D01*
X169580928Y-105307500D01*
X169593188Y-105431982D01*
X169629498Y-105551680D01*
X169688463Y-105661994D01*
X169767815Y-105758685D01*
X169864506Y-105838037D01*
X169974820Y-105897002D01*
X170047380Y-105919013D01*
X169915525Y-106050868D01*
X169753010Y-106294089D01*
X169641068Y-106564342D01*
X169584000Y-106851240D01*
X169584000Y-107143760D01*
X169633656Y-107393397D01*
X169629553Y-107397501D01*
X168881044Y-107397501D01*
X168934500Y-107128760D01*
X168934500Y-106836240D01*
X168877432Y-106549342D01*
X168765490Y-106279089D01*
X168602975Y-106035868D01*
X168471120Y-105904013D01*
X168543680Y-105882002D01*
X168653994Y-105823037D01*
X168750685Y-105743685D01*
X168830037Y-105646994D01*
X168889002Y-105536680D01*
X168925312Y-105416982D01*
X168937572Y-105292500D01*
X168937572Y-103592500D01*
X168925312Y-103468018D01*
X168889002Y-103348320D01*
X168830037Y-103238006D01*
X168750685Y-103141315D01*
X168653994Y-103061963D01*
X168543680Y-103002998D01*
X168423982Y-102966688D01*
X168299500Y-102954428D01*
X166599500Y-102954428D01*
X166475018Y-102966688D01*
X166355320Y-103002998D01*
X166245006Y-103061963D01*
X166148315Y-103141315D01*
X166068963Y-103238006D01*
X166009998Y-103348320D01*
X165973688Y-103468018D01*
X165961428Y-103592500D01*
X165961428Y-105292500D01*
X165973688Y-105416982D01*
X166009998Y-105536680D01*
X166068963Y-105646994D01*
X166148315Y-105743685D01*
X166245006Y-105823037D01*
X166355320Y-105882002D01*
X166427880Y-105904013D01*
X166296025Y-106035868D01*
X166133510Y-106279089D01*
X166021568Y-106549342D01*
X165964500Y-106836240D01*
X165964500Y-107128760D01*
X166017956Y-107397501D01*
X164912456Y-107397501D01*
X165003932Y-107176658D01*
X165061000Y-106889760D01*
X165061000Y-106597240D01*
X165003932Y-106310342D01*
X164891990Y-106040089D01*
X164729475Y-105796868D01*
X164522632Y-105590025D01*
X164279411Y-105427510D01*
X164009158Y-105315568D01*
X163722260Y-105258500D01*
X163429740Y-105258500D01*
X163142842Y-105315568D01*
X162872589Y-105427510D01*
X162629368Y-105590025D01*
X162497513Y-105721880D01*
X162475502Y-105649320D01*
X162416537Y-105539006D01*
X162337185Y-105442315D01*
X162240494Y-105362963D01*
X162130180Y-105303998D01*
X162010482Y-105267688D01*
X161886000Y-105255428D01*
X160186000Y-105255428D01*
X160061518Y-105267688D01*
X159941820Y-105303998D01*
X159831506Y-105362963D01*
X159734815Y-105442315D01*
X159655463Y-105539006D01*
X159596498Y-105649320D01*
X159560188Y-105769018D01*
X159547928Y-105893500D01*
X159547928Y-107397501D01*
X155472593Y-107397501D01*
X155436498Y-107393946D01*
X155400403Y-107397501D01*
X155400394Y-107397501D01*
X155292414Y-107408136D01*
X155153866Y-107450164D01*
X155026179Y-107518414D01*
X154914261Y-107610263D01*
X154891245Y-107638308D01*
X153260908Y-109268646D01*
X153145671Y-109330242D01*
X153026249Y-109428249D01*
X152928242Y-109547671D01*
X152855416Y-109683918D01*
X152810571Y-109831755D01*
X152795428Y-109985500D01*
X152795428Y-110444394D01*
X150404500Y-108053466D01*
X150404500Y-105737383D01*
X150616132Y-105595975D01*
X150822975Y-105389132D01*
X150985490Y-105145911D01*
X151097432Y-104875658D01*
X151154500Y-104588760D01*
X151154500Y-104296240D01*
X151097432Y-104009342D01*
X150985490Y-103739089D01*
X150822975Y-103495868D01*
X150616132Y-103289025D01*
X150372911Y-103126510D01*
X150102658Y-103014568D01*
X149815760Y-102957500D01*
X149523240Y-102957500D01*
X149236342Y-103014568D01*
X148966089Y-103126510D01*
X148722868Y-103289025D01*
X148516025Y-103495868D01*
X148399500Y-103670260D01*
X148282975Y-103495868D01*
X148076132Y-103289025D01*
X147832911Y-103126510D01*
X147562658Y-103014568D01*
X147275760Y-102957500D01*
X146983240Y-102957500D01*
X146696342Y-103014568D01*
X146426089Y-103126510D01*
X146182868Y-103289025D01*
X145976025Y-103495868D01*
X145859500Y-103670260D01*
X145742975Y-103495868D01*
X145536132Y-103289025D01*
X145292911Y-103126510D01*
X145022658Y-103014568D01*
X144735760Y-102957500D01*
X144443240Y-102957500D01*
X144156342Y-103014568D01*
X143886089Y-103126510D01*
X143642868Y-103289025D01*
X143436025Y-103495868D01*
X143319500Y-103670260D01*
X143202975Y-103495868D01*
X142996132Y-103289025D01*
X142752911Y-103126510D01*
X142482658Y-103014568D01*
X142195760Y-102957500D01*
X141903240Y-102957500D01*
X141616342Y-103014568D01*
X141346089Y-103126510D01*
X141102868Y-103289025D01*
X140896025Y-103495868D01*
X140779500Y-103670260D01*
X140662975Y-103495868D01*
X140456132Y-103289025D01*
X140212911Y-103126510D01*
X139942658Y-103014568D01*
X139655760Y-102957500D01*
X139363240Y-102957500D01*
X139076342Y-103014568D01*
X138806089Y-103126510D01*
X138562868Y-103289025D01*
X138356025Y-103495868D01*
X138239500Y-103670260D01*
X138122975Y-103495868D01*
X137916132Y-103289025D01*
X137672911Y-103126510D01*
X137402658Y-103014568D01*
X137115760Y-102957500D01*
X136823240Y-102957500D01*
X136536342Y-103014568D01*
X136266089Y-103126510D01*
X136022868Y-103289025D01*
X135816025Y-103495868D01*
X135699500Y-103670260D01*
X135582975Y-103495868D01*
X135376132Y-103289025D01*
X135132911Y-103126510D01*
X134862658Y-103014568D01*
X134575760Y-102957500D01*
X134283240Y-102957500D01*
X133996342Y-103014568D01*
X133726089Y-103126510D01*
X133482868Y-103289025D01*
X133276025Y-103495868D01*
X133159500Y-103670260D01*
X133042975Y-103495868D01*
X132836132Y-103289025D01*
X132592911Y-103126510D01*
X132322658Y-103014568D01*
X132035760Y-102957500D01*
X131743240Y-102957500D01*
X131456342Y-103014568D01*
X131186089Y-103126510D01*
X130942868Y-103289025D01*
X130736025Y-103495868D01*
X130619500Y-103670260D01*
X130502975Y-103495868D01*
X130296132Y-103289025D01*
X130052911Y-103126510D01*
X129782658Y-103014568D01*
X129495760Y-102957500D01*
X129203240Y-102957500D01*
X129130540Y-102971961D01*
X128818578Y-102660000D01*
X145032419Y-102660000D01*
X145065387Y-102656753D01*
X145078367Y-102656753D01*
X145087532Y-102655790D01*
X145281481Y-102634035D01*
X145339966Y-102621603D01*
X145398676Y-102609978D01*
X145407479Y-102607253D01*
X145593509Y-102548240D01*
X145648519Y-102524662D01*
X145703794Y-102501880D01*
X145711900Y-102497497D01*
X145882925Y-102403475D01*
X145932264Y-102369692D01*
X145956807Y-102353386D01*
X146005845Y-102402424D01*
G37*
X146005845Y-102402424D02*
X146150795Y-102499277D01*
X146311855Y-102565990D01*
X146482835Y-102600000D01*
X146657165Y-102600000D01*
X146828145Y-102565990D01*
X146945000Y-102517587D01*
X147061855Y-102565990D01*
X147232835Y-102600000D01*
X147407165Y-102600000D01*
X147578145Y-102565990D01*
X147695000Y-102517587D01*
X147811855Y-102565990D01*
X147982835Y-102600000D01*
X148157165Y-102600000D01*
X148328145Y-102565990D01*
X148389173Y-102540711D01*
X148419366Y-102553652D01*
X148428169Y-102556377D01*
X148615006Y-102612786D01*
X148673686Y-102624405D01*
X148732196Y-102636842D01*
X148741361Y-102637805D01*
X148935594Y-102656850D01*
X148935598Y-102656850D01*
X148967581Y-102660000D01*
X171967721Y-102660000D01*
X172259659Y-102688625D01*
X172509429Y-102764035D01*
X172739792Y-102886522D01*
X172941980Y-103051422D01*
X173108286Y-103252450D01*
X173232378Y-103481954D01*
X173309531Y-103731195D01*
X173340000Y-104021089D01*
X173340001Y-127967711D01*
X173311375Y-128259660D01*
X173235965Y-128509429D01*
X173113477Y-128739794D01*
X172948579Y-128941979D01*
X172747546Y-129108288D01*
X172518046Y-129232378D01*
X172268805Y-129309531D01*
X171978911Y-129340000D01*
X122032279Y-129340000D01*
X121740340Y-129311375D01*
X121490571Y-129235965D01*
X121260206Y-129113477D01*
X121058021Y-128948579D01*
X120891712Y-128747546D01*
X120767622Y-128518046D01*
X120690469Y-128268805D01*
X120660000Y-127978911D01*
X120660000Y-122229078D01*
X122977970Y-124547049D01*
X123005683Y-124580817D01*
X123039451Y-124608530D01*
X123039453Y-124608532D01*
X123093753Y-124653095D01*
X123140441Y-124691411D01*
X123294187Y-124773589D01*
X123461010Y-124824195D01*
X123591023Y-124837000D01*
X123591031Y-124837000D01*
X123634500Y-124841281D01*
X123677969Y-124837000D01*
X127083531Y-124837000D01*
X127127000Y-124841281D01*
X127170469Y-124837000D01*
X127170477Y-124837000D01*
X127300490Y-124824195D01*
X127467313Y-124773589D01*
X127621059Y-124691411D01*
X127755817Y-124580817D01*
X127783534Y-124547044D01*
X128611050Y-123719529D01*
X128644817Y-123691817D01*
X128691856Y-123634501D01*
X128755411Y-123557059D01*
X128770149Y-123529485D01*
X128837589Y-123403313D01*
X128888195Y-123236490D01*
X128901000Y-123106477D01*
X128901000Y-123106469D01*
X128905281Y-123063000D01*
X128901000Y-123019531D01*
X128901000Y-120574656D01*
X128962632Y-120533475D01*
X129169475Y-120326632D01*
X129286000Y-120152240D01*
X129402525Y-120326632D01*
X129609368Y-120533475D01*
X129852589Y-120695990D01*
X130122842Y-120807932D01*
X130409740Y-120865000D01*
X130702260Y-120865000D01*
X130922408Y-120821209D01*
X137914701Y-127813503D01*
X137938499Y-127842501D01*
X137967497Y-127866299D01*
X138054223Y-127937474D01*
X138104280Y-127964230D01*
X138186253Y-128008046D01*
X138329514Y-128051503D01*
X138441167Y-128062500D01*
X138441177Y-128062500D01*
X138478500Y-128066176D01*
X138515823Y-128062500D01*
X166171322Y-128062500D01*
X166296025Y-128249132D01*
X166502868Y-128455975D01*
X166746089Y-128618490D01*
X167016342Y-128730432D01*
X167303240Y-128787500D01*
X167595760Y-128787500D01*
X167882658Y-128730432D01*
X168152911Y-128618490D01*
X168396132Y-128455975D01*
X168602975Y-128249132D01*
X168765490Y-128005911D01*
X168877432Y-127735658D01*
X168934500Y-127448760D01*
X168934500Y-127156240D01*
X168877432Y-126869342D01*
X168765490Y-126599089D01*
X168602975Y-126355868D01*
X168396132Y-126149025D01*
X168221740Y-126032500D01*
X168396132Y-125915975D01*
X168602975Y-125709132D01*
X168765490Y-125465911D01*
X168877432Y-125195658D01*
X168934500Y-124908760D01*
X168934500Y-124616240D01*
X168877432Y-124329342D01*
X168765490Y-124059089D01*
X168602975Y-123815868D01*
X168396132Y-123609025D01*
X168221740Y-123492500D01*
X168396132Y-123375975D01*
X168602975Y-123169132D01*
X168765490Y-122925911D01*
X168877432Y-122655658D01*
X168934500Y-122368760D01*
X168934500Y-122076240D01*
X168877432Y-121789342D01*
X168765490Y-121519089D01*
X168602975Y-121275868D01*
X168396132Y-121069025D01*
X168221740Y-120952500D01*
X168396132Y-120835975D01*
X168602975Y-120629132D01*
X168765490Y-120385911D01*
X168877432Y-120115658D01*
X168934500Y-119828760D01*
X168934500Y-119536240D01*
X168877432Y-119249342D01*
X168765490Y-118979089D01*
X168602975Y-118735868D01*
X168396132Y-118529025D01*
X168221740Y-118412500D01*
X168396132Y-118295975D01*
X168602975Y-118089132D01*
X168765490Y-117845911D01*
X168877432Y-117575658D01*
X168934500Y-117288760D01*
X168934500Y-116996240D01*
X168877432Y-116709342D01*
X168765490Y-116439089D01*
X168602975Y-116195868D01*
X168396132Y-115989025D01*
X168221740Y-115872500D01*
X168396132Y-115755975D01*
X168602975Y-115549132D01*
X168765490Y-115305911D01*
X168877432Y-115035658D01*
X168934500Y-114748760D01*
X168934500Y-114456240D01*
X168877432Y-114169342D01*
X168785543Y-113947501D01*
X169739170Y-113947501D01*
X169641068Y-114184342D01*
X169584000Y-114471240D01*
X169584000Y-114763760D01*
X169641068Y-115050658D01*
X169753010Y-115320911D01*
X169915525Y-115564132D01*
X170122368Y-115770975D01*
X170365589Y-115933490D01*
X170635842Y-116045432D01*
X170922740Y-116102500D01*
X171215260Y-116102500D01*
X171502158Y-116045432D01*
X171772411Y-115933490D01*
X172015632Y-115770975D01*
X172222475Y-115564132D01*
X172384990Y-115320911D01*
X172496932Y-115050658D01*
X172554000Y-114763760D01*
X172554000Y-114471240D01*
X172496932Y-114184342D01*
X172384990Y-113914089D01*
X172222475Y-113670868D01*
X172015632Y-113464025D01*
X171841240Y-113347500D01*
X172015632Y-113230975D01*
X172222475Y-113024132D01*
X172384990Y-112780911D01*
X172496932Y-112510658D01*
X172554000Y-112223760D01*
X172554000Y-111931240D01*
X172496932Y-111644342D01*
X172384990Y-111374089D01*
X172222475Y-111130868D01*
X172015632Y-110924025D01*
X171841240Y-110807500D01*
X172015632Y-110690975D01*
X172222475Y-110484132D01*
X172384990Y-110240911D01*
X172496932Y-109970658D01*
X172554000Y-109683760D01*
X172554000Y-109391240D01*
X172496932Y-109104342D01*
X172384990Y-108834089D01*
X172222475Y-108590868D01*
X172015632Y-108384025D01*
X171841240Y-108267500D01*
X172015632Y-108150975D01*
X172222475Y-107944132D01*
X172384990Y-107700911D01*
X172496932Y-107430658D01*
X172554000Y-107143760D01*
X172554000Y-106851240D01*
X172496932Y-106564342D01*
X172384990Y-106294089D01*
X172222475Y-106050868D01*
X172090620Y-105919013D01*
X172163180Y-105897002D01*
X172273494Y-105838037D01*
X172370185Y-105758685D01*
X172449537Y-105661994D01*
X172508502Y-105551680D01*
X172544812Y-105431982D01*
X172557072Y-105307500D01*
X172557072Y-103607500D01*
X172544812Y-103483018D01*
X172508502Y-103363320D01*
X172449537Y-103253006D01*
X172370185Y-103156315D01*
X172273494Y-103076963D01*
X172163180Y-103017998D01*
X172043482Y-102981688D01*
X171919000Y-102969428D01*
X170219000Y-102969428D01*
X170094518Y-102981688D01*
X169974820Y-103017998D01*
X169864506Y-103076963D01*
X169767815Y-103156315D01*
X169688463Y-103253006D01*
X169629498Y-103363320D01*
X169593188Y-103483018D01*
X169580928Y-103607500D01*
X169580928Y-105307500D01*
X169593188Y-105431982D01*
X169629498Y-105551680D01*
X169688463Y-105661994D01*
X169767815Y-105758685D01*
X169864506Y-105838037D01*
X169974820Y-105897002D01*
X170047380Y-105919013D01*
X169915525Y-106050868D01*
X169753010Y-106294089D01*
X169641068Y-106564342D01*
X169584000Y-106851240D01*
X169584000Y-107143760D01*
X169633656Y-107393397D01*
X169629553Y-107397501D01*
X168881044Y-107397501D01*
X168934500Y-107128760D01*
X168934500Y-106836240D01*
X168877432Y-106549342D01*
X168765490Y-106279089D01*
X168602975Y-106035868D01*
X168471120Y-105904013D01*
X168543680Y-105882002D01*
X168653994Y-105823037D01*
X168750685Y-105743685D01*
X168830037Y-105646994D01*
X168889002Y-105536680D01*
X168925312Y-105416982D01*
X168937572Y-105292500D01*
X168937572Y-103592500D01*
X168925312Y-103468018D01*
X168889002Y-103348320D01*
X168830037Y-103238006D01*
X168750685Y-103141315D01*
X168653994Y-103061963D01*
X168543680Y-103002998D01*
X168423982Y-102966688D01*
X168299500Y-102954428D01*
X166599500Y-102954428D01*
X166475018Y-102966688D01*
X166355320Y-103002998D01*
X166245006Y-103061963D01*
X166148315Y-103141315D01*
X166068963Y-103238006D01*
X166009998Y-103348320D01*
X165973688Y-103468018D01*
X165961428Y-103592500D01*
X165961428Y-105292500D01*
X165973688Y-105416982D01*
X166009998Y-105536680D01*
X166068963Y-105646994D01*
X166148315Y-105743685D01*
X166245006Y-105823037D01*
X166355320Y-105882002D01*
X166427880Y-105904013D01*
X166296025Y-106035868D01*
X166133510Y-106279089D01*
X166021568Y-106549342D01*
X165964500Y-106836240D01*
X165964500Y-107128760D01*
X166017956Y-107397501D01*
X164912456Y-107397501D01*
X165003932Y-107176658D01*
X165061000Y-106889760D01*
X165061000Y-106597240D01*
X165003932Y-106310342D01*
X164891990Y-106040089D01*
X164729475Y-105796868D01*
X164522632Y-105590025D01*
X164279411Y-105427510D01*
X164009158Y-105315568D01*
X163722260Y-105258500D01*
X163429740Y-105258500D01*
X163142842Y-105315568D01*
X162872589Y-105427510D01*
X162629368Y-105590025D01*
X162497513Y-105721880D01*
X162475502Y-105649320D01*
X162416537Y-105539006D01*
X162337185Y-105442315D01*
X162240494Y-105362963D01*
X162130180Y-105303998D01*
X162010482Y-105267688D01*
X161886000Y-105255428D01*
X160186000Y-105255428D01*
X160061518Y-105267688D01*
X159941820Y-105303998D01*
X159831506Y-105362963D01*
X159734815Y-105442315D01*
X159655463Y-105539006D01*
X159596498Y-105649320D01*
X159560188Y-105769018D01*
X159547928Y-105893500D01*
X159547928Y-107397501D01*
X155472593Y-107397501D01*
X155436498Y-107393946D01*
X155400403Y-107397501D01*
X155400394Y-107397501D01*
X155292414Y-107408136D01*
X155153866Y-107450164D01*
X155026179Y-107518414D01*
X154914261Y-107610263D01*
X154891245Y-107638308D01*
X153260908Y-109268646D01*
X153145671Y-109330242D01*
X153026249Y-109428249D01*
X152928242Y-109547671D01*
X152855416Y-109683918D01*
X152810571Y-109831755D01*
X152795428Y-109985500D01*
X152795428Y-110444394D01*
X150404500Y-108053466D01*
X150404500Y-105737383D01*
X150616132Y-105595975D01*
X150822975Y-105389132D01*
X150985490Y-105145911D01*
X151097432Y-104875658D01*
X151154500Y-104588760D01*
X151154500Y-104296240D01*
X151097432Y-104009342D01*
X150985490Y-103739089D01*
X150822975Y-103495868D01*
X150616132Y-103289025D01*
X150372911Y-103126510D01*
X150102658Y-103014568D01*
X149815760Y-102957500D01*
X149523240Y-102957500D01*
X149236342Y-103014568D01*
X148966089Y-103126510D01*
X148722868Y-103289025D01*
X148516025Y-103495868D01*
X148399500Y-103670260D01*
X148282975Y-103495868D01*
X148076132Y-103289025D01*
X147832911Y-103126510D01*
X147562658Y-103014568D01*
X147275760Y-102957500D01*
X146983240Y-102957500D01*
X146696342Y-103014568D01*
X146426089Y-103126510D01*
X146182868Y-103289025D01*
X145976025Y-103495868D01*
X145859500Y-103670260D01*
X145742975Y-103495868D01*
X145536132Y-103289025D01*
X145292911Y-103126510D01*
X145022658Y-103014568D01*
X144735760Y-102957500D01*
X144443240Y-102957500D01*
X144156342Y-103014568D01*
X143886089Y-103126510D01*
X143642868Y-103289025D01*
X143436025Y-103495868D01*
X143319500Y-103670260D01*
X143202975Y-103495868D01*
X142996132Y-103289025D01*
X142752911Y-103126510D01*
X142482658Y-103014568D01*
X142195760Y-102957500D01*
X141903240Y-102957500D01*
X141616342Y-103014568D01*
X141346089Y-103126510D01*
X141102868Y-103289025D01*
X140896025Y-103495868D01*
X140779500Y-103670260D01*
X140662975Y-103495868D01*
X140456132Y-103289025D01*
X140212911Y-103126510D01*
X139942658Y-103014568D01*
X139655760Y-102957500D01*
X139363240Y-102957500D01*
X139076342Y-103014568D01*
X138806089Y-103126510D01*
X138562868Y-103289025D01*
X138356025Y-103495868D01*
X138239500Y-103670260D01*
X138122975Y-103495868D01*
X137916132Y-103289025D01*
X137672911Y-103126510D01*
X137402658Y-103014568D01*
X137115760Y-102957500D01*
X136823240Y-102957500D01*
X136536342Y-103014568D01*
X136266089Y-103126510D01*
X136022868Y-103289025D01*
X135816025Y-103495868D01*
X135699500Y-103670260D01*
X135582975Y-103495868D01*
X135376132Y-103289025D01*
X135132911Y-103126510D01*
X134862658Y-103014568D01*
X134575760Y-102957500D01*
X134283240Y-102957500D01*
X133996342Y-103014568D01*
X133726089Y-103126510D01*
X133482868Y-103289025D01*
X133276025Y-103495868D01*
X133159500Y-103670260D01*
X133042975Y-103495868D01*
X132836132Y-103289025D01*
X132592911Y-103126510D01*
X132322658Y-103014568D01*
X132035760Y-102957500D01*
X131743240Y-102957500D01*
X131456342Y-103014568D01*
X131186089Y-103126510D01*
X130942868Y-103289025D01*
X130736025Y-103495868D01*
X130619500Y-103670260D01*
X130502975Y-103495868D01*
X130296132Y-103289025D01*
X130052911Y-103126510D01*
X129782658Y-103014568D01*
X129495760Y-102957500D01*
X129203240Y-102957500D01*
X129130540Y-102971961D01*
X128818578Y-102660000D01*
X145032419Y-102660000D01*
X145065387Y-102656753D01*
X145078367Y-102656753D01*
X145087532Y-102655790D01*
X145281481Y-102634035D01*
X145339966Y-102621603D01*
X145398676Y-102609978D01*
X145407479Y-102607253D01*
X145593509Y-102548240D01*
X145648519Y-102524662D01*
X145703794Y-102501880D01*
X145711900Y-102497497D01*
X145882925Y-102403475D01*
X145932264Y-102369692D01*
X145956807Y-102353386D01*
X146005845Y-102402424D01*
G36*
X125321428Y-105292500D02*
G01*
X125333688Y-105416982D01*
X125369998Y-105536680D01*
X125428963Y-105646994D01*
X125508315Y-105743685D01*
X125605006Y-105823037D01*
X125715320Y-105882002D01*
X125835018Y-105918312D01*
X125959500Y-105930572D01*
X127659500Y-105930572D01*
X127783982Y-105918312D01*
X127903680Y-105882002D01*
X128013994Y-105823037D01*
X128110685Y-105743685D01*
X128190037Y-105646994D01*
X128249002Y-105536680D01*
X128271013Y-105464120D01*
X128402868Y-105595975D01*
X128646089Y-105758490D01*
X128916342Y-105870432D01*
X129203240Y-105927500D01*
X129495760Y-105927500D01*
X129782658Y-105870432D01*
X130052911Y-105758490D01*
X130296132Y-105595975D01*
X130502975Y-105389132D01*
X130619500Y-105214740D01*
X130736025Y-105389132D01*
X130942868Y-105595975D01*
X131186089Y-105758490D01*
X131456342Y-105870432D01*
X131743240Y-105927500D01*
X132035760Y-105927500D01*
X132322658Y-105870432D01*
X132592911Y-105758490D01*
X132836132Y-105595975D01*
X133042975Y-105389132D01*
X133159500Y-105214740D01*
X133276025Y-105389132D01*
X133482868Y-105595975D01*
X133726089Y-105758490D01*
X133996342Y-105870432D01*
X134283240Y-105927500D01*
X134575760Y-105927500D01*
X134862658Y-105870432D01*
X135132911Y-105758490D01*
X135376132Y-105595975D01*
X135582975Y-105389132D01*
X135699500Y-105214740D01*
X135816025Y-105389132D01*
X136022868Y-105595975D01*
X136266089Y-105758490D01*
X136536342Y-105870432D01*
X136823240Y-105927500D01*
X137115760Y-105927500D01*
X137402658Y-105870432D01*
X137672911Y-105758490D01*
X137916132Y-105595975D01*
X138122975Y-105389132D01*
X138239500Y-105214740D01*
X138356025Y-105389132D01*
X138562868Y-105595975D01*
X138806089Y-105758490D01*
X139076342Y-105870432D01*
X139363240Y-105927500D01*
X139655760Y-105927500D01*
X139942658Y-105870432D01*
X140212911Y-105758490D01*
X140456132Y-105595975D01*
X140662975Y-105389132D01*
X140779500Y-105214740D01*
X140896025Y-105389132D01*
X141102868Y-105595975D01*
X141346089Y-105758490D01*
X141616342Y-105870432D01*
X141903240Y-105927500D01*
X142195760Y-105927500D01*
X142482658Y-105870432D01*
X142752911Y-105758490D01*
X142996132Y-105595975D01*
X143202975Y-105389132D01*
X143319500Y-105214740D01*
X143436025Y-105389132D01*
X143642868Y-105595975D01*
X143886089Y-105758490D01*
X144156342Y-105870432D01*
X144443240Y-105927500D01*
X144735760Y-105927500D01*
X144985398Y-105877844D01*
X152998501Y-113890948D01*
X152998501Y-114412061D01*
X152928242Y-114497671D01*
X152855416Y-114633918D01*
X152810571Y-114781755D01*
X152795428Y-114935500D01*
X152795428Y-115095055D01*
X152751164Y-115177867D01*
X152709135Y-115316415D01*
X152694944Y-115460500D01*
X152709135Y-115604585D01*
X152751164Y-115743133D01*
X152795428Y-115825945D01*
X152795428Y-116585500D01*
X152810571Y-116739245D01*
X152837080Y-116826636D01*
X152816295Y-116857744D01*
X152738274Y-117046102D01*
X152698500Y-117246061D01*
X152698500Y-117449939D01*
X152738274Y-117649898D01*
X152816295Y-117838256D01*
X152929563Y-118007774D01*
X153073726Y-118151937D01*
X153243244Y-118265205D01*
X153431602Y-118343226D01*
X153631561Y-118383000D01*
X153835439Y-118383000D01*
X154035398Y-118343226D01*
X154223756Y-118265205D01*
X154368500Y-118168490D01*
X154513244Y-118265205D01*
X154701602Y-118343226D01*
X154901561Y-118383000D01*
X155105439Y-118383000D01*
X155305398Y-118343226D01*
X155493756Y-118265205D01*
X155638500Y-118168490D01*
X155783244Y-118265205D01*
X155971602Y-118343226D01*
X156171561Y-118383000D01*
X156196018Y-118383000D01*
X156175688Y-118450018D01*
X156163428Y-118574500D01*
X156163428Y-121074500D01*
X156175688Y-121198982D01*
X156211998Y-121318680D01*
X156270963Y-121428994D01*
X156350315Y-121525685D01*
X156447006Y-121605037D01*
X156557320Y-121664002D01*
X156677018Y-121700312D01*
X156801500Y-121712572D01*
X157253001Y-121712572D01*
X157253000Y-122339617D01*
X157041368Y-122481025D01*
X156834525Y-122687868D01*
X156712805Y-122870034D01*
X156643178Y-122753145D01*
X156448269Y-122536912D01*
X156214920Y-122362859D01*
X155952099Y-122237675D01*
X155804890Y-122193024D01*
X155575000Y-122314345D01*
X155575000Y-123507500D01*
X155595000Y-123507500D01*
X155595000Y-123761500D01*
X155575000Y-123761500D01*
X155575000Y-123781500D01*
X155321000Y-123781500D01*
X155321000Y-123761500D01*
X154127186Y-123761500D01*
X154006519Y-123991391D01*
X154103843Y-124265752D01*
X154252822Y-124515855D01*
X154366942Y-124642460D01*
X146714882Y-124642460D01*
X146798685Y-124573685D01*
X146878037Y-124476994D01*
X146937002Y-124366680D01*
X146973312Y-124246982D01*
X146985572Y-124122500D01*
X146982881Y-123277609D01*
X154006519Y-123277609D01*
X154127186Y-123507500D01*
X155321000Y-123507500D01*
X155321000Y-122314345D01*
X155091110Y-122193024D01*
X154943901Y-122237675D01*
X154681080Y-122362859D01*
X154447731Y-122536912D01*
X154252822Y-122753145D01*
X154103843Y-123003248D01*
X154006519Y-123277609D01*
X146982881Y-123277609D01*
X146982500Y-123158250D01*
X146823750Y-122999500D01*
X145224500Y-122999500D01*
X145224500Y-123019500D01*
X144970500Y-123019500D01*
X144970500Y-122999500D01*
X143371250Y-122999500D01*
X143212500Y-123158250D01*
X143209428Y-124122500D01*
X143210901Y-124137454D01*
X142276500Y-123203054D01*
X142276500Y-121622500D01*
X143209428Y-121622500D01*
X143212500Y-122586750D01*
X143371250Y-122745500D01*
X144970500Y-122745500D01*
X144970500Y-121146250D01*
X145224500Y-121146250D01*
X145224500Y-122745500D01*
X146823750Y-122745500D01*
X146982500Y-122586750D01*
X146985572Y-121622500D01*
X146973312Y-121498018D01*
X146937002Y-121378320D01*
X146878037Y-121268006D01*
X146798685Y-121171315D01*
X146701994Y-121091963D01*
X146591680Y-121032998D01*
X146471982Y-120996688D01*
X146347500Y-120984428D01*
X145383250Y-120987500D01*
X145224500Y-121146250D01*
X144970500Y-121146250D01*
X144811750Y-120987500D01*
X143847500Y-120984428D01*
X143723018Y-120996688D01*
X143603320Y-121032998D01*
X143493006Y-121091963D01*
X143396315Y-121171315D01*
X143316963Y-121268006D01*
X143257998Y-121378320D01*
X143221688Y-121498018D01*
X143209428Y-121622500D01*
X142276500Y-121622500D01*
X142276500Y-120241605D01*
X142280056Y-120205500D01*
X142265865Y-120061415D01*
X142223837Y-119922866D01*
X142155587Y-119795180D01*
X142086753Y-119711306D01*
X142086750Y-119711303D01*
X142063737Y-119683262D01*
X142035697Y-119660250D01*
X139664072Y-117288626D01*
X139664072Y-115990000D01*
X139651812Y-115865518D01*
X139615502Y-115745820D01*
X139556537Y-115635506D01*
X139477185Y-115538815D01*
X139380494Y-115459463D01*
X139270180Y-115400498D01*
X139150482Y-115364188D01*
X139026000Y-115351928D01*
X137326000Y-115351928D01*
X137201518Y-115364188D01*
X137081820Y-115400498D01*
X136971506Y-115459463D01*
X136874815Y-115538815D01*
X136795463Y-115635506D01*
X136736498Y-115745820D01*
X136714487Y-115818380D01*
X136582632Y-115686525D01*
X136339411Y-115524010D01*
X136069158Y-115412068D01*
X135782260Y-115355000D01*
X135489740Y-115355000D01*
X135202842Y-115412068D01*
X134932589Y-115524010D01*
X134689368Y-115686525D01*
X134482525Y-115893368D01*
X134366000Y-116067760D01*
X134249475Y-115893368D01*
X134042632Y-115686525D01*
X133799411Y-115524010D01*
X133529158Y-115412068D01*
X133242260Y-115355000D01*
X132949740Y-115355000D01*
X132662842Y-115412068D01*
X132392589Y-115524010D01*
X132149368Y-115686525D01*
X131942525Y-115893368D01*
X131826000Y-116067760D01*
X131709475Y-115893368D01*
X131502632Y-115686525D01*
X131259411Y-115524010D01*
X130989158Y-115412068D01*
X130702260Y-115355000D01*
X130409740Y-115355000D01*
X130122842Y-115412068D01*
X129852589Y-115524010D01*
X129609368Y-115686525D01*
X129402525Y-115893368D01*
X129286000Y-116067760D01*
X129169475Y-115893368D01*
X128962632Y-115686525D01*
X128719411Y-115524010D01*
X128449158Y-115412068D01*
X128162260Y-115355000D01*
X127869740Y-115355000D01*
X127582842Y-115412068D01*
X127312589Y-115524010D01*
X127069368Y-115686525D01*
X126862525Y-115893368D01*
X126746000Y-116067760D01*
X126629475Y-115893368D01*
X126422632Y-115686525D01*
X126179411Y-115524010D01*
X125909158Y-115412068D01*
X125622260Y-115355000D01*
X125329740Y-115355000D01*
X125042842Y-115412068D01*
X124772589Y-115524010D01*
X124529368Y-115686525D01*
X124322525Y-115893368D01*
X124160010Y-116136589D01*
X124048068Y-116406842D01*
X123991000Y-116693740D01*
X123991000Y-116986260D01*
X124048068Y-117273158D01*
X124160010Y-117543411D01*
X124322525Y-117786632D01*
X124529368Y-117993475D01*
X124705406Y-118111100D01*
X124475731Y-118282412D01*
X124280822Y-118498645D01*
X124131843Y-118748748D01*
X124034519Y-119023109D01*
X124155186Y-119253000D01*
X125349000Y-119253000D01*
X125349000Y-119233000D01*
X125603000Y-119233000D01*
X125603000Y-119253000D01*
X125623000Y-119253000D01*
X125623000Y-119507000D01*
X125603000Y-119507000D01*
X125603000Y-120700155D01*
X125832890Y-120821476D01*
X125980099Y-120776825D01*
X126242920Y-120651641D01*
X126476269Y-120477588D01*
X126671178Y-120261355D01*
X126740805Y-120144466D01*
X126862525Y-120326632D01*
X127069368Y-120533475D01*
X127131001Y-120574657D01*
X127131000Y-122696421D01*
X126760422Y-123067000D01*
X124001079Y-123067000D01*
X122043000Y-121108922D01*
X122043000Y-119736891D01*
X124034519Y-119736891D01*
X124131843Y-120011252D01*
X124280822Y-120261355D01*
X124475731Y-120477588D01*
X124709080Y-120651641D01*
X124971901Y-120776825D01*
X125119110Y-120821476D01*
X125349000Y-120700155D01*
X125349000Y-119507000D01*
X124155186Y-119507000D01*
X124034519Y-119736891D01*
X122043000Y-119736891D01*
X122043000Y-104506578D01*
X122572080Y-103977499D01*
X125321428Y-103977499D01*
X125321428Y-105292500D01*
G37*
X125321428Y-105292500D02*
X125333688Y-105416982D01*
X125369998Y-105536680D01*
X125428963Y-105646994D01*
X125508315Y-105743685D01*
X125605006Y-105823037D01*
X125715320Y-105882002D01*
X125835018Y-105918312D01*
X125959500Y-105930572D01*
X127659500Y-105930572D01*
X127783982Y-105918312D01*
X127903680Y-105882002D01*
X128013994Y-105823037D01*
X128110685Y-105743685D01*
X128190037Y-105646994D01*
X128249002Y-105536680D01*
X128271013Y-105464120D01*
X128402868Y-105595975D01*
X128646089Y-105758490D01*
X128916342Y-105870432D01*
X129203240Y-105927500D01*
X129495760Y-105927500D01*
X129782658Y-105870432D01*
X130052911Y-105758490D01*
X130296132Y-105595975D01*
X130502975Y-105389132D01*
X130619500Y-105214740D01*
X130736025Y-105389132D01*
X130942868Y-105595975D01*
X131186089Y-105758490D01*
X131456342Y-105870432D01*
X131743240Y-105927500D01*
X132035760Y-105927500D01*
X132322658Y-105870432D01*
X132592911Y-105758490D01*
X132836132Y-105595975D01*
X133042975Y-105389132D01*
X133159500Y-105214740D01*
X133276025Y-105389132D01*
X133482868Y-105595975D01*
X133726089Y-105758490D01*
X133996342Y-105870432D01*
X134283240Y-105927500D01*
X134575760Y-105927500D01*
X134862658Y-105870432D01*
X135132911Y-105758490D01*
X135376132Y-105595975D01*
X135582975Y-105389132D01*
X135699500Y-105214740D01*
X135816025Y-105389132D01*
X136022868Y-105595975D01*
X136266089Y-105758490D01*
X136536342Y-105870432D01*
X136823240Y-105927500D01*
X137115760Y-105927500D01*
X137402658Y-105870432D01*
X137672911Y-105758490D01*
X137916132Y-105595975D01*
X138122975Y-105389132D01*
X138239500Y-105214740D01*
X138356025Y-105389132D01*
X138562868Y-105595975D01*
X138806089Y-105758490D01*
X139076342Y-105870432D01*
X139363240Y-105927500D01*
X139655760Y-105927500D01*
X139942658Y-105870432D01*
X140212911Y-105758490D01*
X140456132Y-105595975D01*
X140662975Y-105389132D01*
X140779500Y-105214740D01*
X140896025Y-105389132D01*
X141102868Y-105595975D01*
X141346089Y-105758490D01*
X141616342Y-105870432D01*
X141903240Y-105927500D01*
X142195760Y-105927500D01*
X142482658Y-105870432D01*
X142752911Y-105758490D01*
X142996132Y-105595975D01*
X143202975Y-105389132D01*
X143319500Y-105214740D01*
X143436025Y-105389132D01*
X143642868Y-105595975D01*
X143886089Y-105758490D01*
X144156342Y-105870432D01*
X144443240Y-105927500D01*
X144735760Y-105927500D01*
X144985398Y-105877844D01*
X152998501Y-113890948D01*
X152998501Y-114412061D01*
X152928242Y-114497671D01*
X152855416Y-114633918D01*
X152810571Y-114781755D01*
X152795428Y-114935500D01*
X152795428Y-115095055D01*
X152751164Y-115177867D01*
X152709135Y-115316415D01*
X152694944Y-115460500D01*
X152709135Y-115604585D01*
X152751164Y-115743133D01*
X152795428Y-115825945D01*
X152795428Y-116585500D01*
X152810571Y-116739245D01*
X152837080Y-116826636D01*
X152816295Y-116857744D01*
X152738274Y-117046102D01*
X152698500Y-117246061D01*
X152698500Y-117449939D01*
X152738274Y-117649898D01*
X152816295Y-117838256D01*
X152929563Y-118007774D01*
X153073726Y-118151937D01*
X153243244Y-118265205D01*
X153431602Y-118343226D01*
X153631561Y-118383000D01*
X153835439Y-118383000D01*
X154035398Y-118343226D01*
X154223756Y-118265205D01*
X154368500Y-118168490D01*
X154513244Y-118265205D01*
X154701602Y-118343226D01*
X154901561Y-118383000D01*
X155105439Y-118383000D01*
X155305398Y-118343226D01*
X155493756Y-118265205D01*
X155638500Y-118168490D01*
X155783244Y-118265205D01*
X155971602Y-118343226D01*
X156171561Y-118383000D01*
X156196018Y-118383000D01*
X156175688Y-118450018D01*
X156163428Y-118574500D01*
X156163428Y-121074500D01*
X156175688Y-121198982D01*
X156211998Y-121318680D01*
X156270963Y-121428994D01*
X156350315Y-121525685D01*
X156447006Y-121605037D01*
X156557320Y-121664002D01*
X156677018Y-121700312D01*
X156801500Y-121712572D01*
X157253001Y-121712572D01*
X157253000Y-122339617D01*
X157041368Y-122481025D01*
X156834525Y-122687868D01*
X156712805Y-122870034D01*
X156643178Y-122753145D01*
X156448269Y-122536912D01*
X156214920Y-122362859D01*
X155952099Y-122237675D01*
X155804890Y-122193024D01*
X155575000Y-122314345D01*
X155575000Y-123507500D01*
X155595000Y-123507500D01*
X155595000Y-123761500D01*
X155575000Y-123761500D01*
X155575000Y-123781500D01*
X155321000Y-123781500D01*
X155321000Y-123761500D01*
X154127186Y-123761500D01*
X154006519Y-123991391D01*
X154103843Y-124265752D01*
X154252822Y-124515855D01*
X154366942Y-124642460D01*
X146714882Y-124642460D01*
X146798685Y-124573685D01*
X146878037Y-124476994D01*
X146937002Y-124366680D01*
X146973312Y-124246982D01*
X146985572Y-124122500D01*
X146982881Y-123277609D01*
X154006519Y-123277609D01*
X154127186Y-123507500D01*
X155321000Y-123507500D01*
X155321000Y-122314345D01*
X155091110Y-122193024D01*
X154943901Y-122237675D01*
X154681080Y-122362859D01*
X154447731Y-122536912D01*
X154252822Y-122753145D01*
X154103843Y-123003248D01*
X154006519Y-123277609D01*
X146982881Y-123277609D01*
X146982500Y-123158250D01*
X146823750Y-122999500D01*
X145224500Y-122999500D01*
X145224500Y-123019500D01*
X144970500Y-123019500D01*
X144970500Y-122999500D01*
X143371250Y-122999500D01*
X143212500Y-123158250D01*
X143209428Y-124122500D01*
X143210901Y-124137454D01*
X142276500Y-123203054D01*
X142276500Y-121622500D01*
X143209428Y-121622500D01*
X143212500Y-122586750D01*
X143371250Y-122745500D01*
X144970500Y-122745500D01*
X144970500Y-121146250D01*
X145224500Y-121146250D01*
X145224500Y-122745500D01*
X146823750Y-122745500D01*
X146982500Y-122586750D01*
X146985572Y-121622500D01*
X146973312Y-121498018D01*
X146937002Y-121378320D01*
X146878037Y-121268006D01*
X146798685Y-121171315D01*
X146701994Y-121091963D01*
X146591680Y-121032998D01*
X146471982Y-120996688D01*
X146347500Y-120984428D01*
X145383250Y-120987500D01*
X145224500Y-121146250D01*
X144970500Y-121146250D01*
X144811750Y-120987500D01*
X143847500Y-120984428D01*
X143723018Y-120996688D01*
X143603320Y-121032998D01*
X143493006Y-121091963D01*
X143396315Y-121171315D01*
X143316963Y-121268006D01*
X143257998Y-121378320D01*
X143221688Y-121498018D01*
X143209428Y-121622500D01*
X142276500Y-121622500D01*
X142276500Y-120241605D01*
X142280056Y-120205500D01*
X142265865Y-120061415D01*
X142223837Y-119922866D01*
X142155587Y-119795180D01*
X142086753Y-119711306D01*
X142086750Y-119711303D01*
X142063737Y-119683262D01*
X142035697Y-119660250D01*
X139664072Y-117288626D01*
X139664072Y-115990000D01*
X139651812Y-115865518D01*
X139615502Y-115745820D01*
X139556537Y-115635506D01*
X139477185Y-115538815D01*
X139380494Y-115459463D01*
X139270180Y-115400498D01*
X139150482Y-115364188D01*
X139026000Y-115351928D01*
X137326000Y-115351928D01*
X137201518Y-115364188D01*
X137081820Y-115400498D01*
X136971506Y-115459463D01*
X136874815Y-115538815D01*
X136795463Y-115635506D01*
X136736498Y-115745820D01*
X136714487Y-115818380D01*
X136582632Y-115686525D01*
X136339411Y-115524010D01*
X136069158Y-115412068D01*
X135782260Y-115355000D01*
X135489740Y-115355000D01*
X135202842Y-115412068D01*
X134932589Y-115524010D01*
X134689368Y-115686525D01*
X134482525Y-115893368D01*
X134366000Y-116067760D01*
X134249475Y-115893368D01*
X134042632Y-115686525D01*
X133799411Y-115524010D01*
X133529158Y-115412068D01*
X133242260Y-115355000D01*
X132949740Y-115355000D01*
X132662842Y-115412068D01*
X132392589Y-115524010D01*
X132149368Y-115686525D01*
X131942525Y-115893368D01*
X131826000Y-116067760D01*
X131709475Y-115893368D01*
X131502632Y-115686525D01*
X131259411Y-115524010D01*
X130989158Y-115412068D01*
X130702260Y-115355000D01*
X130409740Y-115355000D01*
X130122842Y-115412068D01*
X129852589Y-115524010D01*
X129609368Y-115686525D01*
X129402525Y-115893368D01*
X129286000Y-116067760D01*
X129169475Y-115893368D01*
X128962632Y-115686525D01*
X128719411Y-115524010D01*
X128449158Y-115412068D01*
X128162260Y-115355000D01*
X127869740Y-115355000D01*
X127582842Y-115412068D01*
X127312589Y-115524010D01*
X127069368Y-115686525D01*
X126862525Y-115893368D01*
X126746000Y-116067760D01*
X126629475Y-115893368D01*
X126422632Y-115686525D01*
X126179411Y-115524010D01*
X125909158Y-115412068D01*
X125622260Y-115355000D01*
X125329740Y-115355000D01*
X125042842Y-115412068D01*
X124772589Y-115524010D01*
X124529368Y-115686525D01*
X124322525Y-115893368D01*
X124160010Y-116136589D01*
X124048068Y-116406842D01*
X123991000Y-116693740D01*
X123991000Y-116986260D01*
X124048068Y-117273158D01*
X124160010Y-117543411D01*
X124322525Y-117786632D01*
X124529368Y-117993475D01*
X124705406Y-118111100D01*
X124475731Y-118282412D01*
X124280822Y-118498645D01*
X124131843Y-118748748D01*
X124034519Y-119023109D01*
X124155186Y-119253000D01*
X125349000Y-119253000D01*
X125349000Y-119233000D01*
X125603000Y-119233000D01*
X125603000Y-119253000D01*
X125623000Y-119253000D01*
X125623000Y-119507000D01*
X125603000Y-119507000D01*
X125603000Y-120700155D01*
X125832890Y-120821476D01*
X125980099Y-120776825D01*
X126242920Y-120651641D01*
X126476269Y-120477588D01*
X126671178Y-120261355D01*
X126740805Y-120144466D01*
X126862525Y-120326632D01*
X127069368Y-120533475D01*
X127131001Y-120574657D01*
X127131000Y-122696421D01*
X126760422Y-123067000D01*
X124001079Y-123067000D01*
X122043000Y-121108922D01*
X122043000Y-119736891D01*
X124034519Y-119736891D01*
X124131843Y-120011252D01*
X124280822Y-120261355D01*
X124475731Y-120477588D01*
X124709080Y-120651641D01*
X124971901Y-120776825D01*
X125119110Y-120821476D01*
X125349000Y-120700155D01*
X125349000Y-119507000D01*
X124155186Y-119507000D01*
X124034519Y-119736891D01*
X122043000Y-119736891D01*
X122043000Y-104506578D01*
X122572080Y-103977499D01*
X125321428Y-103977499D01*
X125321428Y-105292500D01*
G36*
X170648126Y-70726714D02*
G01*
X171271572Y-70914943D01*
X171846579Y-71220681D01*
X172351247Y-71632279D01*
X172766362Y-72134067D01*
X173076105Y-72706924D01*
X173268682Y-73329039D01*
X173340000Y-74007584D01*
X173340001Y-95967711D01*
X173273286Y-96648126D01*
X173085057Y-97271570D01*
X172779323Y-97846573D01*
X172367721Y-98351248D01*
X171865933Y-98766362D01*
X171293077Y-99076104D01*
X170670961Y-99268682D01*
X169992417Y-99340000D01*
X148967581Y-99340000D01*
X148934613Y-99343247D01*
X148921633Y-99343247D01*
X148912468Y-99344210D01*
X148718518Y-99365965D01*
X148660019Y-99378400D01*
X148601325Y-99390022D01*
X148592522Y-99392747D01*
X148482093Y-99427777D01*
X148328145Y-99364010D01*
X148157165Y-99330000D01*
X147982835Y-99330000D01*
X147811855Y-99364010D01*
X147695000Y-99412413D01*
X147578145Y-99364010D01*
X147407165Y-99330000D01*
X147232835Y-99330000D01*
X147061855Y-99364010D01*
X146945000Y-99412413D01*
X146828145Y-99364010D01*
X146657165Y-99330000D01*
X146482835Y-99330000D01*
X146311855Y-99364010D01*
X146150795Y-99430723D01*
X146005845Y-99527576D01*
X145914891Y-99618530D01*
X145871349Y-99588716D01*
X145863243Y-99584333D01*
X145690921Y-99492708D01*
X145635606Y-99469909D01*
X145580634Y-99446348D01*
X145571831Y-99443623D01*
X145384995Y-99387214D01*
X145326307Y-99375594D01*
X145267804Y-99363158D01*
X145258639Y-99362195D01*
X145064405Y-99343150D01*
X145064402Y-99343150D01*
X145032419Y-99340000D01*
X124032279Y-99340000D01*
X123351874Y-99273286D01*
X122728430Y-99085057D01*
X122153427Y-98779323D01*
X121648752Y-98367721D01*
X121233638Y-97865933D01*
X120923896Y-97293077D01*
X120731318Y-96670961D01*
X120660000Y-95992417D01*
X120660000Y-95750324D01*
X121465000Y-95750324D01*
X121465000Y-96249676D01*
X121562418Y-96739432D01*
X121753512Y-97200773D01*
X122030937Y-97615968D01*
X122384032Y-97969063D01*
X122799227Y-98246488D01*
X123260568Y-98437582D01*
X123750324Y-98535000D01*
X124249676Y-98535000D01*
X124739432Y-98437582D01*
X125200773Y-98246488D01*
X125615968Y-97969063D01*
X125969063Y-97615968D01*
X126246488Y-97200773D01*
X126437582Y-96739432D01*
X126535000Y-96249676D01*
X126535000Y-95750324D01*
X167465000Y-95750324D01*
X167465000Y-96249676D01*
X167562418Y-96739432D01*
X167753512Y-97200773D01*
X168030937Y-97615968D01*
X168384032Y-97969063D01*
X168799227Y-98246488D01*
X169260568Y-98437582D01*
X169750324Y-98535000D01*
X170249676Y-98535000D01*
X170739432Y-98437582D01*
X171200773Y-98246488D01*
X171615968Y-97969063D01*
X171969063Y-97615968D01*
X172246488Y-97200773D01*
X172437582Y-96739432D01*
X172535000Y-96249676D01*
X172535000Y-95750324D01*
X172437582Y-95260568D01*
X172246488Y-94799227D01*
X171969063Y-94384032D01*
X171615968Y-94030937D01*
X171200773Y-93753512D01*
X170739432Y-93562418D01*
X170249676Y-93465000D01*
X169750324Y-93465000D01*
X169260568Y-93562418D01*
X168799227Y-93753512D01*
X168384032Y-94030937D01*
X168030937Y-94384032D01*
X167753512Y-94799227D01*
X167562418Y-95260568D01*
X167465000Y-95750324D01*
X126535000Y-95750324D01*
X126437582Y-95260568D01*
X126246488Y-94799227D01*
X125969063Y-94384032D01*
X125615968Y-94030937D01*
X125200773Y-93753512D01*
X124739432Y-93562418D01*
X124249676Y-93465000D01*
X123750324Y-93465000D01*
X123260568Y-93562418D01*
X122799227Y-93753512D01*
X122384032Y-94030937D01*
X122030937Y-94384032D01*
X121753512Y-94799227D01*
X121562418Y-95260568D01*
X121465000Y-95750324D01*
X120660000Y-95750324D01*
X120660000Y-92304890D01*
X129368524Y-92304890D01*
X129413175Y-92452099D01*
X129538359Y-92714920D01*
X129712412Y-92948269D01*
X129928645Y-93143178D01*
X130178748Y-93292157D01*
X130453109Y-93389481D01*
X130683000Y-93268814D01*
X130683000Y-92075000D01*
X129489845Y-92075000D01*
X129368524Y-92304890D01*
X120660000Y-92304890D01*
X120660000Y-78232000D01*
X127698219Y-78232000D01*
X127702500Y-78275469D01*
X127702501Y-87142021D01*
X127698219Y-87185500D01*
X127715305Y-87358990D01*
X127765912Y-87525813D01*
X127848090Y-87679559D01*
X127930968Y-87780546D01*
X127930971Y-87780549D01*
X127958684Y-87814317D01*
X127992451Y-87842029D01*
X129339461Y-89189040D01*
X129325000Y-89261740D01*
X129325000Y-89554260D01*
X129382068Y-89841158D01*
X129494010Y-90111411D01*
X129656525Y-90354632D01*
X129863368Y-90561475D01*
X130045534Y-90683195D01*
X129928645Y-90752822D01*
X129712412Y-90947731D01*
X129538359Y-91181080D01*
X129413175Y-91443901D01*
X129368524Y-91591110D01*
X129489845Y-91821000D01*
X130683000Y-91821000D01*
X130683000Y-91801000D01*
X130937000Y-91801000D01*
X130937000Y-91821000D01*
X130957000Y-91821000D01*
X130957000Y-92075000D01*
X130937000Y-92075000D01*
X130937000Y-93268814D01*
X131166891Y-93389481D01*
X131441252Y-93292157D01*
X131691355Y-93143178D01*
X131887502Y-92966374D01*
X131910498Y-93042180D01*
X131969463Y-93152494D01*
X132048815Y-93249185D01*
X132145506Y-93328537D01*
X132255820Y-93387502D01*
X132375518Y-93423812D01*
X132500000Y-93436072D01*
X134200000Y-93436072D01*
X134324482Y-93423812D01*
X134444180Y-93387502D01*
X134554494Y-93328537D01*
X134651185Y-93249185D01*
X134730537Y-93152494D01*
X134789502Y-93042180D01*
X134825812Y-92922482D01*
X134838072Y-92798000D01*
X134838072Y-91098000D01*
X134825812Y-90973518D01*
X134789502Y-90853820D01*
X134730537Y-90743506D01*
X134651185Y-90646815D01*
X134554494Y-90567463D01*
X134444180Y-90508498D01*
X134371620Y-90486487D01*
X134503475Y-90354632D01*
X134665990Y-90111411D01*
X134777932Y-89841158D01*
X134835000Y-89554260D01*
X134835000Y-89261740D01*
X134777932Y-88974842D01*
X134665990Y-88704589D01*
X134503475Y-88461368D01*
X134296632Y-88254525D01*
X134122240Y-88138000D01*
X134296632Y-88021475D01*
X134503475Y-87814632D01*
X134665990Y-87571411D01*
X134777932Y-87301158D01*
X134835000Y-87014260D01*
X134835000Y-86721740D01*
X134791209Y-86501592D01*
X136629650Y-84663152D01*
X136651053Y-84733709D01*
X136732542Y-84886164D01*
X136842208Y-85019792D01*
X136927756Y-85090000D01*
X136842208Y-85160208D01*
X136732542Y-85293836D01*
X136651053Y-85446291D01*
X136600872Y-85611715D01*
X136583928Y-85783750D01*
X136583928Y-86271250D01*
X136600872Y-86443285D01*
X136651053Y-86608709D01*
X136732542Y-86761164D01*
X136842208Y-86894792D01*
X136975836Y-87004458D01*
X137128291Y-87085947D01*
X137162001Y-87096173D01*
X137162001Y-87338668D01*
X137158324Y-87376000D01*
X137162001Y-87413333D01*
X137162604Y-87419451D01*
X137141000Y-87528061D01*
X137141000Y-87731939D01*
X137180774Y-87931898D01*
X137258795Y-88120256D01*
X137372063Y-88289774D01*
X137516226Y-88433937D01*
X137685744Y-88547205D01*
X137874102Y-88625226D01*
X138074061Y-88665000D01*
X138136198Y-88665000D01*
X138316500Y-88845302D01*
X138316500Y-89100742D01*
X138312283Y-89102996D01*
X138206121Y-89190121D01*
X138118996Y-89296283D01*
X138054256Y-89417403D01*
X138014389Y-89548825D01*
X138000928Y-89685500D01*
X138000928Y-89722347D01*
X137953939Y-89713000D01*
X137750061Y-89713000D01*
X137550102Y-89752774D01*
X137361744Y-89830795D01*
X137192226Y-89944063D01*
X137048063Y-90088226D01*
X136934795Y-90257744D01*
X136856774Y-90446102D01*
X136817000Y-90646061D01*
X136817000Y-90849939D01*
X136856774Y-91049898D01*
X136934795Y-91238256D01*
X137048063Y-91407774D01*
X137192226Y-91551937D01*
X137361744Y-91665205D01*
X137550102Y-91743226D01*
X137750061Y-91783000D01*
X137953939Y-91783000D01*
X138153898Y-91743226D01*
X138154499Y-91742977D01*
X138206121Y-91805879D01*
X138312283Y-91893004D01*
X138433403Y-91957744D01*
X138564825Y-91997611D01*
X138701500Y-92011072D01*
X139000928Y-92011072D01*
X139000928Y-92310500D01*
X139014389Y-92447175D01*
X139054256Y-92578597D01*
X139118996Y-92699717D01*
X139206121Y-92805879D01*
X139312283Y-92893004D01*
X139426264Y-92953928D01*
X139240750Y-92953928D01*
X139068715Y-92970872D01*
X138903291Y-93021053D01*
X138750836Y-93102542D01*
X138617208Y-93212208D01*
X138565594Y-93275099D01*
X138477898Y-93238774D01*
X138277939Y-93199000D01*
X138074061Y-93199000D01*
X137874102Y-93238774D01*
X137685744Y-93316795D01*
X137516226Y-93430063D01*
X137372063Y-93574226D01*
X137258795Y-93743744D01*
X137180774Y-93932102D01*
X137141000Y-94132061D01*
X137141000Y-94335939D01*
X137180774Y-94535898D01*
X137258795Y-94724256D01*
X137372063Y-94893774D01*
X137516226Y-95037937D01*
X137685744Y-95151205D01*
X137874102Y-95229226D01*
X138074061Y-95269000D01*
X138277939Y-95269000D01*
X138477898Y-95229226D01*
X138498257Y-95220793D01*
X138507542Y-95238164D01*
X138617208Y-95371792D01*
X138750836Y-95481458D01*
X138903291Y-95562947D01*
X139068715Y-95613128D01*
X139240750Y-95630072D01*
X139728250Y-95630072D01*
X139900285Y-95613128D01*
X140065709Y-95562947D01*
X140218164Y-95481458D01*
X140351792Y-95371792D01*
X140357008Y-95365436D01*
X140420815Y-95443185D01*
X140517506Y-95522537D01*
X140627820Y-95581502D01*
X140747518Y-95617812D01*
X140872000Y-95630072D01*
X141073750Y-95627000D01*
X141232500Y-95468250D01*
X141232500Y-94419000D01*
X141486500Y-94419000D01*
X141486500Y-95468250D01*
X141645250Y-95627000D01*
X141847000Y-95630072D01*
X141971482Y-95617812D01*
X142091180Y-95581502D01*
X142201494Y-95522537D01*
X142298185Y-95443185D01*
X142377537Y-95346494D01*
X142436502Y-95236180D01*
X142472812Y-95116482D01*
X142485072Y-94992000D01*
X142482000Y-94577750D01*
X142323250Y-94419000D01*
X141486500Y-94419000D01*
X141232500Y-94419000D01*
X141212500Y-94419000D01*
X141212500Y-94165000D01*
X141232500Y-94165000D01*
X141232500Y-94145000D01*
X141486500Y-94145000D01*
X141486500Y-94165000D01*
X142323250Y-94165000D01*
X142482000Y-94006250D01*
X142485072Y-93592000D01*
X142472812Y-93467518D01*
X142436502Y-93347820D01*
X142377537Y-93237506D01*
X142298185Y-93140815D01*
X142201494Y-93061463D01*
X142091180Y-93002498D01*
X141971482Y-92966188D01*
X141847000Y-92953928D01*
X141645250Y-92957000D01*
X141486502Y-93115748D01*
X141486502Y-92990535D01*
X141594597Y-92957744D01*
X141715717Y-92893004D01*
X141821879Y-92805879D01*
X141909004Y-92699717D01*
X141973744Y-92578597D01*
X142013611Y-92447175D01*
X142027072Y-92310500D01*
X142027072Y-92011072D01*
X142326500Y-92011072D01*
X142463175Y-91997611D01*
X142594597Y-91957744D01*
X142715717Y-91893004D01*
X142821879Y-91805879D01*
X142909004Y-91699717D01*
X142973744Y-91578597D01*
X143013611Y-91447175D01*
X143027072Y-91310500D01*
X143027072Y-91185500D01*
X143013611Y-91048825D01*
X143006884Y-91026651D01*
X143011874Y-91011435D01*
X143024000Y-90906750D01*
X142888277Y-90771027D01*
X142886286Y-90768601D01*
X142911484Y-90739260D01*
X142959905Y-90653345D01*
X143024000Y-90589250D01*
X143013430Y-90498000D01*
X143024000Y-90406750D01*
X142959905Y-90342655D01*
X142911484Y-90256740D01*
X142886286Y-90227399D01*
X142888277Y-90224973D01*
X143024000Y-90089250D01*
X143011874Y-89984565D01*
X143006884Y-89969349D01*
X143013611Y-89947175D01*
X143027072Y-89810500D01*
X143027072Y-89685500D01*
X143013611Y-89548825D01*
X142973744Y-89417403D01*
X142909004Y-89296283D01*
X142821879Y-89190121D01*
X142746000Y-89127849D01*
X142746000Y-88333711D01*
X142789937Y-88289774D01*
X142903205Y-88120256D01*
X142981226Y-87931898D01*
X143021000Y-87731939D01*
X143021000Y-87528061D01*
X142981226Y-87328102D01*
X142903205Y-87139744D01*
X142844219Y-87051465D01*
X142932164Y-87004458D01*
X143065792Y-86894792D01*
X143175458Y-86761164D01*
X143256947Y-86608709D01*
X143307128Y-86443285D01*
X143324072Y-86271250D01*
X143324072Y-85783750D01*
X143307128Y-85611715D01*
X143256947Y-85446291D01*
X143175458Y-85293836D01*
X143065792Y-85160208D01*
X142980244Y-85090000D01*
X143065792Y-85019792D01*
X143175458Y-84886164D01*
X143256947Y-84733709D01*
X143307128Y-84568285D01*
X143324072Y-84396250D01*
X143324072Y-83908750D01*
X143307128Y-83736715D01*
X143256947Y-83571291D01*
X143175458Y-83418836D01*
X143065792Y-83285208D01*
X142932164Y-83175542D01*
X142779709Y-83094053D01*
X142746000Y-83083827D01*
X142746000Y-82489171D01*
X142855740Y-82511000D01*
X143148260Y-82511000D01*
X143435158Y-82453932D01*
X143705411Y-82341990D01*
X143948632Y-82179475D01*
X144155475Y-81972632D01*
X144317990Y-81729411D01*
X144429932Y-81459158D01*
X144487000Y-81172260D01*
X144487000Y-80879740D01*
X144429932Y-80592842D01*
X144317990Y-80322589D01*
X144155475Y-80079368D01*
X143948632Y-79872525D01*
X143705411Y-79710010D01*
X143435158Y-79598068D01*
X143148260Y-79541000D01*
X142855740Y-79541000D01*
X142568842Y-79598068D01*
X142298589Y-79710010D01*
X142055368Y-79872525D01*
X141848525Y-80079368D01*
X141732000Y-80253760D01*
X141615475Y-80079368D01*
X141408632Y-79872525D01*
X141165411Y-79710010D01*
X140895158Y-79598068D01*
X140608260Y-79541000D01*
X140315740Y-79541000D01*
X140028842Y-79598068D01*
X139758589Y-79710010D01*
X139515368Y-79872525D01*
X139383513Y-80004380D01*
X139361502Y-79931820D01*
X139302537Y-79821506D01*
X139223185Y-79724815D01*
X139126494Y-79645463D01*
X139016180Y-79586498D01*
X138896482Y-79550188D01*
X138772000Y-79537928D01*
X138109872Y-79537928D01*
X138147800Y-79500000D01*
X147091827Y-79500000D01*
X147102053Y-79533709D01*
X147183542Y-79686164D01*
X147242496Y-79758000D01*
X146822495Y-79758000D01*
X146785170Y-79754324D01*
X146747845Y-79758000D01*
X146747837Y-79758000D01*
X146636184Y-79768997D01*
X146492923Y-79812454D01*
X146360894Y-79883026D01*
X146245169Y-79977999D01*
X146221371Y-80006997D01*
X145157998Y-81070371D01*
X145129000Y-81094169D01*
X145105202Y-81123167D01*
X145105201Y-81123168D01*
X145034026Y-81209894D01*
X144963454Y-81341924D01*
X144919998Y-81485185D01*
X144905324Y-81634170D01*
X144909001Y-81671502D01*
X144909000Y-84767920D01*
X144876297Y-84771141D01*
X144737540Y-84813232D01*
X144609660Y-84881585D01*
X144497573Y-84973573D01*
X144405585Y-85085660D01*
X144337232Y-85213540D01*
X144295141Y-85352297D01*
X144280928Y-85496600D01*
X144280928Y-86593400D01*
X144295141Y-86737703D01*
X144328902Y-86849000D01*
X144170061Y-86849000D01*
X143970102Y-86888774D01*
X143781744Y-86966795D01*
X143612226Y-87080063D01*
X143468063Y-87224226D01*
X143354795Y-87393744D01*
X143276774Y-87582102D01*
X143237000Y-87782061D01*
X143237000Y-87985939D01*
X143276774Y-88185898D01*
X143354795Y-88374256D01*
X143468063Y-88543774D01*
X143612226Y-88687937D01*
X143781744Y-88801205D01*
X143970102Y-88879226D01*
X144170061Y-88919000D01*
X144373939Y-88919000D01*
X144411487Y-88911531D01*
X144497573Y-89016427D01*
X144609660Y-89108415D01*
X144737540Y-89176768D01*
X144876297Y-89218859D01*
X145020600Y-89233072D01*
X146317400Y-89233072D01*
X146461703Y-89218859D01*
X146600460Y-89176768D01*
X146728340Y-89108415D01*
X146840427Y-89016427D01*
X146932415Y-88904340D01*
X147000768Y-88776460D01*
X147022445Y-88705000D01*
X147240928Y-88705000D01*
X147240928Y-89293400D01*
X147255141Y-89437703D01*
X147297232Y-89576460D01*
X147357591Y-89689384D01*
X147348463Y-89700506D01*
X147289498Y-89810820D01*
X147253188Y-89930518D01*
X147240928Y-90055000D01*
X147244000Y-90519250D01*
X147402750Y-90678000D01*
X148402000Y-90678000D01*
X148402000Y-90658000D01*
X148656000Y-90658000D01*
X148656000Y-90678000D01*
X148676000Y-90678000D01*
X148676000Y-90932000D01*
X148656000Y-90932000D01*
X148656000Y-90952000D01*
X148402000Y-90952000D01*
X148402000Y-90932000D01*
X147402750Y-90932000D01*
X147244000Y-91090750D01*
X147240928Y-91555000D01*
X147253188Y-91679482D01*
X147289498Y-91799180D01*
X147348463Y-91909494D01*
X147427815Y-92006185D01*
X147524506Y-92085537D01*
X147548934Y-92098594D01*
X147457573Y-92173573D01*
X147365585Y-92285660D01*
X147297232Y-92413540D01*
X147255141Y-92552297D01*
X147240928Y-92696600D01*
X147240928Y-93993400D01*
X147255141Y-94137703D01*
X147297232Y-94276460D01*
X147365585Y-94404340D01*
X147457573Y-94516427D01*
X147569660Y-94608415D01*
X147697540Y-94676768D01*
X147836297Y-94718859D01*
X147980600Y-94733072D01*
X149077400Y-94733072D01*
X149221703Y-94718859D01*
X149360460Y-94676768D01*
X149479000Y-94613407D01*
X149597540Y-94676768D01*
X149681265Y-94702165D01*
X149710708Y-94799227D01*
X149723454Y-94841246D01*
X149794026Y-94973276D01*
X149833871Y-95021826D01*
X149888999Y-95089001D01*
X149918003Y-95112804D01*
X150058196Y-95252997D01*
X150081999Y-95282001D01*
X150197724Y-95376974D01*
X150329753Y-95447546D01*
X150473014Y-95491003D01*
X150584667Y-95502000D01*
X150584676Y-95502000D01*
X150621999Y-95505676D01*
X150659322Y-95502000D01*
X156172678Y-95502000D01*
X156210000Y-95505676D01*
X156247322Y-95502000D01*
X156247333Y-95502000D01*
X156358986Y-95491003D01*
X156502247Y-95447546D01*
X156634276Y-95376974D01*
X156750001Y-95282001D01*
X156773803Y-95252998D01*
X157453730Y-94573072D01*
X157747400Y-94573072D01*
X157891703Y-94558859D01*
X158030460Y-94516768D01*
X158158340Y-94448415D01*
X158270427Y-94356427D01*
X158362415Y-94244340D01*
X158369000Y-94232020D01*
X158375585Y-94244340D01*
X158467573Y-94356427D01*
X158579660Y-94448415D01*
X158707540Y-94516768D01*
X158846297Y-94558859D01*
X158990600Y-94573072D01*
X160287400Y-94573072D01*
X160431703Y-94558859D01*
X160570460Y-94516768D01*
X160698340Y-94448415D01*
X160810427Y-94356427D01*
X160902415Y-94244340D01*
X160970768Y-94116460D01*
X161012859Y-93977703D01*
X161027072Y-93833400D01*
X161027072Y-92736600D01*
X161012859Y-92592297D01*
X160970768Y-92453540D01*
X160907407Y-92335000D01*
X160970768Y-92216460D01*
X161012859Y-92077703D01*
X161027072Y-91933400D01*
X161027072Y-90836600D01*
X161012859Y-90692297D01*
X160970768Y-90553540D01*
X160902415Y-90425660D01*
X160810427Y-90313573D01*
X160698340Y-90221585D01*
X160570460Y-90153232D01*
X160431703Y-90111141D01*
X160399000Y-90107920D01*
X160399000Y-89190255D01*
X160443460Y-89176768D01*
X160571340Y-89108415D01*
X160683427Y-89016427D01*
X160775415Y-88904340D01*
X160843768Y-88776460D01*
X160865445Y-88705000D01*
X163354199Y-88705000D01*
X163743928Y-89094730D01*
X163743928Y-90158000D01*
X163756188Y-90282482D01*
X163792498Y-90402180D01*
X163851463Y-90512494D01*
X163930815Y-90609185D01*
X164027506Y-90688537D01*
X164137820Y-90747502D01*
X164257518Y-90783812D01*
X164382000Y-90796072D01*
X165882000Y-90796072D01*
X166006482Y-90783812D01*
X166126180Y-90747502D01*
X166236494Y-90688537D01*
X166333185Y-90609185D01*
X166412537Y-90512494D01*
X166471502Y-90402180D01*
X166507812Y-90282482D01*
X166520072Y-90158000D01*
X166520072Y-88658000D01*
X166507812Y-88533518D01*
X166471502Y-88413820D01*
X166412537Y-88303506D01*
X166333185Y-88206815D01*
X166236494Y-88127463D01*
X166126180Y-88068498D01*
X166006482Y-88032188D01*
X165898517Y-88021555D01*
X166014886Y-87943799D01*
X166207799Y-87750886D01*
X166359371Y-87524043D01*
X166463775Y-87271989D01*
X166517000Y-87004411D01*
X166517000Y-86731589D01*
X166463775Y-86464011D01*
X166359371Y-86211957D01*
X166207799Y-85985114D01*
X166014886Y-85792201D01*
X165788043Y-85640629D01*
X165535989Y-85536225D01*
X165268411Y-85483000D01*
X164995589Y-85483000D01*
X164850635Y-85511833D01*
X160742804Y-81404003D01*
X160719001Y-81374999D01*
X160607072Y-81283141D01*
X160607072Y-81266600D01*
X160592859Y-81122297D01*
X160550768Y-80983540D01*
X160482415Y-80855660D01*
X160390427Y-80743573D01*
X160278340Y-80651585D01*
X160150460Y-80583232D01*
X160011703Y-80541141D01*
X159867400Y-80526928D01*
X158770600Y-80526928D01*
X158626297Y-80541141D01*
X158487540Y-80583232D01*
X158369000Y-80646593D01*
X158250460Y-80583232D01*
X158111703Y-80541141D01*
X157967400Y-80526928D01*
X156870600Y-80526928D01*
X156726297Y-80541141D01*
X156587540Y-80583232D01*
X156459660Y-80651585D01*
X156347573Y-80743573D01*
X156255585Y-80855660D01*
X156187232Y-80983540D01*
X156145141Y-81122297D01*
X156141920Y-81155000D01*
X155516080Y-81155000D01*
X155512859Y-81122297D01*
X155470768Y-80983540D01*
X155402415Y-80855660D01*
X155310427Y-80743573D01*
X155198340Y-80651585D01*
X155070460Y-80583232D01*
X154931703Y-80541141D01*
X154787400Y-80526928D01*
X153690600Y-80526928D01*
X153546297Y-80541141D01*
X153407540Y-80583232D01*
X153289000Y-80646593D01*
X153170460Y-80583232D01*
X153031703Y-80541141D01*
X152887400Y-80526928D01*
X151790600Y-80526928D01*
X151646297Y-80541141D01*
X151507540Y-80583232D01*
X151379660Y-80651585D01*
X151267573Y-80743573D01*
X151175585Y-80855660D01*
X151107232Y-80983540D01*
X151065141Y-81122297D01*
X151061920Y-81155000D01*
X150436080Y-81155000D01*
X150432859Y-81122297D01*
X150390768Y-80983540D01*
X150322415Y-80855660D01*
X150230427Y-80743573D01*
X150118340Y-80651585D01*
X149990460Y-80583232D01*
X149865977Y-80545471D01*
X149864546Y-80540753D01*
X149793974Y-80408724D01*
X149699001Y-80292999D01*
X149669998Y-80269197D01*
X149407804Y-80007003D01*
X149384001Y-79977999D01*
X149367847Y-79964741D01*
X149454291Y-80010947D01*
X149619715Y-80061128D01*
X149791750Y-80078072D01*
X150279250Y-80078072D01*
X150451285Y-80061128D01*
X150616709Y-80010947D01*
X150769164Y-79929458D01*
X150902792Y-79819792D01*
X151012458Y-79686164D01*
X151093947Y-79533709D01*
X151104173Y-79500000D01*
X151460951Y-79500000D01*
X151549820Y-79547502D01*
X151669518Y-79583812D01*
X151794000Y-79596072D01*
X153794000Y-79596072D01*
X153918482Y-79583812D01*
X154038180Y-79547502D01*
X154148494Y-79488537D01*
X154245185Y-79409185D01*
X154324537Y-79312494D01*
X154383502Y-79202180D01*
X154419812Y-79082482D01*
X154432072Y-78958000D01*
X154432072Y-77858000D01*
X154419812Y-77733518D01*
X154383502Y-77613820D01*
X154353665Y-77558000D01*
X154383502Y-77502180D01*
X154419812Y-77382482D01*
X154432072Y-77258000D01*
X154432072Y-76158000D01*
X154419812Y-76033518D01*
X154383502Y-75913820D01*
X154353665Y-75858000D01*
X154383502Y-75802180D01*
X154419812Y-75682482D01*
X154432072Y-75558000D01*
X154432072Y-74458000D01*
X155955928Y-74458000D01*
X155955928Y-75558000D01*
X155968188Y-75682482D01*
X156004498Y-75802180D01*
X156034335Y-75858000D01*
X156004498Y-75913820D01*
X155968188Y-76033518D01*
X155955928Y-76158000D01*
X155955928Y-77258000D01*
X155968188Y-77382482D01*
X156004498Y-77502180D01*
X156034335Y-77558000D01*
X156004498Y-77613820D01*
X155968188Y-77733518D01*
X155955928Y-77858000D01*
X155955928Y-78958000D01*
X155968188Y-79082482D01*
X156004498Y-79202180D01*
X156063463Y-79312494D01*
X156142815Y-79409185D01*
X156239506Y-79488537D01*
X156349820Y-79547502D01*
X156469518Y-79583812D01*
X156594000Y-79596072D01*
X158594000Y-79596072D01*
X158718482Y-79583812D01*
X158838180Y-79547502D01*
X158948494Y-79488537D01*
X159045185Y-79409185D01*
X159124537Y-79312494D01*
X159183502Y-79202180D01*
X159219812Y-79082482D01*
X159232072Y-78958000D01*
X159232072Y-77858000D01*
X159219812Y-77733518D01*
X159210656Y-77703336D01*
X159410061Y-77743000D01*
X159613939Y-77743000D01*
X159813898Y-77703226D01*
X160002256Y-77625205D01*
X160171774Y-77511937D01*
X160315937Y-77367774D01*
X160429205Y-77198256D01*
X160507226Y-77009898D01*
X160547000Y-76809939D01*
X160547000Y-76606061D01*
X160507226Y-76406102D01*
X160429205Y-76217744D01*
X160315937Y-76048226D01*
X160171774Y-75904063D01*
X160002256Y-75790795D01*
X159813898Y-75712774D01*
X159613939Y-75673000D01*
X159410061Y-75673000D01*
X159210656Y-75712664D01*
X159219812Y-75682482D01*
X159232072Y-75558000D01*
X159232072Y-74458000D01*
X159219812Y-74333518D01*
X159183502Y-74213820D01*
X159124537Y-74103506D01*
X159045185Y-74006815D01*
X158948494Y-73927463D01*
X158838180Y-73868498D01*
X158718482Y-73832188D01*
X158594000Y-73819928D01*
X156594000Y-73819928D01*
X156469518Y-73832188D01*
X156349820Y-73868498D01*
X156239506Y-73927463D01*
X156142815Y-74006815D01*
X156063463Y-74103506D01*
X156004498Y-74213820D01*
X155968188Y-74333518D01*
X155955928Y-74458000D01*
X154432072Y-74458000D01*
X154419812Y-74333518D01*
X154383502Y-74213820D01*
X154324537Y-74103506D01*
X154245185Y-74006815D01*
X154148494Y-73927463D01*
X154038180Y-73868498D01*
X153918482Y-73832188D01*
X153794000Y-73819928D01*
X151794000Y-73819928D01*
X151669518Y-73832188D01*
X151549820Y-73868498D01*
X151483401Y-73904000D01*
X151104173Y-73904000D01*
X151093947Y-73870291D01*
X151029824Y-73750324D01*
X167465000Y-73750324D01*
X167465000Y-74249676D01*
X167562418Y-74739432D01*
X167753512Y-75200773D01*
X168030937Y-75615968D01*
X168384032Y-75969063D01*
X168799227Y-76246488D01*
X169260568Y-76437582D01*
X169750324Y-76535000D01*
X170249676Y-76535000D01*
X170739432Y-76437582D01*
X171200773Y-76246488D01*
X171615968Y-75969063D01*
X171969063Y-75615968D01*
X172246488Y-75200773D01*
X172437582Y-74739432D01*
X172535000Y-74249676D01*
X172535000Y-73750324D01*
X172437582Y-73260568D01*
X172246488Y-72799227D01*
X171969063Y-72384032D01*
X171615968Y-72030937D01*
X171200773Y-71753512D01*
X170739432Y-71562418D01*
X170249676Y-71465000D01*
X169750324Y-71465000D01*
X169260568Y-71562418D01*
X168799227Y-71753512D01*
X168384032Y-72030937D01*
X168030937Y-72384032D01*
X167753512Y-72799227D01*
X167562418Y-73260568D01*
X167465000Y-73750324D01*
X151029824Y-73750324D01*
X151012458Y-73717836D01*
X150902792Y-73584208D01*
X150769164Y-73474542D01*
X150616709Y-73393053D01*
X150451285Y-73342872D01*
X150279250Y-73325928D01*
X149791750Y-73325928D01*
X149619715Y-73342872D01*
X149454291Y-73393053D01*
X149301836Y-73474542D01*
X149168208Y-73584208D01*
X149098000Y-73669756D01*
X149027792Y-73584208D01*
X148894164Y-73474542D01*
X148741709Y-73393053D01*
X148576285Y-73342872D01*
X148404250Y-73325928D01*
X147916750Y-73325928D01*
X147744715Y-73342872D01*
X147579291Y-73393053D01*
X147426836Y-73474542D01*
X147293208Y-73584208D01*
X147183542Y-73717836D01*
X147102053Y-73870291D01*
X147091827Y-73904000D01*
X140532080Y-73904000D01*
X140494757Y-73900324D01*
X140457434Y-73904000D01*
X140457425Y-73904000D01*
X140345772Y-73914997D01*
X140202511Y-73958454D01*
X140070482Y-74029026D01*
X140055814Y-74041064D01*
X139983754Y-74100201D01*
X139983750Y-74100205D01*
X139954757Y-74123999D01*
X139930963Y-74152992D01*
X134835000Y-79248956D01*
X134835000Y-79101740D01*
X134777932Y-78814842D01*
X134665990Y-78544589D01*
X134503475Y-78301368D01*
X134296632Y-78094525D01*
X134053411Y-77932010D01*
X133783158Y-77820068D01*
X133496260Y-77763000D01*
X133203740Y-77763000D01*
X132916842Y-77820068D01*
X132646589Y-77932010D01*
X132403368Y-78094525D01*
X132196525Y-78301368D01*
X132080000Y-78475760D01*
X131963475Y-78301368D01*
X131756632Y-78094525D01*
X131513411Y-77932010D01*
X131243158Y-77820068D01*
X130956260Y-77763000D01*
X130663740Y-77763000D01*
X130376842Y-77820068D01*
X130162035Y-77909044D01*
X131001079Y-77070000D01*
X131783785Y-77070000D01*
X131895836Y-77161958D01*
X132048291Y-77243447D01*
X132213715Y-77293628D01*
X132385750Y-77310572D01*
X133298250Y-77310572D01*
X133470285Y-77293628D01*
X133635709Y-77243447D01*
X133788164Y-77161958D01*
X133867139Y-77097145D01*
X133927836Y-77146958D01*
X134080291Y-77228447D01*
X134245715Y-77278628D01*
X134417750Y-77295572D01*
X135330250Y-77295572D01*
X135502285Y-77278628D01*
X135667709Y-77228447D01*
X135820164Y-77146958D01*
X135953792Y-77037292D01*
X136063458Y-76903664D01*
X136144947Y-76751209D01*
X136195128Y-76585785D01*
X136212072Y-76413750D01*
X136212072Y-75926250D01*
X136195128Y-75754215D01*
X136144947Y-75588791D01*
X136063458Y-75436336D01*
X135953792Y-75302708D01*
X135868244Y-75232500D01*
X135953792Y-75162292D01*
X136063458Y-75028664D01*
X136144947Y-74876209D01*
X136195128Y-74710785D01*
X136212072Y-74538750D01*
X136212072Y-74051250D01*
X136195128Y-73879215D01*
X136144947Y-73713791D01*
X136063458Y-73561336D01*
X135953792Y-73427708D01*
X135820164Y-73318042D01*
X135667709Y-73236553D01*
X135502285Y-73186372D01*
X135330250Y-73169428D01*
X134417750Y-73169428D01*
X134245715Y-73186372D01*
X134080291Y-73236553D01*
X133927836Y-73318042D01*
X133848861Y-73382855D01*
X133788164Y-73333042D01*
X133783179Y-73330378D01*
X133837226Y-73199898D01*
X133877000Y-72999939D01*
X133877000Y-72796061D01*
X133837226Y-72596102D01*
X133759205Y-72407744D01*
X133645937Y-72238226D01*
X133501774Y-72094063D01*
X133332256Y-71980795D01*
X133143898Y-71902774D01*
X132943939Y-71863000D01*
X132740061Y-71863000D01*
X132540102Y-71902774D01*
X132351744Y-71980795D01*
X132182226Y-72094063D01*
X132038063Y-72238226D01*
X131924795Y-72407744D01*
X131846774Y-72596102D01*
X131807000Y-72796061D01*
X131807000Y-72999939D01*
X131846774Y-73199898D01*
X131900821Y-73330378D01*
X131895836Y-73333042D01*
X131762208Y-73442708D01*
X131652542Y-73576336D01*
X131571053Y-73728791D01*
X131520872Y-73894215D01*
X131503928Y-74066250D01*
X131503928Y-74553750D01*
X131520872Y-74725785D01*
X131571053Y-74891209D01*
X131652542Y-75043664D01*
X131762208Y-75177292D01*
X131847756Y-75247500D01*
X131783785Y-75300000D01*
X130677965Y-75300000D01*
X130634499Y-75295719D01*
X130591033Y-75300000D01*
X130591023Y-75300000D01*
X130461010Y-75312805D01*
X130294187Y-75363411D01*
X130140441Y-75445589D01*
X130140439Y-75445590D01*
X130140440Y-75445590D01*
X130039453Y-75528468D01*
X130039451Y-75528470D01*
X130005683Y-75556183D01*
X129977970Y-75589951D01*
X127992456Y-77575466D01*
X127958683Y-77603183D01*
X127848089Y-77737942D01*
X127765911Y-77891688D01*
X127715305Y-78058511D01*
X127702500Y-78188524D01*
X127702500Y-78188531D01*
X127698219Y-78232000D01*
X120660000Y-78232000D01*
X120660000Y-74032278D01*
X120687645Y-73750324D01*
X121465000Y-73750324D01*
X121465000Y-74249676D01*
X121562418Y-74739432D01*
X121753512Y-75200773D01*
X122030937Y-75615968D01*
X122384032Y-75969063D01*
X122799227Y-76246488D01*
X123260568Y-76437582D01*
X123750324Y-76535000D01*
X124249676Y-76535000D01*
X124739432Y-76437582D01*
X125200773Y-76246488D01*
X125615968Y-75969063D01*
X125969063Y-75615968D01*
X126246488Y-75200773D01*
X126437582Y-74739432D01*
X126535000Y-74249676D01*
X126535000Y-73750324D01*
X126437582Y-73260568D01*
X126246488Y-72799227D01*
X125969063Y-72384032D01*
X125615968Y-72030937D01*
X125200773Y-71753512D01*
X124739432Y-71562418D01*
X124249676Y-71465000D01*
X123750324Y-71465000D01*
X123260568Y-71562418D01*
X122799227Y-71753512D01*
X122384032Y-72030937D01*
X122030937Y-72384032D01*
X121753512Y-72799227D01*
X121562418Y-73260568D01*
X121465000Y-73750324D01*
X120687645Y-73750324D01*
X120726714Y-73351874D01*
X120914943Y-72728428D01*
X121220681Y-72153421D01*
X121632279Y-71648753D01*
X122134067Y-71233638D01*
X122706924Y-70923895D01*
X123329039Y-70731318D01*
X124007584Y-70660000D01*
X169967722Y-70660000D01*
X170648126Y-70726714D01*
G37*
X170648126Y-70726714D02*
X171271572Y-70914943D01*
X171846579Y-71220681D01*
X172351247Y-71632279D01*
X172766362Y-72134067D01*
X173076105Y-72706924D01*
X173268682Y-73329039D01*
X173340000Y-74007584D01*
X173340001Y-95967711D01*
X173273286Y-96648126D01*
X173085057Y-97271570D01*
X172779323Y-97846573D01*
X172367721Y-98351248D01*
X171865933Y-98766362D01*
X171293077Y-99076104D01*
X170670961Y-99268682D01*
X169992417Y-99340000D01*
X148967581Y-99340000D01*
X148934613Y-99343247D01*
X148921633Y-99343247D01*
X148912468Y-99344210D01*
X148718518Y-99365965D01*
X148660019Y-99378400D01*
X148601325Y-99390022D01*
X148592522Y-99392747D01*
X148482093Y-99427777D01*
X148328145Y-99364010D01*
X148157165Y-99330000D01*
X147982835Y-99330000D01*
X147811855Y-99364010D01*
X147695000Y-99412413D01*
X147578145Y-99364010D01*
X147407165Y-99330000D01*
X147232835Y-99330000D01*
X147061855Y-99364010D01*
X146945000Y-99412413D01*
X146828145Y-99364010D01*
X146657165Y-99330000D01*
X146482835Y-99330000D01*
X146311855Y-99364010D01*
X146150795Y-99430723D01*
X146005845Y-99527576D01*
X145914891Y-99618530D01*
X145871349Y-99588716D01*
X145863243Y-99584333D01*
X145690921Y-99492708D01*
X145635606Y-99469909D01*
X145580634Y-99446348D01*
X145571831Y-99443623D01*
X145384995Y-99387214D01*
X145326307Y-99375594D01*
X145267804Y-99363158D01*
X145258639Y-99362195D01*
X145064405Y-99343150D01*
X145064402Y-99343150D01*
X145032419Y-99340000D01*
X124032279Y-99340000D01*
X123351874Y-99273286D01*
X122728430Y-99085057D01*
X122153427Y-98779323D01*
X121648752Y-98367721D01*
X121233638Y-97865933D01*
X120923896Y-97293077D01*
X120731318Y-96670961D01*
X120660000Y-95992417D01*
X120660000Y-95750324D01*
X121465000Y-95750324D01*
X121465000Y-96249676D01*
X121562418Y-96739432D01*
X121753512Y-97200773D01*
X122030937Y-97615968D01*
X122384032Y-97969063D01*
X122799227Y-98246488D01*
X123260568Y-98437582D01*
X123750324Y-98535000D01*
X124249676Y-98535000D01*
X124739432Y-98437582D01*
X125200773Y-98246488D01*
X125615968Y-97969063D01*
X125969063Y-97615968D01*
X126246488Y-97200773D01*
X126437582Y-96739432D01*
X126535000Y-96249676D01*
X126535000Y-95750324D01*
X167465000Y-95750324D01*
X167465000Y-96249676D01*
X167562418Y-96739432D01*
X167753512Y-97200773D01*
X168030937Y-97615968D01*
X168384032Y-97969063D01*
X168799227Y-98246488D01*
X169260568Y-98437582D01*
X169750324Y-98535000D01*
X170249676Y-98535000D01*
X170739432Y-98437582D01*
X171200773Y-98246488D01*
X171615968Y-97969063D01*
X171969063Y-97615968D01*
X172246488Y-97200773D01*
X172437582Y-96739432D01*
X172535000Y-96249676D01*
X172535000Y-95750324D01*
X172437582Y-95260568D01*
X172246488Y-94799227D01*
X171969063Y-94384032D01*
X171615968Y-94030937D01*
X171200773Y-93753512D01*
X170739432Y-93562418D01*
X170249676Y-93465000D01*
X169750324Y-93465000D01*
X169260568Y-93562418D01*
X168799227Y-93753512D01*
X168384032Y-94030937D01*
X168030937Y-94384032D01*
X167753512Y-94799227D01*
X167562418Y-95260568D01*
X167465000Y-95750324D01*
X126535000Y-95750324D01*
X126437582Y-95260568D01*
X126246488Y-94799227D01*
X125969063Y-94384032D01*
X125615968Y-94030937D01*
X125200773Y-93753512D01*
X124739432Y-93562418D01*
X124249676Y-93465000D01*
X123750324Y-93465000D01*
X123260568Y-93562418D01*
X122799227Y-93753512D01*
X122384032Y-94030937D01*
X122030937Y-94384032D01*
X121753512Y-94799227D01*
X121562418Y-95260568D01*
X121465000Y-95750324D01*
X120660000Y-95750324D01*
X120660000Y-92304890D01*
X129368524Y-92304890D01*
X129413175Y-92452099D01*
X129538359Y-92714920D01*
X129712412Y-92948269D01*
X129928645Y-93143178D01*
X130178748Y-93292157D01*
X130453109Y-93389481D01*
X130683000Y-93268814D01*
X130683000Y-92075000D01*
X129489845Y-92075000D01*
X129368524Y-92304890D01*
X120660000Y-92304890D01*
X120660000Y-78232000D01*
X127698219Y-78232000D01*
X127702500Y-78275469D01*
X127702501Y-87142021D01*
X127698219Y-87185500D01*
X127715305Y-87358990D01*
X127765912Y-87525813D01*
X127848090Y-87679559D01*
X127930968Y-87780546D01*
X127930971Y-87780549D01*
X127958684Y-87814317D01*
X127992451Y-87842029D01*
X129339461Y-89189040D01*
X129325000Y-89261740D01*
X129325000Y-89554260D01*
X129382068Y-89841158D01*
X129494010Y-90111411D01*
X129656525Y-90354632D01*
X129863368Y-90561475D01*
X130045534Y-90683195D01*
X129928645Y-90752822D01*
X129712412Y-90947731D01*
X129538359Y-91181080D01*
X129413175Y-91443901D01*
X129368524Y-91591110D01*
X129489845Y-91821000D01*
X130683000Y-91821000D01*
X130683000Y-91801000D01*
X130937000Y-91801000D01*
X130937000Y-91821000D01*
X130957000Y-91821000D01*
X130957000Y-92075000D01*
X130937000Y-92075000D01*
X130937000Y-93268814D01*
X131166891Y-93389481D01*
X131441252Y-93292157D01*
X131691355Y-93143178D01*
X131887502Y-92966374D01*
X131910498Y-93042180D01*
X131969463Y-93152494D01*
X132048815Y-93249185D01*
X132145506Y-93328537D01*
X132255820Y-93387502D01*
X132375518Y-93423812D01*
X132500000Y-93436072D01*
X134200000Y-93436072D01*
X134324482Y-93423812D01*
X134444180Y-93387502D01*
X134554494Y-93328537D01*
X134651185Y-93249185D01*
X134730537Y-93152494D01*
X134789502Y-93042180D01*
X134825812Y-92922482D01*
X134838072Y-92798000D01*
X134838072Y-91098000D01*
X134825812Y-90973518D01*
X134789502Y-90853820D01*
X134730537Y-90743506D01*
X134651185Y-90646815D01*
X134554494Y-90567463D01*
X134444180Y-90508498D01*
X134371620Y-90486487D01*
X134503475Y-90354632D01*
X134665990Y-90111411D01*
X134777932Y-89841158D01*
X134835000Y-89554260D01*
X134835000Y-89261740D01*
X134777932Y-88974842D01*
X134665990Y-88704589D01*
X134503475Y-88461368D01*
X134296632Y-88254525D01*
X134122240Y-88138000D01*
X134296632Y-88021475D01*
X134503475Y-87814632D01*
X134665990Y-87571411D01*
X134777932Y-87301158D01*
X134835000Y-87014260D01*
X134835000Y-86721740D01*
X134791209Y-86501592D01*
X136629650Y-84663152D01*
X136651053Y-84733709D01*
X136732542Y-84886164D01*
X136842208Y-85019792D01*
X136927756Y-85090000D01*
X136842208Y-85160208D01*
X136732542Y-85293836D01*
X136651053Y-85446291D01*
X136600872Y-85611715D01*
X136583928Y-85783750D01*
X136583928Y-86271250D01*
X136600872Y-86443285D01*
X136651053Y-86608709D01*
X136732542Y-86761164D01*
X136842208Y-86894792D01*
X136975836Y-87004458D01*
X137128291Y-87085947D01*
X137162001Y-87096173D01*
X137162001Y-87338668D01*
X137158324Y-87376000D01*
X137162001Y-87413333D01*
X137162604Y-87419451D01*
X137141000Y-87528061D01*
X137141000Y-87731939D01*
X137180774Y-87931898D01*
X137258795Y-88120256D01*
X137372063Y-88289774D01*
X137516226Y-88433937D01*
X137685744Y-88547205D01*
X137874102Y-88625226D01*
X138074061Y-88665000D01*
X138136198Y-88665000D01*
X138316500Y-88845302D01*
X138316500Y-89100742D01*
X138312283Y-89102996D01*
X138206121Y-89190121D01*
X138118996Y-89296283D01*
X138054256Y-89417403D01*
X138014389Y-89548825D01*
X138000928Y-89685500D01*
X138000928Y-89722347D01*
X137953939Y-89713000D01*
X137750061Y-89713000D01*
X137550102Y-89752774D01*
X137361744Y-89830795D01*
X137192226Y-89944063D01*
X137048063Y-90088226D01*
X136934795Y-90257744D01*
X136856774Y-90446102D01*
X136817000Y-90646061D01*
X136817000Y-90849939D01*
X136856774Y-91049898D01*
X136934795Y-91238256D01*
X137048063Y-91407774D01*
X137192226Y-91551937D01*
X137361744Y-91665205D01*
X137550102Y-91743226D01*
X137750061Y-91783000D01*
X137953939Y-91783000D01*
X138153898Y-91743226D01*
X138154499Y-91742977D01*
X138206121Y-91805879D01*
X138312283Y-91893004D01*
X138433403Y-91957744D01*
X138564825Y-91997611D01*
X138701500Y-92011072D01*
X139000928Y-92011072D01*
X139000928Y-92310500D01*
X139014389Y-92447175D01*
X139054256Y-92578597D01*
X139118996Y-92699717D01*
X139206121Y-92805879D01*
X139312283Y-92893004D01*
X139426264Y-92953928D01*
X139240750Y-92953928D01*
X139068715Y-92970872D01*
X138903291Y-93021053D01*
X138750836Y-93102542D01*
X138617208Y-93212208D01*
X138565594Y-93275099D01*
X138477898Y-93238774D01*
X138277939Y-93199000D01*
X138074061Y-93199000D01*
X137874102Y-93238774D01*
X137685744Y-93316795D01*
X137516226Y-93430063D01*
X137372063Y-93574226D01*
X137258795Y-93743744D01*
X137180774Y-93932102D01*
X137141000Y-94132061D01*
X137141000Y-94335939D01*
X137180774Y-94535898D01*
X137258795Y-94724256D01*
X137372063Y-94893774D01*
X137516226Y-95037937D01*
X137685744Y-95151205D01*
X137874102Y-95229226D01*
X138074061Y-95269000D01*
X138277939Y-95269000D01*
X138477898Y-95229226D01*
X138498257Y-95220793D01*
X138507542Y-95238164D01*
X138617208Y-95371792D01*
X138750836Y-95481458D01*
X138903291Y-95562947D01*
X139068715Y-95613128D01*
X139240750Y-95630072D01*
X139728250Y-95630072D01*
X139900285Y-95613128D01*
X140065709Y-95562947D01*
X140218164Y-95481458D01*
X140351792Y-95371792D01*
X140357008Y-95365436D01*
X140420815Y-95443185D01*
X140517506Y-95522537D01*
X140627820Y-95581502D01*
X140747518Y-95617812D01*
X140872000Y-95630072D01*
X141073750Y-95627000D01*
X141232500Y-95468250D01*
X141232500Y-94419000D01*
X141486500Y-94419000D01*
X141486500Y-95468250D01*
X141645250Y-95627000D01*
X141847000Y-95630072D01*
X141971482Y-95617812D01*
X142091180Y-95581502D01*
X142201494Y-95522537D01*
X142298185Y-95443185D01*
X142377537Y-95346494D01*
X142436502Y-95236180D01*
X142472812Y-95116482D01*
X142485072Y-94992000D01*
X142482000Y-94577750D01*
X142323250Y-94419000D01*
X141486500Y-94419000D01*
X141232500Y-94419000D01*
X141212500Y-94419000D01*
X141212500Y-94165000D01*
X141232500Y-94165000D01*
X141232500Y-94145000D01*
X141486500Y-94145000D01*
X141486500Y-94165000D01*
X142323250Y-94165000D01*
X142482000Y-94006250D01*
X142485072Y-93592000D01*
X142472812Y-93467518D01*
X142436502Y-93347820D01*
X142377537Y-93237506D01*
X142298185Y-93140815D01*
X142201494Y-93061463D01*
X142091180Y-93002498D01*
X141971482Y-92966188D01*
X141847000Y-92953928D01*
X141645250Y-92957000D01*
X141486502Y-93115748D01*
X141486502Y-92990535D01*
X141594597Y-92957744D01*
X141715717Y-92893004D01*
X141821879Y-92805879D01*
X141909004Y-92699717D01*
X141973744Y-92578597D01*
X142013611Y-92447175D01*
X142027072Y-92310500D01*
X142027072Y-92011072D01*
X142326500Y-92011072D01*
X142463175Y-91997611D01*
X142594597Y-91957744D01*
X142715717Y-91893004D01*
X142821879Y-91805879D01*
X142909004Y-91699717D01*
X142973744Y-91578597D01*
X143013611Y-91447175D01*
X143027072Y-91310500D01*
X143027072Y-91185500D01*
X143013611Y-91048825D01*
X143006884Y-91026651D01*
X143011874Y-91011435D01*
X143024000Y-90906750D01*
X142888277Y-90771027D01*
X142886286Y-90768601D01*
X142911484Y-90739260D01*
X142959905Y-90653345D01*
X143024000Y-90589250D01*
X143013430Y-90498000D01*
X143024000Y-90406750D01*
X142959905Y-90342655D01*
X142911484Y-90256740D01*
X142886286Y-90227399D01*
X142888277Y-90224973D01*
X143024000Y-90089250D01*
X143011874Y-89984565D01*
X143006884Y-89969349D01*
X143013611Y-89947175D01*
X143027072Y-89810500D01*
X143027072Y-89685500D01*
X143013611Y-89548825D01*
X142973744Y-89417403D01*
X142909004Y-89296283D01*
X142821879Y-89190121D01*
X142746000Y-89127849D01*
X142746000Y-88333711D01*
X142789937Y-88289774D01*
X142903205Y-88120256D01*
X142981226Y-87931898D01*
X143021000Y-87731939D01*
X143021000Y-87528061D01*
X142981226Y-87328102D01*
X142903205Y-87139744D01*
X142844219Y-87051465D01*
X142932164Y-87004458D01*
X143065792Y-86894792D01*
X143175458Y-86761164D01*
X143256947Y-86608709D01*
X143307128Y-86443285D01*
X143324072Y-86271250D01*
X143324072Y-85783750D01*
X143307128Y-85611715D01*
X143256947Y-85446291D01*
X143175458Y-85293836D01*
X143065792Y-85160208D01*
X142980244Y-85090000D01*
X143065792Y-85019792D01*
X143175458Y-84886164D01*
X143256947Y-84733709D01*
X143307128Y-84568285D01*
X143324072Y-84396250D01*
X143324072Y-83908750D01*
X143307128Y-83736715D01*
X143256947Y-83571291D01*
X143175458Y-83418836D01*
X143065792Y-83285208D01*
X142932164Y-83175542D01*
X142779709Y-83094053D01*
X142746000Y-83083827D01*
X142746000Y-82489171D01*
X142855740Y-82511000D01*
X143148260Y-82511000D01*
X143435158Y-82453932D01*
X143705411Y-82341990D01*
X143948632Y-82179475D01*
X144155475Y-81972632D01*
X144317990Y-81729411D01*
X144429932Y-81459158D01*
X144487000Y-81172260D01*
X144487000Y-80879740D01*
X144429932Y-80592842D01*
X144317990Y-80322589D01*
X144155475Y-80079368D01*
X143948632Y-79872525D01*
X143705411Y-79710010D01*
X143435158Y-79598068D01*
X143148260Y-79541000D01*
X142855740Y-79541000D01*
X142568842Y-79598068D01*
X142298589Y-79710010D01*
X142055368Y-79872525D01*
X141848525Y-80079368D01*
X141732000Y-80253760D01*
X141615475Y-80079368D01*
X141408632Y-79872525D01*
X141165411Y-79710010D01*
X140895158Y-79598068D01*
X140608260Y-79541000D01*
X140315740Y-79541000D01*
X140028842Y-79598068D01*
X139758589Y-79710010D01*
X139515368Y-79872525D01*
X139383513Y-80004380D01*
X139361502Y-79931820D01*
X139302537Y-79821506D01*
X139223185Y-79724815D01*
X139126494Y-79645463D01*
X139016180Y-79586498D01*
X138896482Y-79550188D01*
X138772000Y-79537928D01*
X138109872Y-79537928D01*
X138147800Y-79500000D01*
X147091827Y-79500000D01*
X147102053Y-79533709D01*
X147183542Y-79686164D01*
X147242496Y-79758000D01*
X146822495Y-79758000D01*
X146785170Y-79754324D01*
X146747845Y-79758000D01*
X146747837Y-79758000D01*
X146636184Y-79768997D01*
X146492923Y-79812454D01*
X146360894Y-79883026D01*
X146245169Y-79977999D01*
X146221371Y-80006997D01*
X145157998Y-81070371D01*
X145129000Y-81094169D01*
X145105202Y-81123167D01*
X145105201Y-81123168D01*
X145034026Y-81209894D01*
X144963454Y-81341924D01*
X144919998Y-81485185D01*
X144905324Y-81634170D01*
X144909001Y-81671502D01*
X144909000Y-84767920D01*
X144876297Y-84771141D01*
X144737540Y-84813232D01*
X144609660Y-84881585D01*
X144497573Y-84973573D01*
X144405585Y-85085660D01*
X144337232Y-85213540D01*
X144295141Y-85352297D01*
X144280928Y-85496600D01*
X144280928Y-86593400D01*
X144295141Y-86737703D01*
X144328902Y-86849000D01*
X144170061Y-86849000D01*
X143970102Y-86888774D01*
X143781744Y-86966795D01*
X143612226Y-87080063D01*
X143468063Y-87224226D01*
X143354795Y-87393744D01*
X143276774Y-87582102D01*
X143237000Y-87782061D01*
X143237000Y-87985939D01*
X143276774Y-88185898D01*
X143354795Y-88374256D01*
X143468063Y-88543774D01*
X143612226Y-88687937D01*
X143781744Y-88801205D01*
X143970102Y-88879226D01*
X144170061Y-88919000D01*
X144373939Y-88919000D01*
X144411487Y-88911531D01*
X144497573Y-89016427D01*
X144609660Y-89108415D01*
X144737540Y-89176768D01*
X144876297Y-89218859D01*
X145020600Y-89233072D01*
X146317400Y-89233072D01*
X146461703Y-89218859D01*
X146600460Y-89176768D01*
X146728340Y-89108415D01*
X146840427Y-89016427D01*
X146932415Y-88904340D01*
X147000768Y-88776460D01*
X147022445Y-88705000D01*
X147240928Y-88705000D01*
X147240928Y-89293400D01*
X147255141Y-89437703D01*
X147297232Y-89576460D01*
X147357591Y-89689384D01*
X147348463Y-89700506D01*
X147289498Y-89810820D01*
X147253188Y-89930518D01*
X147240928Y-90055000D01*
X147244000Y-90519250D01*
X147402750Y-90678000D01*
X148402000Y-90678000D01*
X148402000Y-90658000D01*
X148656000Y-90658000D01*
X148656000Y-90678000D01*
X148676000Y-90678000D01*
X148676000Y-90932000D01*
X148656000Y-90932000D01*
X148656000Y-90952000D01*
X148402000Y-90952000D01*
X148402000Y-90932000D01*
X147402750Y-90932000D01*
X147244000Y-91090750D01*
X147240928Y-91555000D01*
X147253188Y-91679482D01*
X147289498Y-91799180D01*
X147348463Y-91909494D01*
X147427815Y-92006185D01*
X147524506Y-92085537D01*
X147548934Y-92098594D01*
X147457573Y-92173573D01*
X147365585Y-92285660D01*
X147297232Y-92413540D01*
X147255141Y-92552297D01*
X147240928Y-92696600D01*
X147240928Y-93993400D01*
X147255141Y-94137703D01*
X147297232Y-94276460D01*
X147365585Y-94404340D01*
X147457573Y-94516427D01*
X147569660Y-94608415D01*
X147697540Y-94676768D01*
X147836297Y-94718859D01*
X147980600Y-94733072D01*
X149077400Y-94733072D01*
X149221703Y-94718859D01*
X149360460Y-94676768D01*
X149479000Y-94613407D01*
X149597540Y-94676768D01*
X149681265Y-94702165D01*
X149710708Y-94799227D01*
X149723454Y-94841246D01*
X149794026Y-94973276D01*
X149833871Y-95021826D01*
X149888999Y-95089001D01*
X149918003Y-95112804D01*
X150058196Y-95252997D01*
X150081999Y-95282001D01*
X150197724Y-95376974D01*
X150329753Y-95447546D01*
X150473014Y-95491003D01*
X150584667Y-95502000D01*
X150584676Y-95502000D01*
X150621999Y-95505676D01*
X150659322Y-95502000D01*
X156172678Y-95502000D01*
X156210000Y-95505676D01*
X156247322Y-95502000D01*
X156247333Y-95502000D01*
X156358986Y-95491003D01*
X156502247Y-95447546D01*
X156634276Y-95376974D01*
X156750001Y-95282001D01*
X156773803Y-95252998D01*
X157453730Y-94573072D01*
X157747400Y-94573072D01*
X157891703Y-94558859D01*
X158030460Y-94516768D01*
X158158340Y-94448415D01*
X158270427Y-94356427D01*
X158362415Y-94244340D01*
X158369000Y-94232020D01*
X158375585Y-94244340D01*
X158467573Y-94356427D01*
X158579660Y-94448415D01*
X158707540Y-94516768D01*
X158846297Y-94558859D01*
X158990600Y-94573072D01*
X160287400Y-94573072D01*
X160431703Y-94558859D01*
X160570460Y-94516768D01*
X160698340Y-94448415D01*
X160810427Y-94356427D01*
X160902415Y-94244340D01*
X160970768Y-94116460D01*
X161012859Y-93977703D01*
X161027072Y-93833400D01*
X161027072Y-92736600D01*
X161012859Y-92592297D01*
X160970768Y-92453540D01*
X160907407Y-92335000D01*
X160970768Y-92216460D01*
X161012859Y-92077703D01*
X161027072Y-91933400D01*
X161027072Y-90836600D01*
X161012859Y-90692297D01*
X160970768Y-90553540D01*
X160902415Y-90425660D01*
X160810427Y-90313573D01*
X160698340Y-90221585D01*
X160570460Y-90153232D01*
X160431703Y-90111141D01*
X160399000Y-90107920D01*
X160399000Y-89190255D01*
X160443460Y-89176768D01*
X160571340Y-89108415D01*
X160683427Y-89016427D01*
X160775415Y-88904340D01*
X160843768Y-88776460D01*
X160865445Y-88705000D01*
X163354199Y-88705000D01*
X163743928Y-89094730D01*
X163743928Y-90158000D01*
X163756188Y-90282482D01*
X163792498Y-90402180D01*
X163851463Y-90512494D01*
X163930815Y-90609185D01*
X164027506Y-90688537D01*
X164137820Y-90747502D01*
X164257518Y-90783812D01*
X164382000Y-90796072D01*
X165882000Y-90796072D01*
X166006482Y-90783812D01*
X166126180Y-90747502D01*
X166236494Y-90688537D01*
X166333185Y-90609185D01*
X166412537Y-90512494D01*
X166471502Y-90402180D01*
X166507812Y-90282482D01*
X166520072Y-90158000D01*
X166520072Y-88658000D01*
X166507812Y-88533518D01*
X166471502Y-88413820D01*
X166412537Y-88303506D01*
X166333185Y-88206815D01*
X166236494Y-88127463D01*
X166126180Y-88068498D01*
X166006482Y-88032188D01*
X165898517Y-88021555D01*
X166014886Y-87943799D01*
X166207799Y-87750886D01*
X166359371Y-87524043D01*
X166463775Y-87271989D01*
X166517000Y-87004411D01*
X166517000Y-86731589D01*
X166463775Y-86464011D01*
X166359371Y-86211957D01*
X166207799Y-85985114D01*
X166014886Y-85792201D01*
X165788043Y-85640629D01*
X165535989Y-85536225D01*
X165268411Y-85483000D01*
X164995589Y-85483000D01*
X164850635Y-85511833D01*
X160742804Y-81404003D01*
X160719001Y-81374999D01*
X160607072Y-81283141D01*
X160607072Y-81266600D01*
X160592859Y-81122297D01*
X160550768Y-80983540D01*
X160482415Y-80855660D01*
X160390427Y-80743573D01*
X160278340Y-80651585D01*
X160150460Y-80583232D01*
X160011703Y-80541141D01*
X159867400Y-80526928D01*
X158770600Y-80526928D01*
X158626297Y-80541141D01*
X158487540Y-80583232D01*
X158369000Y-80646593D01*
X158250460Y-80583232D01*
X158111703Y-80541141D01*
X157967400Y-80526928D01*
X156870600Y-80526928D01*
X156726297Y-80541141D01*
X156587540Y-80583232D01*
X156459660Y-80651585D01*
X156347573Y-80743573D01*
X156255585Y-80855660D01*
X156187232Y-80983540D01*
X156145141Y-81122297D01*
X156141920Y-81155000D01*
X155516080Y-81155000D01*
X155512859Y-81122297D01*
X155470768Y-80983540D01*
X155402415Y-80855660D01*
X155310427Y-80743573D01*
X155198340Y-80651585D01*
X155070460Y-80583232D01*
X154931703Y-80541141D01*
X154787400Y-80526928D01*
X153690600Y-80526928D01*
X153546297Y-80541141D01*
X153407540Y-80583232D01*
X153289000Y-80646593D01*
X153170460Y-80583232D01*
X153031703Y-80541141D01*
X152887400Y-80526928D01*
X151790600Y-80526928D01*
X151646297Y-80541141D01*
X151507540Y-80583232D01*
X151379660Y-80651585D01*
X151267573Y-80743573D01*
X151175585Y-80855660D01*
X151107232Y-80983540D01*
X151065141Y-81122297D01*
X151061920Y-81155000D01*
X150436080Y-81155000D01*
X150432859Y-81122297D01*
X150390768Y-80983540D01*
X150322415Y-80855660D01*
X150230427Y-80743573D01*
X150118340Y-80651585D01*
X149990460Y-80583232D01*
X149865977Y-80545471D01*
X149864546Y-80540753D01*
X149793974Y-80408724D01*
X149699001Y-80292999D01*
X149669998Y-80269197D01*
X149407804Y-80007003D01*
X149384001Y-79977999D01*
X149367847Y-79964741D01*
X149454291Y-80010947D01*
X149619715Y-80061128D01*
X149791750Y-80078072D01*
X150279250Y-80078072D01*
X150451285Y-80061128D01*
X150616709Y-80010947D01*
X150769164Y-79929458D01*
X150902792Y-79819792D01*
X151012458Y-79686164D01*
X151093947Y-79533709D01*
X151104173Y-79500000D01*
X151460951Y-79500000D01*
X151549820Y-79547502D01*
X151669518Y-79583812D01*
X151794000Y-79596072D01*
X153794000Y-79596072D01*
X153918482Y-79583812D01*
X154038180Y-79547502D01*
X154148494Y-79488537D01*
X154245185Y-79409185D01*
X154324537Y-79312494D01*
X154383502Y-79202180D01*
X154419812Y-79082482D01*
X154432072Y-78958000D01*
X154432072Y-77858000D01*
X154419812Y-77733518D01*
X154383502Y-77613820D01*
X154353665Y-77558000D01*
X154383502Y-77502180D01*
X154419812Y-77382482D01*
X154432072Y-77258000D01*
X154432072Y-76158000D01*
X154419812Y-76033518D01*
X154383502Y-75913820D01*
X154353665Y-75858000D01*
X154383502Y-75802180D01*
X154419812Y-75682482D01*
X154432072Y-75558000D01*
X154432072Y-74458000D01*
X155955928Y-74458000D01*
X155955928Y-75558000D01*
X155968188Y-75682482D01*
X156004498Y-75802180D01*
X156034335Y-75858000D01*
X156004498Y-75913820D01*
X155968188Y-76033518D01*
X155955928Y-76158000D01*
X155955928Y-77258000D01*
X155968188Y-77382482D01*
X156004498Y-77502180D01*
X156034335Y-77558000D01*
X156004498Y-77613820D01*
X155968188Y-77733518D01*
X155955928Y-77858000D01*
X155955928Y-78958000D01*
X155968188Y-79082482D01*
X156004498Y-79202180D01*
X156063463Y-79312494D01*
X156142815Y-79409185D01*
X156239506Y-79488537D01*
X156349820Y-79547502D01*
X156469518Y-79583812D01*
X156594000Y-79596072D01*
X158594000Y-79596072D01*
X158718482Y-79583812D01*
X158838180Y-79547502D01*
X158948494Y-79488537D01*
X159045185Y-79409185D01*
X159124537Y-79312494D01*
X159183502Y-79202180D01*
X159219812Y-79082482D01*
X159232072Y-78958000D01*
X159232072Y-77858000D01*
X159219812Y-77733518D01*
X159210656Y-77703336D01*
X159410061Y-77743000D01*
X159613939Y-77743000D01*
X159813898Y-77703226D01*
X160002256Y-77625205D01*
X160171774Y-77511937D01*
X160315937Y-77367774D01*
X160429205Y-77198256D01*
X160507226Y-77009898D01*
X160547000Y-76809939D01*
X160547000Y-76606061D01*
X160507226Y-76406102D01*
X160429205Y-76217744D01*
X160315937Y-76048226D01*
X160171774Y-75904063D01*
X160002256Y-75790795D01*
X159813898Y-75712774D01*
X159613939Y-75673000D01*
X159410061Y-75673000D01*
X159210656Y-75712664D01*
X159219812Y-75682482D01*
X159232072Y-75558000D01*
X159232072Y-74458000D01*
X159219812Y-74333518D01*
X159183502Y-74213820D01*
X159124537Y-74103506D01*
X159045185Y-74006815D01*
X158948494Y-73927463D01*
X158838180Y-73868498D01*
X158718482Y-73832188D01*
X158594000Y-73819928D01*
X156594000Y-73819928D01*
X156469518Y-73832188D01*
X156349820Y-73868498D01*
X156239506Y-73927463D01*
X156142815Y-74006815D01*
X156063463Y-74103506D01*
X156004498Y-74213820D01*
X155968188Y-74333518D01*
X155955928Y-74458000D01*
X154432072Y-74458000D01*
X154419812Y-74333518D01*
X154383502Y-74213820D01*
X154324537Y-74103506D01*
X154245185Y-74006815D01*
X154148494Y-73927463D01*
X154038180Y-73868498D01*
X153918482Y-73832188D01*
X153794000Y-73819928D01*
X151794000Y-73819928D01*
X151669518Y-73832188D01*
X151549820Y-73868498D01*
X151483401Y-73904000D01*
X151104173Y-73904000D01*
X151093947Y-73870291D01*
X151029824Y-73750324D01*
X167465000Y-73750324D01*
X167465000Y-74249676D01*
X167562418Y-74739432D01*
X167753512Y-75200773D01*
X168030937Y-75615968D01*
X168384032Y-75969063D01*
X168799227Y-76246488D01*
X169260568Y-76437582D01*
X169750324Y-76535000D01*
X170249676Y-76535000D01*
X170739432Y-76437582D01*
X171200773Y-76246488D01*
X171615968Y-75969063D01*
X171969063Y-75615968D01*
X172246488Y-75200773D01*
X172437582Y-74739432D01*
X172535000Y-74249676D01*
X172535000Y-73750324D01*
X172437582Y-73260568D01*
X172246488Y-72799227D01*
X171969063Y-72384032D01*
X171615968Y-72030937D01*
X171200773Y-71753512D01*
X170739432Y-71562418D01*
X170249676Y-71465000D01*
X169750324Y-71465000D01*
X169260568Y-71562418D01*
X168799227Y-71753512D01*
X168384032Y-72030937D01*
X168030937Y-72384032D01*
X167753512Y-72799227D01*
X167562418Y-73260568D01*
X167465000Y-73750324D01*
X151029824Y-73750324D01*
X151012458Y-73717836D01*
X150902792Y-73584208D01*
X150769164Y-73474542D01*
X150616709Y-73393053D01*
X150451285Y-73342872D01*
X150279250Y-73325928D01*
X149791750Y-73325928D01*
X149619715Y-73342872D01*
X149454291Y-73393053D01*
X149301836Y-73474542D01*
X149168208Y-73584208D01*
X149098000Y-73669756D01*
X149027792Y-73584208D01*
X148894164Y-73474542D01*
X148741709Y-73393053D01*
X148576285Y-73342872D01*
X148404250Y-73325928D01*
X147916750Y-73325928D01*
X147744715Y-73342872D01*
X147579291Y-73393053D01*
X147426836Y-73474542D01*
X147293208Y-73584208D01*
X147183542Y-73717836D01*
X147102053Y-73870291D01*
X147091827Y-73904000D01*
X140532080Y-73904000D01*
X140494757Y-73900324D01*
X140457434Y-73904000D01*
X140457425Y-73904000D01*
X140345772Y-73914997D01*
X140202511Y-73958454D01*
X140070482Y-74029026D01*
X140055814Y-74041064D01*
X139983754Y-74100201D01*
X139983750Y-74100205D01*
X139954757Y-74123999D01*
X139930963Y-74152992D01*
X134835000Y-79248956D01*
X134835000Y-79101740D01*
X134777932Y-78814842D01*
X134665990Y-78544589D01*
X134503475Y-78301368D01*
X134296632Y-78094525D01*
X134053411Y-77932010D01*
X133783158Y-77820068D01*
X133496260Y-77763000D01*
X133203740Y-77763000D01*
X132916842Y-77820068D01*
X132646589Y-77932010D01*
X132403368Y-78094525D01*
X132196525Y-78301368D01*
X132080000Y-78475760D01*
X131963475Y-78301368D01*
X131756632Y-78094525D01*
X131513411Y-77932010D01*
X131243158Y-77820068D01*
X130956260Y-77763000D01*
X130663740Y-77763000D01*
X130376842Y-77820068D01*
X130162035Y-77909044D01*
X131001079Y-77070000D01*
X131783785Y-77070000D01*
X131895836Y-77161958D01*
X132048291Y-77243447D01*
X132213715Y-77293628D01*
X132385750Y-77310572D01*
X133298250Y-77310572D01*
X133470285Y-77293628D01*
X133635709Y-77243447D01*
X133788164Y-77161958D01*
X133867139Y-77097145D01*
X133927836Y-77146958D01*
X134080291Y-77228447D01*
X134245715Y-77278628D01*
X134417750Y-77295572D01*
X135330250Y-77295572D01*
X135502285Y-77278628D01*
X135667709Y-77228447D01*
X135820164Y-77146958D01*
X135953792Y-77037292D01*
X136063458Y-76903664D01*
X136144947Y-76751209D01*
X136195128Y-76585785D01*
X136212072Y-76413750D01*
X136212072Y-75926250D01*
X136195128Y-75754215D01*
X136144947Y-75588791D01*
X136063458Y-75436336D01*
X135953792Y-75302708D01*
X135868244Y-75232500D01*
X135953792Y-75162292D01*
X136063458Y-75028664D01*
X136144947Y-74876209D01*
X136195128Y-74710785D01*
X136212072Y-74538750D01*
X136212072Y-74051250D01*
X136195128Y-73879215D01*
X136144947Y-73713791D01*
X136063458Y-73561336D01*
X135953792Y-73427708D01*
X135820164Y-73318042D01*
X135667709Y-73236553D01*
X135502285Y-73186372D01*
X135330250Y-73169428D01*
X134417750Y-73169428D01*
X134245715Y-73186372D01*
X134080291Y-73236553D01*
X133927836Y-73318042D01*
X133848861Y-73382855D01*
X133788164Y-73333042D01*
X133783179Y-73330378D01*
X133837226Y-73199898D01*
X133877000Y-72999939D01*
X133877000Y-72796061D01*
X133837226Y-72596102D01*
X133759205Y-72407744D01*
X133645937Y-72238226D01*
X133501774Y-72094063D01*
X133332256Y-71980795D01*
X133143898Y-71902774D01*
X132943939Y-71863000D01*
X132740061Y-71863000D01*
X132540102Y-71902774D01*
X132351744Y-71980795D01*
X132182226Y-72094063D01*
X132038063Y-72238226D01*
X131924795Y-72407744D01*
X131846774Y-72596102D01*
X131807000Y-72796061D01*
X131807000Y-72999939D01*
X131846774Y-73199898D01*
X131900821Y-73330378D01*
X131895836Y-73333042D01*
X131762208Y-73442708D01*
X131652542Y-73576336D01*
X131571053Y-73728791D01*
X131520872Y-73894215D01*
X131503928Y-74066250D01*
X131503928Y-74553750D01*
X131520872Y-74725785D01*
X131571053Y-74891209D01*
X131652542Y-75043664D01*
X131762208Y-75177292D01*
X131847756Y-75247500D01*
X131783785Y-75300000D01*
X130677965Y-75300000D01*
X130634499Y-75295719D01*
X130591033Y-75300000D01*
X130591023Y-75300000D01*
X130461010Y-75312805D01*
X130294187Y-75363411D01*
X130140441Y-75445589D01*
X130140439Y-75445590D01*
X130140440Y-75445590D01*
X130039453Y-75528468D01*
X130039451Y-75528470D01*
X130005683Y-75556183D01*
X129977970Y-75589951D01*
X127992456Y-77575466D01*
X127958683Y-77603183D01*
X127848089Y-77737942D01*
X127765911Y-77891688D01*
X127715305Y-78058511D01*
X127702500Y-78188524D01*
X127702500Y-78188531D01*
X127698219Y-78232000D01*
X120660000Y-78232000D01*
X120660000Y-74032278D01*
X120687645Y-73750324D01*
X121465000Y-73750324D01*
X121465000Y-74249676D01*
X121562418Y-74739432D01*
X121753512Y-75200773D01*
X122030937Y-75615968D01*
X122384032Y-75969063D01*
X122799227Y-76246488D01*
X123260568Y-76437582D01*
X123750324Y-76535000D01*
X124249676Y-76535000D01*
X124739432Y-76437582D01*
X125200773Y-76246488D01*
X125615968Y-75969063D01*
X125969063Y-75615968D01*
X126246488Y-75200773D01*
X126437582Y-74739432D01*
X126535000Y-74249676D01*
X126535000Y-73750324D01*
X126437582Y-73260568D01*
X126246488Y-72799227D01*
X125969063Y-72384032D01*
X125615968Y-72030937D01*
X125200773Y-71753512D01*
X124739432Y-71562418D01*
X124249676Y-71465000D01*
X123750324Y-71465000D01*
X123260568Y-71562418D01*
X122799227Y-71753512D01*
X122384032Y-72030937D01*
X122030937Y-72384032D01*
X121753512Y-72799227D01*
X121562418Y-73260568D01*
X121465000Y-73750324D01*
X120687645Y-73750324D01*
X120726714Y-73351874D01*
X120914943Y-72728428D01*
X121220681Y-72153421D01*
X121632279Y-71648753D01*
X122134067Y-71233638D01*
X122706924Y-70923895D01*
X123329039Y-70731318D01*
X124007584Y-70660000D01*
X169967722Y-70660000D01*
X170648126Y-70726714D01*
M02*
