M48
; DRILL file {KiCad (5.1.6)-1} date 07/08/20 14:04:09
; FORMAT={-:-/ absolute / inch / decimal}
; #@! TF.CreationDate,2020-07-08T14:04:09+02:00
; #@! TF.GenerationSoftware,Kicad,Pcbnew,(5.1.6)-1
; #@! TF.FileFunction,Plated,1,2,PTH
FMAT,2
INCH
T1C0.0157
T2C0.0256
T3C0.0394
T4C0.0866
%
G90
G05
T1
X4.9275Y-4.82
X4.9275Y-4.9325
X5.23Y-2.87
X5.4272Y-3.5728
X5.44Y-3.45
X5.44Y-3.71
X5.51Y-3.45
X5.59Y-3.45
X5.68Y-3.46
X5.8225Y-3.35
X5.865Y-4.3525
X5.885Y-3.425
X5.94Y-3.29
X5.9675Y-4.265
X6.0525Y-4.62
X6.1025Y-4.62
X6.15Y-3.525
X6.1525Y-4.62
X6.23Y-3.525
X6.28Y-3.02
X6.45Y-4.5575
X6.4524Y-4.3626
T2
X6.5013Y-3.42
X6.5013Y-3.52
T3
X4.9925Y-4.1119
X5.0925Y-4.1119
X5.1925Y-4.1119
X5.2925Y-4.1119
X5.3925Y-4.1119
X5.4925Y-4.1119
X5.5925Y-4.1119
X5.6925Y-4.1119
X5.7925Y-4.1119
X5.8925Y-4.1119
X6.34Y-4.2025
X6.44Y-4.2025
X5.15Y-3.12
X5.15Y-3.22
X5.15Y-3.32
X5.15Y-3.42
X5.15Y-3.52
X5.15Y-3.62
X5.25Y-3.12
X5.25Y-3.22
X5.25Y-3.32
X5.25Y-3.42
X5.25Y-3.52
X5.25Y-3.62
X6.735Y-4.1125
X6.735Y-4.2125
X6.735Y-4.3125
X6.735Y-4.4125
X6.735Y-4.5125
X4.94Y-4.6
X4.94Y-4.7
X5.04Y-4.6
X5.04Y-4.7
X5.14Y-4.6
X5.14Y-4.7
X5.24Y-4.6
X5.24Y-4.7
X5.34Y-4.6
X5.34Y-4.7
X5.44Y-4.6
X5.44Y-4.7
X5.43Y-3.19
X5.53Y-3.19
X5.63Y-3.19
X6.12Y-4.8675
X6.22Y-4.8675
X6.32Y-4.8675
X6.5925Y-4.1119
X6.5925Y-4.2119
X6.5925Y-4.3119
X6.5925Y-4.4119
X6.5925Y-4.5119
X6.5925Y-4.6119
X6.5925Y-4.7119
X6.5925Y-4.8119
X6.5925Y-4.9119
X6.5925Y-5.0119
T4
X4.8819Y-3.7795
X4.8819Y-2.9134
X6.6929Y-3.7795
X6.6929Y-2.9134
T0
M30
